<?xml version="1.0" encoding="UTF-8"?>
<svg xmlns="http://www.w3.org/2000/svg" width="800.000" height="600.000" viewBox="0.0 0.0 800.000 600.000" version="1.1">
  <desc>Produce by Acme CAD Converter</desc>
<path d="M318.46 381.13L510.03 381.13"
fill="none" stroke="black" stroke-width="0.5"/>
<path d="M510.03 381.13L510.03 189.57Z"
fill="none" stroke="black" stroke-width="0.5"/>
<path d="M510.03 189.57L318.46 189.57"
fill="none" stroke="black" stroke-width="0.5"/>
<path d="M318.46 189.57L318.46 381.13Z"
fill="none" stroke="black" stroke-width="0.5"/>
<path d="M414.25 285.35L414.25 285.35Z"
fill="none" stroke="black" stroke-width="0.5"/>
<path d="M548.34 285.35L548.15 292.61"
fill="none" stroke="black" stroke-width="0.5"/>
<path d="M548.15 292.61L547.56 299.85"
fill="none" stroke="black" stroke-width="0.5"/>
<path d="M547.56 299.85L546.58 307.05"
fill="none" stroke="black" stroke-width="0.5"/>
<path d="M546.58 307.05L545.21 314.18"
fill="none" stroke="black" stroke-width="0.5"/>
<path d="M545.21 314.18L543.46 321.23"
fill="none" stroke="black" stroke-width="0.5"/>
<path d="M543.46 321.23L541.32 328.17"
fill="none" stroke="black" stroke-width="0.5"/>
<path d="M541.32 328.17L538.82 334.99"
fill="none" stroke="black" stroke-width="0.5"/>
<path d="M538.82 334.99L535.95 341.66"
fill="none" stroke="black" stroke-width="0.5"/>
<path d="M535.95 341.66L532.72 348.16"
fill="none" stroke="black" stroke-width="0.5"/>
<path d="M532.72 348.16L529.15 354.48"
fill="none" stroke="black" stroke-width="0.5"/>
<path d="M529.15 354.48L525.24 360.6"
fill="none" stroke="black" stroke-width="0.5"/>
<path d="M525.24 360.6L521 366.5"
fill="none" stroke="black" stroke-width="0.5"/>
<path d="M521 366.5L516.45 372.16"
fill="none" stroke="black" stroke-width="0.5"/>
<path d="M516.45 372.16L511.6 377.57"
fill="none" stroke="black" stroke-width="0.5"/>
<path d="M511.6 377.57L506.47 382.7"
fill="none" stroke="black" stroke-width="0.5"/>
<path d="M506.47 382.7L501.06 387.55"
fill="none" stroke="black" stroke-width="0.5"/>
<path d="M501.06 387.55L495.4 392.1"
fill="none" stroke="black" stroke-width="0.5"/>
<path d="M495.4 392.1L489.5 396.34"
fill="none" stroke="black" stroke-width="0.5"/>
<path d="M489.5 396.34L483.38 400.25"
fill="none" stroke="black" stroke-width="0.5"/>
<path d="M483.38 400.25L477.06 403.83"
fill="none" stroke="black" stroke-width="0.5"/>
<path d="M477.06 403.83L470.55 407.05"
fill="none" stroke="black" stroke-width="0.5"/>
<path d="M470.55 407.05L463.88 409.92"
fill="none" stroke="black" stroke-width="0.5"/>
<path d="M463.88 409.92L457.06 412.43"
fill="none" stroke="black" stroke-width="0.5"/>
<path d="M457.06 412.43L450.12 414.56"
fill="none" stroke="black" stroke-width="0.5"/>
<path d="M450.12 414.56L443.07 416.31"
fill="none" stroke="black" stroke-width="0.5"/>
<path d="M443.07 416.31L435.94 417.68"
fill="none" stroke="black" stroke-width="0.5"/>
<path d="M435.94 417.68L428.75 418.66"
fill="none" stroke="black" stroke-width="0.5"/>
<path d="M428.75 418.66L421.51 419.25"
fill="none" stroke="black" stroke-width="0.5"/>
<path d="M421.51 419.25L414.25 419.45"
fill="none" stroke="black" stroke-width="0.5"/>
<path d="M414.25 419.45L406.99 419.25"
fill="none" stroke="black" stroke-width="0.5"/>
<path d="M406.99 419.25L399.75 418.66"
fill="none" stroke="black" stroke-width="0.5"/>
<path d="M399.75 418.66L392.55 417.68"
fill="none" stroke="black" stroke-width="0.5"/>
<path d="M392.55 417.68L385.42 416.31"
fill="none" stroke="black" stroke-width="0.5"/>
<path d="M385.42 416.31L378.37 414.56"
fill="none" stroke="black" stroke-width="0.5"/>
<path d="M378.37 414.56L371.43 412.43"
fill="none" stroke="black" stroke-width="0.5"/>
<path d="M371.43 412.43L364.61 409.92"
fill="none" stroke="black" stroke-width="0.5"/>
<path d="M364.61 409.92L357.94 407.05"
fill="none" stroke="black" stroke-width="0.5"/>
<path d="M357.94 407.05L351.44 403.83"
fill="none" stroke="black" stroke-width="0.5"/>
<path d="M351.44 403.83L345.11 400.25"
fill="none" stroke="black" stroke-width="0.5"/>
<path d="M345.11 400.25L338.99 396.34"
fill="none" stroke="black" stroke-width="0.5"/>
<path d="M338.99 396.34L333.1 392.1"
fill="none" stroke="black" stroke-width="0.5"/>
<path d="M333.1 392.1L327.44 387.55"
fill="none" stroke="black" stroke-width="0.5"/>
<path d="M327.44 387.55L322.03 382.7"
fill="none" stroke="black" stroke-width="0.5"/>
<path d="M322.03 382.7L316.89 377.57"
fill="none" stroke="black" stroke-width="0.5"/>
<path d="M316.89 377.57L312.04 372.16"
fill="none" stroke="black" stroke-width="0.5"/>
<path d="M312.04 372.16L307.49 366.5"
fill="none" stroke="black" stroke-width="0.5"/>
<path d="M307.49 366.5L303.26 360.6"
fill="none" stroke="black" stroke-width="0.5"/>
<path d="M303.26 360.6L299.35 354.48"
fill="none" stroke="black" stroke-width="0.5"/>
<path d="M299.35 354.48L295.77 348.16"
fill="none" stroke="black" stroke-width="0.5"/>
<path d="M295.77 348.16L292.54 341.66"
fill="none" stroke="black" stroke-width="0.5"/>
<path d="M292.54 341.66L289.67 334.99"
fill="none" stroke="black" stroke-width="0.5"/>
<path d="M289.67 334.99L287.17 328.17"
fill="none" stroke="black" stroke-width="0.5"/>
<path d="M287.17 328.17L285.04 321.23"
fill="none" stroke="black" stroke-width="0.5"/>
<path d="M285.04 321.23L283.29 314.18"
fill="none" stroke="black" stroke-width="0.5"/>
<path d="M283.29 314.18L281.92 307.05"
fill="none" stroke="black" stroke-width="0.5"/>
<path d="M281.92 307.05L280.94 299.85"
fill="none" stroke="black" stroke-width="0.5"/>
<path d="M280.94 299.85L280.35 292.61"
fill="none" stroke="black" stroke-width="0.5"/>
<path d="M280.35 292.61L280.15 285.35"
fill="none" stroke="black" stroke-width="0.5"/>
<path d="M280.15 285.35L280.35 278.09"
fill="none" stroke="black" stroke-width="0.5"/>
<path d="M280.35 278.09L280.94 270.85"
fill="none" stroke="black" stroke-width="0.5"/>
<path d="M280.94 270.85L281.92 263.66"
fill="none" stroke="black" stroke-width="0.5"/>
<path d="M281.92 263.66L283.29 256.52"
fill="none" stroke="black" stroke-width="0.5"/>
<path d="M283.29 256.52L285.04 249.48"
fill="none" stroke="black" stroke-width="0.5"/>
<path d="M285.04 249.48L287.17 242.53"
fill="none" stroke="black" stroke-width="0.5"/>
<path d="M287.17 242.53L289.67 235.72"
fill="none" stroke="black" stroke-width="0.5"/>
<path d="M289.67 235.72L292.54 229.04"
fill="none" stroke="black" stroke-width="0.5"/>
<path d="M292.54 229.04L295.77 222.54"
fill="none" stroke="black" stroke-width="0.5"/>
<path d="M295.77 222.54L299.35 216.22"
fill="none" stroke="black" stroke-width="0.5"/>
<path d="M299.35 216.22L303.26 210.1"
fill="none" stroke="black" stroke-width="0.5"/>
<path d="M303.26 210.1L307.49 204.2"
fill="none" stroke="black" stroke-width="0.5"/>
<path d="M307.49 204.2L312.04 198.54"
fill="none" stroke="black" stroke-width="0.5"/>
<path d="M312.04 198.54L316.89 193.13"
fill="none" stroke="black" stroke-width="0.5"/>
<path d="M316.89 193.13L322.03 188"
fill="none" stroke="black" stroke-width="0.5"/>
<path d="M322.03 188L327.44 183.15"
fill="none" stroke="black" stroke-width="0.5"/>
<path d="M327.44 183.15L333.1 178.6"
fill="none" stroke="black" stroke-width="0.5"/>
<path d="M333.1 178.6L338.99 174.36"
fill="none" stroke="black" stroke-width="0.5"/>
<path d="M338.99 174.36L345.11 170.45"
fill="none" stroke="black" stroke-width="0.5"/>
<path d="M345.11 170.45L351.44 166.87"
fill="none" stroke="black" stroke-width="0.5"/>
<path d="M351.44 166.87L357.94 163.65"
fill="none" stroke="black" stroke-width="0.5"/>
<path d="M357.94 163.65L364.61 160.78"
fill="none" stroke="black" stroke-width="0.5"/>
<path d="M364.61 160.78L371.43 158.27"
fill="none" stroke="black" stroke-width="0.5"/>
<path d="M371.43 158.27L378.37 156.14"
fill="none" stroke="black" stroke-width="0.5"/>
<path d="M378.37 156.14L385.42 154.39"
fill="none" stroke="black" stroke-width="0.5"/>
<path d="M385.42 154.39L392.55 153.02"
fill="none" stroke="black" stroke-width="0.5"/>
<path d="M392.55 153.02L399.75 152.04"
fill="none" stroke="black" stroke-width="0.5"/>
<path d="M399.75 152.04L406.99 151.45"
fill="none" stroke="black" stroke-width="0.5"/>
<path d="M406.99 151.45L414.25 151.25"
fill="none" stroke="black" stroke-width="0.5"/>
<path d="M414.25 151.25L421.51 151.45"
fill="none" stroke="black" stroke-width="0.5"/>
<path d="M421.51 151.45L428.75 152.04"
fill="none" stroke="black" stroke-width="0.5"/>
<path d="M428.75 152.04L435.94 153.02"
fill="none" stroke="black" stroke-width="0.5"/>
<path d="M435.94 153.02L443.07 154.39"
fill="none" stroke="black" stroke-width="0.5"/>
<path d="M443.07 154.39L450.12 156.14"
fill="none" stroke="black" stroke-width="0.5"/>
<path d="M450.12 156.14L457.06 158.27"
fill="none" stroke="black" stroke-width="0.5"/>
<path d="M457.06 158.27L463.88 160.78"
fill="none" stroke="black" stroke-width="0.5"/>
<path d="M463.88 160.78L470.55 163.65"
fill="none" stroke="black" stroke-width="0.5"/>
<path d="M470.55 163.65L477.06 166.87"
fill="none" stroke="black" stroke-width="0.5"/>
<path d="M477.06 166.87L483.38 170.45"
fill="none" stroke="black" stroke-width="0.5"/>
<path d="M483.38 170.45L489.5 174.36"
fill="none" stroke="black" stroke-width="0.5"/>
<path d="M489.5 174.36L495.4 178.6"
fill="none" stroke="black" stroke-width="0.5"/>
<path d="M495.4 178.6L501.06 183.15"
fill="none" stroke="black" stroke-width="0.5"/>
<path d="M501.06 183.15L506.47 188"
fill="none" stroke="black" stroke-width="0.5"/>
<path d="M506.47 188L511.6 193.13"
fill="none" stroke="black" stroke-width="0.5"/>
<path d="M511.6 193.13L516.45 198.54"
fill="none" stroke="black" stroke-width="0.5"/>
<path d="M516.45 198.54L521 204.2"
fill="none" stroke="black" stroke-width="0.5"/>
<path d="M521 204.2L525.24 210.1"
fill="none" stroke="black" stroke-width="0.5"/>
<path d="M525.24 210.1L529.15 216.22"
fill="none" stroke="black" stroke-width="0.5"/>
<path d="M529.15 216.22L532.72 222.54"
fill="none" stroke="black" stroke-width="0.5"/>
<path d="M532.72 222.54L535.95 229.04"
fill="none" stroke="black" stroke-width="0.5"/>
<path d="M535.95 229.04L538.82 235.72"
fill="none" stroke="black" stroke-width="0.5"/>
<path d="M538.82 235.72L541.32 242.53"
fill="none" stroke="black" stroke-width="0.5"/>
<path d="M541.32 242.53L543.46 249.48"
fill="none" stroke="black" stroke-width="0.5"/>
<path d="M543.46 249.48L545.21 256.52"
fill="none" stroke="black" stroke-width="0.5"/>
<path d="M545.21 256.52L546.58 263.66"
fill="none" stroke="black" stroke-width="0.5"/>
<path d="M546.58 263.66L547.56 270.85"
fill="none" stroke="black" stroke-width="0.5"/>
<path d="M547.56 270.85L548.15 278.09"
fill="none" stroke="black" stroke-width="0.5"/>
<path d="M548.15 278.09L548.34 285.35"
fill="none" stroke="black" stroke-width="0.5"/>
</svg>
