<?xml version="1.0" encoding="UTF-8"?>
<svg xmlns="http://www.w3.org/2000/svg" width="800.000" height="600.000" viewBox="0.0 0.0 800.000 600.000" version="1.1">
  <desc>Produce by Acme CAD Converter</desc>
<path d="M294.48 185.73L314.47 165.74 418.68 269.95 378.71 269.95 294.48 185.73Z"
fill="black" stroke="black" stroke-width="0.2"/>
<path d="M378.71 269.95L418.68 269.95 314.47 374.16 294.48 354.17 378.71 269.95Z"
fill="black" stroke="black" stroke-width="0.2"/>
<path d="M304.48 255.82L307.62 256.17 304.48 269.95 304.48 269.95 304.48 255.82Z"
fill-rule="nonzero" fill="black"/>
<path d="M307.62 256.17L310.61 257.22 304.48 269.95 304.48 269.95 307.62 256.17Z"
fill-rule="nonzero" fill="black"/>
<path d="M310.61 257.22L313.29 258.9 304.48 269.95 304.48 269.95 310.61 257.22Z"
fill-rule="nonzero" fill="black"/>
<path d="M313.29 258.9L315.53 261.14 304.48 269.95 304.48 269.95 313.29 258.9Z"
fill-rule="nonzero" fill="black"/>
<path d="M315.53 261.14L317.21 263.82 304.48 269.95 304.48 269.95 315.53 261.14Z"
fill-rule="nonzero" fill="black"/>
<path d="M317.21 263.82L318.26 266.81 304.48 269.95 304.48 269.95 317.21 263.82Z"
fill-rule="nonzero" fill="black"/>
<path d="M318.26 266.81L318.61 269.95 304.48 269.95 304.48 269.95 318.26 266.81Z"
fill-rule="nonzero" fill="black"/>
<path d="M318.61 269.95L318.26 273.1 304.48 269.95 304.48 269.95 318.61 269.95Z"
fill-rule="nonzero" fill="black"/>
<path d="M318.26 273.1L317.21 276.08 304.48 269.95 304.48 269.95 318.26 273.1Z"
fill-rule="nonzero" fill="black"/>
<path d="M317.21 276.08L315.53 278.76 304.48 269.95 304.48 269.95 317.21 276.08Z"
fill-rule="nonzero" fill="black"/>
<path d="M315.53 278.76L313.29 281 304.48 269.95 304.48 269.95 315.53 278.76Z"
fill-rule="nonzero" fill="black"/>
<path d="M313.29 281L310.61 282.68 304.48 269.95 304.48 269.95 313.29 281Z"
fill-rule="nonzero" fill="black"/>
<path d="M310.61 282.68L307.62 283.73 304.48 269.95 304.48 269.95 310.61 282.68Z"
fill-rule="nonzero" fill="black"/>
<path d="M307.62 283.73L304.48 284.08 304.48 269.95 304.48 269.95 307.62 283.73Z"
fill-rule="nonzero" fill="black"/>
<path d="M304.48 284.08L301.33 283.73 304.48 269.95 304.48 269.95 304.48 284.08Z"
fill-rule="nonzero" fill="black"/>
<path d="M301.33 283.73L298.35 282.68 304.48 269.95 304.48 269.95 301.33 283.73Z"
fill-rule="nonzero" fill="black"/>
<path d="M298.35 282.68L295.67 281 304.48 269.95 304.48 269.95 298.35 282.68Z"
fill-rule="nonzero" fill="black"/>
<path d="M295.67 281L293.43 278.76 304.48 269.95 304.48 269.95 295.67 281Z"
fill-rule="nonzero" fill="black"/>
<path d="M293.43 278.76L291.74 276.08 304.48 269.95 304.48 269.95 293.43 278.76Z"
fill-rule="nonzero" fill="black"/>
<path d="M291.74 276.08L290.7 273.1 304.48 269.95 304.48 269.95 291.74 276.08Z"
fill-rule="nonzero" fill="black"/>
<path d="M290.7 273.1L290.35 269.95 304.48 269.95 304.48 269.95 290.7 273.1Z"
fill-rule="nonzero" fill="black"/>
<path d="M290.35 269.95L290.7 266.81 304.48 269.95 304.48 269.95 290.35 269.95Z"
fill-rule="nonzero" fill="black"/>
<path d="M290.7 266.81L291.74 263.82 304.48 269.95 304.48 269.95 290.7 266.81Z"
fill-rule="nonzero" fill="black"/>
<path d="M291.74 263.82L293.43 261.14 304.48 269.95 304.48 269.95 291.74 263.82Z"
fill-rule="nonzero" fill="black"/>
<path d="M293.43 261.14L295.67 258.9 304.48 269.95 304.48 269.95 293.43 261.14Z"
fill-rule="nonzero" fill="black"/>
<path d="M295.67 258.9L298.35 257.22 304.48 269.95 304.48 269.95 295.67 258.9Z"
fill-rule="nonzero" fill="black"/>
<path d="M298.35 257.22L301.33 256.17 304.48 269.95 304.48 269.95 298.35 257.22Z"
fill-rule="nonzero" fill="black"/>
<path d="M301.33 256.17L304.48 255.82 304.48 269.95 304.48 269.95 301.33 256.17Z"
fill-rule="nonzero" fill="black"/>
<path d="M398.69 350.03L401.84 350.39 398.69 364.17 398.69 364.17 398.69 350.03Z"
fill-rule="nonzero" fill="black"/>
<path d="M401.84 350.39L404.83 351.43 398.69 364.17 398.69 364.17 401.84 350.39Z"
fill-rule="nonzero" fill="black"/>
<path d="M404.83 351.43L407.51 353.12 398.69 364.17 398.69 364.17 404.83 351.43Z"
fill-rule="nonzero" fill="black"/>
<path d="M407.51 353.12L409.74 355.36 398.69 364.17 398.69 364.17 407.51 353.12Z"
fill-rule="nonzero" fill="black"/>
<path d="M409.74 355.36L411.43 358.04 398.69 364.17 398.69 364.17 409.74 355.36Z"
fill-rule="nonzero" fill="black"/>
<path d="M411.43 358.04L412.47 361.02 398.69 364.17 398.69 364.17 411.43 358.04Z"
fill-rule="nonzero" fill="black"/>
<path d="M412.47 361.02L412.83 364.17 398.69 364.17 398.69 364.17 412.47 361.02Z"
fill-rule="nonzero" fill="black"/>
<path d="M412.83 364.17L412.47 367.31 398.69 364.17 398.69 364.17 412.83 364.17Z"
fill-rule="nonzero" fill="black"/>
<path d="M412.47 367.31L411.43 370.3 398.69 364.17 398.69 364.17 412.47 367.31Z"
fill-rule="nonzero" fill="black"/>
<path d="M411.43 370.3L409.74 372.98 398.69 364.17 398.69 364.17 411.43 370.3Z"
fill-rule="nonzero" fill="black"/>
<path d="M409.74 372.98L407.51 375.22 398.69 364.17 398.69 364.17 409.74 372.98Z"
fill-rule="nonzero" fill="black"/>
<path d="M407.51 375.22L404.83 376.9 398.69 364.17 398.69 364.17 407.51 375.22Z"
fill-rule="nonzero" fill="black"/>
<path d="M404.83 376.9L401.84 377.95 398.69 364.17 398.69 364.17 404.83 376.9Z"
fill-rule="nonzero" fill="black"/>
<path d="M401.84 377.95L398.69 378.3 398.69 364.17 398.69 364.17 401.84 377.95Z"
fill-rule="nonzero" fill="black"/>
<path d="M398.69 378.3L395.55 377.95 398.69 364.17 398.69 364.17 398.69 378.3Z"
fill-rule="nonzero" fill="black"/>
<path d="M395.55 377.95L392.56 376.9 398.69 364.17 398.69 364.17 395.55 377.95Z"
fill-rule="nonzero" fill="black"/>
<path d="M392.56 376.9L389.88 375.22 398.69 364.17 398.69 364.17 392.56 376.9Z"
fill-rule="nonzero" fill="black"/>
<path d="M389.88 375.22L387.64 372.98 398.69 364.17 398.69 364.17 389.88 375.22Z"
fill-rule="nonzero" fill="black"/>
<path d="M387.64 372.98L385.96 370.3 398.69 364.17 398.69 364.17 387.64 372.98Z"
fill-rule="nonzero" fill="black"/>
<path d="M385.96 370.3L384.92 367.31 398.69 364.17 398.69 364.17 385.96 370.3Z"
fill-rule="nonzero" fill="black"/>
<path d="M384.92 367.31L384.56 364.17 398.69 364.17 398.69 364.17 384.92 367.31Z"
fill-rule="nonzero" fill="black"/>
<path d="M384.56 364.17L384.92 361.02 398.69 364.17 398.69 364.17 384.56 364.17Z"
fill-rule="nonzero" fill="black"/>
<path d="M384.92 361.02L385.96 358.04 398.69 364.17 398.69 364.17 384.92 361.02Z"
fill-rule="nonzero" fill="black"/>
<path d="M385.96 358.04L387.64 355.36 398.69 364.17 398.69 364.17 385.96 358.04Z"
fill-rule="nonzero" fill="black"/>
<path d="M387.64 355.36L389.88 353.12 398.69 364.17 398.69 364.17 387.64 355.36Z"
fill-rule="nonzero" fill="black"/>
<path d="M389.88 353.12L392.56 351.43 398.69 364.17 398.69 364.17 389.88 353.12Z"
fill-rule="nonzero" fill="black"/>
<path d="M392.56 351.43L395.55 350.39 398.69 364.17 398.69 364.17 392.56 351.43Z"
fill-rule="nonzero" fill="black"/>
<path d="M395.55 350.39L398.69 350.03 398.69 364.17 398.69 364.17 395.55 350.39Z"
fill-rule="nonzero" fill="black"/>
<path d="M478.78 269.95L479.13 273.1 492.91 269.95 492.91 269.95 478.78 269.95Z"
fill-rule="nonzero" fill="black"/>
<path d="M479.13 273.1L480.18 276.08 492.91 269.95 492.91 269.95 479.13 273.1Z"
fill-rule="nonzero" fill="black"/>
<path d="M480.18 276.08L481.86 278.76 492.91 269.95 492.91 269.95 480.18 276.08Z"
fill-rule="nonzero" fill="black"/>
<path d="M481.86 278.76L484.1 281 492.91 269.95 492.91 269.95 481.86 278.76Z"
fill-rule="nonzero" fill="black"/>
<path d="M484.1 281L486.78 282.68 492.91 269.95 492.91 269.95 484.1 281Z"
fill-rule="nonzero" fill="black"/>
<path d="M486.78 282.68L489.77 283.73 492.91 269.95 492.91 269.95 486.78 282.68Z"
fill-rule="nonzero" fill="black"/>
<path d="M489.77 283.73L492.91 284.08 492.91 269.95 492.91 269.95 489.77 283.73Z"
fill-rule="nonzero" fill="black"/>
<path d="M492.91 284.08L496.06 283.73 492.91 269.95 492.91 269.95 492.91 284.08Z"
fill-rule="nonzero" fill="black"/>
<path d="M496.06 283.73L499.04 282.68 492.91 269.95 492.91 269.95 496.06 283.73Z"
fill-rule="nonzero" fill="black"/>
<path d="M499.04 282.68L501.72 281 492.91 269.95 492.91 269.95 499.04 282.68Z"
fill-rule="nonzero" fill="black"/>
<path d="M501.72 281L503.96 278.76 492.91 269.95 492.91 269.95 501.72 281Z"
fill-rule="nonzero" fill="black"/>
<path d="M503.96 278.76L505.64 276.08 492.91 269.95 492.91 269.95 503.96 278.76Z"
fill-rule="nonzero" fill="black"/>
<path d="M505.64 276.08L506.69 273.1 492.91 269.95 492.91 269.95 505.64 276.08Z"
fill-rule="nonzero" fill="black"/>
<path d="M506.69 273.1L507.04 269.95 492.91 269.95 492.91 269.95 506.69 273.1Z"
fill-rule="nonzero" fill="black"/>
<path d="M507.04 269.95L506.69 266.81 492.91 269.95 492.91 269.95 507.04 269.95Z"
fill-rule="nonzero" fill="black"/>
<path d="M506.69 266.81L505.64 263.82 492.91 269.95 492.91 269.95 506.69 266.81Z"
fill-rule="nonzero" fill="black"/>
<path d="M505.64 263.82L503.96 261.14 492.91 269.95 492.91 269.95 505.64 263.82Z"
fill-rule="nonzero" fill="black"/>
<path d="M503.96 261.14L501.72 258.9 492.91 269.95 492.91 269.95 503.96 261.14Z"
fill-rule="nonzero" fill="black"/>
<path d="M501.72 258.9L499.04 257.22 492.91 269.95 492.91 269.95 501.72 258.9Z"
fill-rule="nonzero" fill="black"/>
<path d="M499.04 257.22L496.06 256.17 492.91 269.95 492.91 269.95 499.04 257.22Z"
fill-rule="nonzero" fill="black"/>
<path d="M496.06 256.17L492.91 255.82 492.91 269.95 492.91 269.95 496.06 256.17Z"
fill-rule="nonzero" fill="black"/>
<path d="M492.91 255.82L489.77 256.17 492.91 269.95 492.91 269.95 492.91 255.82Z"
fill-rule="nonzero" fill="black"/>
<path d="M489.77 256.17L486.78 257.22 492.91 269.95 492.91 269.95 489.77 256.17Z"
fill-rule="nonzero" fill="black"/>
<path d="M486.78 257.22L484.1 258.9 492.91 269.95 492.91 269.95 486.78 257.22Z"
fill-rule="nonzero" fill="black"/>
<path d="M484.1 258.9L481.86 261.14 492.91 269.95 492.91 269.95 484.1 258.9Z"
fill-rule="nonzero" fill="black"/>
<path d="M481.86 261.14L480.18 263.82 492.91 269.95 492.91 269.95 481.86 261.14Z"
fill-rule="nonzero" fill="black"/>
<path d="M480.18 263.82L479.13 266.81 492.91 269.95 492.91 269.95 480.18 263.82Z"
fill-rule="nonzero" fill="black"/>
<path d="M479.13 266.81L478.78 269.95 492.91 269.95 492.91 269.95 479.13 266.81Z"
fill-rule="nonzero" fill="black"/>
<path d="M384.56 175.73L384.92 178.88 398.69 175.73 398.69 175.73 384.56 175.73Z"
fill-rule="nonzero" fill="black"/>
<path d="M384.92 178.88L385.96 181.87 398.69 175.73 398.69 175.73 384.92 178.88Z"
fill-rule="nonzero" fill="black"/>
<path d="M385.96 181.87L387.64 184.55 398.69 175.73 398.69 175.73 385.96 181.87Z"
fill-rule="nonzero" fill="black"/>
<path d="M387.64 184.55L389.88 186.78 398.69 175.73 398.69 175.73 387.64 184.55Z"
fill-rule="nonzero" fill="black"/>
<path d="M389.88 186.78L392.56 188.47 398.69 175.73 398.69 175.73 389.88 186.78Z"
fill-rule="nonzero" fill="black"/>
<path d="M392.56 188.47L395.55 189.51 398.69 175.73 398.69 175.73 392.56 188.47Z"
fill-rule="nonzero" fill="black"/>
<path d="M395.55 189.51L398.69 189.87 398.69 175.73 398.69 175.73 395.55 189.51Z"
fill-rule="nonzero" fill="black"/>
<path d="M398.69 189.87L401.84 189.51 398.69 175.73 398.69 175.73 398.69 189.87Z"
fill-rule="nonzero" fill="black"/>
<path d="M401.84 189.51L404.83 188.47 398.69 175.73 398.69 175.73 401.84 189.51Z"
fill-rule="nonzero" fill="black"/>
<path d="M404.83 188.47L407.51 186.78 398.69 175.73 398.69 175.73 404.83 188.47Z"
fill-rule="nonzero" fill="black"/>
<path d="M407.51 186.78L409.74 184.55 398.69 175.73 398.69 175.73 407.51 186.78Z"
fill-rule="nonzero" fill="black"/>
<path d="M409.74 184.55L411.43 181.87 398.69 175.73 398.69 175.73 409.74 184.55Z"
fill-rule="nonzero" fill="black"/>
<path d="M411.43 181.87L412.47 178.88 398.69 175.73 398.69 175.73 411.43 181.87Z"
fill-rule="nonzero" fill="black"/>
<path d="M412.47 178.88L412.83 175.73 398.69 175.73 398.69 175.73 412.47 178.88Z"
fill-rule="nonzero" fill="black"/>
<path d="M412.83 175.73L412.47 172.59 398.69 175.73 398.69 175.73 412.83 175.73Z"
fill-rule="nonzero" fill="black"/>
<path d="M412.47 172.59L411.43 169.6 398.69 175.73 398.69 175.73 412.47 172.59Z"
fill-rule="nonzero" fill="black"/>
<path d="M411.43 169.6L409.74 166.92 398.69 175.73 398.69 175.73 411.43 169.6Z"
fill-rule="nonzero" fill="black"/>
<path d="M409.74 166.92L407.51 164.69 398.69 175.73 398.69 175.73 409.74 166.92Z"
fill-rule="nonzero" fill="black"/>
<path d="M407.51 164.69L404.83 163 398.69 175.73 398.69 175.73 407.51 164.69Z"
fill-rule="nonzero" fill="black"/>
<path d="M404.83 163L401.84 161.96 398.69 175.73 398.69 175.73 404.83 163Z"
fill-rule="nonzero" fill="black"/>
<path d="M401.84 161.96L398.69 161.6 398.69 175.73 398.69 175.73 401.84 161.96Z"
fill-rule="nonzero" fill="black"/>
<path d="M398.69 161.6L395.55 161.96 398.69 175.73 398.69 175.73 398.69 161.6Z"
fill-rule="nonzero" fill="black"/>
<path d="M395.55 161.96L392.56 163 398.69 175.73 398.69 175.73 395.55 161.96Z"
fill-rule="nonzero" fill="black"/>
<path d="M392.56 163L389.88 164.69 398.69 175.73 398.69 175.73 392.56 163Z"
fill-rule="nonzero" fill="black"/>
<path d="M389.88 164.69L387.64 166.92 398.69 175.73 398.69 175.73 389.88 164.69Z"
fill-rule="nonzero" fill="black"/>
<path d="M387.64 166.92L385.96 169.6 398.69 175.73 398.69 175.73 387.64 166.92Z"
fill-rule="nonzero" fill="black"/>
<path d="M385.96 169.6L384.92 172.59 398.69 175.73 398.69 175.73 385.96 169.6Z"
fill-rule="nonzero" fill="black"/>
<path d="M384.92 172.59L384.56 175.73 398.69 175.73 398.69 175.73 384.92 172.59Z"
fill-rule="nonzero" fill="black"/>
<path d="M388.7 279.94L408.69 259.96 502.9 354.17 482.92 374.16 388.7 279.94Z"
fill="black" stroke="black" stroke-width="0.2"/>
<path d="M294.48 185.73L314.47 165.74 398.69 249.96 398.69 289.94 294.48 185.73Z"
fill="black" stroke="black" stroke-width="0.2"/>
<path d="M398.69 289.94L398.69 249.96 482.92 165.74 502.9 185.73 398.69 289.94Z"
fill="black" stroke="black" stroke-width="0.2"/>
</svg>
