<?xml version="1.0" encoding="UTF-8"?>
<svg xmlns="http://www.w3.org/2000/svg" width="800.000" height="600.000" viewBox="0.0 0.0 800.000 600.000" version="1.1">
  <desc>Produce by Acme CAD Converter</desc>
<path d="M470.4 260.76L470.4 328.49Z"
fill="none" stroke="cyan" stroke-width="3.5"/>
<path d="M470.4 193.03L470.4 260.76Z"
fill="none" stroke="cyan" stroke-width="3.5"/>
<path d="M346.23 204.32L481.69 204.32"
fill="none" stroke="cyan" stroke-width="3.5"/>
<path d="M357.52 328.49L357.52 193.03Z"
fill="none" stroke="cyan" stroke-width="3.5"/>
<path d="M371.63 260.76L372.02 266.53 413.96 260.76 413.96 260.76 371.63 260.76Z"
fill-rule="nonzero" fill="cyan"/>
<path d="M372.02 266.53L373.2 272.18 413.96 260.76 413.96 260.76 372.02 266.53Z"
fill-rule="nonzero" fill="cyan"/>
<path d="M373.2 272.18L375.13 277.63 413.96 260.76 413.96 260.76 373.2 272.18Z"
fill-rule="nonzero" fill="cyan"/>
<path d="M375.13 277.63L377.79 282.76 413.96 260.76 413.96 260.76 375.13 277.63Z"
fill-rule="nonzero" fill="cyan"/>
<path d="M377.79 282.76L381.12 287.48 413.96 260.76 413.96 260.76 377.79 282.76Z"
fill-rule="nonzero" fill="cyan"/>
<path d="M381.12 287.48L385.07 291.7 413.96 260.76 413.96 260.76 381.12 287.48Z"
fill-rule="nonzero" fill="cyan"/>
<path d="M385.07 291.7L389.55 295.35 413.96 260.76 413.96 260.76 385.07 291.7Z"
fill-rule="nonzero" fill="cyan"/>
<path d="M389.55 295.35L394.48 298.35 413.96 260.76 413.96 260.76 389.55 295.35Z"
fill-rule="nonzero" fill="cyan"/>
<path d="M394.48 298.35L399.78 300.65 413.96 260.76 413.96 260.76 394.48 298.35Z"
fill-rule="nonzero" fill="cyan"/>
<path d="M399.78 300.65L405.35 302.21 413.96 260.76 413.96 260.76 399.78 300.65Z"
fill-rule="nonzero" fill="cyan"/>
<path d="M405.35 302.21L411.07 303 413.96 260.76 413.96 260.76 405.35 302.21Z"
fill-rule="nonzero" fill="cyan"/>
<path d="M411.07 303L416.85 303 413.96 260.76 413.96 260.76 411.07 303Z"
fill-rule="nonzero" fill="cyan"/>
<path d="M416.85 303L422.57 302.21 413.96 260.76 413.96 260.76 416.85 303Z"
fill-rule="nonzero" fill="cyan"/>
<path d="M422.57 302.21L428.14 300.65 413.96 260.76 413.96 260.76 422.57 302.21Z"
fill-rule="nonzero" fill="cyan"/>
<path d="M428.14 300.65L433.44 298.35 413.96 260.76 413.96 260.76 428.14 300.65Z"
fill-rule="nonzero" fill="cyan"/>
<path d="M433.44 298.35L438.37 295.35 413.96 260.76 413.96 260.76 433.44 298.35Z"
fill-rule="nonzero" fill="cyan"/>
<path d="M438.37 295.35L442.85 291.7 413.96 260.76 413.96 260.76 438.37 295.35Z"
fill-rule="nonzero" fill="cyan"/>
<path d="M442.85 291.7L446.8 287.48 413.96 260.76 413.96 260.76 442.85 291.7Z"
fill-rule="nonzero" fill="cyan"/>
<path d="M446.8 287.48L450.13 282.76 413.96 260.76 413.96 260.76 446.8 287.48Z"
fill-rule="nonzero" fill="cyan"/>
<path d="M450.13 282.76L452.79 277.63 413.96 260.76 413.96 260.76 450.13 282.76Z"
fill-rule="nonzero" fill="cyan"/>
<path d="M452.79 277.63L454.72 272.18 413.96 260.76 413.96 260.76 452.79 277.63Z"
fill-rule="nonzero" fill="cyan"/>
<path d="M454.72 272.18L455.9 266.53 413.96 260.76 413.96 260.76 454.72 272.18Z"
fill-rule="nonzero" fill="cyan"/>
<path d="M455.9 266.53L456.29 260.76 413.96 260.76 413.96 260.76 455.9 266.53Z"
fill-rule="nonzero" fill="cyan"/>
<path d="M456.29 260.76L455.9 255 413.96 260.76 413.96 260.76 456.29 260.76Z"
fill-rule="nonzero" fill="cyan"/>
<path d="M455.9 255L454.72 249.34 413.96 260.76 413.96 260.76 455.9 255Z"
fill-rule="nonzero" fill="cyan"/>
<path d="M454.72 249.34L452.79 243.9 413.96 260.76 413.96 260.76 454.72 249.34Z"
fill-rule="nonzero" fill="cyan"/>
<path d="M452.79 243.9L450.13 238.77 413.96 260.76 413.96 260.76 452.79 243.9Z"
fill-rule="nonzero" fill="cyan"/>
<path d="M450.13 238.77L446.8 234.05 413.96 260.76 413.96 260.76 450.13 238.77Z"
fill-rule="nonzero" fill="cyan"/>
<path d="M446.8 234.05L442.85 229.82 413.96 260.76 413.96 260.76 446.8 234.05Z"
fill-rule="nonzero" fill="cyan"/>
<path d="M442.85 229.82L438.37 226.18 413.96 260.76 413.96 260.76 442.85 229.82Z"
fill-rule="nonzero" fill="cyan"/>
<path d="M438.37 226.18L433.44 223.17 413.96 260.76 413.96 260.76 438.37 226.18Z"
fill-rule="nonzero" fill="cyan"/>
<path d="M433.44 223.17L428.14 220.87 413.96 260.76 413.96 260.76 433.44 223.17Z"
fill-rule="nonzero" fill="cyan"/>
<path d="M428.14 220.87L422.57 219.31 413.96 260.76 413.96 260.76 428.14 220.87Z"
fill-rule="nonzero" fill="cyan"/>
<path d="M422.57 219.31L416.85 218.53 413.96 260.76 413.96 260.76 422.57 219.31Z"
fill-rule="nonzero" fill="cyan"/>
<path d="M416.85 218.53L411.07 218.53 413.96 260.76 413.96 260.76 416.85 218.53Z"
fill-rule="nonzero" fill="cyan"/>
<path d="M411.07 218.53L405.35 219.31 413.96 260.76 413.96 260.76 411.07 218.53Z"
fill-rule="nonzero" fill="cyan"/>
<path d="M405.35 219.31L399.78 220.87 413.96 260.76 413.96 260.76 405.35 219.31Z"
fill-rule="nonzero" fill="cyan"/>
<path d="M399.78 220.87L394.48 223.17 413.96 260.76 413.96 260.76 399.78 220.87Z"
fill-rule="nonzero" fill="cyan"/>
<path d="M394.48 223.17L389.55 226.18 413.96 260.76 413.96 260.76 394.48 223.17Z"
fill-rule="nonzero" fill="cyan"/>
<path d="M389.55 226.18L385.07 229.82 413.96 260.76 413.96 260.76 389.55 226.18Z"
fill-rule="nonzero" fill="cyan"/>
<path d="M385.07 229.82L381.12 234.05 413.96 260.76 413.96 260.76 385.07 229.82Z"
fill-rule="nonzero" fill="cyan"/>
<path d="M381.12 234.05L377.79 238.77 413.96 260.76 413.96 260.76 381.12 234.05Z"
fill-rule="nonzero" fill="cyan"/>
<path d="M377.79 238.77L375.13 243.9 413.96 260.76 413.96 260.76 377.79 238.77Z"
fill-rule="nonzero" fill="cyan"/>
<path d="M375.13 243.9L373.2 249.34 413.96 260.76 413.96 260.76 375.13 243.9Z"
fill-rule="nonzero" fill="cyan"/>
<path d="M373.2 249.34L372.02 255 413.96 260.76 413.96 260.76 373.2 249.34Z"
fill-rule="nonzero" fill="cyan"/>
<path d="M372.02 255L371.63 260.76 413.96 260.76 413.96 260.76 372.02 255Z"
fill-rule="nonzero" fill="cyan"/>
<path d="M346.23 317.21L481.69 317.21"
fill="none" stroke="cyan" stroke-width="3.5"/>
</svg>
