<?xml version="1.0" encoding="UTF-8"?>
<svg xmlns="http://www.w3.org/2000/svg" width="800.000" height="600.000" viewBox="0.0 0.0 800.000 600.000" version="1.1">
  <desc>Produce by Acme CAD Converter</desc>
<path d="M446.38 313.32L446.18 318.52"
fill="none" stroke="black" stroke-width="0.5"/>
<path d="M446.18 318.52L445.58 323.68"
fill="none" stroke="black" stroke-width="0.5"/>
<path d="M445.58 323.68L444.6 328.79"
fill="none" stroke="black" stroke-width="0.5"/>
<path d="M444.6 328.79L443.22 333.8"
fill="none" stroke="black" stroke-width="0.5"/>
<path d="M443.22 333.8L441.46 338.69"
fill="none" stroke="black" stroke-width="0.5"/>
<path d="M441.46 338.69L439.33 343.44"
fill="none" stroke="black" stroke-width="0.5"/>
<path d="M439.33 343.44L436.85 348.01"
fill="none" stroke="black" stroke-width="0.5"/>
<path d="M436.85 348.01L434.02 352.37"
fill="none" stroke="black" stroke-width="0.5"/>
<path d="M434.02 352.37L430.87 356.5"
fill="none" stroke="black" stroke-width="0.5"/>
<path d="M430.87 356.5L427.41 360.39"
fill="none" stroke="black" stroke-width="0.5"/>
<path d="M427.41 360.39L423.67 363.99"
fill="none" stroke="black" stroke-width="0.5"/>
<path d="M423.67 363.99L419.66 367.3"
fill="none" stroke="black" stroke-width="0.5"/>
<path d="M419.66 367.3L415.4 370.29"
fill="none" stroke="black" stroke-width="0.5"/>
<path d="M415.4 370.29L410.93 372.95"
fill="none" stroke="black" stroke-width="0.5"/>
<path d="M410.93 372.95L406.27 375.25"
fill="none" stroke="black" stroke-width="0.5"/>
<path d="M406.27 375.25L401.45 377.2"
fill="none" stroke="black" stroke-width="0.5"/>
<path d="M401.45 377.2L396.5 378.77"
fill="none" stroke="black" stroke-width="0.5"/>
<path d="M396.5 378.77L391.43 379.95"
fill="none" stroke="black" stroke-width="0.5"/>
<path d="M391.43 379.95L386.29 380.74"
fill="none" stroke="black" stroke-width="0.5"/>
<path d="M386.29 380.74L381.11 381.14"
fill="none" stroke="black" stroke-width="0.5"/>
<path d="M381.11 381.14L375.91 381.14"
fill="none" stroke="black" stroke-width="0.5"/>
<path d="M375.91 381.14L370.73 380.74"
fill="none" stroke="black" stroke-width="0.5"/>
<path d="M370.73 380.74L365.59 379.95"
fill="none" stroke="black" stroke-width="0.5"/>
<path d="M365.59 379.95L360.53 378.77"
fill="none" stroke="black" stroke-width="0.5"/>
<path d="M360.53 378.77L355.57 377.2"
fill="none" stroke="black" stroke-width="0.5"/>
<path d="M355.57 377.2L350.75 375.25"
fill="none" stroke="black" stroke-width="0.5"/>
<path d="M350.75 375.25L346.09 372.95"
fill="none" stroke="black" stroke-width="0.5"/>
<path d="M346.09 372.95L341.62 370.29"
fill="none" stroke="black" stroke-width="0.5"/>
<path d="M341.62 370.29L337.37 367.3"
fill="none" stroke="black" stroke-width="0.5"/>
<path d="M337.37 367.3L333.36 363.99"
fill="none" stroke="black" stroke-width="0.5"/>
<path d="M333.36 363.99L329.61 360.39"
fill="none" stroke="black" stroke-width="0.5"/>
<path d="M329.61 360.39L326.15 356.5"
fill="none" stroke="black" stroke-width="0.5"/>
<path d="M326.15 356.5L323 352.37"
fill="none" stroke="black" stroke-width="0.5"/>
<path d="M323 352.37L320.17 348.01"
fill="none" stroke="black" stroke-width="0.5"/>
<path d="M320.17 348.01L317.69 343.44"
fill="none" stroke="black" stroke-width="0.5"/>
<path d="M317.69 343.44L315.56 338.69"
fill="none" stroke="black" stroke-width="0.5"/>
<path d="M315.56 338.69L313.8 333.8"
fill="none" stroke="black" stroke-width="0.5"/>
<path d="M313.8 333.8L312.43 328.79"
fill="none" stroke="black" stroke-width="0.5"/>
<path d="M312.43 328.79L311.44 323.68"
fill="none" stroke="black" stroke-width="0.5"/>
<path d="M311.44 323.68L310.84 318.52"
fill="none" stroke="black" stroke-width="0.5"/>
<path d="M310.84 318.52L310.64 313.32"
fill="none" stroke="black" stroke-width="0.5"/>
<path d="M310.64 313.32L310.84 308.13"
fill="none" stroke="black" stroke-width="0.5"/>
<path d="M310.84 308.13L311.44 302.96"
fill="none" stroke="black" stroke-width="0.5"/>
<path d="M311.44 302.96L312.43 297.86"
fill="none" stroke="black" stroke-width="0.5"/>
<path d="M312.43 297.86L313.8 292.85"
fill="none" stroke="black" stroke-width="0.5"/>
<path d="M313.8 292.85L315.56 287.95"
fill="none" stroke="black" stroke-width="0.5"/>
<path d="M315.56 287.95L317.69 283.21"
fill="none" stroke="black" stroke-width="0.5"/>
<path d="M317.69 283.21L320.17 278.64"
fill="none" stroke="black" stroke-width="0.5"/>
<path d="M320.17 278.64L323 274.28"
fill="none" stroke="black" stroke-width="0.5"/>
<path d="M323 274.28L326.15 270.14"
fill="none" stroke="black" stroke-width="0.5"/>
<path d="M326.15 270.14L329.61 266.26"
fill="none" stroke="black" stroke-width="0.5"/>
<path d="M329.61 266.26L333.36 262.66"
fill="none" stroke="black" stroke-width="0.5"/>
<path d="M333.36 262.66L337.37 259.35"
fill="none" stroke="black" stroke-width="0.5"/>
<path d="M337.37 259.35L341.62 256.36"
fill="none" stroke="black" stroke-width="0.5"/>
<path d="M341.62 256.36L346.09 253.7"
fill="none" stroke="black" stroke-width="0.5"/>
<path d="M346.09 253.7L350.75 251.39"
fill="none" stroke="black" stroke-width="0.5"/>
<path d="M350.75 251.39L355.57 249.45"
fill="none" stroke="black" stroke-width="0.5"/>
<path d="M355.57 249.45L360.53 247.88"
fill="none" stroke="black" stroke-width="0.5"/>
<path d="M360.53 247.88L365.59 246.7"
fill="none" stroke="black" stroke-width="0.5"/>
<path d="M365.59 246.7L370.73 245.9"
fill="none" stroke="black" stroke-width="0.5"/>
<path d="M370.73 245.9L375.91 245.5"
fill="none" stroke="black" stroke-width="0.5"/>
<path d="M375.91 245.5L381.11 245.5"
fill="none" stroke="black" stroke-width="0.5"/>
<path d="M381.11 245.5L386.29 245.9"
fill="none" stroke="black" stroke-width="0.5"/>
<path d="M386.29 245.9L391.43 246.7"
fill="none" stroke="black" stroke-width="0.5"/>
<path d="M391.43 246.7L396.5 247.88"
fill="none" stroke="black" stroke-width="0.5"/>
<path d="M396.5 247.88L401.45 249.45"
fill="none" stroke="black" stroke-width="0.5"/>
<path d="M401.45 249.45L406.27 251.39"
fill="none" stroke="black" stroke-width="0.5"/>
<path d="M406.27 251.39L410.93 253.7"
fill="none" stroke="black" stroke-width="0.5"/>
<path d="M410.93 253.7L415.4 256.36"
fill="none" stroke="black" stroke-width="0.5"/>
<path d="M415.4 256.36L419.66 259.35"
fill="none" stroke="black" stroke-width="0.5"/>
<path d="M419.66 259.35L423.67 262.66"
fill="none" stroke="black" stroke-width="0.5"/>
<path d="M423.67 262.66L427.41 266.26"
fill="none" stroke="black" stroke-width="0.5"/>
<path d="M427.41 266.26L430.87 270.14"
fill="none" stroke="black" stroke-width="0.5"/>
<path d="M430.87 270.14L434.02 274.28"
fill="none" stroke="black" stroke-width="0.5"/>
<path d="M434.02 274.28L436.85 278.64"
fill="none" stroke="black" stroke-width="0.5"/>
<path d="M436.85 278.64L439.33 283.21"
fill="none" stroke="black" stroke-width="0.5"/>
<path d="M439.33 283.21L441.46 287.95"
fill="none" stroke="black" stroke-width="0.5"/>
<path d="M441.46 287.95L443.22 292.85"
fill="none" stroke="black" stroke-width="0.5"/>
<path d="M443.22 292.85L444.6 297.86"
fill="none" stroke="black" stroke-width="0.5"/>
<path d="M444.6 297.86L445.58 302.96"
fill="none" stroke="black" stroke-width="0.5"/>
<path d="M445.58 302.96L446.18 308.13"
fill="none" stroke="black" stroke-width="0.5"/>
<path d="M446.18 308.13L446.38 313.32"
fill="none" stroke="black" stroke-width="0.5"/>
<path d="M378.51 245.45L378.51 381.19Z"
fill="none" stroke="black" stroke-width="0.5"/>
</svg>
