<?xml version="1.0" encoding="UTF-8"?>
<svg xmlns="http://www.w3.org/2000/svg" width="800.000" height="600.000" viewBox="0.0 0.0 800.000 600.000" version="1.1">
  <desc>Produce by Acme CAD Converter</desc>
<path d="M411.32 315.78L411.13 318.91"
fill="none" stroke="black" stroke-width="3.5"/>
<path d="M411.13 318.91L410.55 321.99"
fill="none" stroke="black" stroke-width="3.5"/>
<path d="M410.55 321.99L409.6 324.98"
fill="none" stroke="black" stroke-width="3.5"/>
<path d="M409.6 324.98L408.29 327.83"
fill="none" stroke="black" stroke-width="3.5"/>
<path d="M408.29 327.83L406.64 330.49"
fill="none" stroke="black" stroke-width="3.5"/>
<path d="M406.64 330.49L404.68 332.94"
fill="none" stroke="black" stroke-width="3.5"/>
<path d="M404.68 332.94L402.42 335.12"
fill="none" stroke="black" stroke-width="3.5"/>
<path d="M402.42 335.12L399.92 337.01"
fill="none" stroke="black" stroke-width="3.5"/>
<path d="M399.92 337.01L397.21 338.58"
fill="none" stroke="black" stroke-width="3.5"/>
<path d="M397.21 338.58L394.32 339.8"
fill="none" stroke="black" stroke-width="3.5"/>
<path d="M394.32 339.8L391.3 340.66"
fill="none" stroke="black" stroke-width="3.5"/>
<path d="M391.3 340.66L388.2 341.14"
fill="none" stroke="black" stroke-width="3.5"/>
<path d="M388.2 341.14L385.07 341.23"
fill="none" stroke="black" stroke-width="3.5"/>
<path d="M385.07 341.23L381.95 340.95"
fill="none" stroke="black" stroke-width="3.5"/>
<path d="M381.95 340.95L378.88 340.27"
fill="none" stroke="black" stroke-width="3.5"/>
<path d="M378.88 340.27L375.93 339.23"
fill="none" stroke="black" stroke-width="3.5"/>
<path d="M375.93 339.23L373.12 337.83"
fill="none" stroke="black" stroke-width="3.5"/>
<path d="M373.12 337.83L370.51 336.1"
fill="none" stroke="black" stroke-width="3.5"/>
<path d="M370.51 336.1L368.12 334.06"
fill="none" stroke="black" stroke-width="3.5"/>
<path d="M368.12 334.06L366.01 331.75"
fill="none" stroke="black" stroke-width="3.5"/>
<path d="M366.01 331.75L364.2 329.19"
fill="none" stroke="black" stroke-width="3.5"/>
<path d="M364.2 329.19L362.72 326.42"
fill="none" stroke="black" stroke-width="3.5"/>
<path d="M362.72 326.42L361.58 323.5"
fill="none" stroke="black" stroke-width="3.5"/>
<path d="M361.58 323.5L360.82 320.46"
fill="none" stroke="black" stroke-width="3.5"/>
<path d="M360.82 320.46L360.43 317.35"
fill="none" stroke="black" stroke-width="3.5"/>
<path d="M360.43 317.35L360.43 314.21Z"
fill="none" stroke="black" stroke-width="3.5"/>
<path d="M360.43 314.21L360.82 311.1"
fill="none" stroke="black" stroke-width="3.5"/>
<path d="M360.82 311.1L361.58 308.06"
fill="none" stroke="black" stroke-width="3.5"/>
<path d="M361.58 308.06L362.72 305.13"
fill="none" stroke="black" stroke-width="3.5"/>
<path d="M362.72 305.13L364.2 302.37"
fill="none" stroke="black" stroke-width="3.5"/>
<path d="M364.2 302.37L366.01 299.81"
fill="none" stroke="black" stroke-width="3.5"/>
<path d="M366.01 299.81L368.12 297.49"
fill="none" stroke="black" stroke-width="3.5"/>
<path d="M368.12 297.49L370.51 295.45"
fill="none" stroke="black" stroke-width="3.5"/>
<path d="M370.51 295.45L373.12 293.72"
fill="none" stroke="black" stroke-width="3.5"/>
<path d="M373.12 293.72L375.93 292.32"
fill="none" stroke="black" stroke-width="3.5"/>
<path d="M375.93 292.32L378.88 291.28"
fill="none" stroke="black" stroke-width="3.5"/>
<path d="M378.88 291.28L381.95 290.61"
fill="none" stroke="black" stroke-width="3.5"/>
<path d="M381.95 290.61L385.07 290.32"
fill="none" stroke="black" stroke-width="3.5"/>
<path d="M385.07 290.32L388.2 290.42"
fill="none" stroke="black" stroke-width="3.5"/>
<path d="M388.2 290.42L391.3 290.9"
fill="none" stroke="black" stroke-width="3.5"/>
<path d="M391.3 290.9L394.32 291.76"
fill="none" stroke="black" stroke-width="3.5"/>
<path d="M394.32 291.76L397.21 292.98"
fill="none" stroke="black" stroke-width="3.5"/>
<path d="M397.21 292.98L399.92 294.55"
fill="none" stroke="black" stroke-width="3.5"/>
<path d="M399.92 294.55L402.42 296.44"
fill="none" stroke="black" stroke-width="3.5"/>
<path d="M402.42 296.44L404.68 298.62"
fill="none" stroke="black" stroke-width="3.5"/>
<path d="M404.68 298.62L406.64 301.06"
fill="none" stroke="black" stroke-width="3.5"/>
<path d="M406.64 301.06L408.29 303.73"
fill="none" stroke="black" stroke-width="3.5"/>
<path d="M408.29 303.73L409.6 306.58"
fill="none" stroke="black" stroke-width="3.5"/>
<path d="M409.6 306.58L410.55 309.57"
fill="none" stroke="black" stroke-width="3.5"/>
<path d="M410.55 309.57L411.13 312.65"
fill="none" stroke="black" stroke-width="3.5"/>
<path d="M411.13 312.65L411.32 315.78"
fill="none" stroke="black" stroke-width="3.5"/>
<path d="M385.85 341.25L385.85 290.31Z"
fill="none" stroke="black" stroke-width="3.5"/>
<path d="M385.85 290.31L385.85 205.41Z"
fill="none" stroke="black" stroke-width="3.5"/>
<path d="M385.85 222.39L436.79 222.39"
fill="none" stroke="black" stroke-width="3.5"/>
<path d="M419.81 205.41L436.79 222.39"
fill="none" stroke="black" stroke-width="3.5"/>
<path d="M436.79 222.39L419.81 239.37"
fill="none" stroke="black" stroke-width="3.5"/>
</svg>
