<?xml version="1.0" encoding="UTF-8"?>
<svg xmlns="http://www.w3.org/2000/svg" width="800.000" height="600.000" viewBox="0.0 0.0 800.000 600.000" version="1.1">
  <desc>Produce by Acme CAD Converter</desc>
<path d="M414.23 350.44L414.04 353.4"
fill="none" stroke="black" stroke-width="0.5"/>
<path d="M414.04 353.4L413.46 356.32"
fill="none" stroke="black" stroke-width="0.5"/>
<path d="M413.46 356.32L412.5 359.13"
fill="none" stroke="black" stroke-width="0.5"/>
<path d="M412.5 359.13L411.19 361.8"
fill="none" stroke="black" stroke-width="0.5"/>
<path d="M411.19 361.8L409.54 364.27"
fill="none" stroke="black" stroke-width="0.5"/>
<path d="M409.54 364.27L407.58 366.5"
fill="none" stroke="black" stroke-width="0.5"/>
<path d="M407.58 366.5L405.34 368.46"
fill="none" stroke="black" stroke-width="0.5"/>
<path d="M405.34 368.46L402.87 370.11"
fill="none" stroke="black" stroke-width="0.5"/>
<path d="M402.87 370.11L400.21 371.42"
fill="none" stroke="black" stroke-width="0.5"/>
<path d="M400.21 371.42L397.4 372.38"
fill="none" stroke="black" stroke-width="0.5"/>
<path d="M397.4 372.38L394.48 372.96"
fill="none" stroke="black" stroke-width="0.5"/>
<path d="M394.48 372.96L391.52 373.15"
fill="none" stroke="black" stroke-width="0.5"/>
<path d="M391.52 373.15L388.55 372.96"
fill="none" stroke="black" stroke-width="0.5"/>
<path d="M388.55 372.96L385.64 372.38"
fill="none" stroke="black" stroke-width="0.5"/>
<path d="M385.64 372.38L382.82 371.42"
fill="none" stroke="black" stroke-width="0.5"/>
<path d="M382.82 371.42L380.16 370.11"
fill="none" stroke="black" stroke-width="0.5"/>
<path d="M380.16 370.11L377.69 368.46"
fill="none" stroke="black" stroke-width="0.5"/>
<path d="M377.69 368.46L375.45 366.5"
fill="none" stroke="black" stroke-width="0.5"/>
<path d="M375.45 366.5L373.49 364.27"
fill="none" stroke="black" stroke-width="0.5"/>
<path d="M373.49 364.27L371.84 361.8"
fill="none" stroke="black" stroke-width="0.5"/>
<path d="M371.84 361.8L370.53 359.13"
fill="none" stroke="black" stroke-width="0.5"/>
<path d="M370.53 359.13L369.57 356.32"
fill="none" stroke="black" stroke-width="0.5"/>
<path d="M369.57 356.32L368.99 353.4"
fill="none" stroke="black" stroke-width="0.5"/>
<path d="M368.99 353.4L368.8 350.44"
fill="none" stroke="black" stroke-width="0.5"/>
<path d="M368.8 350.44L368.99 347.47"
fill="none" stroke="black" stroke-width="0.5"/>
<path d="M368.99 347.47L369.57 344.56"
fill="none" stroke="black" stroke-width="0.5"/>
<path d="M369.57 344.56L370.53 341.74"
fill="none" stroke="black" stroke-width="0.5"/>
<path d="M370.53 341.74L371.84 339.08"
fill="none" stroke="black" stroke-width="0.5"/>
<path d="M371.84 339.08L373.49 336.61"
fill="none" stroke="black" stroke-width="0.5"/>
<path d="M373.49 336.61L375.45 334.38"
fill="none" stroke="black" stroke-width="0.5"/>
<path d="M375.45 334.38L377.69 332.42"
fill="none" stroke="black" stroke-width="0.5"/>
<path d="M377.69 332.42L380.16 330.77"
fill="none" stroke="black" stroke-width="0.5"/>
<path d="M380.16 330.77L382.82 329.45"
fill="none" stroke="black" stroke-width="0.5"/>
<path d="M382.82 329.45L385.64 328.5"
fill="none" stroke="black" stroke-width="0.5"/>
<path d="M385.64 328.5L388.55 327.92"
fill="none" stroke="black" stroke-width="0.5"/>
<path d="M388.55 327.92L391.52 327.72"
fill="none" stroke="black" stroke-width="0.5"/>
<path d="M391.52 327.72L394.48 327.92"
fill="none" stroke="black" stroke-width="0.5"/>
<path d="M394.48 327.92L397.4 328.5"
fill="none" stroke="black" stroke-width="0.5"/>
<path d="M397.4 328.5L400.21 329.45"
fill="none" stroke="black" stroke-width="0.5"/>
<path d="M400.21 329.45L402.87 330.77"
fill="none" stroke="black" stroke-width="0.5"/>
<path d="M402.87 330.77L405.34 332.42"
fill="none" stroke="black" stroke-width="0.5"/>
<path d="M405.34 332.42L407.58 334.38"
fill="none" stroke="black" stroke-width="0.5"/>
<path d="M407.58 334.38L409.54 336.61"
fill="none" stroke="black" stroke-width="0.5"/>
<path d="M409.54 336.61L411.19 339.08"
fill="none" stroke="black" stroke-width="0.5"/>
<path d="M411.19 339.08L412.5 341.74"
fill="none" stroke="black" stroke-width="0.5"/>
<path d="M412.5 341.74L413.46 344.56"
fill="none" stroke="black" stroke-width="0.5"/>
<path d="M413.46 344.56L414.04 347.47"
fill="none" stroke="black" stroke-width="0.5"/>
<path d="M414.04 347.47L414.23 350.44"
fill="none" stroke="black" stroke-width="0.5"/>
<path d="M402.12 252L412.72 236.86"
fill="none" stroke="black" stroke-width="0.5"/>
<path d="M412.72 236.86L423.32 252"
fill="none" stroke="black" stroke-width="0.5"/>
<path d="M391.52 373.15L391.52 327.72Z"
fill="none" stroke="black" stroke-width="0.5"/>
<path d="M391.52 327.72L391.52 267.15Z"
fill="none" stroke="black" stroke-width="0.5"/>
<path d="M391.52 267.15L412.72 282.29"
fill="none" stroke="black" stroke-width="0.5"/>
<path d="M412.72 282.29L412.72 236.86Z"
fill="none" stroke="black" stroke-width="0.5"/>
</svg>
