<?xml version="1.0" encoding="UTF-8"?>
<svg xmlns="http://www.w3.org/2000/svg" width="800.000" height="600.000" viewBox="0.0 0.0 800.000 600.000" version="1.1">
  <desc>Produce by Acme CAD Converter</desc>
<path d="M414.33 334.35L414.14 337.74"
fill="none" stroke="black" stroke-width="0.5"/>
<path d="M414.14 337.74L413.55 341.08"
fill="none" stroke="black" stroke-width="0.5"/>
<path d="M413.55 341.08L412.57 344.34"
fill="none" stroke="black" stroke-width="0.5"/>
<path d="M412.57 344.34L411.23 347.46"
fill="none" stroke="black" stroke-width="0.5"/>
<path d="M411.23 347.46L409.53 350.4"
fill="none" stroke="black" stroke-width="0.5"/>
<path d="M409.53 350.4L407.5 353.12"
fill="none" stroke="black" stroke-width="0.5"/>
<path d="M407.5 353.12L405.17 355.6"
fill="none" stroke="black" stroke-width="0.5"/>
<path d="M405.17 355.6L402.57 357.78"
fill="none" stroke="black" stroke-width="0.5"/>
<path d="M402.57 357.78L399.73 359.65"
fill="none" stroke="black" stroke-width="0.5"/>
<path d="M399.73 359.65L396.69 361.17"
fill="none" stroke="black" stroke-width="0.5"/>
<path d="M396.69 361.17L393.5 362.33"
fill="none" stroke="black" stroke-width="0.5"/>
<path d="M393.5 362.33L390.19 363.12"
fill="none" stroke="black" stroke-width="0.5"/>
<path d="M390.19 363.12L386.82 363.51"
fill="none" stroke="black" stroke-width="0.5"/>
<path d="M386.82 363.51L383.42 363.51"
fill="none" stroke="black" stroke-width="0.5"/>
<path d="M383.42 363.51L380.05 363.12"
fill="none" stroke="black" stroke-width="0.5"/>
<path d="M380.05 363.12L376.74 362.33"
fill="none" stroke="black" stroke-width="0.5"/>
<path d="M376.74 362.33L373.55 361.17"
fill="none" stroke="black" stroke-width="0.5"/>
<path d="M373.55 361.17L370.51 359.65"
fill="none" stroke="black" stroke-width="0.5"/>
<path d="M370.51 359.65L367.67 357.78"
fill="none" stroke="black" stroke-width="0.5"/>
<path d="M367.67 357.78L365.07 355.6"
fill="none" stroke="black" stroke-width="0.5"/>
<path d="M365.07 355.6L362.74 353.12"
fill="none" stroke="black" stroke-width="0.5"/>
<path d="M362.74 353.12L360.71 350.4"
fill="none" stroke="black" stroke-width="0.5"/>
<path d="M360.71 350.4L359.01 347.46"
fill="none" stroke="black" stroke-width="0.5"/>
<path d="M359.01 347.46L357.67 344.34"
fill="none" stroke="black" stroke-width="0.5"/>
<path d="M357.67 344.34L356.69 341.08"
fill="none" stroke="black" stroke-width="0.5"/>
<path d="M356.69 341.08L356.1 337.74"
fill="none" stroke="black" stroke-width="0.5"/>
<path d="M356.1 337.74L355.91 334.35"
fill="none" stroke="black" stroke-width="0.5"/>
<path d="M355.91 334.35L356.1 330.95"
fill="none" stroke="black" stroke-width="0.5"/>
<path d="M356.1 330.95L356.69 327.61"
fill="none" stroke="black" stroke-width="0.5"/>
<path d="M356.69 327.61L357.67 324.35"
fill="none" stroke="black" stroke-width="0.5"/>
<path d="M357.67 324.35L359.01 321.23"
fill="none" stroke="black" stroke-width="0.5"/>
<path d="M359.01 321.23L360.71 318.29"
fill="none" stroke="black" stroke-width="0.5"/>
<path d="M360.71 318.29L362.74 315.57"
fill="none" stroke="black" stroke-width="0.5"/>
<path d="M362.74 315.57L365.07 313.1"
fill="none" stroke="black" stroke-width="0.5"/>
<path d="M365.07 313.1L367.67 310.91"
fill="none" stroke="black" stroke-width="0.5"/>
<path d="M367.67 310.91L370.51 309.04"
fill="none" stroke="black" stroke-width="0.5"/>
<path d="M370.51 309.04L373.55 307.52"
fill="none" stroke="black" stroke-width="0.5"/>
<path d="M373.55 307.52L376.74 306.36"
fill="none" stroke="black" stroke-width="0.5"/>
<path d="M376.74 306.36L380.05 305.57"
fill="none" stroke="black" stroke-width="0.5"/>
<path d="M380.05 305.57L383.42 305.18"
fill="none" stroke="black" stroke-width="0.5"/>
<path d="M383.42 305.18L386.82 305.18"
fill="none" stroke="black" stroke-width="0.5"/>
<path d="M386.82 305.18L390.19 305.57"
fill="none" stroke="black" stroke-width="0.5"/>
<path d="M390.19 305.57L393.5 306.36"
fill="none" stroke="black" stroke-width="0.5"/>
<path d="M393.5 306.36L396.69 307.52"
fill="none" stroke="black" stroke-width="0.5"/>
<path d="M396.69 307.52L399.73 309.04"
fill="none" stroke="black" stroke-width="0.5"/>
<path d="M399.73 309.04L402.57 310.91"
fill="none" stroke="black" stroke-width="0.5"/>
<path d="M402.57 310.91L405.17 313.1"
fill="none" stroke="black" stroke-width="0.5"/>
<path d="M405.17 313.1L407.5 315.57"
fill="none" stroke="black" stroke-width="0.5"/>
<path d="M407.5 315.57L409.53 318.29"
fill="none" stroke="black" stroke-width="0.5"/>
<path d="M409.53 318.29L411.23 321.23"
fill="none" stroke="black" stroke-width="0.5"/>
<path d="M411.23 321.23L412.57 324.35"
fill="none" stroke="black" stroke-width="0.5"/>
<path d="M412.57 324.35L413.55 327.61"
fill="none" stroke="black" stroke-width="0.5"/>
<path d="M413.55 327.61L414.14 330.95"
fill="none" stroke="black" stroke-width="0.5"/>
<path d="M414.14 330.95L414.33 334.35"
fill="none" stroke="black" stroke-width="0.5"/>
<path d="M385.12 363.56L385.12 305.13Z"
fill="none" stroke="black" stroke-width="0.5"/>
<path d="M385.12 305.13L385.12 227.22Z"
fill="none" stroke="black" stroke-width="0.5"/>
<path d="M404.6 227.22L404.6 246.7Z"
fill="none" stroke="black" stroke-width="0.5"/>
<path d="M404.6 246.7L385.12 246.7"
fill="none" stroke="black" stroke-width="0.5"/>
</svg>
