<?xml version="1.0" encoding="UTF-8"?>
<svg xmlns="http://www.w3.org/2000/svg" width="800.000" height="600.000" viewBox="0.0 0.0 800.000 600.000" version="1.1">
  <desc>Produce by Acme CAD Converter</desc>
<path d="M371.04 352.93L438.76 352.93"
fill="none" stroke="black" stroke-width="0.5"/>
<path d="M438.76 285.21L438.56 290.39"
fill="none" stroke="black" stroke-width="0.5"/>
<path d="M438.56 290.39L437.97 295.55"
fill="none" stroke="black" stroke-width="0.5"/>
<path d="M437.97 295.55L436.98 300.64"
fill="none" stroke="black" stroke-width="0.5"/>
<path d="M436.98 300.64L435.61 305.64"
fill="none" stroke="black" stroke-width="0.5"/>
<path d="M435.61 305.64L433.85 310.52"
fill="none" stroke="black" stroke-width="0.5"/>
<path d="M433.85 310.52L431.73 315.26"
fill="none" stroke="black" stroke-width="0.5"/>
<path d="M431.73 315.26L429.25 319.81"
fill="none" stroke="black" stroke-width="0.5"/>
<path d="M429.25 319.81L426.43 324.17"
fill="none" stroke="black" stroke-width="0.5"/>
<path d="M426.43 324.17L423.29 328.29"
fill="none" stroke="black" stroke-width="0.5"/>
<path d="M423.29 328.29L419.84 332.17"
fill="none" stroke="black" stroke-width="0.5"/>
<path d="M419.84 332.17L416.1 335.76"
fill="none" stroke="black" stroke-width="0.5"/>
<path d="M416.1 335.76L412.1 339.07"
fill="none" stroke="black" stroke-width="0.5"/>
<path d="M412.1 339.07L407.85 342.05"
fill="none" stroke="black" stroke-width="0.5"/>
<path d="M407.85 342.05L403.39 344.7"
fill="none" stroke="black" stroke-width="0.5"/>
<path d="M403.39 344.7L398.75 347"
fill="none" stroke="black" stroke-width="0.5"/>
<path d="M398.75 347L393.93 348.94"
fill="none" stroke="black" stroke-width="0.5"/>
<path d="M393.93 348.94L388.99 350.51"
fill="none" stroke="black" stroke-width="0.5"/>
<path d="M388.99 350.51L383.94 351.69"
fill="none" stroke="black" stroke-width="0.5"/>
<path d="M383.94 351.69L378.81 352.48"
fill="none" stroke="black" stroke-width="0.5"/>
<path d="M378.81 352.48L373.64 352.88"
fill="none" stroke="black" stroke-width="0.5"/>
<path d="M373.64 352.88L368.45 352.88"
fill="none" stroke="black" stroke-width="0.5"/>
<path d="M368.45 352.88L363.28 352.48"
fill="none" stroke="black" stroke-width="0.5"/>
<path d="M363.28 352.48L358.15 351.69"
fill="none" stroke="black" stroke-width="0.5"/>
<path d="M358.15 351.69L353.1 350.51"
fill="none" stroke="black" stroke-width="0.5"/>
<path d="M353.1 350.51L348.15 348.94"
fill="none" stroke="black" stroke-width="0.5"/>
<path d="M348.15 348.94L343.34 347"
fill="none" stroke="black" stroke-width="0.5"/>
<path d="M343.34 347L338.69 344.7"
fill="none" stroke="black" stroke-width="0.5"/>
<path d="M338.69 344.7L334.23 342.05"
fill="none" stroke="black" stroke-width="0.5"/>
<path d="M334.23 342.05L329.99 339.07"
fill="none" stroke="black" stroke-width="0.5"/>
<path d="M329.99 339.07L325.99 335.76"
fill="none" stroke="black" stroke-width="0.5"/>
<path d="M325.99 335.76L322.25 332.17"
fill="none" stroke="black" stroke-width="0.5"/>
<path d="M322.25 332.17L318.8 328.29"
fill="none" stroke="black" stroke-width="0.5"/>
<path d="M318.8 328.29L315.65 324.17"
fill="none" stroke="black" stroke-width="0.5"/>
<path d="M315.65 324.17L312.83 319.81"
fill="none" stroke="black" stroke-width="0.5"/>
<path d="M312.83 319.81L310.36 315.26"
fill="none" stroke="black" stroke-width="0.5"/>
<path d="M310.36 315.26L308.23 310.52"
fill="none" stroke="black" stroke-width="0.5"/>
<path d="M308.23 310.52L306.48 305.64"
fill="none" stroke="black" stroke-width="0.5"/>
<path d="M306.48 305.64L305.11 300.64"
fill="none" stroke="black" stroke-width="0.5"/>
<path d="M305.11 300.64L304.12 295.55"
fill="none" stroke="black" stroke-width="0.5"/>
<path d="M304.12 295.55L303.52 290.39"
fill="none" stroke="black" stroke-width="0.5"/>
<path d="M303.52 290.39L303.32 285.21"
fill="none" stroke="black" stroke-width="0.5"/>
<path d="M303.32 285.21L303.52 280.02"
fill="none" stroke="black" stroke-width="0.5"/>
<path d="M303.52 280.02L304.12 274.87"
fill="none" stroke="black" stroke-width="0.5"/>
<path d="M304.12 274.87L305.11 269.78"
fill="none" stroke="black" stroke-width="0.5"/>
<path d="M305.11 269.78L306.48 264.78"
fill="none" stroke="black" stroke-width="0.5"/>
<path d="M306.48 264.78L308.23 259.89"
fill="none" stroke="black" stroke-width="0.5"/>
<path d="M308.23 259.89L310.36 255.16"
fill="none" stroke="black" stroke-width="0.5"/>
<path d="M310.36 255.16L312.83 250.6"
fill="none" stroke="black" stroke-width="0.5"/>
<path d="M312.83 250.6L315.65 246.25"
fill="none" stroke="black" stroke-width="0.5"/>
<path d="M315.65 246.25L318.8 242.12"
fill="none" stroke="black" stroke-width="0.5"/>
<path d="M318.8 242.12L322.25 238.25"
fill="none" stroke="black" stroke-width="0.5"/>
<path d="M322.25 238.25L325.99 234.65"
fill="none" stroke="black" stroke-width="0.5"/>
<path d="M325.99 234.65L329.99 231.35"
fill="none" stroke="black" stroke-width="0.5"/>
<path d="M329.99 231.35L334.23 228.37"
fill="none" stroke="black" stroke-width="0.5"/>
<path d="M334.23 228.37L338.69 225.72"
fill="none" stroke="black" stroke-width="0.5"/>
<path d="M338.69 225.72L343.34 223.41"
fill="none" stroke="black" stroke-width="0.5"/>
<path d="M343.34 223.41L348.15 221.48"
fill="none" stroke="black" stroke-width="0.5"/>
<path d="M348.15 221.48L353.1 219.91"
fill="none" stroke="black" stroke-width="0.5"/>
<path d="M353.1 219.91L358.15 218.73"
fill="none" stroke="black" stroke-width="0.5"/>
<path d="M358.15 218.73L363.28 217.94"
fill="none" stroke="black" stroke-width="0.5"/>
<path d="M363.28 217.94L368.45 217.54"
fill="none" stroke="black" stroke-width="0.5"/>
<path d="M368.45 217.54L373.64 217.54"
fill="none" stroke="black" stroke-width="0.5"/>
<path d="M373.64 217.54L378.81 217.94"
fill="none" stroke="black" stroke-width="0.5"/>
<path d="M378.81 217.94L383.94 218.73"
fill="none" stroke="black" stroke-width="0.5"/>
<path d="M383.94 218.73L388.99 219.91"
fill="none" stroke="black" stroke-width="0.5"/>
<path d="M388.99 219.91L393.93 221.48"
fill="none" stroke="black" stroke-width="0.5"/>
<path d="M393.93 221.48L398.75 223.41"
fill="none" stroke="black" stroke-width="0.5"/>
<path d="M398.75 223.41L403.39 225.72"
fill="none" stroke="black" stroke-width="0.5"/>
<path d="M403.39 225.72L407.85 228.37"
fill="none" stroke="black" stroke-width="0.5"/>
<path d="M407.85 228.37L412.1 231.35"
fill="none" stroke="black" stroke-width="0.5"/>
<path d="M412.1 231.35L416.1 234.65"
fill="none" stroke="black" stroke-width="0.5"/>
<path d="M416.1 234.65L419.84 238.25"
fill="none" stroke="black" stroke-width="0.5"/>
<path d="M419.84 238.25L423.29 242.12"
fill="none" stroke="black" stroke-width="0.5"/>
<path d="M423.29 242.12L426.43 246.25"
fill="none" stroke="black" stroke-width="0.5"/>
<path d="M426.43 246.25L429.25 250.6"
fill="none" stroke="black" stroke-width="0.5"/>
<path d="M429.25 250.6L431.73 255.16"
fill="none" stroke="black" stroke-width="0.5"/>
<path d="M431.73 255.16L433.85 259.89"
fill="none" stroke="black" stroke-width="0.5"/>
<path d="M433.85 259.89L435.61 264.78"
fill="none" stroke="black" stroke-width="0.5"/>
<path d="M435.61 264.78L436.98 269.78"
fill="none" stroke="black" stroke-width="0.5"/>
<path d="M436.98 269.78L437.97 274.87"
fill="none" stroke="black" stroke-width="0.5"/>
<path d="M437.97 274.87L438.56 280.02"
fill="none" stroke="black" stroke-width="0.5"/>
<path d="M438.56 280.02L438.76 285.21"
fill="none" stroke="black" stroke-width="0.5"/>
</svg>
