<?xml version="1.0" encoding="UTF-8"?>
<svg xmlns="http://www.w3.org/2000/svg" width="800.000" height="600.000" viewBox="0.0 0.0 800.000 600.000" version="1.1">
  <desc>Produce by Acme CAD Converter</desc>
<path d="M419.4 319.66L419.4 319.66Z"
fill="none" stroke="black" stroke-width="0.5"/>
<path d="M471.15 319.66L470.96 324.18"
fill="none" stroke="black" stroke-width="0.5"/>
<path d="M470.96 324.18L470.37 328.65"
fill="none" stroke="black" stroke-width="0.5"/>
<path d="M470.37 328.65L469.39 333.06"
fill="none" stroke="black" stroke-width="0.5"/>
<path d="M469.39 333.06L468.03 337.37"
fill="none" stroke="black" stroke-width="0.5"/>
<path d="M468.03 337.37L466.31 341.54"
fill="none" stroke="black" stroke-width="0.5"/>
<path d="M466.31 341.54L464.22 345.54"
fill="none" stroke="black" stroke-width="0.5"/>
<path d="M464.22 345.54L461.79 349.35"
fill="none" stroke="black" stroke-width="0.5"/>
<path d="M461.79 349.35L459.05 352.93"
fill="none" stroke="black" stroke-width="0.5"/>
<path d="M459.05 352.93L456 356.26"
fill="none" stroke="black" stroke-width="0.5"/>
<path d="M456 356.26L452.67 359.31"
fill="none" stroke="black" stroke-width="0.5"/>
<path d="M452.67 359.31L449.08 362.06"
fill="none" stroke="black" stroke-width="0.5"/>
<path d="M449.08 362.06L445.28 364.49"
fill="none" stroke="black" stroke-width="0.5"/>
<path d="M445.28 364.49L441.27 366.57"
fill="none" stroke="black" stroke-width="0.5"/>
<path d="M441.27 366.57L437.1 368.3"
fill="none" stroke="black" stroke-width="0.5"/>
<path d="M437.1 368.3L432.79 369.66"
fill="none" stroke="black" stroke-width="0.5"/>
<path d="M432.79 369.66L428.38 370.64"
fill="none" stroke="black" stroke-width="0.5"/>
<path d="M428.38 370.64L423.91 371.23"
fill="none" stroke="black" stroke-width="0.5"/>
<path d="M423.91 371.23L419.4 371.42"
fill="none" stroke="black" stroke-width="0.5"/>
<path d="M419.4 371.42L414.89 371.23"
fill="none" stroke="black" stroke-width="0.5"/>
<path d="M414.89 371.23L410.41 370.64"
fill="none" stroke="black" stroke-width="0.5"/>
<path d="M410.41 370.64L406 369.66"
fill="none" stroke="black" stroke-width="0.5"/>
<path d="M406 369.66L401.69 368.3"
fill="none" stroke="black" stroke-width="0.5"/>
<path d="M401.69 368.3L397.52 366.57"
fill="none" stroke="black" stroke-width="0.5"/>
<path d="M397.52 366.57L393.52 364.49"
fill="none" stroke="black" stroke-width="0.5"/>
<path d="M393.52 364.49L389.71 362.06"
fill="none" stroke="black" stroke-width="0.5"/>
<path d="M389.71 362.06L386.13 359.31"
fill="none" stroke="black" stroke-width="0.5"/>
<path d="M386.13 359.31L382.8 356.26"
fill="none" stroke="black" stroke-width="0.5"/>
<path d="M382.8 356.26L379.75 352.93"
fill="none" stroke="black" stroke-width="0.5"/>
<path d="M379.75 352.93L377 349.35"
fill="none" stroke="black" stroke-width="0.5"/>
<path d="M377 349.35L374.57 345.54"
fill="none" stroke="black" stroke-width="0.5"/>
<path d="M374.57 345.54L372.49 341.54"
fill="none" stroke="black" stroke-width="0.5"/>
<path d="M372.49 341.54L370.76 337.37"
fill="none" stroke="black" stroke-width="0.5"/>
<path d="M370.76 337.37L369.4 333.06"
fill="none" stroke="black" stroke-width="0.5"/>
<path d="M369.4 333.06L368.42 328.65"
fill="none" stroke="black" stroke-width="0.5"/>
<path d="M368.42 328.65L367.84 324.18"
fill="none" stroke="black" stroke-width="0.5"/>
<path d="M367.84 324.18L367.64 319.66"
fill="none" stroke="black" stroke-width="0.5"/>
<path d="M367.64 319.66L367.84 315.15"
fill="none" stroke="black" stroke-width="0.5"/>
<path d="M367.84 315.15L368.42 310.68"
fill="none" stroke="black" stroke-width="0.5"/>
<path d="M368.42 310.68L369.4 306.27"
fill="none" stroke="black" stroke-width="0.5"/>
<path d="M369.4 306.27L370.76 301.96"
fill="none" stroke="black" stroke-width="0.5"/>
<path d="M370.76 301.96L372.49 297.79"
fill="none" stroke="black" stroke-width="0.5"/>
<path d="M372.49 297.79L374.57 293.79"
fill="none" stroke="black" stroke-width="0.5"/>
<path d="M374.57 293.79L377 289.98"
fill="none" stroke="black" stroke-width="0.5"/>
<path d="M377 289.98L379.75 286.39"
fill="none" stroke="black" stroke-width="0.5"/>
<path d="M379.75 286.39L382.8 283.07"
fill="none" stroke="black" stroke-width="0.5"/>
<path d="M382.8 283.07L386.13 280.02"
fill="none" stroke="black" stroke-width="0.5"/>
<path d="M386.13 280.02L389.71 277.27"
fill="none" stroke="black" stroke-width="0.5"/>
<path d="M389.71 277.27L393.52 274.84"
fill="none" stroke="black" stroke-width="0.5"/>
<path d="M393.52 274.84L397.52 272.76"
fill="none" stroke="black" stroke-width="0.5"/>
<path d="M397.52 272.76L401.69 271.03"
fill="none" stroke="black" stroke-width="0.5"/>
<path d="M401.69 271.03L406 269.67"
fill="none" stroke="black" stroke-width="0.5"/>
<path d="M406 269.67L410.41 268.69"
fill="none" stroke="black" stroke-width="0.5"/>
<path d="M410.41 268.69L414.89 268.1"
fill="none" stroke="black" stroke-width="0.5"/>
<path d="M414.89 268.1L419.4 267.91"
fill="none" stroke="black" stroke-width="0.5"/>
<path d="M419.4 267.91L423.91 268.1"
fill="none" stroke="black" stroke-width="0.5"/>
<path d="M423.91 268.1L428.38 268.69"
fill="none" stroke="black" stroke-width="0.5"/>
<path d="M428.38 268.69L432.79 269.67"
fill="none" stroke="black" stroke-width="0.5"/>
<path d="M432.79 269.67L437.1 271.03"
fill="none" stroke="black" stroke-width="0.5"/>
<path d="M437.1 271.03L441.27 272.76"
fill="none" stroke="black" stroke-width="0.5"/>
<path d="M441.27 272.76L445.28 274.84"
fill="none" stroke="black" stroke-width="0.5"/>
<path d="M445.28 274.84L449.08 277.27"
fill="none" stroke="black" stroke-width="0.5"/>
<path d="M449.08 277.27L452.67 280.02"
fill="none" stroke="black" stroke-width="0.5"/>
<path d="M452.67 280.02L456 283.07"
fill="none" stroke="black" stroke-width="0.5"/>
<path d="M456 283.07L459.05 286.39"
fill="none" stroke="black" stroke-width="0.5"/>
<path d="M459.05 286.39L461.79 289.98"
fill="none" stroke="black" stroke-width="0.5"/>
<path d="M461.79 289.98L464.22 293.79"
fill="none" stroke="black" stroke-width="0.5"/>
<path d="M464.22 293.79L466.31 297.79"
fill="none" stroke="black" stroke-width="0.5"/>
<path d="M466.31 297.79L468.03 301.96"
fill="none" stroke="black" stroke-width="0.5"/>
<path d="M468.03 301.96L469.39 306.27"
fill="none" stroke="black" stroke-width="0.5"/>
<path d="M469.39 306.27L470.37 310.68"
fill="none" stroke="black" stroke-width="0.5"/>
<path d="M470.37 310.68L470.96 315.15"
fill="none" stroke="black" stroke-width="0.5"/>
<path d="M470.96 315.15L471.15 319.66"
fill="none" stroke="black" stroke-width="0.5"/>
</svg>
