<?xml version="1.0" encoding="UTF-8"?>
<svg xmlns="http://www.w3.org/2000/svg" width="800.000" height="600.000" viewBox="0.0 0.0 800.000 600.000" version="1.1">
  <desc>Produce by Acme CAD Converter</desc>
<path d="M417.99 294.79L417.99 294.79Z"
fill="none" stroke="black" stroke-width="3.5"/>
<path d="M470.38 294.79L470.18 299.36"
fill="none" stroke="black" stroke-width="3.5"/>
<path d="M470.18 299.36L469.59 303.89"
fill="none" stroke="black" stroke-width="3.5"/>
<path d="M469.59 303.89L468.6 308.35"
fill="none" stroke="black" stroke-width="3.5"/>
<path d="M468.6 308.35L467.22 312.71"
fill="none" stroke="black" stroke-width="3.5"/>
<path d="M467.22 312.71L465.47 316.93"
fill="none" stroke="black" stroke-width="3.5"/>
<path d="M465.47 316.93L463.36 320.99"
fill="none" stroke="black" stroke-width="3.5"/>
<path d="M463.36 320.99L460.91 324.84"
fill="none" stroke="black" stroke-width="3.5"/>
<path d="M460.91 324.84L458.13 328.47"
fill="none" stroke="black" stroke-width="3.5"/>
<path d="M458.13 328.47L455.04 331.84"
fill="none" stroke="black" stroke-width="3.5"/>
<path d="M455.04 331.84L451.67 334.92"
fill="none" stroke="black" stroke-width="3.5"/>
<path d="M451.67 334.92L448.04 337.71"
fill="none" stroke="black" stroke-width="3.5"/>
<path d="M448.04 337.71L444.19 340.16"
fill="none" stroke="black" stroke-width="3.5"/>
<path d="M444.19 340.16L440.13 342.27"
fill="none" stroke="black" stroke-width="3.5"/>
<path d="M440.13 342.27L435.91 344.02"
fill="none" stroke="black" stroke-width="3.5"/>
<path d="M435.91 344.02L431.55 345.4"
fill="none" stroke="black" stroke-width="3.5"/>
<path d="M431.55 345.4L427.09 346.39"
fill="none" stroke="black" stroke-width="3.5"/>
<path d="M427.09 346.39L422.56 346.98"
fill="none" stroke="black" stroke-width="3.5"/>
<path d="M422.56 346.98L417.99 347.18"
fill="none" stroke="black" stroke-width="3.5"/>
<path d="M417.99 347.18L413.43 346.98"
fill="none" stroke="black" stroke-width="3.5"/>
<path d="M413.43 346.98L408.89 346.39"
fill="none" stroke="black" stroke-width="3.5"/>
<path d="M408.89 346.39L404.43 345.4"
fill="none" stroke="black" stroke-width="3.5"/>
<path d="M404.43 345.4L400.07 344.02"
fill="none" stroke="black" stroke-width="3.5"/>
<path d="M400.07 344.02L395.85 342.27"
fill="none" stroke="black" stroke-width="3.5"/>
<path d="M395.85 342.27L391.8 340.16"
fill="none" stroke="black" stroke-width="3.5"/>
<path d="M391.8 340.16L387.94 337.71"
fill="none" stroke="black" stroke-width="3.5"/>
<path d="M387.94 337.71L384.31 334.92"
fill="none" stroke="black" stroke-width="3.5"/>
<path d="M384.31 334.92L380.95 331.84"
fill="none" stroke="black" stroke-width="3.5"/>
<path d="M380.95 331.84L377.86 328.47"
fill="none" stroke="black" stroke-width="3.5"/>
<path d="M377.86 328.47L375.07 324.84"
fill="none" stroke="black" stroke-width="3.5"/>
<path d="M375.07 324.84L372.62 320.99"
fill="none" stroke="black" stroke-width="3.5"/>
<path d="M372.62 320.99L370.51 316.93"
fill="none" stroke="black" stroke-width="3.5"/>
<path d="M370.51 316.93L368.76 312.71"
fill="none" stroke="black" stroke-width="3.5"/>
<path d="M368.76 312.71L367.39 308.35"
fill="none" stroke="black" stroke-width="3.5"/>
<path d="M367.39 308.35L366.4 303.89"
fill="none" stroke="black" stroke-width="3.5"/>
<path d="M366.4 303.89L365.8 299.36"
fill="none" stroke="black" stroke-width="3.5"/>
<path d="M365.8 299.36L365.6 294.79"
fill="none" stroke="black" stroke-width="3.5"/>
<path d="M365.6 294.79L365.8 290.22"
fill="none" stroke="black" stroke-width="3.5"/>
<path d="M365.8 290.22L366.4 285.69"
fill="none" stroke="black" stroke-width="3.5"/>
<path d="M366.4 285.69L367.39 281.23"
fill="none" stroke="black" stroke-width="3.5"/>
<path d="M367.39 281.23L368.76 276.87"
fill="none" stroke="black" stroke-width="3.5"/>
<path d="M368.76 276.87L370.51 272.65"
fill="none" stroke="black" stroke-width="3.5"/>
<path d="M370.51 272.65L372.62 268.59"
fill="none" stroke="black" stroke-width="3.5"/>
<path d="M372.62 268.59L375.07 264.74"
fill="none" stroke="black" stroke-width="3.5"/>
<path d="M375.07 264.74L377.86 261.11"
fill="none" stroke="black" stroke-width="3.5"/>
<path d="M377.86 261.11L380.95 257.74"
fill="none" stroke="black" stroke-width="3.5"/>
<path d="M380.95 257.74L384.31 254.66"
fill="none" stroke="black" stroke-width="3.5"/>
<path d="M384.31 254.66L387.94 251.87"
fill="none" stroke="black" stroke-width="3.5"/>
<path d="M387.94 251.87L391.8 249.42"
fill="none" stroke="black" stroke-width="3.5"/>
<path d="M391.8 249.42L395.85 247.31"
fill="none" stroke="black" stroke-width="3.5"/>
<path d="M395.85 247.31L400.07 245.56"
fill="none" stroke="black" stroke-width="3.5"/>
<path d="M400.07 245.56L404.43 244.18"
fill="none" stroke="black" stroke-width="3.5"/>
<path d="M404.43 244.18L408.89 243.19"
fill="none" stroke="black" stroke-width="3.5"/>
<path d="M408.89 243.19L413.43 242.6"
fill="none" stroke="black" stroke-width="3.5"/>
<path d="M413.43 242.6L417.99 242.4"
fill="none" stroke="black" stroke-width="3.5"/>
<path d="M417.99 242.4L422.56 242.6"
fill="none" stroke="black" stroke-width="3.5"/>
<path d="M422.56 242.6L427.09 243.19"
fill="none" stroke="black" stroke-width="3.5"/>
<path d="M427.09 243.19L431.55 244.18"
fill="none" stroke="black" stroke-width="3.5"/>
<path d="M431.55 244.18L435.91 245.56"
fill="none" stroke="black" stroke-width="3.5"/>
<path d="M435.91 245.56L440.13 247.31"
fill="none" stroke="black" stroke-width="3.5"/>
<path d="M440.13 247.31L444.19 249.42"
fill="none" stroke="black" stroke-width="3.5"/>
<path d="M444.19 249.42L448.04 251.87"
fill="none" stroke="black" stroke-width="3.5"/>
<path d="M448.04 251.87L451.67 254.66"
fill="none" stroke="black" stroke-width="3.5"/>
<path d="M451.67 254.66L455.04 257.74"
fill="none" stroke="black" stroke-width="3.5"/>
<path d="M455.04 257.74L458.13 261.11"
fill="none" stroke="black" stroke-width="3.5"/>
<path d="M458.13 261.11L460.91 264.74"
fill="none" stroke="black" stroke-width="3.5"/>
<path d="M460.91 264.74L463.36 268.59"
fill="none" stroke="black" stroke-width="3.5"/>
<path d="M463.36 268.59L465.47 272.65"
fill="none" stroke="black" stroke-width="3.5"/>
<path d="M465.47 272.65L467.22 276.87"
fill="none" stroke="black" stroke-width="3.5"/>
<path d="M467.22 276.87L468.6 281.23"
fill="none" stroke="black" stroke-width="3.5"/>
<path d="M468.6 281.23L469.59 285.69"
fill="none" stroke="black" stroke-width="3.5"/>
<path d="M469.59 285.69L470.18 290.22"
fill="none" stroke="black" stroke-width="3.5"/>
<path d="M470.18 290.22L470.38 294.79"
fill="none" stroke="black" stroke-width="3.5"/>
<path d="M444.19 294.66L443.99 297.87"
fill="none" stroke="black" stroke-width="3.5"/>
<path d="M443.99 297.87L443.4 301.04"
fill="none" stroke="black" stroke-width="3.5"/>
<path d="M443.4 301.04L442.42 304.12"
fill="none" stroke="black" stroke-width="3.5"/>
<path d="M442.42 304.12L441.07 307.05"
fill="none" stroke="black" stroke-width="3.5"/>
<path d="M441.07 307.05L439.37 309.79"
fill="none" stroke="black" stroke-width="3.5"/>
<path d="M439.37 309.79L437.35 312.3"
fill="none" stroke="black" stroke-width="3.5"/>
<path d="M437.35 312.3L435.04 314.55"
fill="none" stroke="black" stroke-width="3.5"/>
<path d="M435.04 314.55L432.46 316.49"
fill="none" stroke="black" stroke-width="3.5"/>
<path d="M432.46 316.49L429.67 318.1"
fill="none" stroke="black" stroke-width="3.5"/>
<path d="M429.67 318.1L426.7 319.36"
fill="none" stroke="black" stroke-width="3.5"/>
<path d="M426.7 319.36L423.6 320.24"
fill="none" stroke="black" stroke-width="3.5"/>
<path d="M423.6 320.24L420.41 320.74"
fill="none" stroke="black" stroke-width="3.5"/>
<path d="M420.41 320.74L417.18 320.84"
fill="none" stroke="black" stroke-width="3.5"/>
<path d="M417.18 320.84L413.97 320.54"
fill="none" stroke="black" stroke-width="3.5"/>
<path d="M413.97 320.54L410.82 319.85"
fill="none" stroke="black" stroke-width="3.5"/>
<path d="M410.82 319.85L407.78 318.78"
fill="none" stroke="black" stroke-width="3.5"/>
<path d="M407.78 318.78L404.89 317.34"
fill="none" stroke="black" stroke-width="3.5"/>
<path d="M404.89 317.34L402.21 315.56"
fill="none" stroke="black" stroke-width="3.5"/>
<path d="M402.21 315.56L399.76 313.46"
fill="none" stroke="black" stroke-width="3.5"/>
<path d="M399.76 313.46L397.58 311.08"
fill="none" stroke="black" stroke-width="3.5"/>
<path d="M397.58 311.08L395.72 308.45"
fill="none" stroke="black" stroke-width="3.5"/>
<path d="M395.72 308.45L394.19 305.6"
fill="none" stroke="black" stroke-width="3.5"/>
<path d="M394.19 305.6L393.03 302.6"
fill="none" stroke="black" stroke-width="3.5"/>
<path d="M393.03 302.6L392.24 299.47"
fill="none" stroke="black" stroke-width="3.5"/>
<path d="M392.24 299.47L391.85 296.27"
fill="none" stroke="black" stroke-width="3.5"/>
<path d="M391.85 296.27L391.85 293.04Z"
fill="none" stroke="black" stroke-width="3.5"/>
<path d="M391.85 293.04L392.24 289.84"
fill="none" stroke="black" stroke-width="3.5"/>
<path d="M392.24 289.84L393.03 286.71"
fill="none" stroke="black" stroke-width="3.5"/>
<path d="M393.03 286.71L394.19 283.71"
fill="none" stroke="black" stroke-width="3.5"/>
<path d="M394.19 283.71L395.72 280.86"
fill="none" stroke="black" stroke-width="3.5"/>
<path d="M395.72 280.86L397.58 278.23"
fill="none" stroke="black" stroke-width="3.5"/>
<path d="M397.58 278.23L399.76 275.85"
fill="none" stroke="black" stroke-width="3.5"/>
<path d="M399.76 275.85L402.21 273.75"
fill="none" stroke="black" stroke-width="3.5"/>
<path d="M402.21 273.75L404.89 271.97"
fill="none" stroke="black" stroke-width="3.5"/>
<path d="M404.89 271.97L407.78 270.53"
fill="none" stroke="black" stroke-width="3.5"/>
<path d="M407.78 270.53L410.82 269.46"
fill="none" stroke="black" stroke-width="3.5"/>
<path d="M410.82 269.46L413.97 268.77"
fill="none" stroke="black" stroke-width="3.5"/>
<path d="M413.97 268.77L417.18 268.47"
fill="none" stroke="black" stroke-width="3.5"/>
<path d="M417.18 268.47L420.41 268.57"
fill="none" stroke="black" stroke-width="3.5"/>
<path d="M420.41 268.57L423.6 269.07"
fill="none" stroke="black" stroke-width="3.5"/>
<path d="M423.6 269.07L426.7 269.95"
fill="none" stroke="black" stroke-width="3.5"/>
<path d="M426.7 269.95L429.67 271.21"
fill="none" stroke="black" stroke-width="3.5"/>
<path d="M429.67 271.21L432.46 272.82"
fill="none" stroke="black" stroke-width="3.5"/>
<path d="M432.46 272.82L435.04 274.76"
fill="none" stroke="black" stroke-width="3.5"/>
<path d="M435.04 274.76L437.35 277.01"
fill="none" stroke="black" stroke-width="3.5"/>
<path d="M437.35 277.01L439.37 279.52"
fill="none" stroke="black" stroke-width="3.5"/>
<path d="M439.37 279.52L441.07 282.26"
fill="none" stroke="black" stroke-width="3.5"/>
<path d="M441.07 282.26L442.42 285.19"
fill="none" stroke="black" stroke-width="3.5"/>
<path d="M442.42 285.19L443.4 288.27"
fill="none" stroke="black" stroke-width="3.5"/>
<path d="M443.4 288.27L443.99 291.44"
fill="none" stroke="black" stroke-width="3.5"/>
<path d="M443.99 291.44L444.19 294.66"
fill="none" stroke="black" stroke-width="3.5"/>
</svg>
