<?xml version="1.0" encoding="UTF-8"?>
<svg xmlns="http://www.w3.org/2000/svg" width="800.000" height="600.000" viewBox="0.0 0.0 800.000 600.000" version="1.1">
  <desc>Produce by Acme CAD Converter</desc>
<path d="M292.31 311.51L309.98 311.51 309.98 361.58 292.31 379.25 292.31 311.51Z"
fill="cyan" stroke="cyan" stroke-width="0.2"/>
<path d="M292.31 379.25L309.98 361.58 330.6 361.58 330.6 379.25 292.31 379.25Z"
fill="cyan" stroke="cyan" stroke-width="0.2"/>
<path d="M309.98 311.51L292.31 311.51 292.31 243.76 309.98 261.43 309.98 311.51Z"
fill="cyan" stroke="cyan" stroke-width="0.2"/>
<path d="M309.98 261.43L292.31 243.76 330.6 243.76 330.6 261.43 309.98 261.43Z"
fill="cyan" stroke="cyan" stroke-width="0.2"/>
<path d="M301.14 311.51L322.24 313.6"
fill="none" stroke="cyan" stroke-width="3.5"/>
<path d="M322.24 313.6L340.23 316.52"
fill="none" stroke="cyan" stroke-width="3.5"/>
<path d="M340.23 316.52L355.52 319.91"
fill="none" stroke="cyan" stroke-width="3.5"/>
<path d="M355.52 319.91L368.52 323.44"
fill="none" stroke="cyan" stroke-width="3.5"/>
<path d="M368.52 323.44L379.64 326.77"
fill="none" stroke="cyan" stroke-width="3.5"/>
<path d="M379.64 326.77L389.27 329.55"
fill="none" stroke="cyan" stroke-width="3.5"/>
<path d="M389.27 329.55L397.83 331.44"
fill="none" stroke="cyan" stroke-width="3.5"/>
<path d="M397.83 331.44L405.72 332.11"
fill="none" stroke="cyan" stroke-width="3.5"/>
<path d="M405.72 332.11L413.32 331.32"
fill="none" stroke="cyan" stroke-width="3.5"/>
<path d="M413.32 331.32L420.88 329.31"
fill="none" stroke="cyan" stroke-width="3.5"/>
<path d="M420.88 329.31L428.62 326.45"
fill="none" stroke="cyan" stroke-width="3.5"/>
<path d="M428.62 326.45L436.77 323.07"
fill="none" stroke="cyan" stroke-width="3.5"/>
<path d="M436.77 323.07L445.54 319.53"
fill="none" stroke="cyan" stroke-width="3.5"/>
<path d="M445.54 319.53L455.17 316.19"
fill="none" stroke="cyan" stroke-width="3.5"/>
<path d="M455.17 316.19L465.87 313.4"
fill="none" stroke="cyan" stroke-width="3.5"/>
<path d="M465.87 313.4L477.87 311.51"
fill="none" stroke="cyan" stroke-width="3.5"/>
</svg>
