<?xml version="1.0" encoding="UTF-8"?>
<svg xmlns="http://www.w3.org/2000/svg" width="800.000" height="600.000" viewBox="0.0 0.0 800.000 600.000" version="1.1">
  <desc>Produce by Acme CAD Converter</desc>
<path d="M369.72 295.61L394.52 293.14"
fill="none" stroke="cyan" stroke-width="3.5"/>
<path d="M394.52 293.14L415.67 289.72"
fill="none" stroke="cyan" stroke-width="3.5"/>
<path d="M415.67 289.72L433.65 285.73"
fill="none" stroke="cyan" stroke-width="3.5"/>
<path d="M433.65 285.73L448.94 281.58"
fill="none" stroke="cyan" stroke-width="3.5"/>
<path d="M448.94 281.58L462.01 277.67"
fill="none" stroke="cyan" stroke-width="3.5"/>
<path d="M462.01 277.67L473.33 274.4"
fill="none" stroke="cyan" stroke-width="3.5"/>
<path d="M473.33 274.4L483.4 272.17"
fill="none" stroke="cyan" stroke-width="3.5"/>
<path d="M483.4 272.17L492.67 271.39"
fill="none" stroke="cyan" stroke-width="3.5"/>
<path d="M492.67 271.39L501.61 272.31"
fill="none" stroke="cyan" stroke-width="3.5"/>
<path d="M501.61 272.31L510.49 274.67"
fill="none" stroke="cyan" stroke-width="3.5"/>
<path d="M510.49 274.67L519.59 278.04"
fill="none" stroke="cyan" stroke-width="3.5"/>
<path d="M519.59 278.04L529.17 282.02"
fill="none" stroke="cyan" stroke-width="3.5"/>
<path d="M529.17 282.02L539.49 286.17"
fill="none" stroke="cyan" stroke-width="3.5"/>
<path d="M539.49 286.17L550.81 290.1"
fill="none" stroke="cyan" stroke-width="3.5"/>
<path d="M550.81 290.1L563.4 293.38"
fill="none" stroke="cyan" stroke-width="3.5"/>
<path d="M563.4 293.38L577.51 295.61"
fill="none" stroke="cyan" stroke-width="3.5"/>
<path d="M317.77 347.55L324.03 347.18 317.77 295.61 317.77 295.61 317.77 347.55Z"
fill-rule="nonzero" fill="cyan"/>
<path d="M324.03 347.18L330.2 346.04 317.77 295.61 317.77 295.61 324.03 347.18Z"
fill-rule="nonzero" fill="cyan"/>
<path d="M330.2 346.04L336.19 344.18 317.77 295.61 317.77 295.61 330.2 346.04Z"
fill-rule="nonzero" fill="cyan"/>
<path d="M336.19 344.18L341.91 341.6 317.77 295.61 317.77 295.61 336.19 344.18Z"
fill-rule="nonzero" fill="cyan"/>
<path d="M341.91 341.6L347.28 338.36 317.77 295.61 317.77 295.61 341.91 341.6Z"
fill-rule="nonzero" fill="cyan"/>
<path d="M347.28 338.36L352.22 334.49 317.77 295.61 317.77 295.61 347.28 338.36Z"
fill-rule="nonzero" fill="cyan"/>
<path d="M352.22 334.49L356.65 330.05 317.77 295.61 317.77 295.61 352.22 334.49Z"
fill-rule="nonzero" fill="cyan"/>
<path d="M356.65 330.05L360.52 325.12 317.77 295.61 317.77 295.61 356.65 330.05Z"
fill-rule="nonzero" fill="cyan"/>
<path d="M360.52 325.12L363.77 319.75 317.77 295.61 317.77 295.61 360.52 325.12Z"
fill-rule="nonzero" fill="cyan"/>
<path d="M363.77 319.75L366.34 314.03 317.77 295.61 317.77 295.61 363.77 319.75Z"
fill-rule="nonzero" fill="cyan"/>
<path d="M366.34 314.03L368.21 308.04 317.77 295.61 317.77 295.61 366.34 314.03Z"
fill-rule="nonzero" fill="cyan"/>
<path d="M368.21 308.04L369.34 301.87 317.77 295.61 317.77 295.61 368.21 308.04Z"
fill-rule="nonzero" fill="cyan"/>
<path d="M369.34 301.87L369.72 295.61 317.77 295.61 317.77 295.61 369.34 301.87Z"
fill-rule="nonzero" fill="cyan"/>
<path d="M369.72 295.61L369.34 289.35 317.77 295.61 317.77 295.61 369.72 295.61Z"
fill-rule="nonzero" fill="cyan"/>
<path d="M369.34 289.35L368.21 283.18 317.77 295.61 317.77 295.61 369.34 289.35Z"
fill-rule="nonzero" fill="cyan"/>
<path d="M368.21 283.18L366.34 277.19 317.77 295.61 317.77 295.61 368.21 283.18Z"
fill-rule="nonzero" fill="cyan"/>
<path d="M366.34 277.19L363.77 271.47 317.77 295.61 317.77 295.61 366.34 277.19Z"
fill-rule="nonzero" fill="cyan"/>
<path d="M363.77 271.47L360.52 266.1 317.77 295.61 317.77 295.61 363.77 271.47Z"
fill-rule="nonzero" fill="cyan"/>
<path d="M360.52 266.1L356.65 261.16 317.77 295.61 317.77 295.61 360.52 266.1Z"
fill-rule="nonzero" fill="cyan"/>
<path d="M356.65 261.16L352.22 256.72 317.77 295.61 317.77 295.61 356.65 261.16Z"
fill-rule="nonzero" fill="cyan"/>
<path d="M352.22 256.72L347.28 252.86 317.77 295.61 317.77 295.61 352.22 256.72Z"
fill-rule="nonzero" fill="cyan"/>
<path d="M347.28 252.86L341.91 249.61 317.77 295.61 317.77 295.61 347.28 252.86Z"
fill-rule="nonzero" fill="cyan"/>
<path d="M341.91 249.61L336.19 247.04 317.77 295.61 317.77 295.61 341.91 249.61Z"
fill-rule="nonzero" fill="cyan"/>
<path d="M336.19 247.04L330.2 245.17 317.77 295.61 317.77 295.61 336.19 247.04Z"
fill-rule="nonzero" fill="cyan"/>
<path d="M330.2 245.17L324.03 244.04 317.77 295.61 317.77 295.61 330.2 245.17Z"
fill-rule="nonzero" fill="cyan"/>
<path d="M324.03 244.04L317.77 243.66 317.77 295.61 317.77 295.61 324.03 244.04Z"
fill-rule="nonzero" fill="cyan"/>
<path d="M317.77 243.66L311.51 244.04 317.77 295.61 317.77 295.61 317.77 243.66Z"
fill-rule="nonzero" fill="cyan"/>
<path d="M311.51 244.04L305.34 245.17 317.77 295.61 317.77 295.61 311.51 244.04Z"
fill-rule="nonzero" fill="cyan"/>
<path d="M305.34 245.17L299.35 247.04 317.77 295.61 317.77 295.61 305.34 245.17Z"
fill-rule="nonzero" fill="cyan"/>
<path d="M299.35 247.04L293.63 249.61 317.77 295.61 317.77 295.61 299.35 247.04Z"
fill-rule="nonzero" fill="cyan"/>
<path d="M293.63 249.61L288.26 252.86 317.77 295.61 317.77 295.61 293.63 249.61Z"
fill-rule="nonzero" fill="cyan"/>
<path d="M288.26 252.86L283.32 256.72 317.77 295.61 317.77 295.61 288.26 252.86Z"
fill-rule="nonzero" fill="cyan"/>
<path d="M283.32 256.72L278.89 261.16 317.77 295.61 317.77 295.61 283.32 256.72Z"
fill-rule="nonzero" fill="cyan"/>
<path d="M278.89 261.16L275.02 266.1 317.77 295.61 317.77 295.61 278.89 261.16Z"
fill-rule="nonzero" fill="cyan"/>
<path d="M275.02 266.1L271.77 271.47 317.77 295.61 317.77 295.61 275.02 266.1Z"
fill-rule="nonzero" fill="cyan"/>
<path d="M271.77 271.47L269.2 277.19 317.77 295.61 317.77 295.61 271.77 271.47Z"
fill-rule="nonzero" fill="cyan"/>
<path d="M269.2 277.19L267.33 283.18 317.77 295.61 317.77 295.61 269.2 277.19Z"
fill-rule="nonzero" fill="cyan"/>
<path d="M267.33 283.18L266.2 289.35 317.77 295.61 317.77 295.61 267.33 283.18Z"
fill-rule="nonzero" fill="cyan"/>
<path d="M266.2 289.35L265.82 295.61 317.77 295.61 317.77 295.61 266.2 289.35Z"
fill-rule="nonzero" fill="cyan"/>
<path d="M265.82 295.61L266.2 301.87 317.77 295.61 317.77 295.61 265.82 295.61Z"
fill-rule="nonzero" fill="cyan"/>
<path d="M266.2 301.87L267.33 308.04 317.77 295.61 317.77 295.61 266.2 301.87Z"
fill-rule="nonzero" fill="cyan"/>
<path d="M267.33 308.04L269.2 314.03 317.77 295.61 317.77 295.61 267.33 308.04Z"
fill-rule="nonzero" fill="cyan"/>
<path d="M269.2 314.03L271.77 319.75 317.77 295.61 317.77 295.61 269.2 314.03Z"
fill-rule="nonzero" fill="cyan"/>
<path d="M271.77 319.75L275.02 325.12 317.77 295.61 317.77 295.61 271.77 319.75Z"
fill-rule="nonzero" fill="cyan"/>
<path d="M275.02 325.12L278.89 330.05 317.77 295.61 317.77 295.61 275.02 325.12Z"
fill-rule="nonzero" fill="cyan"/>
<path d="M278.89 330.05L283.32 334.49 317.77 295.61 317.77 295.61 278.89 330.05Z"
fill-rule="nonzero" fill="cyan"/>
<path d="M283.32 334.49L288.26 338.36 317.77 295.61 317.77 295.61 283.32 334.49Z"
fill-rule="nonzero" fill="cyan"/>
<path d="M288.26 338.36L293.63 341.6 317.77 295.61 317.77 295.61 288.26 338.36Z"
fill-rule="nonzero" fill="cyan"/>
<path d="M293.63 341.6L299.35 344.18 317.77 295.61 317.77 295.61 293.63 341.6Z"
fill-rule="nonzero" fill="cyan"/>
<path d="M299.35 344.18L305.34 346.04 317.77 295.61 317.77 295.61 299.35 344.18Z"
fill-rule="nonzero" fill="cyan"/>
<path d="M305.34 346.04L311.51 347.18 317.77 295.61 317.77 295.61 305.34 346.04Z"
fill-rule="nonzero" fill="cyan"/>
<path d="M311.51 347.18L317.77 347.55 317.77 295.61 317.77 295.61 311.51 347.18Z"
fill-rule="nonzero" fill="cyan"/>
</svg>
