<?xml version="1.0" encoding="UTF-8"?>
<svg xmlns="http://www.w3.org/2000/svg" width="800.000" height="600.000" viewBox="0.0 0.0 800.000 600.000" version="1.1">
  <desc>Produce by Acme CAD Converter</desc>
<path d="M487.95 266.1L487.75 271.28"
fill="none" stroke="black" stroke-width="0.5"/>
<path d="M487.75 271.28L487.15 276.43"
fill="none" stroke="black" stroke-width="0.5"/>
<path d="M487.15 276.43L486.16 281.52"
fill="none" stroke="black" stroke-width="0.5"/>
<path d="M486.16 281.52L484.79 286.52"
fill="none" stroke="black" stroke-width="0.5"/>
<path d="M484.79 286.52L483.04 291.41"
fill="none" stroke="black" stroke-width="0.5"/>
<path d="M483.04 291.41L480.92 296.14"
fill="none" stroke="black" stroke-width="0.5"/>
<path d="M480.92 296.14L478.44 300.7"
fill="none" stroke="black" stroke-width="0.5"/>
<path d="M478.44 300.7L475.62 305.05"
fill="none" stroke="black" stroke-width="0.5"/>
<path d="M475.62 305.05L472.47 309.17"
fill="none" stroke="black" stroke-width="0.5"/>
<path d="M472.47 309.17L469.02 313.05"
fill="none" stroke="black" stroke-width="0.5"/>
<path d="M469.02 313.05L465.29 316.64"
fill="none" stroke="black" stroke-width="0.5"/>
<path d="M465.29 316.64L461.28 319.94"
fill="none" stroke="black" stroke-width="0.5"/>
<path d="M461.28 319.94L457.04 322.93"
fill="none" stroke="black" stroke-width="0.5"/>
<path d="M457.04 322.93L452.58 325.58"
fill="none" stroke="black" stroke-width="0.5"/>
<path d="M452.58 325.58L447.93 327.88"
fill="none" stroke="black" stroke-width="0.5"/>
<path d="M447.93 327.88L443.12 329.82"
fill="none" stroke="black" stroke-width="0.5"/>
<path d="M443.12 329.82L438.18 331.38"
fill="none" stroke="black" stroke-width="0.5"/>
<path d="M438.18 331.38L433.13 332.56"
fill="none" stroke="black" stroke-width="0.5"/>
<path d="M433.13 332.56L428 333.36"
fill="none" stroke="black" stroke-width="0.5"/>
<path d="M428 333.36L422.83 333.75"
fill="none" stroke="black" stroke-width="0.5"/>
<path d="M422.83 333.75L417.64 333.75"
fill="none" stroke="black" stroke-width="0.5"/>
<path d="M417.64 333.75L412.47 333.36"
fill="none" stroke="black" stroke-width="0.5"/>
<path d="M412.47 333.36L407.35 332.56"
fill="none" stroke="black" stroke-width="0.5"/>
<path d="M407.35 332.56L402.3 331.38"
fill="none" stroke="black" stroke-width="0.5"/>
<path d="M402.3 331.38L397.35 329.82"
fill="none" stroke="black" stroke-width="0.5"/>
<path d="M397.35 329.82L392.54 327.88"
fill="none" stroke="black" stroke-width="0.5"/>
<path d="M392.54 327.88L387.89 325.58"
fill="none" stroke="black" stroke-width="0.5"/>
<path d="M387.89 325.58L383.43 322.93"
fill="none" stroke="black" stroke-width="0.5"/>
<path d="M383.43 322.93L379.19 319.94"
fill="none" stroke="black" stroke-width="0.5"/>
<path d="M379.19 319.94L375.19 316.64"
fill="none" stroke="black" stroke-width="0.5"/>
<path d="M375.19 316.64L371.45 313.05"
fill="none" stroke="black" stroke-width="0.5"/>
<path d="M371.45 313.05L368 309.17"
fill="none" stroke="black" stroke-width="0.5"/>
<path d="M368 309.17L364.86 305.05"
fill="none" stroke="black" stroke-width="0.5"/>
<path d="M364.86 305.05L362.04 300.7"
fill="none" stroke="black" stroke-width="0.5"/>
<path d="M362.04 300.7L359.56 296.14"
fill="none" stroke="black" stroke-width="0.5"/>
<path d="M359.56 296.14L357.44 291.41"
fill="none" stroke="black" stroke-width="0.5"/>
<path d="M357.44 291.41L355.69 286.52"
fill="none" stroke="black" stroke-width="0.5"/>
<path d="M355.69 286.52L354.31 281.52"
fill="none" stroke="black" stroke-width="0.5"/>
<path d="M354.31 281.52L353.32 276.43"
fill="none" stroke="black" stroke-width="0.5"/>
<path d="M353.32 276.43L352.73 271.28"
fill="none" stroke="black" stroke-width="0.5"/>
<path d="M352.73 271.28L352.53 266.1"
fill="none" stroke="black" stroke-width="0.5"/>
<path d="M352.53 266.1L352.73 260.91"
fill="none" stroke="black" stroke-width="0.5"/>
<path d="M352.73 260.91L353.32 255.76"
fill="none" stroke="black" stroke-width="0.5"/>
<path d="M353.32 255.76L354.31 250.67"
fill="none" stroke="black" stroke-width="0.5"/>
<path d="M354.31 250.67L355.69 245.67"
fill="none" stroke="black" stroke-width="0.5"/>
<path d="M355.69 245.67L357.44 240.78"
fill="none" stroke="black" stroke-width="0.5"/>
<path d="M357.44 240.78L359.56 236.05"
fill="none" stroke="black" stroke-width="0.5"/>
<path d="M359.56 236.05L362.04 231.5"
fill="none" stroke="black" stroke-width="0.5"/>
<path d="M362.04 231.5L364.86 227.14"
fill="none" stroke="black" stroke-width="0.5"/>
<path d="M364.86 227.14L368 223.02"
fill="none" stroke="black" stroke-width="0.5"/>
<path d="M368 223.02L371.45 219.14"
fill="none" stroke="black" stroke-width="0.5"/>
<path d="M371.45 219.14L375.19 215.55"
fill="none" stroke="black" stroke-width="0.5"/>
<path d="M375.19 215.55L379.19 212.25"
fill="none" stroke="black" stroke-width="0.5"/>
<path d="M379.19 212.25L383.43 209.26"
fill="none" stroke="black" stroke-width="0.5"/>
<path d="M383.43 209.26L387.89 206.61"
fill="none" stroke="black" stroke-width="0.5"/>
<path d="M387.89 206.61L392.54 204.31"
fill="none" stroke="black" stroke-width="0.5"/>
<path d="M392.54 204.31L397.35 202.37"
fill="none" stroke="black" stroke-width="0.5"/>
<path d="M397.35 202.37L402.3 200.81"
fill="none" stroke="black" stroke-width="0.5"/>
<path d="M402.3 200.81L407.35 199.63"
fill="none" stroke="black" stroke-width="0.5"/>
<path d="M407.35 199.63L412.47 198.83"
fill="none" stroke="black" stroke-width="0.5"/>
<path d="M412.47 198.83L417.64 198.44"
fill="none" stroke="black" stroke-width="0.5"/>
<path d="M417.64 198.44L422.83 198.44"
fill="none" stroke="black" stroke-width="0.5"/>
<path d="M422.83 198.44L428 198.83"
fill="none" stroke="black" stroke-width="0.5"/>
<path d="M428 198.83L433.13 199.63"
fill="none" stroke="black" stroke-width="0.5"/>
<path d="M433.13 199.63L438.18 200.81"
fill="none" stroke="black" stroke-width="0.5"/>
<path d="M438.18 200.81L443.12 202.37"
fill="none" stroke="black" stroke-width="0.5"/>
<path d="M443.12 202.37L447.93 204.31"
fill="none" stroke="black" stroke-width="0.5"/>
<path d="M447.93 204.31L452.58 206.61"
fill="none" stroke="black" stroke-width="0.5"/>
<path d="M452.58 206.61L457.04 209.26"
fill="none" stroke="black" stroke-width="0.5"/>
<path d="M457.04 209.26L461.28 212.25"
fill="none" stroke="black" stroke-width="0.5"/>
<path d="M461.28 212.25L465.29 215.55"
fill="none" stroke="black" stroke-width="0.5"/>
<path d="M465.29 215.55L469.02 219.14"
fill="none" stroke="black" stroke-width="0.5"/>
<path d="M469.02 219.14L472.47 223.02"
fill="none" stroke="black" stroke-width="0.5"/>
<path d="M472.47 223.02L475.62 227.14"
fill="none" stroke="black" stroke-width="0.5"/>
<path d="M475.62 227.14L478.44 231.5"
fill="none" stroke="black" stroke-width="0.5"/>
<path d="M478.44 231.5L480.92 236.05"
fill="none" stroke="black" stroke-width="0.5"/>
<path d="M480.92 236.05L483.04 240.78"
fill="none" stroke="black" stroke-width="0.5"/>
<path d="M483.04 240.78L484.79 245.67"
fill="none" stroke="black" stroke-width="0.5"/>
<path d="M484.79 245.67L486.16 250.67"
fill="none" stroke="black" stroke-width="0.5"/>
<path d="M486.16 250.67L487.15 255.76"
fill="none" stroke="black" stroke-width="0.5"/>
<path d="M487.15 255.76L487.75 260.91"
fill="none" stroke="black" stroke-width="0.5"/>
<path d="M487.75 260.91L487.95 266.1"
fill="none" stroke="black" stroke-width="0.5"/>
<path d="M372.36 313.97L468.11 218.22"
fill="none" stroke="black" stroke-width="0.5"/>
<path d="M468.11 313.97L372.36 218.22"
fill="none" stroke="black" stroke-width="0.5"/>
<path d="M388.81 266.72L388.81 265.47 388.79 266.1 388.81 266.72Z"
fill="black" stroke="black" stroke-width="0.2"/>
<path d="M388.81 266.72L388.87 267.34 388.81 265.47 388.81 266.72Z"
fill="black" stroke="black" stroke-width="0.2"/>
<path d="M388.87 267.34L388.87 264.85 388.81 265.47 388.87 267.34Z"
fill="black" stroke="black" stroke-width="0.2"/>
<path d="M388.87 267.34L388.97 267.96 388.87 264.85 388.87 267.34Z"
fill="black" stroke="black" stroke-width="0.2"/>
<path d="M388.97 267.96L388.97 264.23 388.87 264.85 388.97 267.96Z"
fill="black" stroke="black" stroke-width="0.2"/>
<path d="M388.97 267.96L389.1 268.57 388.97 264.23 388.97 267.96Z"
fill="black" stroke="black" stroke-width="0.2"/>
<path d="M389.1 268.57L389.1 263.62 388.97 264.23 389.1 268.57Z"
fill="black" stroke="black" stroke-width="0.2"/>
<path d="M389.1 268.57L389.27 269.17 389.1 263.62 389.1 268.57Z"
fill="black" stroke="black" stroke-width="0.2"/>
<path d="M389.27 269.17L389.27 263.02 389.1 263.62 389.27 269.17Z"
fill="black" stroke="black" stroke-width="0.2"/>
<path d="M389.27 269.17L389.48 269.76 389.27 263.02 389.27 269.17Z"
fill="black" stroke="black" stroke-width="0.2"/>
<path d="M389.48 269.76L389.48 262.43 389.27 263.02 389.48 269.76Z"
fill="black" stroke="black" stroke-width="0.2"/>
<path d="M389.48 269.76L389.72 270.34 389.48 262.43 389.48 269.76Z"
fill="black" stroke="black" stroke-width="0.2"/>
<path d="M389.72 270.34L389.72 261.85 389.48 262.43 389.72 270.34Z"
fill="black" stroke="black" stroke-width="0.2"/>
<path d="M389.72 270.34L390 270.9 389.72 261.85 389.72 270.34Z"
fill="black" stroke="black" stroke-width="0.2"/>
<path d="M390 270.9L390 261.29 389.72 261.85 390 270.9Z"
fill="black" stroke="black" stroke-width="0.2"/>
<path d="M390 270.9L390.31 271.44 390 261.29 390 270.9Z"
fill="black" stroke="black" stroke-width="0.2"/>
<path d="M390.31 271.44L390.31 260.75 390 261.29 390.31 271.44Z"
fill="black" stroke="black" stroke-width="0.2"/>
<path d="M390.31 271.44L390.66 271.96 390.31 260.75 390.31 271.44Z"
fill="black" stroke="black" stroke-width="0.2"/>
<path d="M390.66 271.96L390.66 260.23 390.31 260.75 390.66 271.96Z"
fill="black" stroke="black" stroke-width="0.2"/>
<path d="M390.66 271.96L391.04 272.46 390.66 260.23 390.66 271.96Z"
fill="black" stroke="black" stroke-width="0.2"/>
<path d="M391.04 272.46L391.04 259.73 390.66 260.23 391.04 272.46Z"
fill="black" stroke="black" stroke-width="0.2"/>
<path d="M391.04 272.46L391.44 272.94 391.04 259.73 391.04 272.46Z"
fill="black" stroke="black" stroke-width="0.2"/>
<path d="M391.44 272.94L391.44 259.25 391.04 259.73 391.44 272.94Z"
fill="black" stroke="black" stroke-width="0.2"/>
<path d="M391.44 272.94L391.88 273.39 391.44 259.25 391.44 272.94Z"
fill="black" stroke="black" stroke-width="0.2"/>
<path d="M391.88 273.39L391.88 258.8 391.44 259.25 391.88 273.39Z"
fill="black" stroke="black" stroke-width="0.2"/>
<path d="M391.88 273.39L392.34 273.81 391.88 258.8 391.88 273.39Z"
fill="black" stroke="black" stroke-width="0.2"/>
<path d="M392.34 273.81L392.34 258.38 391.88 258.8 392.34 273.81Z"
fill="black" stroke="black" stroke-width="0.2"/>
<path d="M392.34 273.81L392.83 274.2 392.34 258.38 392.34 273.81Z"
fill="black" stroke="black" stroke-width="0.2"/>
<path d="M392.83 274.2L392.83 257.99 392.34 258.38 392.83 274.2Z"
fill="black" stroke="black" stroke-width="0.2"/>
<path d="M392.83 274.2L393.34 274.56 392.83 257.99 392.83 274.2Z"
fill="black" stroke="black" stroke-width="0.2"/>
<path d="M393.34 274.56L393.34 257.63 392.83 257.99 393.34 274.56Z"
fill="black" stroke="black" stroke-width="0.2"/>
<path d="M393.34 274.56L393.87 274.89 393.34 257.63 393.34 274.56Z"
fill="black" stroke="black" stroke-width="0.2"/>
<path d="M393.87 274.89L393.87 257.3 393.34 257.63 393.87 274.89Z"
fill="black" stroke="black" stroke-width="0.2"/>
<path d="M393.87 274.89L394.42 275.19 393.87 257.3 393.87 274.89Z"
fill="black" stroke="black" stroke-width="0.2"/>
<path d="M394.42 275.19L394.42 257 393.87 257.3 394.42 275.19Z"
fill="black" stroke="black" stroke-width="0.2"/>
<path d="M394.42 275.19L394.99 275.45 394.42 257 394.42 275.19Z"
fill="black" stroke="black" stroke-width="0.2"/>
<path d="M394.99 275.45L394.99 256.74 394.42 257 394.99 275.45Z"
fill="black" stroke="black" stroke-width="0.2"/>
<path d="M394.99 275.45L395.57 275.67 394.99 256.74 394.99 275.45Z"
fill="black" stroke="black" stroke-width="0.2"/>
<path d="M395.57 275.67L395.57 256.52 394.99 256.74 395.57 275.67Z"
fill="black" stroke="black" stroke-width="0.2"/>
<path d="M395.57 275.67L396.17 275.86 395.57 256.52 395.57 275.67Z"
fill="black" stroke="black" stroke-width="0.2"/>
<path d="M396.17 275.86L396.17 256.33 395.57 256.52 396.17 275.86Z"
fill="black" stroke="black" stroke-width="0.2"/>
<path d="M396.17 275.86L396.78 276.02 396.17 256.33 396.17 275.86Z"
fill="black" stroke="black" stroke-width="0.2"/>
<path d="M396.78 276.02L396.78 256.17 396.17 256.33 396.78 276.02Z"
fill="black" stroke="black" stroke-width="0.2"/>
<path d="M396.78 276.02L397.39 276.13 396.78 256.17 396.78 276.02Z"
fill="black" stroke="black" stroke-width="0.2"/>
<path d="M397.39 276.13L397.39 256.06 396.78 256.17 397.39 276.13Z"
fill="black" stroke="black" stroke-width="0.2"/>
<path d="M397.39 276.13L398.01 276.21 397.39 256.06 397.39 276.13Z"
fill="black" stroke="black" stroke-width="0.2"/>
<path d="M398.01 276.21L398.01 255.98 397.39 256.06 398.01 276.21Z"
fill="black" stroke="black" stroke-width="0.2"/>
<path d="M398.01 276.21L398.64 276.25 398.01 255.98 398.01 276.21Z"
fill="black" stroke="black" stroke-width="0.2"/>
<path d="M398.64 276.25L398.64 255.94 398.01 255.98 398.64 276.25Z"
fill="black" stroke="black" stroke-width="0.2"/>
<path d="M398.64 276.25L399.26 276.25 398.64 255.94 398.64 276.25Z"
fill="black" stroke="black" stroke-width="0.2"/>
<path d="M399.26 276.25L399.26 255.94 398.64 255.94 399.26 276.25Z"
fill="black" stroke="black" stroke-width="0.2"/>
<path d="M399.26 276.25L399.89 276.21 399.26 255.94 399.26 276.25Z"
fill="black" stroke="black" stroke-width="0.2"/>
<path d="M399.89 276.21L399.89 255.98 399.26 255.94 399.89 276.21Z"
fill="black" stroke="black" stroke-width="0.2"/>
<path d="M399.89 276.21L400.51 276.13 399.89 255.98 399.89 276.21Z"
fill="black" stroke="black" stroke-width="0.2"/>
<path d="M400.51 276.13L400.51 256.06 399.89 255.98 400.51 276.13Z"
fill="black" stroke="black" stroke-width="0.2"/>
<path d="M400.51 276.13L401.12 276.02 400.51 256.06 400.51 276.13Z"
fill="black" stroke="black" stroke-width="0.2"/>
<path d="M401.12 276.02L401.12 256.17 400.51 256.06 401.12 276.02Z"
fill="black" stroke="black" stroke-width="0.2"/>
<path d="M401.12 276.02L401.73 275.86 401.12 256.17 401.12 276.02Z"
fill="black" stroke="black" stroke-width="0.2"/>
<path d="M401.73 275.86L401.73 256.33 401.12 256.17 401.73 275.86Z"
fill="black" stroke="black" stroke-width="0.2"/>
<path d="M401.73 275.86L402.32 275.67 401.73 256.33 401.73 275.86Z"
fill="black" stroke="black" stroke-width="0.2"/>
<path d="M402.32 275.67L402.32 256.52 401.73 256.33 402.32 275.67Z"
fill="black" stroke="black" stroke-width="0.2"/>
<path d="M402.32 275.67L402.91 275.45 402.32 256.52 402.32 275.67Z"
fill="black" stroke="black" stroke-width="0.2"/>
<path d="M402.91 275.45L402.91 256.74 402.32 256.52 402.91 275.45Z"
fill="black" stroke="black" stroke-width="0.2"/>
<path d="M402.91 275.45L403.48 275.19 402.91 256.74 402.91 275.45Z"
fill="black" stroke="black" stroke-width="0.2"/>
<path d="M403.48 275.19L403.48 257 402.91 256.74 403.48 275.19Z"
fill="black" stroke="black" stroke-width="0.2"/>
<path d="M403.48 275.19L404.03 274.89 403.48 257 403.48 275.19Z"
fill="black" stroke="black" stroke-width="0.2"/>
<path d="M404.03 274.89L404.03 257.3 403.48 257 404.03 274.89Z"
fill="black" stroke="black" stroke-width="0.2"/>
<path d="M404.03 274.89L404.56 274.56 404.03 257.3 404.03 274.89Z"
fill="black" stroke="black" stroke-width="0.2"/>
<path d="M404.56 274.56L404.56 257.63 404.03 257.3 404.56 274.56Z"
fill="black" stroke="black" stroke-width="0.2"/>
<path d="M404.56 274.56L405.07 274.2 404.56 257.63 404.56 274.56Z"
fill="black" stroke="black" stroke-width="0.2"/>
<path d="M405.07 274.2L405.07 257.99 404.56 257.63 405.07 274.2Z"
fill="black" stroke="black" stroke-width="0.2"/>
<path d="M405.07 274.2L405.56 273.81 405.07 257.99 405.07 274.2Z"
fill="black" stroke="black" stroke-width="0.2"/>
<path d="M405.56 273.81L405.56 258.38 405.07 257.99 405.56 273.81Z"
fill="black" stroke="black" stroke-width="0.2"/>
<path d="M405.56 273.81L406.02 273.39 405.56 258.38 405.56 273.81Z"
fill="black" stroke="black" stroke-width="0.2"/>
<path d="M406.02 273.39L406.02 258.8 405.56 258.38 406.02 273.39Z"
fill="black" stroke="black" stroke-width="0.2"/>
<path d="M406.02 273.39L406.45 272.94 406.02 258.8 406.02 273.39Z"
fill="black" stroke="black" stroke-width="0.2"/>
<path d="M406.45 272.94L406.45 259.25 406.02 258.8 406.45 272.94Z"
fill="black" stroke="black" stroke-width="0.2"/>
<path d="M406.45 272.94L406.86 272.46 406.45 259.25 406.45 272.94Z"
fill="black" stroke="black" stroke-width="0.2"/>
<path d="M406.86 272.46L406.86 259.73 406.45 259.25 406.86 272.46Z"
fill="black" stroke="black" stroke-width="0.2"/>
<path d="M406.86 272.46L407.24 271.96 406.86 259.73 406.86 272.46Z"
fill="black" stroke="black" stroke-width="0.2"/>
<path d="M407.24 271.96L407.24 260.23 406.86 259.73 407.24 271.96Z"
fill="black" stroke="black" stroke-width="0.2"/>
<path d="M407.24 271.96L407.58 271.44 407.24 260.23 407.24 271.96Z"
fill="black" stroke="black" stroke-width="0.2"/>
<path d="M407.58 271.44L407.58 260.75 407.24 260.23 407.58 271.44Z"
fill="black" stroke="black" stroke-width="0.2"/>
<path d="M407.58 271.44L407.9 270.9 407.58 260.75 407.58 271.44Z"
fill="black" stroke="black" stroke-width="0.2"/>
<path d="M407.9 270.9L407.9 261.29 407.58 260.75 407.9 270.9Z"
fill="black" stroke="black" stroke-width="0.2"/>
<path d="M407.9 270.9L408.18 270.34 407.9 261.29 407.9 270.9Z"
fill="black" stroke="black" stroke-width="0.2"/>
<path d="M408.18 270.34L408.18 261.85 407.9 261.29 408.18 270.34Z"
fill="black" stroke="black" stroke-width="0.2"/>
<path d="M408.18 270.34L408.42 269.76 408.18 261.85 408.18 270.34Z"
fill="black" stroke="black" stroke-width="0.2"/>
<path d="M408.42 269.76L408.42 262.43 408.18 261.85 408.42 269.76Z"
fill="black" stroke="black" stroke-width="0.2"/>
<path d="M408.42 269.76L408.63 269.17 408.42 262.43 408.42 269.76Z"
fill="black" stroke="black" stroke-width="0.2"/>
<path d="M408.63 269.17L408.63 263.02 408.42 262.43 408.63 269.17Z"
fill="black" stroke="black" stroke-width="0.2"/>
<path d="M408.63 269.17L408.8 268.57 408.63 263.02 408.63 269.17Z"
fill="black" stroke="black" stroke-width="0.2"/>
<path d="M408.8 268.57L408.8 263.62 408.63 263.02 408.8 268.57Z"
fill="black" stroke="black" stroke-width="0.2"/>
<path d="M408.8 268.57L408.93 267.96 408.8 263.62 408.8 268.57Z"
fill="black" stroke="black" stroke-width="0.2"/>
<path d="M408.93 267.96L408.93 264.23 408.8 263.62 408.93 267.96Z"
fill="black" stroke="black" stroke-width="0.2"/>
<path d="M408.93 267.96L409.03 267.34 408.93 264.23 408.93 267.96Z"
fill="black" stroke="black" stroke-width="0.2"/>
<path d="M409.03 267.34L409.03 264.85 408.93 264.23 409.03 267.34Z"
fill="black" stroke="black" stroke-width="0.2"/>
<path d="M409.03 267.34L409.09 266.72 409.03 264.85 409.03 267.34Z"
fill="black" stroke="black" stroke-width="0.2"/>
<path d="M409.09 266.72L409.09 265.47 409.03 264.85 409.09 266.72Z"
fill="black" stroke="black" stroke-width="0.2"/>
<path d="M409.09 266.72L409.11 266.1 409.09 265.47 409.09 266.72Z"
fill="black" stroke="black" stroke-width="0.2"/>
<path d="M409.11 266.1L408.91 268.08"
fill="none" stroke="black" stroke-width="0.5"/>
<path d="M408.91 268.08L408.33 269.98"
fill="none" stroke="black" stroke-width="0.5"/>
<path d="M408.33 269.98L407.39 271.74"
fill="none" stroke="black" stroke-width="0.5"/>
<path d="M407.39 271.74L406.13 273.28"
fill="none" stroke="black" stroke-width="0.5"/>
<path d="M406.13 273.28L404.59 274.54"
fill="none" stroke="black" stroke-width="0.5"/>
<path d="M404.59 274.54L402.84 275.48"
fill="none" stroke="black" stroke-width="0.5"/>
<path d="M402.84 275.48L400.93 276.06"
fill="none" stroke="black" stroke-width="0.5"/>
<path d="M400.93 276.06L398.95 276.25"
fill="none" stroke="black" stroke-width="0.5"/>
<path d="M398.95 276.25L396.97 276.06"
fill="none" stroke="black" stroke-width="0.5"/>
<path d="M396.97 276.06L395.06 275.48"
fill="none" stroke="black" stroke-width="0.5"/>
<path d="M395.06 275.48L393.31 274.54"
fill="none" stroke="black" stroke-width="0.5"/>
<path d="M393.31 274.54L391.77 273.28"
fill="none" stroke="black" stroke-width="0.5"/>
<path d="M391.77 273.28L390.5 271.74"
fill="none" stroke="black" stroke-width="0.5"/>
<path d="M390.5 271.74L389.57 269.98"
fill="none" stroke="black" stroke-width="0.5"/>
<path d="M389.57 269.98L388.99 268.08"
fill="none" stroke="black" stroke-width="0.5"/>
<path d="M388.99 268.08L388.79 266.1"
fill="none" stroke="black" stroke-width="0.5"/>
<path d="M388.79 266.1L388.99 264.11"
fill="none" stroke="black" stroke-width="0.5"/>
<path d="M388.99 264.11L389.57 262.21"
fill="none" stroke="black" stroke-width="0.5"/>
<path d="M389.57 262.21L390.5 260.45"
fill="none" stroke="black" stroke-width="0.5"/>
<path d="M390.5 260.45L391.77 258.91"
fill="none" stroke="black" stroke-width="0.5"/>
<path d="M391.77 258.91L393.31 257.65"
fill="none" stroke="black" stroke-width="0.5"/>
<path d="M393.31 257.65L395.06 256.71"
fill="none" stroke="black" stroke-width="0.5"/>
<path d="M395.06 256.71L396.97 256.13"
fill="none" stroke="black" stroke-width="0.5"/>
<path d="M396.97 256.13L398.95 255.94"
fill="none" stroke="black" stroke-width="0.5"/>
<path d="M398.95 255.94L400.93 256.13"
fill="none" stroke="black" stroke-width="0.5"/>
<path d="M400.93 256.13L402.84 256.71"
fill="none" stroke="black" stroke-width="0.5"/>
<path d="M402.84 256.71L404.59 257.65"
fill="none" stroke="black" stroke-width="0.5"/>
<path d="M404.59 257.65L406.13 258.91"
fill="none" stroke="black" stroke-width="0.5"/>
<path d="M406.13 258.91L407.39 260.45"
fill="none" stroke="black" stroke-width="0.5"/>
<path d="M407.39 260.45L408.33 262.21"
fill="none" stroke="black" stroke-width="0.5"/>
<path d="M408.33 262.21L408.91 264.11"
fill="none" stroke="black" stroke-width="0.5"/>
<path d="M408.91 264.11L409.11 266.1"
fill="none" stroke="black" stroke-width="0.5"/>
<path d="M431.39 266.72L431.39 265.47 431.37 266.1 431.39 266.72Z"
fill="black" stroke="black" stroke-width="0.2"/>
<path d="M431.39 266.72L431.45 267.34 431.39 265.47 431.39 266.72Z"
fill="black" stroke="black" stroke-width="0.2"/>
<path d="M431.45 267.34L431.45 264.85 431.39 265.47 431.45 267.34Z"
fill="black" stroke="black" stroke-width="0.2"/>
<path d="M431.45 267.34L431.54 267.96 431.45 264.85 431.45 267.34Z"
fill="black" stroke="black" stroke-width="0.2"/>
<path d="M431.54 267.96L431.54 264.23 431.45 264.85 431.54 267.96Z"
fill="black" stroke="black" stroke-width="0.2"/>
<path d="M431.54 267.96L431.68 268.57 431.54 264.23 431.54 267.96Z"
fill="black" stroke="black" stroke-width="0.2"/>
<path d="M431.68 268.57L431.68 263.62 431.54 264.23 431.68 268.57Z"
fill="black" stroke="black" stroke-width="0.2"/>
<path d="M431.68 268.57L431.85 269.17 431.68 263.62 431.68 268.57Z"
fill="black" stroke="black" stroke-width="0.2"/>
<path d="M431.85 269.17L431.85 263.02 431.68 263.62 431.85 269.17Z"
fill="black" stroke="black" stroke-width="0.2"/>
<path d="M431.85 269.17L432.06 269.76 431.85 263.02 431.85 269.17Z"
fill="black" stroke="black" stroke-width="0.2"/>
<path d="M432.06 269.76L432.06 262.43 431.85 263.02 432.06 269.76Z"
fill="black" stroke="black" stroke-width="0.2"/>
<path d="M432.06 269.76L432.3 270.34 432.06 262.43 432.06 269.76Z"
fill="black" stroke="black" stroke-width="0.2"/>
<path d="M432.3 270.34L432.3 261.85 432.06 262.43 432.3 270.34Z"
fill="black" stroke="black" stroke-width="0.2"/>
<path d="M432.3 270.34L432.58 270.9 432.3 261.85 432.3 270.34Z"
fill="black" stroke="black" stroke-width="0.2"/>
<path d="M432.58 270.9L432.58 261.29 432.3 261.85 432.58 270.9Z"
fill="black" stroke="black" stroke-width="0.2"/>
<path d="M432.58 270.9L432.89 271.44 432.58 261.29 432.58 270.9Z"
fill="black" stroke="black" stroke-width="0.2"/>
<path d="M432.89 271.44L432.89 260.75 432.58 261.29 432.89 271.44Z"
fill="black" stroke="black" stroke-width="0.2"/>
<path d="M432.89 271.44L433.24 271.96 432.89 260.75 432.89 271.44Z"
fill="black" stroke="black" stroke-width="0.2"/>
<path d="M433.24 271.96L433.24 260.23 432.89 260.75 433.24 271.96Z"
fill="black" stroke="black" stroke-width="0.2"/>
<path d="M433.24 271.96L433.61 272.46 433.24 260.23 433.24 271.96Z"
fill="black" stroke="black" stroke-width="0.2"/>
<path d="M433.61 272.46L433.61 259.73 433.24 260.23 433.61 272.46Z"
fill="black" stroke="black" stroke-width="0.2"/>
<path d="M433.61 272.46L434.02 272.94 433.61 259.73 433.61 272.46Z"
fill="black" stroke="black" stroke-width="0.2"/>
<path d="M434.02 272.94L434.02 259.25 433.61 259.73 434.02 272.94Z"
fill="black" stroke="black" stroke-width="0.2"/>
<path d="M434.02 272.94L434.46 273.39 434.02 259.25 434.02 272.94Z"
fill="black" stroke="black" stroke-width="0.2"/>
<path d="M434.46 273.39L434.46 258.8 434.02 259.25 434.46 273.39Z"
fill="black" stroke="black" stroke-width="0.2"/>
<path d="M434.46 273.39L434.92 273.81 434.46 258.8 434.46 273.39Z"
fill="black" stroke="black" stroke-width="0.2"/>
<path d="M434.92 273.81L434.92 258.38 434.46 258.8 434.92 273.81Z"
fill="black" stroke="black" stroke-width="0.2"/>
<path d="M434.92 273.81L435.41 274.2 434.92 258.38 434.92 273.81Z"
fill="black" stroke="black" stroke-width="0.2"/>
<path d="M435.41 274.2L435.41 257.99 434.92 258.38 435.41 274.2Z"
fill="black" stroke="black" stroke-width="0.2"/>
<path d="M435.41 274.2L435.92 274.56 435.41 257.99 435.41 274.2Z"
fill="black" stroke="black" stroke-width="0.2"/>
<path d="M435.92 274.56L435.92 257.63 435.41 257.99 435.92 274.56Z"
fill="black" stroke="black" stroke-width="0.2"/>
<path d="M435.92 274.56L436.45 274.89 435.92 257.63 435.92 274.56Z"
fill="black" stroke="black" stroke-width="0.2"/>
<path d="M436.45 274.89L436.45 257.3 435.92 257.63 436.45 274.89Z"
fill="black" stroke="black" stroke-width="0.2"/>
<path d="M436.45 274.89L437 275.19 436.45 257.3 436.45 274.89Z"
fill="black" stroke="black" stroke-width="0.2"/>
<path d="M437 275.19L437 257 436.45 257.3 437 275.19Z"
fill="black" stroke="black" stroke-width="0.2"/>
<path d="M437 275.19L437.57 275.45 437 257 437 275.19Z"
fill="black" stroke="black" stroke-width="0.2"/>
<path d="M437.57 275.45L437.57 256.74 437 257 437.57 275.45Z"
fill="black" stroke="black" stroke-width="0.2"/>
<path d="M437.57 275.45L438.15 275.67 437.57 256.74 437.57 275.45Z"
fill="black" stroke="black" stroke-width="0.2"/>
<path d="M438.15 275.67L438.15 256.52 437.57 256.74 438.15 275.67Z"
fill="black" stroke="black" stroke-width="0.2"/>
<path d="M438.15 275.67L438.75 275.86 438.15 256.52 438.15 275.67Z"
fill="black" stroke="black" stroke-width="0.2"/>
<path d="M438.75 275.86L438.75 256.33 438.15 256.52 438.75 275.86Z"
fill="black" stroke="black" stroke-width="0.2"/>
<path d="M438.75 275.86L439.35 276.02 438.75 256.33 438.75 275.86Z"
fill="black" stroke="black" stroke-width="0.2"/>
<path d="M439.35 276.02L439.35 256.17 438.75 256.33 439.35 276.02Z"
fill="black" stroke="black" stroke-width="0.2"/>
<path d="M439.35 276.02L439.97 276.13 439.35 256.17 439.35 276.02Z"
fill="black" stroke="black" stroke-width="0.2"/>
<path d="M439.97 276.13L439.97 256.06 439.35 256.17 439.97 276.13Z"
fill="black" stroke="black" stroke-width="0.2"/>
<path d="M439.97 276.13L440.59 276.21 439.97 256.06 439.97 276.13Z"
fill="black" stroke="black" stroke-width="0.2"/>
<path d="M440.59 276.21L440.59 255.98 439.97 256.06 440.59 276.21Z"
fill="black" stroke="black" stroke-width="0.2"/>
<path d="M440.59 276.21L441.21 276.25 440.59 255.98 440.59 276.21Z"
fill="black" stroke="black" stroke-width="0.2"/>
<path d="M441.21 276.25L441.21 255.94 440.59 255.98 441.21 276.25Z"
fill="black" stroke="black" stroke-width="0.2"/>
<path d="M441.21 276.25L441.84 276.25 441.21 255.94 441.21 276.25Z"
fill="black" stroke="black" stroke-width="0.2"/>
<path d="M441.84 276.25L441.84 255.94 441.21 255.94 441.84 276.25Z"
fill="black" stroke="black" stroke-width="0.2"/>
<path d="M441.84 276.25L442.46 276.21 441.84 255.94 441.84 276.25Z"
fill="black" stroke="black" stroke-width="0.2"/>
<path d="M442.46 276.21L442.46 255.98 441.84 255.94 442.46 276.21Z"
fill="black" stroke="black" stroke-width="0.2"/>
<path d="M442.46 276.21L443.08 276.13 442.46 255.98 442.46 276.21Z"
fill="black" stroke="black" stroke-width="0.2"/>
<path d="M443.08 276.13L443.08 256.06 442.46 255.98 443.08 276.13Z"
fill="black" stroke="black" stroke-width="0.2"/>
<path d="M443.08 276.13L443.7 276.02 443.08 256.06 443.08 276.13Z"
fill="black" stroke="black" stroke-width="0.2"/>
<path d="M443.7 276.02L443.7 256.17 443.08 256.06 443.7 276.02Z"
fill="black" stroke="black" stroke-width="0.2"/>
<path d="M443.7 276.02L444.31 275.86 443.7 256.17 443.7 276.02Z"
fill="black" stroke="black" stroke-width="0.2"/>
<path d="M444.31 275.86L444.31 256.33 443.7 256.17 444.31 275.86Z"
fill="black" stroke="black" stroke-width="0.2"/>
<path d="M444.31 275.86L444.9 275.67 444.31 256.33 444.31 275.86Z"
fill="black" stroke="black" stroke-width="0.2"/>
<path d="M444.9 275.67L444.9 256.52 444.31 256.33 444.9 275.67Z"
fill="black" stroke="black" stroke-width="0.2"/>
<path d="M444.9 275.67L445.49 275.45 444.9 256.52 444.9 275.67Z"
fill="black" stroke="black" stroke-width="0.2"/>
<path d="M445.49 275.45L445.49 256.74 444.9 256.52 445.49 275.45Z"
fill="black" stroke="black" stroke-width="0.2"/>
<path d="M445.49 275.45L446.05 275.19 445.49 256.74 445.49 275.45Z"
fill="black" stroke="black" stroke-width="0.2"/>
<path d="M446.05 275.19L446.05 257 445.49 256.74 446.05 275.19Z"
fill="black" stroke="black" stroke-width="0.2"/>
<path d="M446.05 275.19L446.6 274.89 446.05 257 446.05 275.19Z"
fill="black" stroke="black" stroke-width="0.2"/>
<path d="M446.6 274.89L446.6 257.3 446.05 257 446.6 274.89Z"
fill="black" stroke="black" stroke-width="0.2"/>
<path d="M446.6 274.89L447.14 274.56 446.6 257.3 446.6 274.89Z"
fill="black" stroke="black" stroke-width="0.2"/>
<path d="M447.14 274.56L447.14 257.63 446.6 257.3 447.14 274.56Z"
fill="black" stroke="black" stroke-width="0.2"/>
<path d="M447.14 274.56L447.65 274.2 447.14 257.63 447.14 274.56Z"
fill="black" stroke="black" stroke-width="0.2"/>
<path d="M447.65 274.2L447.65 257.99 447.14 257.63 447.65 274.2Z"
fill="black" stroke="black" stroke-width="0.2"/>
<path d="M447.65 274.2L448.13 273.81 447.65 257.99 447.65 274.2Z"
fill="black" stroke="black" stroke-width="0.2"/>
<path d="M448.13 273.81L448.13 258.38 447.65 257.99 448.13 273.81Z"
fill="black" stroke="black" stroke-width="0.2"/>
<path d="M448.13 273.81L448.6 273.39 448.13 258.38 448.13 273.81Z"
fill="black" stroke="black" stroke-width="0.2"/>
<path d="M448.6 273.39L448.6 258.8 448.13 258.38 448.6 273.39Z"
fill="black" stroke="black" stroke-width="0.2"/>
<path d="M448.6 273.39L449.03 272.94 448.6 258.8 448.6 273.39Z"
fill="black" stroke="black" stroke-width="0.2"/>
<path d="M449.03 272.94L449.03 259.25 448.6 258.8 449.03 272.94Z"
fill="black" stroke="black" stroke-width="0.2"/>
<path d="M449.03 272.94L449.44 272.46 449.03 259.25 449.03 272.94Z"
fill="black" stroke="black" stroke-width="0.2"/>
<path d="M449.44 272.46L449.44 259.73 449.03 259.25 449.44 272.46Z"
fill="black" stroke="black" stroke-width="0.2"/>
<path d="M449.44 272.46L449.82 271.96 449.44 259.73 449.44 272.46Z"
fill="black" stroke="black" stroke-width="0.2"/>
<path d="M449.82 271.96L449.82 260.23 449.44 259.73 449.82 271.96Z"
fill="black" stroke="black" stroke-width="0.2"/>
<path d="M449.82 271.96L450.16 271.44 449.82 260.23 449.82 271.96Z"
fill="black" stroke="black" stroke-width="0.2"/>
<path d="M450.16 271.44L450.16 260.75 449.82 260.23 450.16 271.44Z"
fill="black" stroke="black" stroke-width="0.2"/>
<path d="M450.16 271.44L450.47 270.9 450.16 260.75 450.16 271.44Z"
fill="black" stroke="black" stroke-width="0.2"/>
<path d="M450.47 270.9L450.47 261.29 450.16 260.75 450.47 270.9Z"
fill="black" stroke="black" stroke-width="0.2"/>
<path d="M450.47 270.9L450.75 270.34 450.47 261.29 450.47 270.9Z"
fill="black" stroke="black" stroke-width="0.2"/>
<path d="M450.75 270.34L450.75 261.85 450.47 261.29 450.75 270.34Z"
fill="black" stroke="black" stroke-width="0.2"/>
<path d="M450.75 270.34L451 269.76 450.75 261.85 450.75 270.34Z"
fill="black" stroke="black" stroke-width="0.2"/>
<path d="M451 269.76L451 262.43 450.75 261.85 451 269.76Z"
fill="black" stroke="black" stroke-width="0.2"/>
<path d="M451 269.76L451.2 269.17 451 262.43 451 269.76Z"
fill="black" stroke="black" stroke-width="0.2"/>
<path d="M451.2 269.17L451.2 263.02 451 262.43 451.2 269.17Z"
fill="black" stroke="black" stroke-width="0.2"/>
<path d="M451.2 269.17L451.38 268.57 451.2 263.02 451.2 269.17Z"
fill="black" stroke="black" stroke-width="0.2"/>
<path d="M451.38 268.57L451.38 263.62 451.2 263.02 451.38 268.57Z"
fill="black" stroke="black" stroke-width="0.2"/>
<path d="M451.38 268.57L451.51 267.96 451.38 263.62 451.38 268.57Z"
fill="black" stroke="black" stroke-width="0.2"/>
<path d="M451.51 267.96L451.51 264.23 451.38 263.62 451.51 267.96Z"
fill="black" stroke="black" stroke-width="0.2"/>
<path d="M451.51 267.96L451.61 267.34 451.51 264.23 451.51 267.96Z"
fill="black" stroke="black" stroke-width="0.2"/>
<path d="M451.61 267.34L451.61 264.85 451.51 264.23 451.61 267.34Z"
fill="black" stroke="black" stroke-width="0.2"/>
<path d="M451.61 267.34L451.66 266.72 451.61 264.85 451.61 267.34Z"
fill="black" stroke="black" stroke-width="0.2"/>
<path d="M451.66 266.72L451.66 265.47 451.61 264.85 451.66 266.72Z"
fill="black" stroke="black" stroke-width="0.2"/>
<path d="M451.66 266.72L451.68 266.1 451.66 265.47 451.66 266.72Z"
fill="black" stroke="black" stroke-width="0.2"/>
<path d="M451.68 266.1L451.49 268.08"
fill="none" stroke="black" stroke-width="0.5"/>
<path d="M451.49 268.08L450.91 269.98"
fill="none" stroke="black" stroke-width="0.5"/>
<path d="M450.91 269.98L449.97 271.74"
fill="none" stroke="black" stroke-width="0.5"/>
<path d="M449.97 271.74L448.71 273.28"
fill="none" stroke="black" stroke-width="0.5"/>
<path d="M448.71 273.28L447.17 274.54"
fill="none" stroke="black" stroke-width="0.5"/>
<path d="M447.17 274.54L445.41 275.48"
fill="none" stroke="black" stroke-width="0.5"/>
<path d="M445.41 275.48L443.51 276.06"
fill="none" stroke="black" stroke-width="0.5"/>
<path d="M443.51 276.06L441.53 276.25"
fill="none" stroke="black" stroke-width="0.5"/>
<path d="M441.53 276.25L439.54 276.06"
fill="none" stroke="black" stroke-width="0.5"/>
<path d="M439.54 276.06L437.64 275.48"
fill="none" stroke="black" stroke-width="0.5"/>
<path d="M437.64 275.48L435.88 274.54"
fill="none" stroke="black" stroke-width="0.5"/>
<path d="M435.88 274.54L434.34 273.28"
fill="none" stroke="black" stroke-width="0.5"/>
<path d="M434.34 273.28L433.08 271.74"
fill="none" stroke="black" stroke-width="0.5"/>
<path d="M433.08 271.74L432.14 269.98"
fill="none" stroke="black" stroke-width="0.5"/>
<path d="M432.14 269.98L431.57 268.08"
fill="none" stroke="black" stroke-width="0.5"/>
<path d="M431.57 268.08L431.37 266.1"
fill="none" stroke="black" stroke-width="0.5"/>
<path d="M431.37 266.1L431.57 264.11"
fill="none" stroke="black" stroke-width="0.5"/>
<path d="M431.57 264.11L432.14 262.21"
fill="none" stroke="black" stroke-width="0.5"/>
<path d="M432.14 262.21L433.08 260.45"
fill="none" stroke="black" stroke-width="0.5"/>
<path d="M433.08 260.45L434.34 258.91"
fill="none" stroke="black" stroke-width="0.5"/>
<path d="M434.34 258.91L435.88 257.65"
fill="none" stroke="black" stroke-width="0.5"/>
<path d="M435.88 257.65L437.64 256.71"
fill="none" stroke="black" stroke-width="0.5"/>
<path d="M437.64 256.71L439.54 256.13"
fill="none" stroke="black" stroke-width="0.5"/>
<path d="M439.54 256.13L441.53 255.94"
fill="none" stroke="black" stroke-width="0.5"/>
<path d="M441.53 255.94L443.51 256.13"
fill="none" stroke="black" stroke-width="0.5"/>
<path d="M443.51 256.13L445.41 256.71"
fill="none" stroke="black" stroke-width="0.5"/>
<path d="M445.41 256.71L447.17 257.65"
fill="none" stroke="black" stroke-width="0.5"/>
<path d="M447.17 257.65L448.71 258.91"
fill="none" stroke="black" stroke-width="0.5"/>
<path d="M448.71 258.91L449.97 260.45"
fill="none" stroke="black" stroke-width="0.5"/>
<path d="M449.97 260.45L450.91 262.21"
fill="none" stroke="black" stroke-width="0.5"/>
<path d="M450.91 262.21L451.49 264.11"
fill="none" stroke="black" stroke-width="0.5"/>
<path d="M451.49 264.11L451.68 266.1"
fill="none" stroke="black" stroke-width="0.5"/>
<path d="M410.1 288.01L410.1 286.76 410.08 287.38 410.1 288.01Z"
fill="black" stroke="black" stroke-width="0.2"/>
<path d="M410.1 288.01L410.16 288.63 410.1 286.76 410.1 288.01Z"
fill="black" stroke="black" stroke-width="0.2"/>
<path d="M410.16 288.63L410.16 286.14 410.1 286.76 410.16 288.63Z"
fill="black" stroke="black" stroke-width="0.2"/>
<path d="M410.16 288.63L410.25 289.25 410.16 286.14 410.16 288.63Z"
fill="black" stroke="black" stroke-width="0.2"/>
<path d="M410.25 289.25L410.25 285.52 410.16 286.14 410.25 289.25Z"
fill="black" stroke="black" stroke-width="0.2"/>
<path d="M410.25 289.25L410.39 289.86 410.25 285.52 410.25 289.25Z"
fill="black" stroke="black" stroke-width="0.2"/>
<path d="M410.39 289.86L410.39 284.91 410.25 285.52 410.39 289.86Z"
fill="black" stroke="black" stroke-width="0.2"/>
<path d="M410.39 289.86L410.56 290.46 410.39 284.91 410.39 289.86Z"
fill="black" stroke="black" stroke-width="0.2"/>
<path d="M410.56 290.46L410.56 284.3 410.39 284.91 410.56 290.46Z"
fill="black" stroke="black" stroke-width="0.2"/>
<path d="M410.56 290.46L410.77 291.05 410.56 284.3 410.56 290.46Z"
fill="black" stroke="black" stroke-width="0.2"/>
<path d="M410.77 291.05L410.77 283.72 410.56 284.3 410.77 291.05Z"
fill="black" stroke="black" stroke-width="0.2"/>
<path d="M410.77 291.05L411.01 291.63 410.77 283.72 410.77 291.05Z"
fill="black" stroke="black" stroke-width="0.2"/>
<path d="M411.01 291.63L411.01 283.14 410.77 283.72 411.01 291.63Z"
fill="black" stroke="black" stroke-width="0.2"/>
<path d="M411.01 291.63L411.29 292.19 411.01 283.14 411.01 291.63Z"
fill="black" stroke="black" stroke-width="0.2"/>
<path d="M411.29 292.19L411.29 282.58 411.01 283.14 411.29 292.19Z"
fill="black" stroke="black" stroke-width="0.2"/>
<path d="M411.29 292.19L411.6 292.73 411.29 282.58 411.29 292.19Z"
fill="black" stroke="black" stroke-width="0.2"/>
<path d="M411.6 292.73L411.6 282.04 411.29 282.58 411.6 292.73Z"
fill="black" stroke="black" stroke-width="0.2"/>
<path d="M411.6 292.73L411.95 293.25 411.6 282.04 411.6 292.73Z"
fill="black" stroke="black" stroke-width="0.2"/>
<path d="M411.95 293.25L411.95 281.52 411.6 282.04 411.95 293.25Z"
fill="black" stroke="black" stroke-width="0.2"/>
<path d="M411.95 293.25L412.33 293.75 411.95 281.52 411.95 293.25Z"
fill="black" stroke="black" stroke-width="0.2"/>
<path d="M412.33 293.75L412.33 281.02 411.95 281.52 412.33 293.75Z"
fill="black" stroke="black" stroke-width="0.2"/>
<path d="M412.33 293.75L412.73 294.23 412.33 281.02 412.33 293.75Z"
fill="black" stroke="black" stroke-width="0.2"/>
<path d="M412.73 294.23L412.73 280.54 412.33 281.02 412.73 294.23Z"
fill="black" stroke="black" stroke-width="0.2"/>
<path d="M412.73 294.23L413.17 294.68 412.73 280.54 412.73 294.23Z"
fill="black" stroke="black" stroke-width="0.2"/>
<path d="M413.17 294.68L413.17 280.09 412.73 280.54 413.17 294.68Z"
fill="black" stroke="black" stroke-width="0.2"/>
<path d="M413.17 294.68L413.63 295.1 413.17 280.09 413.17 294.68Z"
fill="black" stroke="black" stroke-width="0.2"/>
<path d="M413.63 295.1L413.63 279.67 413.17 280.09 413.63 295.1Z"
fill="black" stroke="black" stroke-width="0.2"/>
<path d="M413.63 295.1L414.12 295.49 413.63 279.67 413.63 295.1Z"
fill="black" stroke="black" stroke-width="0.2"/>
<path d="M414.12 295.49L414.12 279.28 413.63 279.67 414.12 295.49Z"
fill="black" stroke="black" stroke-width="0.2"/>
<path d="M414.12 295.49L414.63 295.85 414.12 279.28 414.12 295.49Z"
fill="black" stroke="black" stroke-width="0.2"/>
<path d="M414.63 295.85L414.63 278.92 414.12 279.28 414.63 295.85Z"
fill="black" stroke="black" stroke-width="0.2"/>
<path d="M414.63 295.85L415.16 296.18 414.63 278.92 414.63 295.85Z"
fill="black" stroke="black" stroke-width="0.2"/>
<path d="M415.16 296.18L415.16 278.59 414.63 278.92 415.16 296.18Z"
fill="black" stroke="black" stroke-width="0.2"/>
<path d="M415.16 296.18L415.71 296.48 415.16 278.59 415.16 296.18Z"
fill="black" stroke="black" stroke-width="0.2"/>
<path d="M415.71 296.48L415.71 278.29 415.16 278.59 415.71 296.48Z"
fill="black" stroke="black" stroke-width="0.2"/>
<path d="M415.71 296.48L416.28 296.74 415.71 278.29 415.71 296.48Z"
fill="black" stroke="black" stroke-width="0.2"/>
<path d="M416.28 296.74L416.28 278.03 415.71 278.29 416.28 296.74Z"
fill="black" stroke="black" stroke-width="0.2"/>
<path d="M416.28 296.74L416.86 296.96 416.28 278.03 416.28 296.74Z"
fill="black" stroke="black" stroke-width="0.2"/>
<path d="M416.86 296.96L416.86 277.81 416.28 278.03 416.86 296.96Z"
fill="black" stroke="black" stroke-width="0.2"/>
<path d="M416.86 296.96L417.46 297.15 416.86 277.81 416.86 296.96Z"
fill="black" stroke="black" stroke-width="0.2"/>
<path d="M417.46 297.15L417.46 277.62 416.86 277.81 417.46 297.15Z"
fill="black" stroke="black" stroke-width="0.2"/>
<path d="M417.46 297.15L418.07 297.3 417.46 277.62 417.46 297.15Z"
fill="black" stroke="black" stroke-width="0.2"/>
<path d="M418.07 297.3L418.07 277.46 417.46 277.62 418.07 297.3Z"
fill="black" stroke="black" stroke-width="0.2"/>
<path d="M418.07 297.3L418.68 297.42 418.07 277.46 418.07 297.3Z"
fill="black" stroke="black" stroke-width="0.2"/>
<path d="M418.68 297.42L418.68 277.35 418.07 277.46 418.68 297.42Z"
fill="black" stroke="black" stroke-width="0.2"/>
<path d="M418.68 297.42L419.3 297.5 418.68 277.35 418.68 297.42Z"
fill="black" stroke="black" stroke-width="0.2"/>
<path d="M419.3 297.5L419.3 277.27 418.68 277.35 419.3 297.5Z"
fill="black" stroke="black" stroke-width="0.2"/>
<path d="M419.3 297.5L419.92 297.54 419.3 277.27 419.3 297.5Z"
fill="black" stroke="black" stroke-width="0.2"/>
<path d="M419.92 297.54L419.92 277.23 419.3 277.27 419.92 297.54Z"
fill="black" stroke="black" stroke-width="0.2"/>
<path d="M419.92 297.54L420.55 297.54 419.92 277.23 419.92 297.54Z"
fill="black" stroke="black" stroke-width="0.2"/>
<path d="M420.55 297.54L420.55 277.23 419.92 277.23 420.55 297.54Z"
fill="black" stroke="black" stroke-width="0.2"/>
<path d="M420.55 297.54L421.17 297.5 420.55 277.23 420.55 297.54Z"
fill="black" stroke="black" stroke-width="0.2"/>
<path d="M421.17 297.5L421.17 277.27 420.55 277.23 421.17 297.5Z"
fill="black" stroke="black" stroke-width="0.2"/>
<path d="M421.17 297.5L421.8 297.42 421.17 277.27 421.17 297.5Z"
fill="black" stroke="black" stroke-width="0.2"/>
<path d="M421.8 297.42L421.8 277.35 421.17 277.27 421.8 297.42Z"
fill="black" stroke="black" stroke-width="0.2"/>
<path d="M421.8 297.42L422.41 297.3 421.8 277.35 421.8 297.42Z"
fill="black" stroke="black" stroke-width="0.2"/>
<path d="M422.41 297.3L422.41 277.46 421.8 277.35 422.41 297.3Z"
fill="black" stroke="black" stroke-width="0.2"/>
<path d="M422.41 297.3L423.02 297.15 422.41 277.46 422.41 297.3Z"
fill="black" stroke="black" stroke-width="0.2"/>
<path d="M423.02 297.15L423.02 277.62 422.41 277.46 423.02 297.15Z"
fill="black" stroke="black" stroke-width="0.2"/>
<path d="M423.02 297.15L423.61 296.96 423.02 277.62 423.02 297.15Z"
fill="black" stroke="black" stroke-width="0.2"/>
<path d="M423.61 296.96L423.61 277.81 423.02 277.62 423.61 296.96Z"
fill="black" stroke="black" stroke-width="0.2"/>
<path d="M423.61 296.96L424.2 296.74 423.61 277.81 423.61 296.96Z"
fill="black" stroke="black" stroke-width="0.2"/>
<path d="M424.2 296.74L424.2 278.03 423.61 277.81 424.2 296.74Z"
fill="black" stroke="black" stroke-width="0.2"/>
<path d="M424.2 296.74L424.76 296.48 424.2 278.03 424.2 296.74Z"
fill="black" stroke="black" stroke-width="0.2"/>
<path d="M424.76 296.48L424.76 278.29 424.2 278.03 424.76 296.48Z"
fill="black" stroke="black" stroke-width="0.2"/>
<path d="M424.76 296.48L425.32 296.18 424.76 278.29 424.76 296.48Z"
fill="black" stroke="black" stroke-width="0.2"/>
<path d="M425.32 296.18L425.32 278.59 424.76 278.29 425.32 296.18Z"
fill="black" stroke="black" stroke-width="0.2"/>
<path d="M425.32 296.18L425.85 295.85 425.32 278.59 425.32 296.18Z"
fill="black" stroke="black" stroke-width="0.2"/>
<path d="M425.85 295.85L425.85 278.92 425.32 278.59 425.85 295.85Z"
fill="black" stroke="black" stroke-width="0.2"/>
<path d="M425.85 295.85L426.36 295.49 425.85 278.92 425.85 295.85Z"
fill="black" stroke="black" stroke-width="0.2"/>
<path d="M426.36 295.49L426.36 279.28 425.85 278.92 426.36 295.49Z"
fill="black" stroke="black" stroke-width="0.2"/>
<path d="M426.36 295.49L426.85 295.1 426.36 279.28 426.36 295.49Z"
fill="black" stroke="black" stroke-width="0.2"/>
<path d="M426.85 295.1L426.85 279.67 426.36 279.28 426.85 295.1Z"
fill="black" stroke="black" stroke-width="0.2"/>
<path d="M426.85 295.1L427.31 294.68 426.85 279.67 426.85 295.1Z"
fill="black" stroke="black" stroke-width="0.2"/>
<path d="M427.31 294.68L427.31 280.09 426.85 279.67 427.31 294.68Z"
fill="black" stroke="black" stroke-width="0.2"/>
<path d="M427.31 294.68L427.74 294.23 427.31 280.09 427.31 294.68Z"
fill="black" stroke="black" stroke-width="0.2"/>
<path d="M427.74 294.23L427.74 280.54 427.31 280.09 427.74 294.23Z"
fill="black" stroke="black" stroke-width="0.2"/>
<path d="M427.74 294.23L428.15 293.75 427.74 280.54 427.74 294.23Z"
fill="black" stroke="black" stroke-width="0.2"/>
<path d="M428.15 293.75L428.15 281.02 427.74 280.54 428.15 293.75Z"
fill="black" stroke="black" stroke-width="0.2"/>
<path d="M428.15 293.75L428.53 293.25 428.15 281.02 428.15 293.75Z"
fill="black" stroke="black" stroke-width="0.2"/>
<path d="M428.53 293.25L428.53 281.52 428.15 281.02 428.53 293.25Z"
fill="black" stroke="black" stroke-width="0.2"/>
<path d="M428.53 293.25L428.87 292.73 428.53 281.52 428.53 293.25Z"
fill="black" stroke="black" stroke-width="0.2"/>
<path d="M428.87 292.73L428.87 282.04 428.53 281.52 428.87 292.73Z"
fill="black" stroke="black" stroke-width="0.2"/>
<path d="M428.87 292.73L429.19 292.19 428.87 282.04 428.87 292.73Z"
fill="black" stroke="black" stroke-width="0.2"/>
<path d="M429.19 292.19L429.19 282.58 428.87 282.04 429.19 292.19Z"
fill="black" stroke="black" stroke-width="0.2"/>
<path d="M429.19 292.19L429.46 291.63 429.19 282.58 429.19 292.19Z"
fill="black" stroke="black" stroke-width="0.2"/>
<path d="M429.46 291.63L429.46 283.14 429.19 282.58 429.46 291.63Z"
fill="black" stroke="black" stroke-width="0.2"/>
<path d="M429.46 291.63L429.71 291.05 429.46 283.14 429.46 291.63Z"
fill="black" stroke="black" stroke-width="0.2"/>
<path d="M429.71 291.05L429.71 283.72 429.46 283.14 429.71 291.05Z"
fill="black" stroke="black" stroke-width="0.2"/>
<path d="M429.71 291.05L429.92 290.46 429.71 283.72 429.71 291.05Z"
fill="black" stroke="black" stroke-width="0.2"/>
<path d="M429.92 290.46L429.92 284.3 429.71 283.72 429.92 290.46Z"
fill="black" stroke="black" stroke-width="0.2"/>
<path d="M429.92 290.46L430.09 289.86 429.92 284.3 429.92 290.46Z"
fill="black" stroke="black" stroke-width="0.2"/>
<path d="M430.09 289.86L430.09 284.91 429.92 284.3 430.09 289.86Z"
fill="black" stroke="black" stroke-width="0.2"/>
<path d="M430.09 289.86L430.22 289.25 430.09 284.91 430.09 289.86Z"
fill="black" stroke="black" stroke-width="0.2"/>
<path d="M430.22 289.25L430.22 285.52 430.09 284.91 430.22 289.25Z"
fill="black" stroke="black" stroke-width="0.2"/>
<path d="M430.22 289.25L430.32 288.63 430.22 285.52 430.22 289.25Z"
fill="black" stroke="black" stroke-width="0.2"/>
<path d="M430.32 288.63L430.32 286.14 430.22 285.52 430.32 288.63Z"
fill="black" stroke="black" stroke-width="0.2"/>
<path d="M430.32 288.63L430.37 288.01 430.32 286.14 430.32 288.63Z"
fill="black" stroke="black" stroke-width="0.2"/>
<path d="M430.37 288.01L430.37 286.76 430.32 286.14 430.37 288.01Z"
fill="black" stroke="black" stroke-width="0.2"/>
<path d="M430.37 288.01L430.39 287.38 430.37 286.76 430.37 288.01Z"
fill="black" stroke="black" stroke-width="0.2"/>
<path d="M430.39 287.38L430.2 289.37"
fill="none" stroke="black" stroke-width="0.5"/>
<path d="M430.2 289.37L429.62 291.27"
fill="none" stroke="black" stroke-width="0.5"/>
<path d="M429.62 291.27L428.68 293.03"
fill="none" stroke="black" stroke-width="0.5"/>
<path d="M428.68 293.03L427.42 294.57"
fill="none" stroke="black" stroke-width="0.5"/>
<path d="M427.42 294.57L425.88 295.83"
fill="none" stroke="black" stroke-width="0.5"/>
<path d="M425.88 295.83L424.12 296.77"
fill="none" stroke="black" stroke-width="0.5"/>
<path d="M424.12 296.77L422.22 297.34"
fill="none" stroke="black" stroke-width="0.5"/>
<path d="M422.22 297.34L420.24 297.54"
fill="none" stroke="black" stroke-width="0.5"/>
<path d="M420.24 297.54L418.26 297.34"
fill="none" stroke="black" stroke-width="0.5"/>
<path d="M418.26 297.34L416.35 296.77"
fill="none" stroke="black" stroke-width="0.5"/>
<path d="M416.35 296.77L414.6 295.83"
fill="none" stroke="black" stroke-width="0.5"/>
<path d="M414.6 295.83L413.06 294.57"
fill="none" stroke="black" stroke-width="0.5"/>
<path d="M413.06 294.57L411.79 293.03"
fill="none" stroke="black" stroke-width="0.5"/>
<path d="M411.79 293.03L410.85 291.27"
fill="none" stroke="black" stroke-width="0.5"/>
<path d="M410.85 291.27L410.28 289.37"
fill="none" stroke="black" stroke-width="0.5"/>
<path d="M410.28 289.37L410.08 287.38"
fill="none" stroke="black" stroke-width="0.5"/>
<path d="M410.08 287.38L410.28 285.4"
fill="none" stroke="black" stroke-width="0.5"/>
<path d="M410.28 285.4L410.85 283.5"
fill="none" stroke="black" stroke-width="0.5"/>
<path d="M410.85 283.5L411.79 281.74"
fill="none" stroke="black" stroke-width="0.5"/>
<path d="M411.79 281.74L413.06 280.2"
fill="none" stroke="black" stroke-width="0.5"/>
<path d="M413.06 280.2L414.6 278.94"
fill="none" stroke="black" stroke-width="0.5"/>
<path d="M414.6 278.94L416.35 278"
fill="none" stroke="black" stroke-width="0.5"/>
<path d="M416.35 278L418.26 277.42"
fill="none" stroke="black" stroke-width="0.5"/>
<path d="M418.26 277.42L420.24 277.23"
fill="none" stroke="black" stroke-width="0.5"/>
<path d="M420.24 277.23L422.22 277.42"
fill="none" stroke="black" stroke-width="0.5"/>
<path d="M422.22 277.42L424.12 278"
fill="none" stroke="black" stroke-width="0.5"/>
<path d="M424.12 278L425.88 278.94"
fill="none" stroke="black" stroke-width="0.5"/>
<path d="M425.88 278.94L427.42 280.2"
fill="none" stroke="black" stroke-width="0.5"/>
<path d="M427.42 280.2L428.68 281.74"
fill="none" stroke="black" stroke-width="0.5"/>
<path d="M428.68 281.74L429.62 283.5"
fill="none" stroke="black" stroke-width="0.5"/>
<path d="M429.62 283.5L430.2 285.4"
fill="none" stroke="black" stroke-width="0.5"/>
<path d="M430.2 285.4L430.39 287.38"
fill="none" stroke="black" stroke-width="0.5"/>
<path d="M410.1 245.43L410.1 244.18 410.08 244.81 410.1 245.43Z"
fill="black" stroke="black" stroke-width="0.2"/>
<path d="M410.1 245.43L410.16 246.05 410.1 244.18 410.1 245.43Z"
fill="black" stroke="black" stroke-width="0.2"/>
<path d="M410.16 246.05L410.16 243.56 410.1 244.18 410.16 246.05Z"
fill="black" stroke="black" stroke-width="0.2"/>
<path d="M410.16 246.05L410.25 246.67 410.16 243.56 410.16 246.05Z"
fill="black" stroke="black" stroke-width="0.2"/>
<path d="M410.25 246.67L410.25 242.94 410.16 243.56 410.25 246.67Z"
fill="black" stroke="black" stroke-width="0.2"/>
<path d="M410.25 246.67L410.39 247.28 410.25 242.94 410.25 246.67Z"
fill="black" stroke="black" stroke-width="0.2"/>
<path d="M410.39 247.28L410.39 242.33 410.25 242.94 410.39 247.28Z"
fill="black" stroke="black" stroke-width="0.2"/>
<path d="M410.39 247.28L410.56 247.89 410.39 242.33 410.39 247.28Z"
fill="black" stroke="black" stroke-width="0.2"/>
<path d="M410.56 247.89L410.56 241.73 410.39 242.33 410.56 247.89Z"
fill="black" stroke="black" stroke-width="0.2"/>
<path d="M410.56 247.89L410.77 248.48 410.56 241.73 410.56 247.89Z"
fill="black" stroke="black" stroke-width="0.2"/>
<path d="M410.77 248.48L410.77 241.14 410.56 241.73 410.77 248.48Z"
fill="black" stroke="black" stroke-width="0.2"/>
<path d="M410.77 248.48L411.01 249.05 410.77 241.14 410.77 248.48Z"
fill="black" stroke="black" stroke-width="0.2"/>
<path d="M411.01 249.05L411.01 240.56 410.77 241.14 411.01 249.05Z"
fill="black" stroke="black" stroke-width="0.2"/>
<path d="M411.01 249.05L411.29 249.61 411.01 240.56 411.01 249.05Z"
fill="black" stroke="black" stroke-width="0.2"/>
<path d="M411.29 249.61L411.29 240 411.01 240.56 411.29 249.61Z"
fill="black" stroke="black" stroke-width="0.2"/>
<path d="M411.29 249.61L411.6 250.15 411.29 240 411.29 249.61Z"
fill="black" stroke="black" stroke-width="0.2"/>
<path d="M411.6 250.15L411.6 239.46 411.29 240 411.6 250.15Z"
fill="black" stroke="black" stroke-width="0.2"/>
<path d="M411.6 250.15L411.95 250.67 411.6 239.46 411.6 250.15Z"
fill="black" stroke="black" stroke-width="0.2"/>
<path d="M411.95 250.67L411.95 238.94 411.6 239.46 411.95 250.67Z"
fill="black" stroke="black" stroke-width="0.2"/>
<path d="M411.95 250.67L412.33 251.17 411.95 238.94 411.95 250.67Z"
fill="black" stroke="black" stroke-width="0.2"/>
<path d="M412.33 251.17L412.33 238.44 411.95 238.94 412.33 251.17Z"
fill="black" stroke="black" stroke-width="0.2"/>
<path d="M412.33 251.17L412.73 251.65 412.33 238.44 412.33 251.17Z"
fill="black" stroke="black" stroke-width="0.2"/>
<path d="M412.73 251.65L412.73 237.96 412.33 238.44 412.73 251.65Z"
fill="black" stroke="black" stroke-width="0.2"/>
<path d="M412.73 251.65L413.17 252.1 412.73 237.96 412.73 251.65Z"
fill="black" stroke="black" stroke-width="0.2"/>
<path d="M413.17 252.1L413.17 237.52 412.73 237.96 413.17 252.1Z"
fill="black" stroke="black" stroke-width="0.2"/>
<path d="M413.17 252.1L413.63 252.52 413.17 237.52 413.17 252.1Z"
fill="black" stroke="black" stroke-width="0.2"/>
<path d="M413.63 252.52L413.63 237.09 413.17 237.52 413.63 252.52Z"
fill="black" stroke="black" stroke-width="0.2"/>
<path d="M413.63 252.52L414.12 252.91 413.63 237.09 413.63 252.52Z"
fill="black" stroke="black" stroke-width="0.2"/>
<path d="M414.12 252.91L414.12 236.7 413.63 237.09 414.12 252.91Z"
fill="black" stroke="black" stroke-width="0.2"/>
<path d="M414.12 252.91L414.63 253.27 414.12 236.7 414.12 252.91Z"
fill="black" stroke="black" stroke-width="0.2"/>
<path d="M414.63 253.27L414.63 236.34 414.12 236.7 414.63 253.27Z"
fill="black" stroke="black" stroke-width="0.2"/>
<path d="M414.63 253.27L415.16 253.6 414.63 236.34 414.63 253.27Z"
fill="black" stroke="black" stroke-width="0.2"/>
<path d="M415.16 253.6L415.16 236.01 414.63 236.34 415.16 253.6Z"
fill="black" stroke="black" stroke-width="0.2"/>
<path d="M415.16 253.6L415.71 253.9 415.16 236.01 415.16 253.6Z"
fill="black" stroke="black" stroke-width="0.2"/>
<path d="M415.71 253.9L415.71 235.72 415.16 236.01 415.71 253.9Z"
fill="black" stroke="black" stroke-width="0.2"/>
<path d="M415.71 253.9L416.28 254.16 415.71 235.72 415.71 253.9Z"
fill="black" stroke="black" stroke-width="0.2"/>
<path d="M416.28 254.16L416.28 235.45 415.71 235.72 416.28 254.16Z"
fill="black" stroke="black" stroke-width="0.2"/>
<path d="M416.28 254.16L416.86 254.39 416.28 235.45 416.28 254.16Z"
fill="black" stroke="black" stroke-width="0.2"/>
<path d="M416.86 254.39L416.86 235.23 416.28 235.45 416.86 254.39Z"
fill="black" stroke="black" stroke-width="0.2"/>
<path d="M416.86 254.39L417.46 254.58 416.86 235.23 416.86 254.39Z"
fill="black" stroke="black" stroke-width="0.2"/>
<path d="M417.46 254.58L417.46 235.04 416.86 235.23 417.46 254.58Z"
fill="black" stroke="black" stroke-width="0.2"/>
<path d="M417.46 254.58L418.07 254.73 417.46 235.04 417.46 254.58Z"
fill="black" stroke="black" stroke-width="0.2"/>
<path d="M418.07 254.73L418.07 234.89 417.46 235.04 418.07 254.73Z"
fill="black" stroke="black" stroke-width="0.2"/>
<path d="M418.07 254.73L418.68 254.84 418.07 234.89 418.07 254.73Z"
fill="black" stroke="black" stroke-width="0.2"/>
<path d="M418.68 254.84L418.68 234.77 418.07 234.89 418.68 254.84Z"
fill="black" stroke="black" stroke-width="0.2"/>
<path d="M418.68 254.84L419.3 254.92 418.68 234.77 418.68 254.84Z"
fill="black" stroke="black" stroke-width="0.2"/>
<path d="M419.3 254.92L419.3 234.69 418.68 234.77 419.3 254.92Z"
fill="black" stroke="black" stroke-width="0.2"/>
<path d="M419.3 254.92L419.92 254.96 419.3 234.69 419.3 254.92Z"
fill="black" stroke="black" stroke-width="0.2"/>
<path d="M419.92 254.96L419.92 234.66 419.3 234.69 419.92 254.96Z"
fill="black" stroke="black" stroke-width="0.2"/>
<path d="M419.92 254.96L420.55 254.96 419.92 234.66 419.92 254.96Z"
fill="black" stroke="black" stroke-width="0.2"/>
<path d="M420.55 254.96L420.55 234.66 419.92 234.66 420.55 254.96Z"
fill="black" stroke="black" stroke-width="0.2"/>
<path d="M420.55 254.96L421.17 254.92 420.55 234.66 420.55 254.96Z"
fill="black" stroke="black" stroke-width="0.2"/>
<path d="M421.17 254.92L421.17 234.69 420.55 234.66 421.17 254.92Z"
fill="black" stroke="black" stroke-width="0.2"/>
<path d="M421.17 254.92L421.8 254.84 421.17 234.69 421.17 254.92Z"
fill="black" stroke="black" stroke-width="0.2"/>
<path d="M421.8 254.84L421.8 234.77 421.17 234.69 421.8 254.84Z"
fill="black" stroke="black" stroke-width="0.2"/>
<path d="M421.8 254.84L422.41 254.73 421.8 234.77 421.8 254.84Z"
fill="black" stroke="black" stroke-width="0.2"/>
<path d="M422.41 254.73L422.41 234.89 421.8 234.77 422.41 254.73Z"
fill="black" stroke="black" stroke-width="0.2"/>
<path d="M422.41 254.73L423.02 254.58 422.41 234.89 422.41 254.73Z"
fill="black" stroke="black" stroke-width="0.2"/>
<path d="M423.02 254.58L423.02 235.04 422.41 234.89 423.02 254.58Z"
fill="black" stroke="black" stroke-width="0.2"/>
<path d="M423.02 254.58L423.61 254.39 423.02 235.04 423.02 254.58Z"
fill="black" stroke="black" stroke-width="0.2"/>
<path d="M423.61 254.39L423.61 235.23 423.02 235.04 423.61 254.39Z"
fill="black" stroke="black" stroke-width="0.2"/>
<path d="M423.61 254.39L424.2 254.16 423.61 235.23 423.61 254.39Z"
fill="black" stroke="black" stroke-width="0.2"/>
<path d="M424.2 254.16L424.2 235.45 423.61 235.23 424.2 254.16Z"
fill="black" stroke="black" stroke-width="0.2"/>
<path d="M424.2 254.16L424.76 253.9 424.2 235.45 424.2 254.16Z"
fill="black" stroke="black" stroke-width="0.2"/>
<path d="M424.76 253.9L424.76 235.72 424.2 235.45 424.76 253.9Z"
fill="black" stroke="black" stroke-width="0.2"/>
<path d="M424.76 253.9L425.32 253.6 424.76 235.72 424.76 253.9Z"
fill="black" stroke="black" stroke-width="0.2"/>
<path d="M425.32 253.6L425.32 236.01 424.76 235.72 425.32 253.6Z"
fill="black" stroke="black" stroke-width="0.2"/>
<path d="M425.32 253.6L425.85 253.27 425.32 236.01 425.32 253.6Z"
fill="black" stroke="black" stroke-width="0.2"/>
<path d="M425.85 253.27L425.85 236.34 425.32 236.01 425.85 253.27Z"
fill="black" stroke="black" stroke-width="0.2"/>
<path d="M425.85 253.27L426.36 252.91 425.85 236.34 425.85 253.27Z"
fill="black" stroke="black" stroke-width="0.2"/>
<path d="M426.36 252.91L426.36 236.7 425.85 236.34 426.36 252.91Z"
fill="black" stroke="black" stroke-width="0.2"/>
<path d="M426.36 252.91L426.85 252.52 426.36 236.7 426.36 252.91Z"
fill="black" stroke="black" stroke-width="0.2"/>
<path d="M426.85 252.52L426.85 237.09 426.36 236.7 426.85 252.52Z"
fill="black" stroke="black" stroke-width="0.2"/>
<path d="M426.85 252.52L427.31 252.1 426.85 237.09 426.85 252.52Z"
fill="black" stroke="black" stroke-width="0.2"/>
<path d="M427.31 252.1L427.31 237.52 426.85 237.09 427.31 252.1Z"
fill="black" stroke="black" stroke-width="0.2"/>
<path d="M427.31 252.1L427.74 251.65 427.31 237.52 427.31 252.1Z"
fill="black" stroke="black" stroke-width="0.2"/>
<path d="M427.74 251.65L427.74 237.96 427.31 237.52 427.74 251.65Z"
fill="black" stroke="black" stroke-width="0.2"/>
<path d="M427.74 251.65L428.15 251.17 427.74 237.96 427.74 251.65Z"
fill="black" stroke="black" stroke-width="0.2"/>
<path d="M428.15 251.17L428.15 238.44 427.74 237.96 428.15 251.17Z"
fill="black" stroke="black" stroke-width="0.2"/>
<path d="M428.15 251.17L428.53 250.67 428.15 238.44 428.15 251.17Z"
fill="black" stroke="black" stroke-width="0.2"/>
<path d="M428.53 250.67L428.53 238.94 428.15 238.44 428.53 250.67Z"
fill="black" stroke="black" stroke-width="0.2"/>
<path d="M428.53 250.67L428.87 250.15 428.53 238.94 428.53 250.67Z"
fill="black" stroke="black" stroke-width="0.2"/>
<path d="M428.87 250.15L428.87 239.46 428.53 238.94 428.87 250.15Z"
fill="black" stroke="black" stroke-width="0.2"/>
<path d="M428.87 250.15L429.19 249.61 428.87 239.46 428.87 250.15Z"
fill="black" stroke="black" stroke-width="0.2"/>
<path d="M429.19 249.61L429.19 240 428.87 239.46 429.19 249.61Z"
fill="black" stroke="black" stroke-width="0.2"/>
<path d="M429.19 249.61L429.46 249.05 429.19 240 429.19 249.61Z"
fill="black" stroke="black" stroke-width="0.2"/>
<path d="M429.46 249.05L429.46 240.56 429.19 240 429.46 249.05Z"
fill="black" stroke="black" stroke-width="0.2"/>
<path d="M429.46 249.05L429.71 248.48 429.46 240.56 429.46 249.05Z"
fill="black" stroke="black" stroke-width="0.2"/>
<path d="M429.71 248.48L429.71 241.14 429.46 240.56 429.71 248.48Z"
fill="black" stroke="black" stroke-width="0.2"/>
<path d="M429.71 248.48L429.92 247.89 429.71 241.14 429.71 248.48Z"
fill="black" stroke="black" stroke-width="0.2"/>
<path d="M429.92 247.89L429.92 241.73 429.71 241.14 429.92 247.89Z"
fill="black" stroke="black" stroke-width="0.2"/>
<path d="M429.92 247.89L430.09 247.28 429.92 241.73 429.92 247.89Z"
fill="black" stroke="black" stroke-width="0.2"/>
<path d="M430.09 247.28L430.09 242.33 429.92 241.73 430.09 247.28Z"
fill="black" stroke="black" stroke-width="0.2"/>
<path d="M430.09 247.28L430.22 246.67 430.09 242.33 430.09 247.28Z"
fill="black" stroke="black" stroke-width="0.2"/>
<path d="M430.22 246.67L430.22 242.94 430.09 242.33 430.22 246.67Z"
fill="black" stroke="black" stroke-width="0.2"/>
<path d="M430.22 246.67L430.32 246.05 430.22 242.94 430.22 246.67Z"
fill="black" stroke="black" stroke-width="0.2"/>
<path d="M430.32 246.05L430.32 243.56 430.22 242.94 430.32 246.05Z"
fill="black" stroke="black" stroke-width="0.2"/>
<path d="M430.32 246.05L430.37 245.43 430.32 243.56 430.32 246.05Z"
fill="black" stroke="black" stroke-width="0.2"/>
<path d="M430.37 245.43L430.37 244.18 430.32 243.56 430.37 245.43Z"
fill="black" stroke="black" stroke-width="0.2"/>
<path d="M430.37 245.43L430.39 244.81 430.37 244.18 430.37 245.43Z"
fill="black" stroke="black" stroke-width="0.2"/>
<path d="M430.39 244.81L430.2 246.79"
fill="none" stroke="black" stroke-width="0.5"/>
<path d="M430.2 246.79L429.62 248.69"
fill="none" stroke="black" stroke-width="0.5"/>
<path d="M429.62 248.69L428.68 250.45"
fill="none" stroke="black" stroke-width="0.5"/>
<path d="M428.68 250.45L427.42 251.99"
fill="none" stroke="black" stroke-width="0.5"/>
<path d="M427.42 251.99L425.88 253.25"
fill="none" stroke="black" stroke-width="0.5"/>
<path d="M425.88 253.25L424.12 254.19"
fill="none" stroke="black" stroke-width="0.5"/>
<path d="M424.12 254.19L422.22 254.77"
fill="none" stroke="black" stroke-width="0.5"/>
<path d="M422.22 254.77L420.24 254.96"
fill="none" stroke="black" stroke-width="0.5"/>
<path d="M420.24 254.96L418.26 254.77"
fill="none" stroke="black" stroke-width="0.5"/>
<path d="M418.26 254.77L416.35 254.19"
fill="none" stroke="black" stroke-width="0.5"/>
<path d="M416.35 254.19L414.6 253.25"
fill="none" stroke="black" stroke-width="0.5"/>
<path d="M414.6 253.25L413.06 251.99"
fill="none" stroke="black" stroke-width="0.5"/>
<path d="M413.06 251.99L411.79 250.45"
fill="none" stroke="black" stroke-width="0.5"/>
<path d="M411.79 250.45L410.85 248.69"
fill="none" stroke="black" stroke-width="0.5"/>
<path d="M410.85 248.69L410.28 246.79"
fill="none" stroke="black" stroke-width="0.5"/>
<path d="M410.28 246.79L410.08 244.81"
fill="none" stroke="black" stroke-width="0.5"/>
<path d="M410.08 244.81L410.28 242.83"
fill="none" stroke="black" stroke-width="0.5"/>
<path d="M410.28 242.83L410.85 240.92"
fill="none" stroke="black" stroke-width="0.5"/>
<path d="M410.85 240.92L411.79 239.16"
fill="none" stroke="black" stroke-width="0.5"/>
<path d="M411.79 239.16L413.06 237.63"
fill="none" stroke="black" stroke-width="0.5"/>
<path d="M413.06 237.63L414.6 236.36"
fill="none" stroke="black" stroke-width="0.5"/>
<path d="M414.6 236.36L416.35 235.42"
fill="none" stroke="black" stroke-width="0.5"/>
<path d="M416.35 235.42L418.26 234.85"
fill="none" stroke="black" stroke-width="0.5"/>
<path d="M418.26 234.85L420.24 234.65"
fill="none" stroke="black" stroke-width="0.5"/>
<path d="M420.24 234.65L422.22 234.85"
fill="none" stroke="black" stroke-width="0.5"/>
<path d="M422.22 234.85L424.12 235.42"
fill="none" stroke="black" stroke-width="0.5"/>
<path d="M424.12 235.42L425.88 236.36"
fill="none" stroke="black" stroke-width="0.5"/>
<path d="M425.88 236.36L427.42 237.63"
fill="none" stroke="black" stroke-width="0.5"/>
<path d="M427.42 237.63L428.68 239.16"
fill="none" stroke="black" stroke-width="0.5"/>
<path d="M428.68 239.16L429.62 240.92"
fill="none" stroke="black" stroke-width="0.5"/>
<path d="M429.62 240.92L430.2 242.83"
fill="none" stroke="black" stroke-width="0.5"/>
<path d="M430.2 242.83L430.39 244.81"
fill="none" stroke="black" stroke-width="0.5"/>
</svg>
