<?xml version="1.0" encoding="UTF-8"?>
<svg xmlns="http://www.w3.org/2000/svg" width="800.000" height="600.000" viewBox="0.0 0.0 800.000 600.000" version="1.1">
  <desc>Produce by Acme CAD Converter</desc>
<path d="M320.04 357.85L456.39 357.85"
fill="none" stroke="black" stroke-width="3.5"/>
<path d="M456.39 357.85L456.39 221.5Z"
fill="none" stroke="black" stroke-width="3.5"/>
<path d="M456.39 221.5L320.04 221.5"
fill="none" stroke="black" stroke-width="3.5"/>
<path d="M320.04 221.5L320.04 357.85Z"
fill="none" stroke="black" stroke-width="3.5"/>
<path d="M320.04 221.5L456.39 357.85"
fill="none" stroke="black" stroke-width="3.5"/>
<path d="M320.04 357.85L456.39 221.5"
fill="none" stroke="black" stroke-width="3.5"/>
<path d="M356.57 290.3L356.57 289.05 356.55 289.68 356.57 290.3Z"
fill="black" stroke="black" stroke-width="0.2"/>
<path d="M356.57 290.3L356.63 290.93 356.57 289.05 356.57 290.3Z"
fill="black" stroke="black" stroke-width="0.2"/>
<path d="M356.63 290.93L356.63 288.42 356.57 289.05 356.63 290.93Z"
fill="black" stroke="black" stroke-width="0.2"/>
<path d="M356.63 290.93L356.73 291.55 356.63 288.42 356.63 290.93Z"
fill="black" stroke="black" stroke-width="0.2"/>
<path d="M356.73 291.55L356.73 287.8 356.63 288.42 356.73 291.55Z"
fill="black" stroke="black" stroke-width="0.2"/>
<path d="M356.73 291.55L356.86 292.17 356.73 287.8 356.73 291.55Z"
fill="black" stroke="black" stroke-width="0.2"/>
<path d="M356.86 292.17L356.86 287.18 356.73 287.8 356.86 292.17Z"
fill="black" stroke="black" stroke-width="0.2"/>
<path d="M356.86 292.17L357.03 292.78 356.86 287.18 356.86 292.17Z"
fill="black" stroke="black" stroke-width="0.2"/>
<path d="M357.03 292.78L357.03 286.58 356.86 287.18 357.03 292.78Z"
fill="black" stroke="black" stroke-width="0.2"/>
<path d="M357.03 292.78L357.24 293.37 357.03 286.58 357.03 292.78Z"
fill="black" stroke="black" stroke-width="0.2"/>
<path d="M357.24 293.37L357.24 285.98 357.03 286.58 357.24 293.37Z"
fill="black" stroke="black" stroke-width="0.2"/>
<path d="M357.24 293.37L357.49 293.95 357.24 285.98 357.24 293.37Z"
fill="black" stroke="black" stroke-width="0.2"/>
<path d="M357.49 293.95L357.49 285.4 357.24 285.98 357.49 293.95Z"
fill="black" stroke="black" stroke-width="0.2"/>
<path d="M357.49 293.95L357.77 294.51 357.49 285.4 357.49 293.95Z"
fill="black" stroke="black" stroke-width="0.2"/>
<path d="M357.77 294.51L357.77 284.84 357.49 285.4 357.77 294.51Z"
fill="black" stroke="black" stroke-width="0.2"/>
<path d="M357.77 294.51L358.08 295.06 357.77 284.84 357.77 294.51Z"
fill="black" stroke="black" stroke-width="0.2"/>
<path d="M358.08 295.06L358.08 284.29 357.77 284.84 358.08 295.06Z"
fill="black" stroke="black" stroke-width="0.2"/>
<path d="M358.08 295.06L358.43 295.58 358.08 284.29 358.08 295.06Z"
fill="black" stroke="black" stroke-width="0.2"/>
<path d="M358.43 295.58L358.43 283.77 358.08 284.29 358.43 295.58Z"
fill="black" stroke="black" stroke-width="0.2"/>
<path d="M358.43 295.58L358.81 296.09 358.43 283.77 358.43 295.58Z"
fill="black" stroke="black" stroke-width="0.2"/>
<path d="M358.81 296.09L358.81 283.26 358.43 283.77 358.81 296.09Z"
fill="black" stroke="black" stroke-width="0.2"/>
<path d="M358.81 296.09L359.22 296.57 358.81 283.26 358.81 296.09Z"
fill="black" stroke="black" stroke-width="0.2"/>
<path d="M359.22 296.57L359.22 282.79 358.81 283.26 359.22 296.57Z"
fill="black" stroke="black" stroke-width="0.2"/>
<path d="M359.22 296.57L359.66 297.02 359.22 282.79 359.22 296.57Z"
fill="black" stroke="black" stroke-width="0.2"/>
<path d="M359.66 297.02L359.66 282.33 359.22 282.79 359.66 297.02Z"
fill="black" stroke="black" stroke-width="0.2"/>
<path d="M359.66 297.02L360.13 297.44 359.66 282.33 359.66 297.02Z"
fill="black" stroke="black" stroke-width="0.2"/>
<path d="M360.13 297.44L360.13 281.91 359.66 282.33 360.13 297.44Z"
fill="black" stroke="black" stroke-width="0.2"/>
<path d="M360.13 297.44L360.62 297.84 360.13 281.91 360.13 297.44Z"
fill="black" stroke="black" stroke-width="0.2"/>
<path d="M360.62 297.84L360.62 281.51 360.13 281.91 360.62 297.84Z"
fill="black" stroke="black" stroke-width="0.2"/>
<path d="M360.62 297.84L361.13 298.2 360.62 281.51 360.62 297.84Z"
fill="black" stroke="black" stroke-width="0.2"/>
<path d="M361.13 298.2L361.13 281.15 360.62 281.51 361.13 298.2Z"
fill="black" stroke="black" stroke-width="0.2"/>
<path d="M361.13 298.2L361.67 298.53 361.13 281.15 361.13 298.2Z"
fill="black" stroke="black" stroke-width="0.2"/>
<path d="M361.67 298.53L361.67 280.82 361.13 281.15 361.67 298.53Z"
fill="black" stroke="black" stroke-width="0.2"/>
<path d="M361.67 298.53L362.22 298.83 361.67 280.82 361.67 298.53Z"
fill="black" stroke="black" stroke-width="0.2"/>
<path d="M362.22 298.83L362.22 280.52 361.67 280.82 362.22 298.83Z"
fill="black" stroke="black" stroke-width="0.2"/>
<path d="M362.22 298.83L362.79 299.09 362.22 280.52 362.22 298.83Z"
fill="black" stroke="black" stroke-width="0.2"/>
<path d="M362.79 299.09L362.79 280.26 362.22 280.52 362.79 299.09Z"
fill="black" stroke="black" stroke-width="0.2"/>
<path d="M362.79 299.09L363.38 299.32 362.79 280.26 362.79 299.09Z"
fill="black" stroke="black" stroke-width="0.2"/>
<path d="M363.38 299.32L363.38 280.03 362.79 280.26 363.38 299.32Z"
fill="black" stroke="black" stroke-width="0.2"/>
<path d="M363.38 299.32L363.98 299.51 363.38 280.03 363.38 299.32Z"
fill="black" stroke="black" stroke-width="0.2"/>
<path d="M363.98 299.51L363.98 279.84 363.38 280.03 363.98 299.51Z"
fill="black" stroke="black" stroke-width="0.2"/>
<path d="M363.98 299.51L364.59 299.67 363.98 279.84 363.98 299.51Z"
fill="black" stroke="black" stroke-width="0.2"/>
<path d="M364.59 299.67L364.59 279.69 363.98 279.84 364.59 299.67Z"
fill="black" stroke="black" stroke-width="0.2"/>
<path d="M364.59 299.67L365.21 299.78 364.59 279.69 364.59 299.67Z"
fill="black" stroke="black" stroke-width="0.2"/>
<path d="M365.21 299.78L365.21 279.57 364.59 279.69 365.21 299.78Z"
fill="black" stroke="black" stroke-width="0.2"/>
<path d="M365.21 299.78L365.84 299.86 365.21 279.57 365.21 299.78Z"
fill="black" stroke="black" stroke-width="0.2"/>
<path d="M365.84 299.86L365.84 279.49 365.21 279.57 365.84 299.86Z"
fill="black" stroke="black" stroke-width="0.2"/>
<path d="M365.84 299.86L366.46 299.9 365.84 279.49 365.84 299.86Z"
fill="black" stroke="black" stroke-width="0.2"/>
<path d="M366.46 299.9L366.46 279.45 365.84 279.49 366.46 299.9Z"
fill="black" stroke="black" stroke-width="0.2"/>
<path d="M366.46 299.9L367.09 299.9 366.46 279.45 366.46 299.9Z"
fill="black" stroke="black" stroke-width="0.2"/>
<path d="M367.09 299.9L367.09 279.45 366.46 279.45 367.09 299.9Z"
fill="black" stroke="black" stroke-width="0.2"/>
<path d="M367.09 299.9L367.72 299.86 367.09 279.45 367.09 299.9Z"
fill="black" stroke="black" stroke-width="0.2"/>
<path d="M367.72 299.86L367.72 279.49 367.09 279.45 367.72 299.86Z"
fill="black" stroke="black" stroke-width="0.2"/>
<path d="M367.72 299.86L368.35 299.78 367.72 279.49 367.72 299.86Z"
fill="black" stroke="black" stroke-width="0.2"/>
<path d="M368.35 299.78L368.35 279.57 367.72 279.49 368.35 299.78Z"
fill="black" stroke="black" stroke-width="0.2"/>
<path d="M368.35 299.78L368.97 299.67 368.35 279.57 368.35 299.78Z"
fill="black" stroke="black" stroke-width="0.2"/>
<path d="M368.97 299.67L368.97 279.69 368.35 279.57 368.97 299.67Z"
fill="black" stroke="black" stroke-width="0.2"/>
<path d="M368.97 299.67L369.58 299.51 368.97 279.69 368.97 299.67Z"
fill="black" stroke="black" stroke-width="0.2"/>
<path d="M369.58 299.51L369.58 279.84 368.97 279.69 369.58 299.51Z"
fill="black" stroke="black" stroke-width="0.2"/>
<path d="M369.58 299.51L370.18 299.32 369.58 279.84 369.58 299.51Z"
fill="black" stroke="black" stroke-width="0.2"/>
<path d="M370.18 299.32L370.18 280.03 369.58 279.84 370.18 299.32Z"
fill="black" stroke="black" stroke-width="0.2"/>
<path d="M370.18 299.32L370.77 299.09 370.18 280.03 370.18 299.32Z"
fill="black" stroke="black" stroke-width="0.2"/>
<path d="M370.77 299.09L370.77 280.26 370.18 280.03 370.77 299.09Z"
fill="black" stroke="black" stroke-width="0.2"/>
<path d="M370.77 299.09L371.34 298.83 370.77 280.26 370.77 299.09Z"
fill="black" stroke="black" stroke-width="0.2"/>
<path d="M371.34 298.83L371.34 280.52 370.77 280.26 371.34 298.83Z"
fill="black" stroke="black" stroke-width="0.2"/>
<path d="M371.34 298.83L371.89 298.53 371.34 280.52 371.34 298.83Z"
fill="black" stroke="black" stroke-width="0.2"/>
<path d="M371.89 298.53L371.89 280.82 371.34 280.52 371.89 298.53Z"
fill="black" stroke="black" stroke-width="0.2"/>
<path d="M371.89 298.53L372.43 298.2 371.89 280.82 371.89 298.53Z"
fill="black" stroke="black" stroke-width="0.2"/>
<path d="M372.43 298.2L372.43 281.15 371.89 280.82 372.43 298.2Z"
fill="black" stroke="black" stroke-width="0.2"/>
<path d="M372.43 298.2L372.94 297.84 372.43 281.15 372.43 298.2Z"
fill="black" stroke="black" stroke-width="0.2"/>
<path d="M372.94 297.84L372.94 281.51 372.43 281.15 372.94 297.84Z"
fill="black" stroke="black" stroke-width="0.2"/>
<path d="M372.94 297.84L373.43 297.44 372.94 281.51 372.94 297.84Z"
fill="black" stroke="black" stroke-width="0.2"/>
<path d="M373.43 297.44L373.43 281.91 372.94 281.51 373.43 297.44Z"
fill="black" stroke="black" stroke-width="0.2"/>
<path d="M373.43 297.44L373.9 297.02 373.43 281.91 373.43 297.44Z"
fill="black" stroke="black" stroke-width="0.2"/>
<path d="M373.9 297.02L373.9 282.33 373.43 281.91 373.9 297.02Z"
fill="black" stroke="black" stroke-width="0.2"/>
<path d="M373.9 297.02L374.34 296.57 373.9 282.33 373.9 297.02Z"
fill="black" stroke="black" stroke-width="0.2"/>
<path d="M374.34 296.57L374.34 282.79 373.9 282.33 374.34 296.57Z"
fill="black" stroke="black" stroke-width="0.2"/>
<path d="M374.34 296.57L374.75 296.09 374.34 282.79 374.34 296.57Z"
fill="black" stroke="black" stroke-width="0.2"/>
<path d="M374.75 296.09L374.75 283.26 374.34 282.79 374.75 296.09Z"
fill="black" stroke="black" stroke-width="0.2"/>
<path d="M374.75 296.09L375.13 295.58 374.75 283.26 374.75 296.09Z"
fill="black" stroke="black" stroke-width="0.2"/>
<path d="M375.13 295.58L375.13 283.77 374.75 283.26 375.13 295.58Z"
fill="black" stroke="black" stroke-width="0.2"/>
<path d="M375.13 295.58L375.47 295.06 375.13 283.77 375.13 295.58Z"
fill="black" stroke="black" stroke-width="0.2"/>
<path d="M375.47 295.06L375.47 284.29 375.13 283.77 375.47 295.06Z"
fill="black" stroke="black" stroke-width="0.2"/>
<path d="M375.47 295.06L375.79 294.51 375.47 284.29 375.47 295.06Z"
fill="black" stroke="black" stroke-width="0.2"/>
<path d="M375.79 294.51L375.79 284.84 375.47 284.29 375.79 294.51Z"
fill="black" stroke="black" stroke-width="0.2"/>
<path d="M375.79 294.51L376.07 293.95 375.79 284.84 375.79 294.51Z"
fill="black" stroke="black" stroke-width="0.2"/>
<path d="M376.07 293.95L376.07 285.4 375.79 284.84 376.07 293.95Z"
fill="black" stroke="black" stroke-width="0.2"/>
<path d="M376.07 293.95L376.32 293.37 376.07 285.4 376.07 293.95Z"
fill="black" stroke="black" stroke-width="0.2"/>
<path d="M376.32 293.37L376.32 285.98 376.07 285.4 376.32 293.37Z"
fill="black" stroke="black" stroke-width="0.2"/>
<path d="M376.32 293.37L376.52 292.78 376.32 285.98 376.32 293.37Z"
fill="black" stroke="black" stroke-width="0.2"/>
<path d="M376.52 292.78L376.52 286.58 376.32 285.98 376.52 292.78Z"
fill="black" stroke="black" stroke-width="0.2"/>
<path d="M376.52 292.78L376.7 292.17 376.52 286.58 376.52 292.78Z"
fill="black" stroke="black" stroke-width="0.2"/>
<path d="M376.7 292.17L376.7 287.18 376.52 286.58 376.7 292.17Z"
fill="black" stroke="black" stroke-width="0.2"/>
<path d="M376.7 292.17L376.83 291.55 376.7 287.18 376.7 292.17Z"
fill="black" stroke="black" stroke-width="0.2"/>
<path d="M376.83 291.55L376.83 287.8 376.7 287.18 376.83 291.55Z"
fill="black" stroke="black" stroke-width="0.2"/>
<path d="M376.83 291.55L376.93 290.93 376.83 287.8 376.83 291.55Z"
fill="black" stroke="black" stroke-width="0.2"/>
<path d="M376.93 290.93L376.93 288.42 376.83 287.8 376.93 290.93Z"
fill="black" stroke="black" stroke-width="0.2"/>
<path d="M376.93 290.93L376.99 290.3 376.93 288.42 376.93 290.93Z"
fill="black" stroke="black" stroke-width="0.2"/>
<path d="M376.99 290.3L376.99 289.05 376.93 288.42 376.99 290.3Z"
fill="black" stroke="black" stroke-width="0.2"/>
<path d="M376.99 290.3L377.01 289.68 376.99 289.05 376.99 290.3Z"
fill="black" stroke="black" stroke-width="0.2"/>
<path d="M377.01 289.68L376.81 291.67"
fill="none" stroke="black" stroke-width="3.5"/>
<path d="M376.81 291.67L376.23 293.59"
fill="none" stroke="black" stroke-width="3.5"/>
<path d="M376.23 293.59L375.28 295.36"
fill="none" stroke="black" stroke-width="3.5"/>
<path d="M375.28 295.36L374.01 296.91"
fill="none" stroke="black" stroke-width="3.5"/>
<path d="M374.01 296.91L372.46 298.18"
fill="none" stroke="black" stroke-width="3.5"/>
<path d="M372.46 298.18L370.69 299.12"
fill="none" stroke="black" stroke-width="3.5"/>
<path d="M370.69 299.12L368.77 299.71"
fill="none" stroke="black" stroke-width="3.5"/>
<path d="M368.77 299.71L366.78 299.9"
fill="none" stroke="black" stroke-width="3.5"/>
<path d="M366.78 299.9L364.78 299.71"
fill="none" stroke="black" stroke-width="3.5"/>
<path d="M364.78 299.71L362.87 299.12"
fill="none" stroke="black" stroke-width="3.5"/>
<path d="M362.87 299.12L361.1 298.18"
fill="none" stroke="black" stroke-width="3.5"/>
<path d="M361.1 298.18L359.55 296.91"
fill="none" stroke="black" stroke-width="3.5"/>
<path d="M359.55 296.91L358.28 295.36"
fill="none" stroke="black" stroke-width="3.5"/>
<path d="M358.28 295.36L357.33 293.59"
fill="none" stroke="black" stroke-width="3.5"/>
<path d="M357.33 293.59L356.75 291.67"
fill="none" stroke="black" stroke-width="3.5"/>
<path d="M356.75 291.67L356.55 289.68"
fill="none" stroke="black" stroke-width="3.5"/>
<path d="M356.55 289.68L356.75 287.68"
fill="none" stroke="black" stroke-width="3.5"/>
<path d="M356.75 287.68L357.33 285.76"
fill="none" stroke="black" stroke-width="3.5"/>
<path d="M357.33 285.76L358.28 283.99"
fill="none" stroke="black" stroke-width="3.5"/>
<path d="M358.28 283.99L359.55 282.44"
fill="none" stroke="black" stroke-width="3.5"/>
<path d="M359.55 282.44L361.1 281.17"
fill="none" stroke="black" stroke-width="3.5"/>
<path d="M361.1 281.17L362.87 280.23"
fill="none" stroke="black" stroke-width="3.5"/>
<path d="M362.87 280.23L364.78 279.64"
fill="none" stroke="black" stroke-width="3.5"/>
<path d="M364.78 279.64L366.78 279.45"
fill="none" stroke="black" stroke-width="3.5"/>
<path d="M366.78 279.45L368.77 279.64"
fill="none" stroke="black" stroke-width="3.5"/>
<path d="M368.77 279.64L370.69 280.23"
fill="none" stroke="black" stroke-width="3.5"/>
<path d="M370.69 280.23L372.46 281.17"
fill="none" stroke="black" stroke-width="3.5"/>
<path d="M372.46 281.17L374.01 282.44"
fill="none" stroke="black" stroke-width="3.5"/>
<path d="M374.01 282.44L375.28 283.99"
fill="none" stroke="black" stroke-width="3.5"/>
<path d="M375.28 283.99L376.23 285.76"
fill="none" stroke="black" stroke-width="3.5"/>
<path d="M376.23 285.76L376.81 287.68"
fill="none" stroke="black" stroke-width="3.5"/>
<path d="M376.81 287.68L377.01 289.68"
fill="none" stroke="black" stroke-width="3.5"/>
<path d="M399.45 290.3L399.45 289.05 399.43 289.68 399.45 290.3Z"
fill="black" stroke="black" stroke-width="0.2"/>
<path d="M399.45 290.3L399.5 290.93 399.45 289.05 399.45 290.3Z"
fill="black" stroke="black" stroke-width="0.2"/>
<path d="M399.5 290.93L399.5 288.42 399.45 289.05 399.5 290.93Z"
fill="black" stroke="black" stroke-width="0.2"/>
<path d="M399.5 290.93L399.6 291.55 399.5 288.42 399.5 290.93Z"
fill="black" stroke="black" stroke-width="0.2"/>
<path d="M399.6 291.55L399.6 287.8 399.5 288.42 399.6 291.55Z"
fill="black" stroke="black" stroke-width="0.2"/>
<path d="M399.6 291.55L399.73 292.17 399.6 287.8 399.6 291.55Z"
fill="black" stroke="black" stroke-width="0.2"/>
<path d="M399.73 292.17L399.73 287.18 399.6 287.8 399.73 292.17Z"
fill="black" stroke="black" stroke-width="0.2"/>
<path d="M399.73 292.17L399.91 292.78 399.73 287.18 399.73 292.17Z"
fill="black" stroke="black" stroke-width="0.2"/>
<path d="M399.91 292.78L399.91 286.58 399.73 287.18 399.91 292.78Z"
fill="black" stroke="black" stroke-width="0.2"/>
<path d="M399.91 292.78L400.12 293.37 399.91 286.58 399.91 292.78Z"
fill="black" stroke="black" stroke-width="0.2"/>
<path d="M400.12 293.37L400.12 285.98 399.91 286.58 400.12 293.37Z"
fill="black" stroke="black" stroke-width="0.2"/>
<path d="M400.12 293.37L400.36 293.95 400.12 285.98 400.12 293.37Z"
fill="black" stroke="black" stroke-width="0.2"/>
<path d="M400.36 293.95L400.36 285.4 400.12 285.98 400.36 293.95Z"
fill="black" stroke="black" stroke-width="0.2"/>
<path d="M400.36 293.95L400.64 294.51 400.36 285.4 400.36 293.95Z"
fill="black" stroke="black" stroke-width="0.2"/>
<path d="M400.64 294.51L400.64 284.84 400.36 285.4 400.64 294.51Z"
fill="black" stroke="black" stroke-width="0.2"/>
<path d="M400.64 294.51L400.96 295.06 400.64 284.84 400.64 294.51Z"
fill="black" stroke="black" stroke-width="0.2"/>
<path d="M400.96 295.06L400.96 284.29 400.64 284.84 400.96 295.06Z"
fill="black" stroke="black" stroke-width="0.2"/>
<path d="M400.96 295.06L401.31 295.58 400.96 284.29 400.96 295.06Z"
fill="black" stroke="black" stroke-width="0.2"/>
<path d="M401.31 295.58L401.31 283.77 400.96 284.29 401.31 295.58Z"
fill="black" stroke="black" stroke-width="0.2"/>
<path d="M401.31 295.58L401.69 296.09 401.31 283.77 401.31 295.58Z"
fill="black" stroke="black" stroke-width="0.2"/>
<path d="M401.69 296.09L401.69 283.26 401.31 283.77 401.69 296.09Z"
fill="black" stroke="black" stroke-width="0.2"/>
<path d="M401.69 296.09L402.09 296.57 401.69 283.26 401.69 296.09Z"
fill="black" stroke="black" stroke-width="0.2"/>
<path d="M402.09 296.57L402.09 282.79 401.69 283.26 402.09 296.57Z"
fill="black" stroke="black" stroke-width="0.2"/>
<path d="M402.09 296.57L402.53 297.02 402.09 282.79 402.09 296.57Z"
fill="black" stroke="black" stroke-width="0.2"/>
<path d="M402.53 297.02L402.53 282.33 402.09 282.79 402.53 297.02Z"
fill="black" stroke="black" stroke-width="0.2"/>
<path d="M402.53 297.02L403 297.44 402.53 282.33 402.53 297.02Z"
fill="black" stroke="black" stroke-width="0.2"/>
<path d="M403 297.44L403 281.91 402.53 282.33 403 297.44Z"
fill="black" stroke="black" stroke-width="0.2"/>
<path d="M403 297.44L403.49 297.84 403 281.91 403 297.44Z"
fill="black" stroke="black" stroke-width="0.2"/>
<path d="M403.49 297.84L403.49 281.51 403 281.91 403.49 297.84Z"
fill="black" stroke="black" stroke-width="0.2"/>
<path d="M403.49 297.84L404 298.2 403.49 281.51 403.49 297.84Z"
fill="black" stroke="black" stroke-width="0.2"/>
<path d="M404 298.2L404 281.15 403.49 281.51 404 298.2Z"
fill="black" stroke="black" stroke-width="0.2"/>
<path d="M404 298.2L404.54 298.53 404 281.15 404 298.2Z"
fill="black" stroke="black" stroke-width="0.2"/>
<path d="M404.54 298.53L404.54 280.82 404 281.15 404.54 298.53Z"
fill="black" stroke="black" stroke-width="0.2"/>
<path d="M404.54 298.53L405.09 298.83 404.54 280.82 404.54 298.53Z"
fill="black" stroke="black" stroke-width="0.2"/>
<path d="M405.09 298.83L405.09 280.52 404.54 280.82 405.09 298.83Z"
fill="black" stroke="black" stroke-width="0.2"/>
<path d="M405.09 298.83L405.67 299.09 405.09 280.52 405.09 298.83Z"
fill="black" stroke="black" stroke-width="0.2"/>
<path d="M405.67 299.09L405.67 280.26 405.09 280.52 405.67 299.09Z"
fill="black" stroke="black" stroke-width="0.2"/>
<path d="M405.67 299.09L406.25 299.32 405.67 280.26 405.67 299.09Z"
fill="black" stroke="black" stroke-width="0.2"/>
<path d="M406.25 299.32L406.25 280.03 405.67 280.26 406.25 299.32Z"
fill="black" stroke="black" stroke-width="0.2"/>
<path d="M406.25 299.32L406.85 299.51 406.25 280.03 406.25 299.32Z"
fill="black" stroke="black" stroke-width="0.2"/>
<path d="M406.85 299.51L406.85 279.84 406.25 280.03 406.85 299.51Z"
fill="black" stroke="black" stroke-width="0.2"/>
<path d="M406.85 299.51L407.46 299.67 406.85 279.84 406.85 299.51Z"
fill="black" stroke="black" stroke-width="0.2"/>
<path d="M407.46 299.67L407.46 279.69 406.85 279.84 407.46 299.67Z"
fill="black" stroke="black" stroke-width="0.2"/>
<path d="M407.46 299.67L408.08 299.78 407.46 279.69 407.46 299.67Z"
fill="black" stroke="black" stroke-width="0.2"/>
<path d="M408.08 299.78L408.08 279.57 407.46 279.69 408.08 299.78Z"
fill="black" stroke="black" stroke-width="0.2"/>
<path d="M408.08 299.78L408.71 299.86 408.08 279.57 408.08 299.78Z"
fill="black" stroke="black" stroke-width="0.2"/>
<path d="M408.71 299.86L408.71 279.49 408.08 279.57 408.71 299.86Z"
fill="black" stroke="black" stroke-width="0.2"/>
<path d="M408.71 299.86L409.34 299.9 408.71 279.49 408.71 299.86Z"
fill="black" stroke="black" stroke-width="0.2"/>
<path d="M409.34 299.9L409.34 279.45 408.71 279.49 409.34 299.9Z"
fill="black" stroke="black" stroke-width="0.2"/>
<path d="M409.34 299.9L409.97 299.9 409.34 279.45 409.34 299.9Z"
fill="black" stroke="black" stroke-width="0.2"/>
<path d="M409.97 299.9L409.97 279.45 409.34 279.45 409.97 299.9Z"
fill="black" stroke="black" stroke-width="0.2"/>
<path d="M409.97 299.9L410.6 299.86 409.97 279.45 409.97 299.9Z"
fill="black" stroke="black" stroke-width="0.2"/>
<path d="M410.6 299.86L410.6 279.49 409.97 279.45 410.6 299.86Z"
fill="black" stroke="black" stroke-width="0.2"/>
<path d="M410.6 299.86L411.22 299.78 410.6 279.49 410.6 299.86Z"
fill="black" stroke="black" stroke-width="0.2"/>
<path d="M411.22 299.78L411.22 279.57 410.6 279.49 411.22 299.78Z"
fill="black" stroke="black" stroke-width="0.2"/>
<path d="M411.22 299.78L411.84 299.67 411.22 279.57 411.22 299.78Z"
fill="black" stroke="black" stroke-width="0.2"/>
<path d="M411.84 299.67L411.84 279.69 411.22 279.57 411.84 299.67Z"
fill="black" stroke="black" stroke-width="0.2"/>
<path d="M411.84 299.67L412.45 299.51 411.84 279.69 411.84 299.67Z"
fill="black" stroke="black" stroke-width="0.2"/>
<path d="M412.45 299.51L412.45 279.84 411.84 279.69 412.45 299.51Z"
fill="black" stroke="black" stroke-width="0.2"/>
<path d="M412.45 299.51L413.05 299.32 412.45 279.84 412.45 299.51Z"
fill="black" stroke="black" stroke-width="0.2"/>
<path d="M413.05 299.32L413.05 280.03 412.45 279.84 413.05 299.32Z"
fill="black" stroke="black" stroke-width="0.2"/>
<path d="M413.05 299.32L413.64 299.09 413.05 280.03 413.05 299.32Z"
fill="black" stroke="black" stroke-width="0.2"/>
<path d="M413.64 299.09L413.64 280.26 413.05 280.03 413.64 299.09Z"
fill="black" stroke="black" stroke-width="0.2"/>
<path d="M413.64 299.09L414.21 298.83 413.64 280.26 413.64 299.09Z"
fill="black" stroke="black" stroke-width="0.2"/>
<path d="M414.21 298.83L414.21 280.52 413.64 280.26 414.21 298.83Z"
fill="black" stroke="black" stroke-width="0.2"/>
<path d="M414.21 298.83L414.77 298.53 414.21 280.52 414.21 298.83Z"
fill="black" stroke="black" stroke-width="0.2"/>
<path d="M414.77 298.53L414.77 280.82 414.21 280.52 414.77 298.53Z"
fill="black" stroke="black" stroke-width="0.2"/>
<path d="M414.77 298.53L415.3 298.2 414.77 280.82 414.77 298.53Z"
fill="black" stroke="black" stroke-width="0.2"/>
<path d="M415.3 298.2L415.3 281.15 414.77 280.82 415.3 298.2Z"
fill="black" stroke="black" stroke-width="0.2"/>
<path d="M415.3 298.2L415.82 297.84 415.3 281.15 415.3 298.2Z"
fill="black" stroke="black" stroke-width="0.2"/>
<path d="M415.82 297.84L415.82 281.51 415.3 281.15 415.82 297.84Z"
fill="black" stroke="black" stroke-width="0.2"/>
<path d="M415.82 297.84L416.31 297.44 415.82 281.51 415.82 297.84Z"
fill="black" stroke="black" stroke-width="0.2"/>
<path d="M416.31 297.44L416.31 281.91 415.82 281.51 416.31 297.44Z"
fill="black" stroke="black" stroke-width="0.2"/>
<path d="M416.31 297.44L416.77 297.02 416.31 281.91 416.31 297.44Z"
fill="black" stroke="black" stroke-width="0.2"/>
<path d="M416.77 297.02L416.77 282.33 416.31 281.91 416.77 297.02Z"
fill="black" stroke="black" stroke-width="0.2"/>
<path d="M416.77 297.02L417.21 296.57 416.77 282.33 416.77 297.02Z"
fill="black" stroke="black" stroke-width="0.2"/>
<path d="M417.21 296.57L417.21 282.79 416.77 282.33 417.21 296.57Z"
fill="black" stroke="black" stroke-width="0.2"/>
<path d="M417.21 296.57L417.62 296.09 417.21 282.79 417.21 296.57Z"
fill="black" stroke="black" stroke-width="0.2"/>
<path d="M417.62 296.09L417.62 283.26 417.21 282.79 417.62 296.09Z"
fill="black" stroke="black" stroke-width="0.2"/>
<path d="M417.62 296.09L418 295.58 417.62 283.26 417.62 296.09Z"
fill="black" stroke="black" stroke-width="0.2"/>
<path d="M418 295.58L418 283.77 417.62 283.26 418 295.58Z"
fill="black" stroke="black" stroke-width="0.2"/>
<path d="M418 295.58L418.35 295.06 418 283.77 418 295.58Z"
fill="black" stroke="black" stroke-width="0.2"/>
<path d="M418.35 295.06L418.35 284.29 418 283.77 418.35 295.06Z"
fill="black" stroke="black" stroke-width="0.2"/>
<path d="M418.35 295.06L418.66 294.51 418.35 284.29 418.35 295.06Z"
fill="black" stroke="black" stroke-width="0.2"/>
<path d="M418.66 294.51L418.66 284.84 418.35 284.29 418.66 294.51Z"
fill="black" stroke="black" stroke-width="0.2"/>
<path d="M418.66 294.51L418.94 293.95 418.66 284.84 418.66 294.51Z"
fill="black" stroke="black" stroke-width="0.2"/>
<path d="M418.94 293.95L418.94 285.4 418.66 284.84 418.94 293.95Z"
fill="black" stroke="black" stroke-width="0.2"/>
<path d="M418.94 293.95L419.19 293.37 418.94 285.4 418.94 293.95Z"
fill="black" stroke="black" stroke-width="0.2"/>
<path d="M419.19 293.37L419.19 285.98 418.94 285.4 419.19 293.37Z"
fill="black" stroke="black" stroke-width="0.2"/>
<path d="M419.19 293.37L419.4 292.78 419.19 285.98 419.19 293.37Z"
fill="black" stroke="black" stroke-width="0.2"/>
<path d="M419.4 292.78L419.4 286.58 419.19 285.98 419.4 292.78Z"
fill="black" stroke="black" stroke-width="0.2"/>
<path d="M419.4 292.78L419.57 292.17 419.4 286.58 419.4 292.78Z"
fill="black" stroke="black" stroke-width="0.2"/>
<path d="M419.57 292.17L419.57 287.18 419.4 286.58 419.57 292.17Z"
fill="black" stroke="black" stroke-width="0.2"/>
<path d="M419.57 292.17L419.71 291.55 419.57 287.18 419.57 292.17Z"
fill="black" stroke="black" stroke-width="0.2"/>
<path d="M419.71 291.55L419.71 287.8 419.57 287.18 419.71 291.55Z"
fill="black" stroke="black" stroke-width="0.2"/>
<path d="M419.71 291.55L419.8 290.93 419.71 287.8 419.71 291.55Z"
fill="black" stroke="black" stroke-width="0.2"/>
<path d="M419.8 290.93L419.8 288.42 419.71 287.8 419.8 290.93Z"
fill="black" stroke="black" stroke-width="0.2"/>
<path d="M419.8 290.93L419.86 290.3 419.8 288.42 419.8 290.93Z"
fill="black" stroke="black" stroke-width="0.2"/>
<path d="M419.86 290.3L419.86 289.05 419.8 288.42 419.86 290.3Z"
fill="black" stroke="black" stroke-width="0.2"/>
<path d="M419.86 290.3L419.88 289.68 419.86 289.05 419.86 290.3Z"
fill="black" stroke="black" stroke-width="0.2"/>
<path d="M419.88 289.68L419.68 291.67"
fill="none" stroke="black" stroke-width="3.5"/>
<path d="M419.68 291.67L419.1 293.59"
fill="none" stroke="black" stroke-width="3.5"/>
<path d="M419.1 293.59L418.16 295.36"
fill="none" stroke="black" stroke-width="3.5"/>
<path d="M418.16 295.36L416.88 296.91"
fill="none" stroke="black" stroke-width="3.5"/>
<path d="M416.88 296.91L415.33 298.18"
fill="none" stroke="black" stroke-width="3.5"/>
<path d="M415.33 298.18L413.57 299.12"
fill="none" stroke="black" stroke-width="3.5"/>
<path d="M413.57 299.12L411.65 299.71"
fill="none" stroke="black" stroke-width="3.5"/>
<path d="M411.65 299.71L409.65 299.9"
fill="none" stroke="black" stroke-width="3.5"/>
<path d="M409.65 299.9L407.66 299.71"
fill="none" stroke="black" stroke-width="3.5"/>
<path d="M407.66 299.71L405.74 299.12"
fill="none" stroke="black" stroke-width="3.5"/>
<path d="M405.74 299.12L403.97 298.18"
fill="none" stroke="black" stroke-width="3.5"/>
<path d="M403.97 298.18L402.42 296.91"
fill="none" stroke="black" stroke-width="3.5"/>
<path d="M402.42 296.91L401.15 295.36"
fill="none" stroke="black" stroke-width="3.5"/>
<path d="M401.15 295.36L400.2 293.59"
fill="none" stroke="black" stroke-width="3.5"/>
<path d="M400.2 293.59L399.62 291.67"
fill="none" stroke="black" stroke-width="3.5"/>
<path d="M399.62 291.67L399.43 289.68"
fill="none" stroke="black" stroke-width="3.5"/>
<path d="M399.43 289.68L399.62 287.68"
fill="none" stroke="black" stroke-width="3.5"/>
<path d="M399.62 287.68L400.2 285.76"
fill="none" stroke="black" stroke-width="3.5"/>
<path d="M400.2 285.76L401.15 283.99"
fill="none" stroke="black" stroke-width="3.5"/>
<path d="M401.15 283.99L402.42 282.44"
fill="none" stroke="black" stroke-width="3.5"/>
<path d="M402.42 282.44L403.97 281.17"
fill="none" stroke="black" stroke-width="3.5"/>
<path d="M403.97 281.17L405.74 280.23"
fill="none" stroke="black" stroke-width="3.5"/>
<path d="M405.74 280.23L407.66 279.64"
fill="none" stroke="black" stroke-width="3.5"/>
<path d="M407.66 279.64L409.65 279.45"
fill="none" stroke="black" stroke-width="3.5"/>
<path d="M409.65 279.45L411.65 279.64"
fill="none" stroke="black" stroke-width="3.5"/>
<path d="M411.65 279.64L413.57 280.23"
fill="none" stroke="black" stroke-width="3.5"/>
<path d="M413.57 280.23L415.33 281.17"
fill="none" stroke="black" stroke-width="3.5"/>
<path d="M415.33 281.17L416.88 282.44"
fill="none" stroke="black" stroke-width="3.5"/>
<path d="M416.88 282.44L418.16 283.99"
fill="none" stroke="black" stroke-width="3.5"/>
<path d="M418.16 283.99L419.1 285.76"
fill="none" stroke="black" stroke-width="3.5"/>
<path d="M419.1 285.76L419.68 287.68"
fill="none" stroke="black" stroke-width="3.5"/>
<path d="M419.68 287.68L419.88 289.68"
fill="none" stroke="black" stroke-width="3.5"/>
<path d="M378.01 311.74L378.01 310.48 377.99 311.11 378.01 311.74Z"
fill="black" stroke="black" stroke-width="0.2"/>
<path d="M378.01 311.74L378.07 312.37 378.01 310.48 378.01 311.74Z"
fill="black" stroke="black" stroke-width="0.2"/>
<path d="M378.07 312.37L378.07 309.86 378.01 310.48 378.07 312.37Z"
fill="black" stroke="black" stroke-width="0.2"/>
<path d="M378.07 312.37L378.16 312.99 378.07 309.86 378.07 312.37Z"
fill="black" stroke="black" stroke-width="0.2"/>
<path d="M378.16 312.99L378.16 309.23 378.07 309.86 378.16 312.99Z"
fill="black" stroke="black" stroke-width="0.2"/>
<path d="M378.16 312.99L378.3 313.61 378.16 309.23 378.16 312.99Z"
fill="black" stroke="black" stroke-width="0.2"/>
<path d="M378.3 313.61L378.3 308.62 378.16 309.23 378.3 313.61Z"
fill="black" stroke="black" stroke-width="0.2"/>
<path d="M378.3 313.61L378.47 314.21 378.3 308.62 378.3 313.61Z"
fill="black" stroke="black" stroke-width="0.2"/>
<path d="M378.47 314.21L378.47 308.01 378.3 308.62 378.47 314.21Z"
fill="black" stroke="black" stroke-width="0.2"/>
<path d="M378.47 314.21L378.68 314.81 378.47 308.01 378.47 314.21Z"
fill="black" stroke="black" stroke-width="0.2"/>
<path d="M378.68 314.81L378.68 307.42 378.47 308.01 378.68 314.81Z"
fill="black" stroke="black" stroke-width="0.2"/>
<path d="M378.68 314.81L378.93 315.39 378.68 307.42 378.68 314.81Z"
fill="black" stroke="black" stroke-width="0.2"/>
<path d="M378.93 315.39L378.93 306.84 378.68 307.42 378.93 315.39Z"
fill="black" stroke="black" stroke-width="0.2"/>
<path d="M378.93 315.39L379.21 315.95 378.93 306.84 378.93 315.39Z"
fill="black" stroke="black" stroke-width="0.2"/>
<path d="M379.21 315.95L379.21 306.27 378.93 306.84 379.21 315.95Z"
fill="black" stroke="black" stroke-width="0.2"/>
<path d="M379.21 315.95L379.52 316.5 379.21 306.27 379.21 315.95Z"
fill="black" stroke="black" stroke-width="0.2"/>
<path d="M379.52 316.5L379.52 305.73 379.21 306.27 379.52 316.5Z"
fill="black" stroke="black" stroke-width="0.2"/>
<path d="M379.52 316.5L379.87 317.02 379.52 305.73 379.52 316.5Z"
fill="black" stroke="black" stroke-width="0.2"/>
<path d="M379.87 317.02L379.87 305.2 379.52 305.73 379.87 317.02Z"
fill="black" stroke="black" stroke-width="0.2"/>
<path d="M379.87 317.02L380.25 317.52 379.87 305.2 379.87 317.02Z"
fill="black" stroke="black" stroke-width="0.2"/>
<path d="M380.25 317.52L380.25 304.7 379.87 305.2 380.25 317.52Z"
fill="black" stroke="black" stroke-width="0.2"/>
<path d="M380.25 317.52L380.66 318 380.25 304.7 380.25 317.52Z"
fill="black" stroke="black" stroke-width="0.2"/>
<path d="M380.66 318L380.66 304.22 380.25 304.7 380.66 318Z"
fill="black" stroke="black" stroke-width="0.2"/>
<path d="M380.66 318L381.1 318.45 380.66 304.22 380.66 318Z"
fill="black" stroke="black" stroke-width="0.2"/>
<path d="M381.1 318.45L381.1 303.77 380.66 304.22 381.1 318.45Z"
fill="black" stroke="black" stroke-width="0.2"/>
<path d="M381.1 318.45L381.56 318.88 381.1 303.77 381.1 318.45Z"
fill="black" stroke="black" stroke-width="0.2"/>
<path d="M381.56 318.88L381.56 303.35 381.1 303.77 381.56 318.88Z"
fill="black" stroke="black" stroke-width="0.2"/>
<path d="M381.56 318.88L382.05 319.27 381.56 303.35 381.56 318.88Z"
fill="black" stroke="black" stroke-width="0.2"/>
<path d="M382.05 319.27L382.05 302.95 381.56 303.35 382.05 319.27Z"
fill="black" stroke="black" stroke-width="0.2"/>
<path d="M382.05 319.27L382.57 319.64 382.05 302.95 382.05 319.27Z"
fill="black" stroke="black" stroke-width="0.2"/>
<path d="M382.57 319.64L382.57 302.59 382.05 302.95 382.57 319.64Z"
fill="black" stroke="black" stroke-width="0.2"/>
<path d="M382.57 319.64L383.1 319.97 382.57 302.59 382.57 319.64Z"
fill="black" stroke="black" stroke-width="0.2"/>
<path d="M383.1 319.97L383.1 302.26 382.57 302.59 383.1 319.97Z"
fill="black" stroke="black" stroke-width="0.2"/>
<path d="M383.1 319.97L383.66 320.27 383.1 302.26 383.1 319.97Z"
fill="black" stroke="black" stroke-width="0.2"/>
<path d="M383.66 320.27L383.66 301.96 383.1 302.26 383.66 320.27Z"
fill="black" stroke="black" stroke-width="0.2"/>
<path d="M383.66 320.27L384.23 320.53 383.66 301.96 383.66 320.27Z"
fill="black" stroke="black" stroke-width="0.2"/>
<path d="M384.23 320.53L384.23 301.69 383.66 301.96 384.23 320.53Z"
fill="black" stroke="black" stroke-width="0.2"/>
<path d="M384.23 320.53L384.82 320.76 384.23 301.69 384.23 320.53Z"
fill="black" stroke="black" stroke-width="0.2"/>
<path d="M384.82 320.76L384.82 301.47 384.23 301.69 384.82 320.76Z"
fill="black" stroke="black" stroke-width="0.2"/>
<path d="M384.82 320.76L385.42 320.95 384.82 301.47 384.82 320.76Z"
fill="black" stroke="black" stroke-width="0.2"/>
<path d="M385.42 320.95L385.42 301.28 384.82 301.47 385.42 320.95Z"
fill="black" stroke="black" stroke-width="0.2"/>
<path d="M385.42 320.95L386.03 321.1 385.42 301.28 385.42 320.95Z"
fill="black" stroke="black" stroke-width="0.2"/>
<path d="M386.03 321.1L386.03 301.12 385.42 301.28 386.03 321.1Z"
fill="black" stroke="black" stroke-width="0.2"/>
<path d="M386.03 321.1L386.65 321.22 386.03 301.12 386.03 321.1Z"
fill="black" stroke="black" stroke-width="0.2"/>
<path d="M386.65 321.22L386.65 301.01 386.03 301.12 386.65 321.22Z"
fill="black" stroke="black" stroke-width="0.2"/>
<path d="M386.65 321.22L387.27 321.3 386.65 301.01 386.65 321.22Z"
fill="black" stroke="black" stroke-width="0.2"/>
<path d="M387.27 321.3L387.27 300.93 386.65 301.01 387.27 321.3Z"
fill="black" stroke="black" stroke-width="0.2"/>
<path d="M387.27 321.3L387.9 321.33 387.27 300.93 387.27 321.3Z"
fill="black" stroke="black" stroke-width="0.2"/>
<path d="M387.9 321.33L387.9 300.89 387.27 300.93 387.9 321.33Z"
fill="black" stroke="black" stroke-width="0.2"/>
<path d="M387.9 321.33L388.53 321.33 387.9 300.89 387.9 321.33Z"
fill="black" stroke="black" stroke-width="0.2"/>
<path d="M388.53 321.33L388.53 300.89 387.9 300.89 388.53 321.33Z"
fill="black" stroke="black" stroke-width="0.2"/>
<path d="M388.53 321.33L389.16 321.3 388.53 300.89 388.53 321.33Z"
fill="black" stroke="black" stroke-width="0.2"/>
<path d="M389.16 321.3L389.16 300.93 388.53 300.89 389.16 321.3Z"
fill="black" stroke="black" stroke-width="0.2"/>
<path d="M389.16 321.3L389.78 321.22 389.16 300.93 389.16 321.3Z"
fill="black" stroke="black" stroke-width="0.2"/>
<path d="M389.78 321.22L389.78 301.01 389.16 300.93 389.78 321.22Z"
fill="black" stroke="black" stroke-width="0.2"/>
<path d="M389.78 321.22L390.4 321.1 389.78 301.01 389.78 321.22Z"
fill="black" stroke="black" stroke-width="0.2"/>
<path d="M390.4 321.1L390.4 301.12 389.78 301.01 390.4 321.1Z"
fill="black" stroke="black" stroke-width="0.2"/>
<path d="M390.4 321.1L391.01 320.95 390.4 301.12 390.4 321.1Z"
fill="black" stroke="black" stroke-width="0.2"/>
<path d="M391.01 320.95L391.01 301.28 390.4 301.12 391.01 320.95Z"
fill="black" stroke="black" stroke-width="0.2"/>
<path d="M391.01 320.95L391.61 320.76 391.01 301.28 391.01 320.95Z"
fill="black" stroke="black" stroke-width="0.2"/>
<path d="M391.61 320.76L391.61 301.47 391.01 301.28 391.61 320.76Z"
fill="black" stroke="black" stroke-width="0.2"/>
<path d="M391.61 320.76L392.2 320.53 391.61 301.47 391.61 320.76Z"
fill="black" stroke="black" stroke-width="0.2"/>
<path d="M392.2 320.53L392.2 301.69 391.61 301.47 392.2 320.53Z"
fill="black" stroke="black" stroke-width="0.2"/>
<path d="M392.2 320.53L392.77 320.27 392.2 301.69 392.2 320.53Z"
fill="black" stroke="black" stroke-width="0.2"/>
<path d="M392.77 320.27L392.77 301.96 392.2 301.69 392.77 320.27Z"
fill="black" stroke="black" stroke-width="0.2"/>
<path d="M392.77 320.27L393.33 319.97 392.77 301.96 392.77 320.27Z"
fill="black" stroke="black" stroke-width="0.2"/>
<path d="M393.33 319.97L393.33 302.26 392.77 301.96 393.33 319.97Z"
fill="black" stroke="black" stroke-width="0.2"/>
<path d="M393.33 319.97L393.86 319.64 393.33 302.26 393.33 319.97Z"
fill="black" stroke="black" stroke-width="0.2"/>
<path d="M393.86 319.64L393.86 302.59 393.33 302.26 393.86 319.64Z"
fill="black" stroke="black" stroke-width="0.2"/>
<path d="M393.86 319.64L394.38 319.27 393.86 302.59 393.86 319.64Z"
fill="black" stroke="black" stroke-width="0.2"/>
<path d="M394.38 319.27L394.38 302.95 393.86 302.59 394.38 319.27Z"
fill="black" stroke="black" stroke-width="0.2"/>
<path d="M394.38 319.27L394.87 318.88 394.38 302.95 394.38 319.27Z"
fill="black" stroke="black" stroke-width="0.2"/>
<path d="M394.87 318.88L394.87 303.35 394.38 302.95 394.87 318.88Z"
fill="black" stroke="black" stroke-width="0.2"/>
<path d="M394.87 318.88L395.34 318.45 394.87 303.35 394.87 318.88Z"
fill="black" stroke="black" stroke-width="0.2"/>
<path d="M395.34 318.45L395.34 303.77 394.87 303.35 395.34 318.45Z"
fill="black" stroke="black" stroke-width="0.2"/>
<path d="M395.34 318.45L395.77 318 395.34 303.77 395.34 318.45Z"
fill="black" stroke="black" stroke-width="0.2"/>
<path d="M395.77 318L395.77 304.22 395.34 303.77 395.77 318Z"
fill="black" stroke="black" stroke-width="0.2"/>
<path d="M395.77 318L396.18 317.52 395.77 304.22 395.77 318Z"
fill="black" stroke="black" stroke-width="0.2"/>
<path d="M396.18 317.52L396.18 304.7 395.77 304.22 396.18 317.52Z"
fill="black" stroke="black" stroke-width="0.2"/>
<path d="M396.18 317.52L396.56 317.02 396.18 304.7 396.18 317.52Z"
fill="black" stroke="black" stroke-width="0.2"/>
<path d="M396.56 317.02L396.56 305.2 396.18 304.7 396.56 317.02Z"
fill="black" stroke="black" stroke-width="0.2"/>
<path d="M396.56 317.02L396.91 316.5 396.56 305.2 396.56 317.02Z"
fill="black" stroke="black" stroke-width="0.2"/>
<path d="M396.91 316.5L396.91 305.73 396.56 305.2 396.91 316.5Z"
fill="black" stroke="black" stroke-width="0.2"/>
<path d="M396.91 316.5L397.23 315.95 396.91 305.73 396.91 316.5Z"
fill="black" stroke="black" stroke-width="0.2"/>
<path d="M397.23 315.95L397.23 306.27 396.91 305.73 397.23 315.95Z"
fill="black" stroke="black" stroke-width="0.2"/>
<path d="M397.23 315.95L397.51 315.39 397.23 306.27 397.23 315.95Z"
fill="black" stroke="black" stroke-width="0.2"/>
<path d="M397.51 315.39L397.51 306.84 397.23 306.27 397.51 315.39Z"
fill="black" stroke="black" stroke-width="0.2"/>
<path d="M397.51 315.39L397.75 314.81 397.51 306.84 397.51 315.39Z"
fill="black" stroke="black" stroke-width="0.2"/>
<path d="M397.75 314.81L397.75 307.42 397.51 306.84 397.75 314.81Z"
fill="black" stroke="black" stroke-width="0.2"/>
<path d="M397.75 314.81L397.96 314.21 397.75 307.42 397.75 314.81Z"
fill="black" stroke="black" stroke-width="0.2"/>
<path d="M397.96 314.21L397.96 308.01 397.75 307.42 397.96 314.21Z"
fill="black" stroke="black" stroke-width="0.2"/>
<path d="M397.96 314.21L398.13 313.61 397.96 308.01 397.96 314.21Z"
fill="black" stroke="black" stroke-width="0.2"/>
<path d="M398.13 313.61L398.13 308.62 397.96 308.01 398.13 313.61Z"
fill="black" stroke="black" stroke-width="0.2"/>
<path d="M398.13 313.61L398.27 312.99 398.13 308.62 398.13 313.61Z"
fill="black" stroke="black" stroke-width="0.2"/>
<path d="M398.27 312.99L398.27 309.23 398.13 308.62 398.27 312.99Z"
fill="black" stroke="black" stroke-width="0.2"/>
<path d="M398.27 312.99L398.37 312.37 398.27 309.23 398.27 312.99Z"
fill="black" stroke="black" stroke-width="0.2"/>
<path d="M398.37 312.37L398.37 309.86 398.27 309.23 398.37 312.37Z"
fill="black" stroke="black" stroke-width="0.2"/>
<path d="M398.37 312.37L398.42 311.74 398.37 309.86 398.37 312.37Z"
fill="black" stroke="black" stroke-width="0.2"/>
<path d="M398.42 311.74L398.42 310.48 398.37 309.86 398.42 311.74Z"
fill="black" stroke="black" stroke-width="0.2"/>
<path d="M398.42 311.74L398.44 311.11 398.42 310.48 398.42 311.74Z"
fill="black" stroke="black" stroke-width="0.2"/>
<path d="M398.44 311.11L398.25 313.11"
fill="none" stroke="black" stroke-width="3.5"/>
<path d="M398.25 313.11L397.66 315.03"
fill="none" stroke="black" stroke-width="3.5"/>
<path d="M397.66 315.03L396.72 316.79"
fill="none" stroke="black" stroke-width="3.5"/>
<path d="M396.72 316.79L395.45 318.34"
fill="none" stroke="black" stroke-width="3.5"/>
<path d="M395.45 318.34L393.9 319.62"
fill="none" stroke="black" stroke-width="3.5"/>
<path d="M393.9 319.62L392.13 320.56"
fill="none" stroke="black" stroke-width="3.5"/>
<path d="M392.13 320.56L390.21 321.14"
fill="none" stroke="black" stroke-width="3.5"/>
<path d="M390.21 321.14L388.22 321.34"
fill="none" stroke="black" stroke-width="3.5"/>
<path d="M388.22 321.34L386.22 321.14"
fill="none" stroke="black" stroke-width="3.5"/>
<path d="M386.22 321.14L384.3 320.56"
fill="none" stroke="black" stroke-width="3.5"/>
<path d="M384.3 320.56L382.53 319.62"
fill="none" stroke="black" stroke-width="3.5"/>
<path d="M382.53 319.62L380.98 318.34"
fill="none" stroke="black" stroke-width="3.5"/>
<path d="M380.98 318.34L379.71 316.79"
fill="none" stroke="black" stroke-width="3.5"/>
<path d="M379.71 316.79L378.77 315.03"
fill="none" stroke="black" stroke-width="3.5"/>
<path d="M378.77 315.03L378.19 313.11"
fill="none" stroke="black" stroke-width="3.5"/>
<path d="M378.19 313.11L377.99 311.11"
fill="none" stroke="black" stroke-width="3.5"/>
<path d="M377.99 311.11L378.19 309.12"
fill="none" stroke="black" stroke-width="3.5"/>
<path d="M378.19 309.12L378.77 307.2"
fill="none" stroke="black" stroke-width="3.5"/>
<path d="M378.77 307.2L379.71 305.43"
fill="none" stroke="black" stroke-width="3.5"/>
<path d="M379.71 305.43L380.98 303.88"
fill="none" stroke="black" stroke-width="3.5"/>
<path d="M380.98 303.88L382.53 302.61"
fill="none" stroke="black" stroke-width="3.5"/>
<path d="M382.53 302.61L384.3 301.66"
fill="none" stroke="black" stroke-width="3.5"/>
<path d="M384.3 301.66L386.22 301.08"
fill="none" stroke="black" stroke-width="3.5"/>
<path d="M386.22 301.08L388.22 300.89"
fill="none" stroke="black" stroke-width="3.5"/>
<path d="M388.22 300.89L390.21 301.08"
fill="none" stroke="black" stroke-width="3.5"/>
<path d="M390.21 301.08L392.13 301.66"
fill="none" stroke="black" stroke-width="3.5"/>
<path d="M392.13 301.66L393.9 302.61"
fill="none" stroke="black" stroke-width="3.5"/>
<path d="M393.9 302.61L395.45 303.88"
fill="none" stroke="black" stroke-width="3.5"/>
<path d="M395.45 303.88L396.72 305.43"
fill="none" stroke="black" stroke-width="3.5"/>
<path d="M396.72 305.43L397.66 307.2"
fill="none" stroke="black" stroke-width="3.5"/>
<path d="M397.66 307.2L398.25 309.12"
fill="none" stroke="black" stroke-width="3.5"/>
<path d="M398.25 309.12L398.44 311.11"
fill="none" stroke="black" stroke-width="3.5"/>
<path d="M378.01 268.87L378.01 267.61 377.99 268.24 378.01 268.87Z"
fill="black" stroke="black" stroke-width="0.2"/>
<path d="M378.01 268.87L378.07 269.5 378.01 267.61 378.01 268.87Z"
fill="black" stroke="black" stroke-width="0.2"/>
<path d="M378.07 269.5L378.07 266.98 378.01 267.61 378.07 269.5Z"
fill="black" stroke="black" stroke-width="0.2"/>
<path d="M378.07 269.5L378.16 270.12 378.07 266.98 378.07 269.5Z"
fill="black" stroke="black" stroke-width="0.2"/>
<path d="M378.16 270.12L378.16 266.36 378.07 266.98 378.16 270.12Z"
fill="black" stroke="black" stroke-width="0.2"/>
<path d="M378.16 270.12L378.3 270.73 378.16 266.36 378.16 270.12Z"
fill="black" stroke="black" stroke-width="0.2"/>
<path d="M378.3 270.73L378.3 265.74 378.16 266.36 378.3 270.73Z"
fill="black" stroke="black" stroke-width="0.2"/>
<path d="M378.3 270.73L378.47 271.34 378.3 265.74 378.3 270.73Z"
fill="black" stroke="black" stroke-width="0.2"/>
<path d="M378.47 271.34L378.47 265.14 378.3 265.74 378.47 271.34Z"
fill="black" stroke="black" stroke-width="0.2"/>
<path d="M378.47 271.34L378.68 271.93 378.47 265.14 378.47 271.34Z"
fill="black" stroke="black" stroke-width="0.2"/>
<path d="M378.68 271.93L378.68 264.54 378.47 265.14 378.68 271.93Z"
fill="black" stroke="black" stroke-width="0.2"/>
<path d="M378.68 271.93L378.93 272.51 378.68 264.54 378.68 271.93Z"
fill="black" stroke="black" stroke-width="0.2"/>
<path d="M378.93 272.51L378.93 263.96 378.68 264.54 378.93 272.51Z"
fill="black" stroke="black" stroke-width="0.2"/>
<path d="M378.93 272.51L379.21 273.08 378.93 263.96 378.93 272.51Z"
fill="black" stroke="black" stroke-width="0.2"/>
<path d="M379.21 273.08L379.21 263.4 378.93 263.96 379.21 273.08Z"
fill="black" stroke="black" stroke-width="0.2"/>
<path d="M379.21 273.08L379.52 273.62 379.21 263.4 379.21 273.08Z"
fill="black" stroke="black" stroke-width="0.2"/>
<path d="M379.52 273.62L379.52 262.85 379.21 263.4 379.52 273.62Z"
fill="black" stroke="black" stroke-width="0.2"/>
<path d="M379.52 273.62L379.87 274.15 379.52 262.85 379.52 273.62Z"
fill="black" stroke="black" stroke-width="0.2"/>
<path d="M379.87 274.15L379.87 262.33 379.52 262.85 379.87 274.15Z"
fill="black" stroke="black" stroke-width="0.2"/>
<path d="M379.87 274.15L380.25 274.65 379.87 262.33 379.87 274.15Z"
fill="black" stroke="black" stroke-width="0.2"/>
<path d="M380.25 274.65L380.25 261.83 379.87 262.33 380.25 274.65Z"
fill="black" stroke="black" stroke-width="0.2"/>
<path d="M380.25 274.65L380.66 275.13 380.25 261.83 380.25 274.65Z"
fill="black" stroke="black" stroke-width="0.2"/>
<path d="M380.66 275.13L380.66 261.35 380.25 261.83 380.66 275.13Z"
fill="black" stroke="black" stroke-width="0.2"/>
<path d="M380.66 275.13L381.1 275.58 380.66 261.35 380.66 275.13Z"
fill="black" stroke="black" stroke-width="0.2"/>
<path d="M381.1 275.58L381.1 260.9 380.66 261.35 381.1 275.58Z"
fill="black" stroke="black" stroke-width="0.2"/>
<path d="M381.1 275.58L381.56 276 381.1 260.9 381.1 275.58Z"
fill="black" stroke="black" stroke-width="0.2"/>
<path d="M381.56 276L381.56 260.47 381.1 260.9 381.56 276Z"
fill="black" stroke="black" stroke-width="0.2"/>
<path d="M381.56 276L382.05 276.4 381.56 260.47 381.56 276Z"
fill="black" stroke="black" stroke-width="0.2"/>
<path d="M382.05 276.4L382.05 260.08 381.56 260.47 382.05 276.4Z"
fill="black" stroke="black" stroke-width="0.2"/>
<path d="M382.05 276.4L382.57 276.76 382.05 260.08 382.05 276.4Z"
fill="black" stroke="black" stroke-width="0.2"/>
<path d="M382.57 276.76L382.57 259.71 382.05 260.08 382.57 276.76Z"
fill="black" stroke="black" stroke-width="0.2"/>
<path d="M382.57 276.76L383.1 277.1 382.57 259.71 382.57 276.76Z"
fill="black" stroke="black" stroke-width="0.2"/>
<path d="M383.1 277.1L383.1 259.38 382.57 259.71 383.1 277.1Z"
fill="black" stroke="black" stroke-width="0.2"/>
<path d="M383.1 277.1L383.66 277.39 383.1 259.38 383.1 277.1Z"
fill="black" stroke="black" stroke-width="0.2"/>
<path d="M383.66 277.39L383.66 259.08 383.1 259.38 383.66 277.39Z"
fill="black" stroke="black" stroke-width="0.2"/>
<path d="M383.66 277.39L384.23 277.66 383.66 259.08 383.66 277.39Z"
fill="black" stroke="black" stroke-width="0.2"/>
<path d="M384.23 277.66L384.23 258.82 383.66 259.08 384.23 277.66Z"
fill="black" stroke="black" stroke-width="0.2"/>
<path d="M384.23 277.66L384.82 277.88 384.23 258.82 384.23 277.66Z"
fill="black" stroke="black" stroke-width="0.2"/>
<path d="M384.82 277.88L384.82 258.59 384.23 258.82 384.82 277.88Z"
fill="black" stroke="black" stroke-width="0.2"/>
<path d="M384.82 277.88L385.42 278.08 384.82 258.59 384.82 277.88Z"
fill="black" stroke="black" stroke-width="0.2"/>
<path d="M385.42 278.08L385.42 258.4 384.82 258.59 385.42 278.08Z"
fill="black" stroke="black" stroke-width="0.2"/>
<path d="M385.42 278.08L386.03 278.23 385.42 258.4 385.42 278.08Z"
fill="black" stroke="black" stroke-width="0.2"/>
<path d="M386.03 278.23L386.03 258.25 385.42 258.4 386.03 278.23Z"
fill="black" stroke="black" stroke-width="0.2"/>
<path d="M386.03 278.23L386.65 278.34 386.03 258.25 386.03 278.23Z"
fill="black" stroke="black" stroke-width="0.2"/>
<path d="M386.65 278.34L386.65 258.13 386.03 258.25 386.65 278.34Z"
fill="black" stroke="black" stroke-width="0.2"/>
<path d="M386.65 278.34L387.27 278.42 386.65 258.13 386.65 278.34Z"
fill="black" stroke="black" stroke-width="0.2"/>
<path d="M387.27 278.42L387.27 258.06 386.65 258.13 387.27 278.42Z"
fill="black" stroke="black" stroke-width="0.2"/>
<path d="M387.27 278.42L387.9 278.46 387.27 258.06 387.27 278.42Z"
fill="black" stroke="black" stroke-width="0.2"/>
<path d="M387.9 278.46L387.9 258.02 387.27 258.06 387.9 278.46Z"
fill="black" stroke="black" stroke-width="0.2"/>
<path d="M387.9 278.46L388.53 278.46 387.9 258.02 387.9 278.46Z"
fill="black" stroke="black" stroke-width="0.2"/>
<path d="M388.53 278.46L388.53 258.02 387.9 258.02 388.53 278.46Z"
fill="black" stroke="black" stroke-width="0.2"/>
<path d="M388.53 278.46L389.16 278.42 388.53 258.02 388.53 278.46Z"
fill="black" stroke="black" stroke-width="0.2"/>
<path d="M389.16 278.42L389.16 258.06 388.53 258.02 389.16 278.42Z"
fill="black" stroke="black" stroke-width="0.2"/>
<path d="M389.16 278.42L389.78 278.34 389.16 258.06 389.16 278.42Z"
fill="black" stroke="black" stroke-width="0.2"/>
<path d="M389.78 278.34L389.78 258.13 389.16 258.06 389.78 278.34Z"
fill="black" stroke="black" stroke-width="0.2"/>
<path d="M389.78 278.34L390.4 278.23 389.78 258.13 389.78 278.34Z"
fill="black" stroke="black" stroke-width="0.2"/>
<path d="M390.4 278.23L390.4 258.25 389.78 258.13 390.4 278.23Z"
fill="black" stroke="black" stroke-width="0.2"/>
<path d="M390.4 278.23L391.01 278.08 390.4 258.25 390.4 278.23Z"
fill="black" stroke="black" stroke-width="0.2"/>
<path d="M391.01 278.08L391.01 258.4 390.4 258.25 391.01 278.08Z"
fill="black" stroke="black" stroke-width="0.2"/>
<path d="M391.01 278.08L391.61 277.88 391.01 258.4 391.01 278.08Z"
fill="black" stroke="black" stroke-width="0.2"/>
<path d="M391.61 277.88L391.61 258.59 391.01 258.4 391.61 277.88Z"
fill="black" stroke="black" stroke-width="0.2"/>
<path d="M391.61 277.88L392.2 277.66 391.61 258.59 391.61 277.88Z"
fill="black" stroke="black" stroke-width="0.2"/>
<path d="M392.2 277.66L392.2 258.82 391.61 258.59 392.2 277.66Z"
fill="black" stroke="black" stroke-width="0.2"/>
<path d="M392.2 277.66L392.77 277.39 392.2 258.82 392.2 277.66Z"
fill="black" stroke="black" stroke-width="0.2"/>
<path d="M392.77 277.39L392.77 259.08 392.2 258.82 392.77 277.39Z"
fill="black" stroke="black" stroke-width="0.2"/>
<path d="M392.77 277.39L393.33 277.1 392.77 259.08 392.77 277.39Z"
fill="black" stroke="black" stroke-width="0.2"/>
<path d="M393.33 277.1L393.33 259.38 392.77 259.08 393.33 277.1Z"
fill="black" stroke="black" stroke-width="0.2"/>
<path d="M393.33 277.1L393.86 276.76 393.33 259.38 393.33 277.1Z"
fill="black" stroke="black" stroke-width="0.2"/>
<path d="M393.86 276.76L393.86 259.71 393.33 259.38 393.86 276.76Z"
fill="black" stroke="black" stroke-width="0.2"/>
<path d="M393.86 276.76L394.38 276.4 393.86 259.71 393.86 276.76Z"
fill="black" stroke="black" stroke-width="0.2"/>
<path d="M394.38 276.4L394.38 260.08 393.86 259.71 394.38 276.4Z"
fill="black" stroke="black" stroke-width="0.2"/>
<path d="M394.38 276.4L394.87 276 394.38 260.08 394.38 276.4Z"
fill="black" stroke="black" stroke-width="0.2"/>
<path d="M394.87 276L394.87 260.47 394.38 260.08 394.87 276Z"
fill="black" stroke="black" stroke-width="0.2"/>
<path d="M394.87 276L395.34 275.58 394.87 260.47 394.87 276Z"
fill="black" stroke="black" stroke-width="0.2"/>
<path d="M395.34 275.58L395.34 260.9 394.87 260.47 395.34 275.58Z"
fill="black" stroke="black" stroke-width="0.2"/>
<path d="M395.34 275.58L395.77 275.13 395.34 260.9 395.34 275.58Z"
fill="black" stroke="black" stroke-width="0.2"/>
<path d="M395.77 275.13L395.77 261.35 395.34 260.9 395.77 275.13Z"
fill="black" stroke="black" stroke-width="0.2"/>
<path d="M395.77 275.13L396.18 274.65 395.77 261.35 395.77 275.13Z"
fill="black" stroke="black" stroke-width="0.2"/>
<path d="M396.18 274.65L396.18 261.83 395.77 261.35 396.18 274.65Z"
fill="black" stroke="black" stroke-width="0.2"/>
<path d="M396.18 274.65L396.56 274.15 396.18 261.83 396.18 274.65Z"
fill="black" stroke="black" stroke-width="0.2"/>
<path d="M396.56 274.15L396.56 262.33 396.18 261.83 396.56 274.15Z"
fill="black" stroke="black" stroke-width="0.2"/>
<path d="M396.56 274.15L396.91 273.62 396.56 262.33 396.56 274.15Z"
fill="black" stroke="black" stroke-width="0.2"/>
<path d="M396.91 273.62L396.91 262.85 396.56 262.33 396.91 273.62Z"
fill="black" stroke="black" stroke-width="0.2"/>
<path d="M396.91 273.62L397.23 273.08 396.91 262.85 396.91 273.62Z"
fill="black" stroke="black" stroke-width="0.2"/>
<path d="M397.23 273.08L397.23 263.4 396.91 262.85 397.23 273.08Z"
fill="black" stroke="black" stroke-width="0.2"/>
<path d="M397.23 273.08L397.51 272.51 397.23 263.4 397.23 273.08Z"
fill="black" stroke="black" stroke-width="0.2"/>
<path d="M397.51 272.51L397.51 263.96 397.23 263.4 397.51 272.51Z"
fill="black" stroke="black" stroke-width="0.2"/>
<path d="M397.51 272.51L397.75 271.93 397.51 263.96 397.51 272.51Z"
fill="black" stroke="black" stroke-width="0.2"/>
<path d="M397.75 271.93L397.75 264.54 397.51 263.96 397.75 271.93Z"
fill="black" stroke="black" stroke-width="0.2"/>
<path d="M397.75 271.93L397.96 271.34 397.75 264.54 397.75 271.93Z"
fill="black" stroke="black" stroke-width="0.2"/>
<path d="M397.96 271.34L397.96 265.14 397.75 264.54 397.96 271.34Z"
fill="black" stroke="black" stroke-width="0.2"/>
<path d="M397.96 271.34L398.13 270.73 397.96 265.14 397.96 271.34Z"
fill="black" stroke="black" stroke-width="0.2"/>
<path d="M398.13 270.73L398.13 265.74 397.96 265.14 398.13 270.73Z"
fill="black" stroke="black" stroke-width="0.2"/>
<path d="M398.13 270.73L398.27 270.12 398.13 265.74 398.13 270.73Z"
fill="black" stroke="black" stroke-width="0.2"/>
<path d="M398.27 270.12L398.27 266.36 398.13 265.74 398.27 270.12Z"
fill="black" stroke="black" stroke-width="0.2"/>
<path d="M398.27 270.12L398.37 269.5 398.27 266.36 398.27 270.12Z"
fill="black" stroke="black" stroke-width="0.2"/>
<path d="M398.37 269.5L398.37 266.98 398.27 266.36 398.37 269.5Z"
fill="black" stroke="black" stroke-width="0.2"/>
<path d="M398.37 269.5L398.42 268.87 398.37 266.98 398.37 269.5Z"
fill="black" stroke="black" stroke-width="0.2"/>
<path d="M398.42 268.87L398.42 267.61 398.37 266.98 398.42 268.87Z"
fill="black" stroke="black" stroke-width="0.2"/>
<path d="M398.42 268.87L398.44 268.24 398.42 267.61 398.42 268.87Z"
fill="black" stroke="black" stroke-width="0.2"/>
<path d="M398.44 268.24L398.25 270.23"
fill="none" stroke="black" stroke-width="3.5"/>
<path d="M398.25 270.23L397.66 272.15"
fill="none" stroke="black" stroke-width="3.5"/>
<path d="M397.66 272.15L396.72 273.92"
fill="none" stroke="black" stroke-width="3.5"/>
<path d="M396.72 273.92L395.45 275.47"
fill="none" stroke="black" stroke-width="3.5"/>
<path d="M395.45 275.47L393.9 276.74"
fill="none" stroke="black" stroke-width="3.5"/>
<path d="M393.9 276.74L392.13 277.69"
fill="none" stroke="black" stroke-width="3.5"/>
<path d="M392.13 277.69L390.21 278.27"
fill="none" stroke="black" stroke-width="3.5"/>
<path d="M390.21 278.27L388.22 278.47"
fill="none" stroke="black" stroke-width="3.5"/>
<path d="M388.22 278.47L386.22 278.27"
fill="none" stroke="black" stroke-width="3.5"/>
<path d="M386.22 278.27L384.3 277.69"
fill="none" stroke="black" stroke-width="3.5"/>
<path d="M384.3 277.69L382.53 276.74"
fill="none" stroke="black" stroke-width="3.5"/>
<path d="M382.53 276.74L380.98 275.47"
fill="none" stroke="black" stroke-width="3.5"/>
<path d="M380.98 275.47L379.71 273.92"
fill="none" stroke="black" stroke-width="3.5"/>
<path d="M379.71 273.92L378.77 272.15"
fill="none" stroke="black" stroke-width="3.5"/>
<path d="M378.77 272.15L378.19 270.23"
fill="none" stroke="black" stroke-width="3.5"/>
<path d="M378.19 270.23L377.99 268.24"
fill="none" stroke="black" stroke-width="3.5"/>
<path d="M377.99 268.24L378.19 266.24"
fill="none" stroke="black" stroke-width="3.5"/>
<path d="M378.19 266.24L378.77 264.32"
fill="none" stroke="black" stroke-width="3.5"/>
<path d="M378.77 264.32L379.71 262.56"
fill="none" stroke="black" stroke-width="3.5"/>
<path d="M379.71 262.56L380.98 261.01"
fill="none" stroke="black" stroke-width="3.5"/>
<path d="M380.98 261.01L382.53 259.74"
fill="none" stroke="black" stroke-width="3.5"/>
<path d="M382.53 259.74L384.3 258.79"
fill="none" stroke="black" stroke-width="3.5"/>
<path d="M384.3 258.79L386.22 258.21"
fill="none" stroke="black" stroke-width="3.5"/>
<path d="M386.22 258.21L388.22 258.01"
fill="none" stroke="black" stroke-width="3.5"/>
<path d="M388.22 258.01L390.21 258.21"
fill="none" stroke="black" stroke-width="3.5"/>
<path d="M390.21 258.21L392.13 258.79"
fill="none" stroke="black" stroke-width="3.5"/>
<path d="M392.13 258.79L393.9 259.74"
fill="none" stroke="black" stroke-width="3.5"/>
<path d="M393.9 259.74L395.45 261.01"
fill="none" stroke="black" stroke-width="3.5"/>
<path d="M395.45 261.01L396.72 262.56"
fill="none" stroke="black" stroke-width="3.5"/>
<path d="M396.72 262.56L397.66 264.32"
fill="none" stroke="black" stroke-width="3.5"/>
<path d="M397.66 264.32L398.25 266.24"
fill="none" stroke="black" stroke-width="3.5"/>
<path d="M398.25 266.24L398.44 268.24"
fill="none" stroke="black" stroke-width="3.5"/>
</svg>
