<?xml version="1.0" encoding="UTF-8"?>
<svg xmlns="http://www.w3.org/2000/svg" width="800.000" height="600.000" viewBox="0.0 0.0 800.000 600.000" version="1.1">
  <desc>Produce by Acme CAD Converter</desc>
<path d="M493.52 300.64L493.32 305.79"
fill="none" stroke="black" stroke-width="3.5"/>
<path d="M493.32 305.79L492.74 310.92"
fill="none" stroke="black" stroke-width="3.5"/>
<path d="M492.74 310.92L491.77 315.98"
fill="none" stroke="black" stroke-width="3.5"/>
<path d="M491.77 315.98L490.42 320.96"
fill="none" stroke="black" stroke-width="3.5"/>
<path d="M490.42 320.96L488.69 325.82"
fill="none" stroke="black" stroke-width="3.5"/>
<path d="M488.69 325.82L486.61 330.54"
fill="none" stroke="black" stroke-width="3.5"/>
<path d="M486.61 330.54L484.17 335.09"
fill="none" stroke="black" stroke-width="3.5"/>
<path d="M484.17 335.09L481.4 339.44"
fill="none" stroke="black" stroke-width="3.5"/>
<path d="M481.4 339.44L478.3 343.56"
fill="none" stroke="black" stroke-width="3.5"/>
<path d="M478.3 343.56L474.9 347.44"
fill="none" stroke="black" stroke-width="3.5"/>
<path d="M474.9 347.44L471.22 351.06"
fill="none" stroke="black" stroke-width="3.5"/>
<path d="M471.22 351.06L467.28 354.38"
fill="none" stroke="black" stroke-width="3.5"/>
<path d="M467.28 354.38L463.09 357.4"
fill="none" stroke="black" stroke-width="3.5"/>
<path d="M463.09 357.4L458.69 360.09"
fill="none" stroke="black" stroke-width="3.5"/>
<path d="M458.69 360.09L454.1 362.44"
fill="none" stroke="black" stroke-width="3.5"/>
<path d="M454.1 362.44L449.34 364.44"
fill="none" stroke="black" stroke-width="3.5"/>
<path d="M449.34 364.44L444.45 366.07"
fill="none" stroke="black" stroke-width="3.5"/>
<path d="M444.45 366.07L439.45 367.32"
fill="none" stroke="black" stroke-width="3.5"/>
<path d="M439.45 367.32L434.36 368.2"
fill="none" stroke="black" stroke-width="3.5"/>
<path d="M434.36 368.2L429.23 368.68"
fill="none" stroke="black" stroke-width="3.5"/>
<path d="M429.23 368.68L424.07 368.78"
fill="none" stroke="black" stroke-width="3.5"/>
<path d="M424.07 368.78L418.92 368.49"
fill="none" stroke="black" stroke-width="3.5"/>
<path d="M418.92 368.49L413.81 367.81"
fill="none" stroke="black" stroke-width="3.5"/>
<path d="M413.81 367.81L408.76 366.74"
fill="none" stroke="black" stroke-width="3.5"/>
<path d="M408.76 366.74L403.81 365.3"
fill="none" stroke="black" stroke-width="3.5"/>
<path d="M403.81 365.3L398.98 363.48"
fill="none" stroke="black" stroke-width="3.5"/>
<path d="M398.98 363.48L394.3 361.31"
fill="none" stroke="black" stroke-width="3.5"/>
<path d="M394.3 361.31L389.8 358.78"
fill="none" stroke="black" stroke-width="3.5"/>
<path d="M389.8 358.78L385.51 355.93"
fill="none" stroke="black" stroke-width="3.5"/>
<path d="M385.51 355.93L381.44 352.76"
fill="none" stroke="black" stroke-width="3.5"/>
<path d="M381.44 352.76L377.62 349.29"
fill="none" stroke="black" stroke-width="3.5"/>
<path d="M377.62 349.29L374.08 345.54"
fill="none" stroke="black" stroke-width="3.5"/>
<path d="M374.08 345.54L370.83 341.53"
fill="none" stroke="black" stroke-width="3.5"/>
<path d="M370.83 341.53L367.89 337.29"
fill="none" stroke="black" stroke-width="3.5"/>
<path d="M367.89 337.29L365.29 332.84"
fill="none" stroke="black" stroke-width="3.5"/>
<path d="M365.29 332.84L363.02 328.2"
fill="none" stroke="black" stroke-width="3.5"/>
<path d="M363.02 328.2L361.12 323.41"
fill="none" stroke="black" stroke-width="3.5"/>
<path d="M361.12 323.41L359.58 318.48"
fill="none" stroke="black" stroke-width="3.5"/>
<path d="M359.58 318.48L358.42 313.46"
fill="none" stroke="black" stroke-width="3.5"/>
<path d="M358.42 313.46L357.64 308.36"
fill="none" stroke="black" stroke-width="3.5"/>
<path d="M357.64 308.36L357.25 303.22"
fill="none" stroke="black" stroke-width="3.5"/>
<path d="M357.25 303.22L357.25 298.06Z"
fill="none" stroke="black" stroke-width="3.5"/>
<path d="M357.25 298.06L357.64 292.91"
fill="none" stroke="black" stroke-width="3.5"/>
<path d="M357.64 292.91L358.42 287.81"
fill="none" stroke="black" stroke-width="3.5"/>
<path d="M358.42 287.81L359.58 282.79"
fill="none" stroke="black" stroke-width="3.5"/>
<path d="M359.58 282.79L361.12 277.86"
fill="none" stroke="black" stroke-width="3.5"/>
<path d="M361.12 277.86L363.02 273.07"
fill="none" stroke="black" stroke-width="3.5"/>
<path d="M363.02 273.07L365.29 268.44"
fill="none" stroke="black" stroke-width="3.5"/>
<path d="M365.29 268.44L367.89 263.98"
fill="none" stroke="black" stroke-width="3.5"/>
<path d="M367.89 263.98L370.83 259.74"
fill="none" stroke="black" stroke-width="3.5"/>
<path d="M370.83 259.74L374.08 255.74"
fill="none" stroke="black" stroke-width="3.5"/>
<path d="M374.08 255.74L377.62 251.99"
fill="none" stroke="black" stroke-width="3.5"/>
<path d="M377.62 251.99L381.44 248.52"
fill="none" stroke="black" stroke-width="3.5"/>
<path d="M381.44 248.52L385.51 245.34"
fill="none" stroke="black" stroke-width="3.5"/>
<path d="M385.51 245.34L389.8 242.49"
fill="none" stroke="black" stroke-width="3.5"/>
<path d="M389.8 242.49L394.3 239.97"
fill="none" stroke="black" stroke-width="3.5"/>
<path d="M394.3 239.97L398.98 237.79"
fill="none" stroke="black" stroke-width="3.5"/>
<path d="M398.98 237.79L403.81 235.98"
fill="none" stroke="black" stroke-width="3.5"/>
<path d="M403.81 235.98L408.76 234.53"
fill="none" stroke="black" stroke-width="3.5"/>
<path d="M408.76 234.53L413.81 233.46"
fill="none" stroke="black" stroke-width="3.5"/>
<path d="M413.81 233.46L418.92 232.78"
fill="none" stroke="black" stroke-width="3.5"/>
<path d="M418.92 232.78L424.07 232.49"
fill="none" stroke="black" stroke-width="3.5"/>
<path d="M424.07 232.49L429.23 232.59"
fill="none" stroke="black" stroke-width="3.5"/>
<path d="M429.23 232.59L434.36 233.08"
fill="none" stroke="black" stroke-width="3.5"/>
<path d="M434.36 233.08L439.45 233.95"
fill="none" stroke="black" stroke-width="3.5"/>
<path d="M439.45 233.95L444.45 235.21"
fill="none" stroke="black" stroke-width="3.5"/>
<path d="M444.45 235.21L449.34 236.84"
fill="none" stroke="black" stroke-width="3.5"/>
<path d="M449.34 236.84L454.1 238.83"
fill="none" stroke="black" stroke-width="3.5"/>
<path d="M454.1 238.83L458.69 241.18"
fill="none" stroke="black" stroke-width="3.5"/>
<path d="M458.69 241.18L463.09 243.88"
fill="none" stroke="black" stroke-width="3.5"/>
<path d="M463.09 243.88L467.28 246.89"
fill="none" stroke="black" stroke-width="3.5"/>
<path d="M467.28 246.89L471.22 250.22"
fill="none" stroke="black" stroke-width="3.5"/>
<path d="M471.22 250.22L474.9 253.83"
fill="none" stroke="black" stroke-width="3.5"/>
<path d="M474.9 253.83L478.3 257.71"
fill="none" stroke="black" stroke-width="3.5"/>
<path d="M478.3 257.71L481.4 261.84"
fill="none" stroke="black" stroke-width="3.5"/>
<path d="M481.4 261.84L484.17 266.19"
fill="none" stroke="black" stroke-width="3.5"/>
<path d="M484.17 266.19L486.61 270.73"
fill="none" stroke="black" stroke-width="3.5"/>
<path d="M486.61 270.73L488.69 275.45"
fill="none" stroke="black" stroke-width="3.5"/>
<path d="M488.69 275.45L490.42 280.31"
fill="none" stroke="black" stroke-width="3.5"/>
<path d="M490.42 280.31L491.77 285.29"
fill="none" stroke="black" stroke-width="3.5"/>
<path d="M491.77 285.29L492.74 290.36"
fill="none" stroke="black" stroke-width="3.5"/>
<path d="M492.74 290.36L493.32 295.48"
fill="none" stroke="black" stroke-width="3.5"/>
<path d="M493.32 295.48L493.52 300.64"
fill="none" stroke="black" stroke-width="3.5"/>
<path d="M450.92 300.64L450.72 303.78"
fill="none" stroke="black" stroke-width="3.5"/>
<path d="M450.72 303.78L450.15 306.87"
fill="none" stroke="black" stroke-width="3.5"/>
<path d="M450.15 306.87L449.19 309.87"
fill="none" stroke="black" stroke-width="3.5"/>
<path d="M449.19 309.87L447.88 312.73"
fill="none" stroke="black" stroke-width="3.5"/>
<path d="M447.88 312.73L446.22 315.4"
fill="none" stroke="black" stroke-width="3.5"/>
<path d="M446.22 315.4L444.25 317.86"
fill="none" stroke="black" stroke-width="3.5"/>
<path d="M444.25 317.86L441.99 320.05"
fill="none" stroke="black" stroke-width="3.5"/>
<path d="M441.99 320.05L439.48 321.94"
fill="none" stroke="black" stroke-width="3.5"/>
<path d="M439.48 321.94L436.75 323.52"
fill="none" stroke="black" stroke-width="3.5"/>
<path d="M436.75 323.52L433.85 324.74"
fill="none" stroke="black" stroke-width="3.5"/>
<path d="M433.85 324.74L430.83 325.6"
fill="none" stroke="black" stroke-width="3.5"/>
<path d="M430.83 325.6L427.72 326.09"
fill="none" stroke="black" stroke-width="3.5"/>
<path d="M427.72 326.09L424.57 326.18"
fill="none" stroke="black" stroke-width="3.5"/>
<path d="M424.57 326.18L421.44 325.89"
fill="none" stroke="black" stroke-width="3.5"/>
<path d="M421.44 325.89L418.36 325.22"
fill="none" stroke="black" stroke-width="3.5"/>
<path d="M418.36 325.22L415.4 324.17"
fill="none" stroke="black" stroke-width="3.5"/>
<path d="M415.4 324.17L412.58 322.77"
fill="none" stroke="black" stroke-width="3.5"/>
<path d="M412.58 322.77L409.96 321.03"
fill="none" stroke="black" stroke-width="3.5"/>
<path d="M409.96 321.03L407.57 318.99"
fill="none" stroke="black" stroke-width="3.5"/>
<path d="M407.57 318.99L405.45 316.66"
fill="none" stroke="black" stroke-width="3.5"/>
<path d="M405.45 316.66L403.63 314.09"
fill="none" stroke="black" stroke-width="3.5"/>
<path d="M403.63 314.09L402.14 311.32"
fill="none" stroke="black" stroke-width="3.5"/>
<path d="M402.14 311.32L401 308.38"
fill="none" stroke="black" stroke-width="3.5"/>
<path d="M401 308.38L400.23 305.33"
fill="none" stroke="black" stroke-width="3.5"/>
<path d="M400.23 305.33L399.85 302.21"
fill="none" stroke="black" stroke-width="3.5"/>
<path d="M399.85 302.21L399.85 299.06Z"
fill="none" stroke="black" stroke-width="3.5"/>
<path d="M399.85 299.06L400.23 295.94"
fill="none" stroke="black" stroke-width="3.5"/>
<path d="M400.23 295.94L401 292.89"
fill="none" stroke="black" stroke-width="3.5"/>
<path d="M401 292.89L402.14 289.95"
fill="none" stroke="black" stroke-width="3.5"/>
<path d="M402.14 289.95L403.63 287.18"
fill="none" stroke="black" stroke-width="3.5"/>
<path d="M403.63 287.18L405.45 284.61"
fill="none" stroke="black" stroke-width="3.5"/>
<path d="M405.45 284.61L407.57 282.29"
fill="none" stroke="black" stroke-width="3.5"/>
<path d="M407.57 282.29L409.96 280.24"
fill="none" stroke="black" stroke-width="3.5"/>
<path d="M409.96 280.24L412.58 278.5"
fill="none" stroke="black" stroke-width="3.5"/>
<path d="M412.58 278.5L415.4 277.1"
fill="none" stroke="black" stroke-width="3.5"/>
<path d="M415.4 277.1L418.36 276.05"
fill="none" stroke="black" stroke-width="3.5"/>
<path d="M418.36 276.05L421.44 275.38"
fill="none" stroke="black" stroke-width="3.5"/>
<path d="M421.44 275.38L424.57 275.09"
fill="none" stroke="black" stroke-width="3.5"/>
<path d="M424.57 275.09L427.72 275.19"
fill="none" stroke="black" stroke-width="3.5"/>
<path d="M427.72 275.19L430.83 275.67"
fill="none" stroke="black" stroke-width="3.5"/>
<path d="M430.83 275.67L433.85 276.53"
fill="none" stroke="black" stroke-width="3.5"/>
<path d="M433.85 276.53L436.75 277.76"
fill="none" stroke="black" stroke-width="3.5"/>
<path d="M436.75 277.76L439.48 279.33"
fill="none" stroke="black" stroke-width="3.5"/>
<path d="M439.48 279.33L441.99 281.23"
fill="none" stroke="black" stroke-width="3.5"/>
<path d="M441.99 281.23L444.25 283.42"
fill="none" stroke="black" stroke-width="3.5"/>
<path d="M444.25 283.42L446.22 285.87"
fill="none" stroke="black" stroke-width="3.5"/>
<path d="M446.22 285.87L447.88 288.54"
fill="none" stroke="black" stroke-width="3.5"/>
<path d="M447.88 288.54L449.19 291.4"
fill="none" stroke="black" stroke-width="3.5"/>
<path d="M449.19 291.4L450.15 294.4"
fill="none" stroke="black" stroke-width="3.5"/>
<path d="M450.15 294.4L450.72 297.5"
fill="none" stroke="black" stroke-width="3.5"/>
<path d="M450.72 297.5L450.92 300.64"
fill="none" stroke="black" stroke-width="3.5"/>
<path d="M488.54 275.08L450.92 300.64"
fill="none" stroke="black" stroke-width="3.5"/>
<path d="M450.92 300.64L488.54 326.2"
fill="none" stroke="black" stroke-width="3.5"/>
<path d="M425.36 326.2L425.36 275.08Z"
fill="none" stroke="black" stroke-width="3.5"/>
</svg>
