<?xml version="1.0" encoding="UTF-8"?>
<svg xmlns="http://www.w3.org/2000/svg" width="800.000" height="600.000" viewBox="0.0 0.0 800.000 600.000" version="1.1">
  <desc>Produce by Acme CAD Converter</desc>
<path d="M431.84 292.45L431.64 295.57"
fill="none" stroke="black" stroke-width="3.5"/>
<path d="M431.64 295.57L431.07 298.65"
fill="none" stroke="black" stroke-width="3.5"/>
<path d="M431.07 298.65L430.12 301.63"
fill="none" stroke="black" stroke-width="3.5"/>
<path d="M430.12 301.63L428.81 304.47"
fill="none" stroke="black" stroke-width="3.5"/>
<path d="M428.81 304.47L427.17 307.13"
fill="none" stroke="black" stroke-width="3.5"/>
<path d="M427.17 307.13L425.21 309.56"
fill="none" stroke="black" stroke-width="3.5"/>
<path d="M425.21 309.56L422.96 311.74"
fill="none" stroke="black" stroke-width="3.5"/>
<path d="M422.96 311.74L420.47 313.62"
fill="none" stroke="black" stroke-width="3.5"/>
<path d="M420.47 313.62L417.76 315.19"
fill="none" stroke="black" stroke-width="3.5"/>
<path d="M417.76 315.19L414.88 316.4"
fill="none" stroke="black" stroke-width="3.5"/>
<path d="M414.88 316.4L411.87 317.26"
fill="none" stroke="black" stroke-width="3.5"/>
<path d="M411.87 317.26L408.78 317.74"
fill="none" stroke="black" stroke-width="3.5"/>
<path d="M408.78 317.74L405.66 317.84"
fill="none" stroke="black" stroke-width="3.5"/>
<path d="M405.66 317.84L402.55 317.55"
fill="none" stroke="black" stroke-width="3.5"/>
<path d="M402.55 317.55L399.49 316.88"
fill="none" stroke="black" stroke-width="3.5"/>
<path d="M399.49 316.88L396.54 315.84"
fill="none" stroke="black" stroke-width="3.5"/>
<path d="M396.54 315.84L393.74 314.45"
fill="none" stroke="black" stroke-width="3.5"/>
<path d="M393.74 314.45L391.14 312.72"
fill="none" stroke="black" stroke-width="3.5"/>
<path d="M391.14 312.72L388.76 310.68"
fill="none" stroke="black" stroke-width="3.5"/>
<path d="M388.76 310.68L386.66 308.37"
fill="none" stroke="black" stroke-width="3.5"/>
<path d="M386.66 308.37L384.85 305.82"
fill="none" stroke="black" stroke-width="3.5"/>
<path d="M384.85 305.82L383.37 303.07"
fill="none" stroke="black" stroke-width="3.5"/>
<path d="M383.37 303.07L382.24 300.15"
fill="none" stroke="black" stroke-width="3.5"/>
<path d="M382.24 300.15L381.48 297.12"
fill="none" stroke="black" stroke-width="3.5"/>
<path d="M381.48 297.12L381.1 294.02"
fill="none" stroke="black" stroke-width="3.5"/>
<path d="M381.1 294.02L381.1 290.89Z"
fill="none" stroke="black" stroke-width="3.5"/>
<path d="M381.1 290.89L381.48 287.79"
fill="none" stroke="black" stroke-width="3.5"/>
<path d="M381.48 287.79L382.24 284.76"
fill="none" stroke="black" stroke-width="3.5"/>
<path d="M382.24 284.76L383.37 281.84"
fill="none" stroke="black" stroke-width="3.5"/>
<path d="M383.37 281.84L384.85 279.09"
fill="none" stroke="black" stroke-width="3.5"/>
<path d="M384.85 279.09L386.66 276.53"
fill="none" stroke="black" stroke-width="3.5"/>
<path d="M386.66 276.53L388.76 274.22"
fill="none" stroke="black" stroke-width="3.5"/>
<path d="M388.76 274.22L391.14 272.19"
fill="none" stroke="black" stroke-width="3.5"/>
<path d="M391.14 272.19L393.74 270.46"
fill="none" stroke="black" stroke-width="3.5"/>
<path d="M393.74 270.46L396.54 269.07"
fill="none" stroke="black" stroke-width="3.5"/>
<path d="M396.54 269.07L399.49 268.03"
fill="none" stroke="black" stroke-width="3.5"/>
<path d="M399.49 268.03L402.55 267.36"
fill="none" stroke="black" stroke-width="3.5"/>
<path d="M402.55 267.36L405.66 267.07"
fill="none" stroke="black" stroke-width="3.5"/>
<path d="M405.66 267.07L408.78 267.17"
fill="none" stroke="black" stroke-width="3.5"/>
<path d="M408.78 267.17L411.87 267.65"
fill="none" stroke="black" stroke-width="3.5"/>
<path d="M411.87 267.65L414.88 268.5"
fill="none" stroke="black" stroke-width="3.5"/>
<path d="M414.88 268.5L417.76 269.72"
fill="none" stroke="black" stroke-width="3.5"/>
<path d="M417.76 269.72L420.47 271.28"
fill="none" stroke="black" stroke-width="3.5"/>
<path d="M420.47 271.28L422.96 273.17"
fill="none" stroke="black" stroke-width="3.5"/>
<path d="M422.96 273.17L425.21 275.35"
fill="none" stroke="black" stroke-width="3.5"/>
<path d="M425.21 275.35L427.17 277.78"
fill="none" stroke="black" stroke-width="3.5"/>
<path d="M427.17 277.78L428.81 280.44"
fill="none" stroke="black" stroke-width="3.5"/>
<path d="M428.81 280.44L430.12 283.28"
fill="none" stroke="black" stroke-width="3.5"/>
<path d="M430.12 283.28L431.07 286.26"
fill="none" stroke="black" stroke-width="3.5"/>
<path d="M431.07 286.26L431.64 289.33"
fill="none" stroke="black" stroke-width="3.5"/>
<path d="M431.64 289.33L431.84 292.45"
fill="none" stroke="black" stroke-width="3.5"/>
<path d="M469.22 267.06L431.84 292.45"
fill="none" stroke="black" stroke-width="3.5"/>
<path d="M431.84 292.45L469.22 317.85"
fill="none" stroke="black" stroke-width="3.5"/>
<path d="M406.44 317.85L406.44 267.06Z"
fill="none" stroke="black" stroke-width="3.5"/>
<path d="M338.72 360.17L474.16 360.17"
fill="none" stroke="black" stroke-width="3.5"/>
<path d="M474.16 360.17L474.16 224.74Z"
fill="none" stroke="black" stroke-width="3.5"/>
<path d="M474.16 224.74L338.72 224.74"
fill="none" stroke="black" stroke-width="3.5"/>
<path d="M338.72 224.74L338.72 360.17Z"
fill="none" stroke="black" stroke-width="3.5"/>
</svg>
