<?xml version="1.0" encoding="UTF-8"?>
<svg xmlns="http://www.w3.org/2000/svg" width="800.000" height="600.000" viewBox="0.0 0.0 800.000 600.000" version="1.1">
  <desc>Produce by Acme CAD Converter</desc>
<path d="M532.77 309.46L532.57 316.04"
fill="none" stroke="black" stroke-width="0.5"/>
<path d="M532.57 316.04L531.98 322.6"
fill="none" stroke="black" stroke-width="0.5"/>
<path d="M531.98 322.6L530.99 329.1"
fill="none" stroke="black" stroke-width="0.5"/>
<path d="M530.99 329.1L529.6 335.54"
fill="none" stroke="black" stroke-width="0.5"/>
<path d="M529.6 335.54L527.84 341.88"
fill="none" stroke="black" stroke-width="0.5"/>
<path d="M527.84 341.88L525.69 348.11"
fill="none" stroke="black" stroke-width="0.5"/>
<path d="M525.69 348.11L523.17 354.19"
fill="none" stroke="black" stroke-width="0.5"/>
<path d="M523.17 354.19L520.29 360.11"
fill="none" stroke="black" stroke-width="0.5"/>
<path d="M520.29 360.11L517.05 365.85"
fill="none" stroke="black" stroke-width="0.5"/>
<path d="M517.05 365.85L513.48 371.38"
fill="none" stroke="black" stroke-width="0.5"/>
<path d="M513.48 371.38L509.57 376.68"
fill="none" stroke="black" stroke-width="0.5"/>
<path d="M509.57 376.68L505.36 381.74"
fill="none" stroke="black" stroke-width="0.5"/>
<path d="M505.36 381.74L500.85 386.53"
fill="none" stroke="black" stroke-width="0.5"/>
<path d="M500.85 386.53L496.05 391.04"
fill="none" stroke="black" stroke-width="0.5"/>
<path d="M496.05 391.04L490.99 395.26"
fill="none" stroke="black" stroke-width="0.5"/>
<path d="M490.99 395.26L485.69 399.16"
fill="none" stroke="black" stroke-width="0.5"/>
<path d="M485.69 399.16L480.16 402.74"
fill="none" stroke="black" stroke-width="0.5"/>
<path d="M480.16 402.74L474.43 405.97"
fill="none" stroke="black" stroke-width="0.5"/>
<path d="M474.43 405.97L468.51 408.85"
fill="none" stroke="black" stroke-width="0.5"/>
<path d="M468.51 408.85L462.42 411.37"
fill="none" stroke="black" stroke-width="0.5"/>
<path d="M462.42 411.37L456.2 413.52"
fill="none" stroke="black" stroke-width="0.5"/>
<path d="M456.2 413.52L449.86 415.29"
fill="none" stroke="black" stroke-width="0.5"/>
<path d="M449.86 415.29L443.42 416.67"
fill="none" stroke="black" stroke-width="0.5"/>
<path d="M443.42 416.67L436.91 417.66"
fill="none" stroke="black" stroke-width="0.5"/>
<path d="M436.91 417.66L430.35 418.26"
fill="none" stroke="black" stroke-width="0.5"/>
<path d="M430.35 418.26L423.77 418.46"
fill="none" stroke="black" stroke-width="0.5"/>
<path d="M423.77 418.46L417.19 418.26"
fill="none" stroke="black" stroke-width="0.5"/>
<path d="M417.19 418.26L410.63 417.66"
fill="none" stroke="black" stroke-width="0.5"/>
<path d="M410.63 417.66L404.13 416.67"
fill="none" stroke="black" stroke-width="0.5"/>
<path d="M404.13 416.67L397.69 415.29"
fill="none" stroke="black" stroke-width="0.5"/>
<path d="M397.69 415.29L391.35 413.52"
fill="none" stroke="black" stroke-width="0.5"/>
<path d="M391.35 413.52L385.12 411.37"
fill="none" stroke="black" stroke-width="0.5"/>
<path d="M385.12 411.37L379.04 408.85"
fill="none" stroke="black" stroke-width="0.5"/>
<path d="M379.04 408.85L373.12 405.97"
fill="none" stroke="black" stroke-width="0.5"/>
<path d="M373.12 405.97L367.38 402.74"
fill="none" stroke="black" stroke-width="0.5"/>
<path d="M367.38 402.74L361.86 399.16"
fill="none" stroke="black" stroke-width="0.5"/>
<path d="M361.86 399.16L356.55 395.26"
fill="none" stroke="black" stroke-width="0.5"/>
<path d="M356.55 395.26L351.49 391.04"
fill="none" stroke="black" stroke-width="0.5"/>
<path d="M351.49 391.04L346.7 386.53"
fill="none" stroke="black" stroke-width="0.5"/>
<path d="M346.7 386.53L342.19 381.74"
fill="none" stroke="black" stroke-width="0.5"/>
<path d="M342.19 381.74L337.97 376.68"
fill="none" stroke="black" stroke-width="0.5"/>
<path d="M337.97 376.68L334.07 371.38"
fill="none" stroke="black" stroke-width="0.5"/>
<path d="M334.07 371.38L330.49 365.85"
fill="none" stroke="black" stroke-width="0.5"/>
<path d="M330.49 365.85L327.26 360.11"
fill="none" stroke="black" stroke-width="0.5"/>
<path d="M327.26 360.11L324.38 354.19"
fill="none" stroke="black" stroke-width="0.5"/>
<path d="M324.38 354.19L321.86 348.11"
fill="none" stroke="black" stroke-width="0.5"/>
<path d="M321.86 348.11L319.71 341.88"
fill="none" stroke="black" stroke-width="0.5"/>
<path d="M319.71 341.88L317.94 335.54"
fill="none" stroke="black" stroke-width="0.5"/>
<path d="M317.94 335.54L316.56 329.1"
fill="none" stroke="black" stroke-width="0.5"/>
<path d="M316.56 329.1L315.57 322.6"
fill="none" stroke="black" stroke-width="0.5"/>
<path d="M315.57 322.6L314.97 316.04"
fill="none" stroke="black" stroke-width="0.5"/>
<path d="M314.97 316.04L314.77 309.46"
fill="none" stroke="black" stroke-width="0.5"/>
<path d="M314.77 309.46L314.97 302.88"
fill="none" stroke="black" stroke-width="0.5"/>
<path d="M314.97 302.88L315.57 296.32"
fill="none" stroke="black" stroke-width="0.5"/>
<path d="M315.57 296.32L316.56 289.81"
fill="none" stroke="black" stroke-width="0.5"/>
<path d="M316.56 289.81L317.94 283.37"
fill="none" stroke="black" stroke-width="0.5"/>
<path d="M317.94 283.37L319.71 277.03"
fill="none" stroke="black" stroke-width="0.5"/>
<path d="M319.71 277.03L321.86 270.81"
fill="none" stroke="black" stroke-width="0.5"/>
<path d="M321.86 270.81L324.38 264.72"
fill="none" stroke="black" stroke-width="0.5"/>
<path d="M324.38 264.72L327.26 258.8"
fill="none" stroke="black" stroke-width="0.5"/>
<path d="M327.26 258.8L330.49 253.07"
fill="none" stroke="black" stroke-width="0.5"/>
<path d="M330.49 253.07L334.07 247.54"
fill="none" stroke="black" stroke-width="0.5"/>
<path d="M334.07 247.54L337.97 242.24"
fill="none" stroke="black" stroke-width="0.5"/>
<path d="M337.97 242.24L342.19 237.18"
fill="none" stroke="black" stroke-width="0.5"/>
<path d="M342.19 237.18L346.7 232.38"
fill="none" stroke="black" stroke-width="0.5"/>
<path d="M346.7 232.38L351.49 227.87"
fill="none" stroke="black" stroke-width="0.5"/>
<path d="M351.49 227.87L356.55 223.66"
fill="none" stroke="black" stroke-width="0.5"/>
<path d="M356.55 223.66L361.86 219.75"
fill="none" stroke="black" stroke-width="0.5"/>
<path d="M361.86 219.75L367.38 216.18"
fill="none" stroke="black" stroke-width="0.5"/>
<path d="M367.38 216.18L373.12 212.94"
fill="none" stroke="black" stroke-width="0.5"/>
<path d="M373.12 212.94L379.04 210.06"
fill="none" stroke="black" stroke-width="0.5"/>
<path d="M379.04 210.06L385.12 207.54"
fill="none" stroke="black" stroke-width="0.5"/>
<path d="M385.12 207.54L391.35 205.39"
fill="none" stroke="black" stroke-width="0.5"/>
<path d="M391.35 205.39L397.69 203.63"
fill="none" stroke="black" stroke-width="0.5"/>
<path d="M397.69 203.63L404.13 202.24"
fill="none" stroke="black" stroke-width="0.5"/>
<path d="M404.13 202.24L410.63 201.25"
fill="none" stroke="black" stroke-width="0.5"/>
<path d="M410.63 201.25L417.19 200.66"
fill="none" stroke="black" stroke-width="0.5"/>
<path d="M417.19 200.66L423.77 200.46"
fill="none" stroke="black" stroke-width="0.5"/>
<path d="M423.77 200.46L430.35 200.66"
fill="none" stroke="black" stroke-width="0.5"/>
<path d="M430.35 200.66L436.91 201.25"
fill="none" stroke="black" stroke-width="0.5"/>
<path d="M436.91 201.25L443.42 202.24"
fill="none" stroke="black" stroke-width="0.5"/>
<path d="M443.42 202.24L449.86 203.63"
fill="none" stroke="black" stroke-width="0.5"/>
<path d="M449.86 203.63L456.2 205.39"
fill="none" stroke="black" stroke-width="0.5"/>
<path d="M456.2 205.39L462.42 207.54"
fill="none" stroke="black" stroke-width="0.5"/>
<path d="M462.42 207.54L468.51 210.06"
fill="none" stroke="black" stroke-width="0.5"/>
<path d="M468.51 210.06L474.43 212.94"
fill="none" stroke="black" stroke-width="0.5"/>
<path d="M474.43 212.94L480.16 216.18"
fill="none" stroke="black" stroke-width="0.5"/>
<path d="M480.16 216.18L485.69 219.75"
fill="none" stroke="black" stroke-width="0.5"/>
<path d="M485.69 219.75L490.99 223.66"
fill="none" stroke="black" stroke-width="0.5"/>
<path d="M490.99 223.66L496.05 227.87"
fill="none" stroke="black" stroke-width="0.5"/>
<path d="M496.05 227.87L500.85 232.38"
fill="none" stroke="black" stroke-width="0.5"/>
<path d="M500.85 232.38L505.36 237.18"
fill="none" stroke="black" stroke-width="0.5"/>
<path d="M505.36 237.18L509.57 242.24"
fill="none" stroke="black" stroke-width="0.5"/>
<path d="M509.57 242.24L513.48 247.54"
fill="none" stroke="black" stroke-width="0.5"/>
<path d="M513.48 247.54L517.05 253.07"
fill="none" stroke="black" stroke-width="0.5"/>
<path d="M517.05 253.07L520.29 258.8"
fill="none" stroke="black" stroke-width="0.5"/>
<path d="M520.29 258.8L523.17 264.72"
fill="none" stroke="black" stroke-width="0.5"/>
<path d="M523.17 264.72L525.69 270.81"
fill="none" stroke="black" stroke-width="0.5"/>
<path d="M525.69 270.81L527.84 277.03"
fill="none" stroke="black" stroke-width="0.5"/>
<path d="M527.84 277.03L529.6 283.37"
fill="none" stroke="black" stroke-width="0.5"/>
<path d="M529.6 283.37L530.99 289.81"
fill="none" stroke="black" stroke-width="0.5"/>
<path d="M530.99 289.81L531.98 296.32"
fill="none" stroke="black" stroke-width="0.5"/>
<path d="M531.98 296.32L532.57 302.88"
fill="none" stroke="black" stroke-width="0.5"/>
<path d="M532.57 302.88L532.77 309.46"
fill="none" stroke="black" stroke-width="0.5"/>
<path d="M358.37 244.06L489.17 244.06"
fill="none" stroke="black" stroke-width="0.5"/>
<path d="M358.37 374.86L489.17 374.86"
fill="none" stroke="black" stroke-width="0.5"/>
<path d="M407.44 310.26L407.44 308.65 407.42 309.46 407.44 310.26Z"
fill="black" stroke="black" stroke-width="0.2"/>
<path d="M407.44 310.26L407.5 311.06 407.44 308.65 407.44 310.26Z"
fill="black" stroke="black" stroke-width="0.2"/>
<path d="M407.5 311.06L407.5 307.85 407.44 308.65 407.5 311.06Z"
fill="black" stroke="black" stroke-width="0.2"/>
<path d="M407.5 311.06L407.6 311.86 407.5 307.85 407.5 311.06Z"
fill="black" stroke="black" stroke-width="0.2"/>
<path d="M407.6 311.86L407.6 307.06 407.5 307.85 407.6 311.86Z"
fill="black" stroke="black" stroke-width="0.2"/>
<path d="M407.6 311.86L407.74 312.65 407.6 307.06 407.6 311.86Z"
fill="black" stroke="black" stroke-width="0.2"/>
<path d="M407.74 312.65L407.74 306.27 407.6 307.06 407.74 312.65Z"
fill="black" stroke="black" stroke-width="0.2"/>
<path d="M407.74 312.65L407.91 313.43 407.74 306.27 407.74 312.65Z"
fill="black" stroke="black" stroke-width="0.2"/>
<path d="M407.91 313.43L407.91 305.48 407.74 306.27 407.91 313.43Z"
fill="black" stroke="black" stroke-width="0.2"/>
<path d="M407.91 313.43L408.13 314.2 407.91 305.48 407.91 313.43Z"
fill="black" stroke="black" stroke-width="0.2"/>
<path d="M408.13 314.2L408.13 304.71 407.91 305.48 408.13 314.2Z"
fill="black" stroke="black" stroke-width="0.2"/>
<path d="M408.13 314.2L408.38 314.97 408.13 304.71 408.13 314.2Z"
fill="black" stroke="black" stroke-width="0.2"/>
<path d="M408.38 314.97L408.38 303.95 408.13 304.71 408.38 314.97Z"
fill="black" stroke="black" stroke-width="0.2"/>
<path d="M408.38 314.97L408.67 315.71 408.38 303.95 408.38 314.97Z"
fill="black" stroke="black" stroke-width="0.2"/>
<path d="M408.67 315.71L408.67 303.2 408.38 303.95 408.67 315.71Z"
fill="black" stroke="black" stroke-width="0.2"/>
<path d="M408.67 315.71L408.99 316.45 408.67 303.2 408.67 315.71Z"
fill="black" stroke="black" stroke-width="0.2"/>
<path d="M408.99 316.45L408.99 302.47 408.67 303.2 408.99 316.45Z"
fill="black" stroke="black" stroke-width="0.2"/>
<path d="M408.99 316.45L409.35 317.16 408.99 302.47 408.99 316.45Z"
fill="black" stroke="black" stroke-width="0.2"/>
<path d="M409.35 317.16L409.35 301.75 408.99 302.47 409.35 317.16Z"
fill="black" stroke="black" stroke-width="0.2"/>
<path d="M409.35 317.16L409.75 317.86 409.35 301.75 409.35 317.16Z"
fill="black" stroke="black" stroke-width="0.2"/>
<path d="M409.75 317.86L409.75 301.05 409.35 301.75 409.75 317.86Z"
fill="black" stroke="black" stroke-width="0.2"/>
<path d="M409.75 317.86L410.18 318.54 409.75 301.05 409.75 317.86Z"
fill="black" stroke="black" stroke-width="0.2"/>
<path d="M410.18 318.54L410.18 300.37 409.75 301.05 410.18 318.54Z"
fill="black" stroke="black" stroke-width="0.2"/>
<path d="M410.18 318.54L410.64 319.2 410.18 300.37 410.18 318.54Z"
fill="black" stroke="black" stroke-width="0.2"/>
<path d="M410.64 319.2L410.64 299.72 410.18 300.37 410.64 319.2Z"
fill="black" stroke="black" stroke-width="0.2"/>
<path d="M410.64 319.2L411.13 319.83 410.64 299.72 410.64 319.2Z"
fill="black" stroke="black" stroke-width="0.2"/>
<path d="M411.13 319.83L411.13 299.08 410.64 299.72 411.13 319.83Z"
fill="black" stroke="black" stroke-width="0.2"/>
<path d="M411.13 319.83L411.66 320.44 411.13 299.08 411.13 319.83Z"
fill="black" stroke="black" stroke-width="0.2"/>
<path d="M411.66 320.44L411.66 298.48 411.13 299.08 411.66 320.44Z"
fill="black" stroke="black" stroke-width="0.2"/>
<path d="M411.66 320.44L412.21 321.02 411.66 298.48 411.66 320.44Z"
fill="black" stroke="black" stroke-width="0.2"/>
<path d="M412.21 321.02L412.21 297.9 411.66 298.48 412.21 321.02Z"
fill="black" stroke="black" stroke-width="0.2"/>
<path d="M412.21 321.02L412.79 321.57 412.21 297.9 412.21 321.02Z"
fill="black" stroke="black" stroke-width="0.2"/>
<path d="M412.79 321.57L412.79 297.34 412.21 297.9 412.79 321.57Z"
fill="black" stroke="black" stroke-width="0.2"/>
<path d="M412.79 321.57L413.4 322.1 412.79 297.34 412.79 321.57Z"
fill="black" stroke="black" stroke-width="0.2"/>
<path d="M413.4 322.1L413.4 296.82 412.79 297.34 413.4 322.1Z"
fill="black" stroke="black" stroke-width="0.2"/>
<path d="M413.4 322.1L414.03 322.59 413.4 296.82 413.4 322.1Z"
fill="black" stroke="black" stroke-width="0.2"/>
<path d="M414.03 322.59L414.03 296.32 413.4 296.82 414.03 322.59Z"
fill="black" stroke="black" stroke-width="0.2"/>
<path d="M414.03 322.59L414.69 323.05 414.03 296.32 414.03 322.59Z"
fill="black" stroke="black" stroke-width="0.2"/>
<path d="M414.69 323.05L414.69 295.86 414.03 296.32 414.69 323.05Z"
fill="black" stroke="black" stroke-width="0.2"/>
<path d="M414.69 323.05L415.37 323.48 414.69 295.86 414.69 323.05Z"
fill="black" stroke="black" stroke-width="0.2"/>
<path d="M415.37 323.48L415.37 295.43 414.69 295.86 415.37 323.48Z"
fill="black" stroke="black" stroke-width="0.2"/>
<path d="M415.37 323.48L416.07 323.88 415.37 295.43 415.37 323.48Z"
fill="black" stroke="black" stroke-width="0.2"/>
<path d="M416.07 323.88L416.07 295.04 415.37 295.43 416.07 323.88Z"
fill="black" stroke="black" stroke-width="0.2"/>
<path d="M416.07 323.88L416.78 324.24 416.07 295.04 416.07 323.88Z"
fill="black" stroke="black" stroke-width="0.2"/>
<path d="M416.78 324.24L416.78 294.68 416.07 295.04 416.78 324.24Z"
fill="black" stroke="black" stroke-width="0.2"/>
<path d="M416.78 324.24L417.52 324.56 416.78 294.68 416.78 324.24Z"
fill="black" stroke="black" stroke-width="0.2"/>
<path d="M417.52 324.56L417.52 294.35 416.78 294.68 417.52 324.56Z"
fill="black" stroke="black" stroke-width="0.2"/>
<path d="M417.52 324.56L418.27 324.85 417.52 294.35 417.52 324.56Z"
fill="black" stroke="black" stroke-width="0.2"/>
<path d="M418.27 324.85L418.27 294.06 417.52 294.35 418.27 324.85Z"
fill="black" stroke="black" stroke-width="0.2"/>
<path d="M418.27 324.85L419.03 325.1 418.27 294.06 418.27 324.85Z"
fill="black" stroke="black" stroke-width="0.2"/>
<path d="M419.03 325.1L419.03 293.81 418.27 294.06 419.03 325.1Z"
fill="black" stroke="black" stroke-width="0.2"/>
<path d="M419.03 325.1L419.8 325.32 419.03 293.81 419.03 325.1Z"
fill="black" stroke="black" stroke-width="0.2"/>
<path d="M419.8 325.32L419.8 293.6 419.03 293.81 419.8 325.32Z"
fill="black" stroke="black" stroke-width="0.2"/>
<path d="M419.8 325.32L420.58 325.49 419.8 293.6 419.8 325.32Z"
fill="black" stroke="black" stroke-width="0.2"/>
<path d="M420.58 325.49L420.58 293.42 419.8 293.6 420.58 325.49Z"
fill="black" stroke="black" stroke-width="0.2"/>
<path d="M420.58 325.49L421.37 325.63 420.58 293.42 420.58 325.49Z"
fill="black" stroke="black" stroke-width="0.2"/>
<path d="M421.37 325.63L421.37 293.28 420.58 293.42 421.37 325.63Z"
fill="black" stroke="black" stroke-width="0.2"/>
<path d="M421.37 325.63L422.17 325.73 421.37 293.28 421.37 325.63Z"
fill="black" stroke="black" stroke-width="0.2"/>
<path d="M422.17 325.73L422.17 293.19 421.37 293.28 422.17 325.73Z"
fill="black" stroke="black" stroke-width="0.2"/>
<path d="M422.17 325.73L422.97 325.79 422.17 293.19 422.17 325.73Z"
fill="black" stroke="black" stroke-width="0.2"/>
<path d="M422.97 325.79L422.97 293.13 422.17 293.19 422.97 325.79Z"
fill="black" stroke="black" stroke-width="0.2"/>
<path d="M422.97 325.79L423.77 325.81 422.97 293.13 422.97 325.79Z"
fill="black" stroke="black" stroke-width="0.2"/>
<path d="M423.77 325.81L423.77 293.11 422.97 293.13 423.77 325.81Z"
fill="black" stroke="black" stroke-width="0.2"/>
<path d="M423.77 325.81L424.58 325.79 423.77 293.11 423.77 325.81Z"
fill="black" stroke="black" stroke-width="0.2"/>
<path d="M424.58 325.79L424.58 293.13 423.77 293.11 424.58 325.79Z"
fill="black" stroke="black" stroke-width="0.2"/>
<path d="M424.58 325.79L425.38 325.73 424.58 293.13 424.58 325.79Z"
fill="black" stroke="black" stroke-width="0.2"/>
<path d="M425.38 325.73L425.38 293.19 424.58 293.13 425.38 325.73Z"
fill="black" stroke="black" stroke-width="0.2"/>
<path d="M425.38 325.73L426.17 325.63 425.38 293.19 425.38 325.73Z"
fill="black" stroke="black" stroke-width="0.2"/>
<path d="M426.17 325.63L426.17 293.28 425.38 293.19 426.17 325.63Z"
fill="black" stroke="black" stroke-width="0.2"/>
<path d="M426.17 325.63L426.96 325.49 426.17 293.28 426.17 325.63Z"
fill="black" stroke="black" stroke-width="0.2"/>
<path d="M426.96 325.49L426.96 293.42 426.17 293.28 426.96 325.49Z"
fill="black" stroke="black" stroke-width="0.2"/>
<path d="M426.96 325.49L427.75 325.32 426.96 293.42 426.96 325.49Z"
fill="black" stroke="black" stroke-width="0.2"/>
<path d="M427.75 325.32L427.75 293.6 426.96 293.42 427.75 325.32Z"
fill="black" stroke="black" stroke-width="0.2"/>
<path d="M427.75 325.32L428.52 325.1 427.75 293.6 427.75 325.32Z"
fill="black" stroke="black" stroke-width="0.2"/>
<path d="M428.52 325.1L428.52 293.81 427.75 293.6 428.52 325.1Z"
fill="black" stroke="black" stroke-width="0.2"/>
<path d="M428.52 325.1L429.28 324.85 428.52 293.81 428.52 325.1Z"
fill="black" stroke="black" stroke-width="0.2"/>
<path d="M429.28 324.85L429.28 294.06 428.52 293.81 429.28 324.85Z"
fill="black" stroke="black" stroke-width="0.2"/>
<path d="M429.28 324.85L430.03 324.56 429.28 294.06 429.28 324.85Z"
fill="black" stroke="black" stroke-width="0.2"/>
<path d="M430.03 324.56L430.03 294.35 429.28 294.06 430.03 324.56Z"
fill="black" stroke="black" stroke-width="0.2"/>
<path d="M430.03 324.56L430.76 324.24 430.03 294.35 430.03 324.56Z"
fill="black" stroke="black" stroke-width="0.2"/>
<path d="M430.76 324.24L430.76 294.68 430.03 294.35 430.76 324.24Z"
fill="black" stroke="black" stroke-width="0.2"/>
<path d="M430.76 324.24L431.48 323.88 430.76 294.68 430.76 324.24Z"
fill="black" stroke="black" stroke-width="0.2"/>
<path d="M431.48 323.88L431.48 295.04 430.76 294.68 431.48 323.88Z"
fill="black" stroke="black" stroke-width="0.2"/>
<path d="M431.48 323.88L432.18 323.48 431.48 295.04 431.48 323.88Z"
fill="black" stroke="black" stroke-width="0.2"/>
<path d="M432.18 323.48L432.18 295.43 431.48 295.04 432.18 323.48Z"
fill="black" stroke="black" stroke-width="0.2"/>
<path d="M432.18 323.48L432.86 323.05 432.18 295.43 432.18 323.48Z"
fill="black" stroke="black" stroke-width="0.2"/>
<path d="M432.86 323.05L432.86 295.86 432.18 295.43 432.86 323.05Z"
fill="black" stroke="black" stroke-width="0.2"/>
<path d="M432.86 323.05L433.51 322.59 432.86 295.86 432.86 323.05Z"
fill="black" stroke="black" stroke-width="0.2"/>
<path d="M433.51 322.59L433.51 296.32 432.86 295.86 433.51 322.59Z"
fill="black" stroke="black" stroke-width="0.2"/>
<path d="M433.51 322.59L434.15 322.1 433.51 296.32 433.51 322.59Z"
fill="black" stroke="black" stroke-width="0.2"/>
<path d="M434.15 322.1L434.15 296.82 433.51 296.32 434.15 322.1Z"
fill="black" stroke="black" stroke-width="0.2"/>
<path d="M434.15 322.1L434.75 321.57 434.15 296.82 434.15 322.1Z"
fill="black" stroke="black" stroke-width="0.2"/>
<path d="M434.75 321.57L434.75 297.34 434.15 296.82 434.75 321.57Z"
fill="black" stroke="black" stroke-width="0.2"/>
<path d="M434.75 321.57L435.33 321.02 434.75 297.34 434.75 321.57Z"
fill="black" stroke="black" stroke-width="0.2"/>
<path d="M435.33 321.02L435.33 297.9 434.75 297.34 435.33 321.02Z"
fill="black" stroke="black" stroke-width="0.2"/>
<path d="M435.33 321.02L435.89 320.44 435.33 297.9 435.33 321.02Z"
fill="black" stroke="black" stroke-width="0.2"/>
<path d="M435.89 320.44L435.89 298.48 435.33 297.9 435.89 320.44Z"
fill="black" stroke="black" stroke-width="0.2"/>
<path d="M435.89 320.44L436.41 319.83 435.89 298.48 435.89 320.44Z"
fill="black" stroke="black" stroke-width="0.2"/>
<path d="M436.41 319.83L436.41 299.08 435.89 298.48 436.41 319.83Z"
fill="black" stroke="black" stroke-width="0.2"/>
<path d="M436.41 319.83L436.91 319.2 436.41 299.08 436.41 319.83Z"
fill="black" stroke="black" stroke-width="0.2"/>
<path d="M436.91 319.2L436.91 299.72 436.41 299.08 436.91 319.2Z"
fill="black" stroke="black" stroke-width="0.2"/>
<path d="M436.91 319.2L437.37 318.54 436.91 299.72 436.91 319.2Z"
fill="black" stroke="black" stroke-width="0.2"/>
<path d="M437.37 318.54L437.37 300.37 436.91 299.72 437.37 318.54Z"
fill="black" stroke="black" stroke-width="0.2"/>
<path d="M437.37 318.54L437.8 317.86 437.37 300.37 437.37 318.54Z"
fill="black" stroke="black" stroke-width="0.2"/>
<path d="M437.8 317.86L437.8 301.05 437.37 300.37 437.8 317.86Z"
fill="black" stroke="black" stroke-width="0.2"/>
<path d="M437.8 317.86L438.19 317.16 437.8 301.05 437.8 317.86Z"
fill="black" stroke="black" stroke-width="0.2"/>
<path d="M438.19 317.16L438.19 301.75 437.8 301.05 438.19 317.16Z"
fill="black" stroke="black" stroke-width="0.2"/>
<path d="M438.19 317.16L438.55 316.45 438.19 301.75 438.19 317.16Z"
fill="black" stroke="black" stroke-width="0.2"/>
<path d="M438.55 316.45L438.55 302.47 438.19 301.75 438.55 316.45Z"
fill="black" stroke="black" stroke-width="0.2"/>
<path d="M438.55 316.45L438.88 315.71 438.55 302.47 438.55 316.45Z"
fill="black" stroke="black" stroke-width="0.2"/>
<path d="M438.88 315.71L438.88 303.2 438.55 302.47 438.88 315.71Z"
fill="black" stroke="black" stroke-width="0.2"/>
<path d="M438.88 315.71L439.17 314.97 438.88 303.2 438.88 315.71Z"
fill="black" stroke="black" stroke-width="0.2"/>
<path d="M439.17 314.97L439.17 303.95 438.88 303.2 439.17 314.97Z"
fill="black" stroke="black" stroke-width="0.2"/>
<path d="M439.17 314.97L439.42 314.2 439.17 303.95 439.17 314.97Z"
fill="black" stroke="black" stroke-width="0.2"/>
<path d="M439.42 314.2L439.42 304.71 439.17 303.95 439.42 314.2Z"
fill="black" stroke="black" stroke-width="0.2"/>
<path d="M439.42 314.2L439.63 313.43 439.42 304.71 439.42 314.2Z"
fill="black" stroke="black" stroke-width="0.2"/>
<path d="M439.63 313.43L439.63 305.48 439.42 304.71 439.63 313.43Z"
fill="black" stroke="black" stroke-width="0.2"/>
<path d="M439.63 313.43L439.81 312.65 439.63 305.48 439.63 313.43Z"
fill="black" stroke="black" stroke-width="0.2"/>
<path d="M439.81 312.65L439.81 306.27 439.63 305.48 439.81 312.65Z"
fill="black" stroke="black" stroke-width="0.2"/>
<path d="M439.81 312.65L439.95 311.86 439.81 306.27 439.81 312.65Z"
fill="black" stroke="black" stroke-width="0.2"/>
<path d="M439.95 311.86L439.95 307.06 439.81 306.27 439.95 311.86Z"
fill="black" stroke="black" stroke-width="0.2"/>
<path d="M439.95 311.86L440.04 311.06 439.95 307.06 439.95 311.86Z"
fill="black" stroke="black" stroke-width="0.2"/>
<path d="M440.04 311.06L440.04 307.85 439.95 307.06 440.04 311.06Z"
fill="black" stroke="black" stroke-width="0.2"/>
<path d="M440.04 311.06L440.1 310.26 440.04 307.85 440.04 311.06Z"
fill="black" stroke="black" stroke-width="0.2"/>
<path d="M440.1 310.26L440.1 308.65 440.04 307.85 440.1 310.26Z"
fill="black" stroke="black" stroke-width="0.2"/>
<path d="M440.1 310.26L440.12 309.46 440.1 308.65 440.1 310.26Z"
fill="black" stroke="black" stroke-width="0.2"/>
<path d="M440.12 309.46L439.93 311.95"
fill="none" stroke="black" stroke-width="0.5"/>
<path d="M439.93 311.95L439.36 314.39"
fill="none" stroke="black" stroke-width="0.5"/>
<path d="M439.36 314.39L438.43 316.71"
fill="none" stroke="black" stroke-width="0.5"/>
<path d="M438.43 316.71L437.15 318.86"
fill="none" stroke="black" stroke-width="0.5"/>
<path d="M437.15 318.86L435.55 320.79"
fill="none" stroke="black" stroke-width="0.5"/>
<path d="M435.55 320.79L433.68 322.46"
fill="none" stroke="black" stroke-width="0.5"/>
<path d="M433.68 322.46L431.58 323.82"
fill="none" stroke="black" stroke-width="0.5"/>
<path d="M431.58 323.82L429.3 324.84"
fill="none" stroke="black" stroke-width="0.5"/>
<path d="M429.3 324.84L426.89 325.51"
fill="none" stroke="black" stroke-width="0.5"/>
<path d="M426.89 325.51L424.4 325.79"
fill="none" stroke="black" stroke-width="0.5"/>
<path d="M424.4 325.79L421.9 325.7"
fill="none" stroke="black" stroke-width="0.5"/>
<path d="M421.9 325.7L419.44 325.22"
fill="none" stroke="black" stroke-width="0.5"/>
<path d="M419.44 325.22L417.08 324.38"
fill="none" stroke="black" stroke-width="0.5"/>
<path d="M417.08 324.38L414.89 323.18"
fill="none" stroke="black" stroke-width="0.5"/>
<path d="M414.89 323.18L412.9 321.66"
fill="none" stroke="black" stroke-width="0.5"/>
<path d="M412.9 321.66L411.16 319.86"
fill="none" stroke="black" stroke-width="0.5"/>
<path d="M411.16 319.86L409.72 317.81"
fill="none" stroke="black" stroke-width="0.5"/>
<path d="M409.72 317.81L408.61 315.57"
fill="none" stroke="black" stroke-width="0.5"/>
<path d="M408.61 315.57L407.85 313.18"
fill="none" stroke="black" stroke-width="0.5"/>
<path d="M407.85 313.18L407.47 310.71"
fill="none" stroke="black" stroke-width="0.5"/>
<path d="M407.47 310.71L407.47 308.21Z"
fill="none" stroke="black" stroke-width="0.5"/>
<path d="M407.47 308.21L407.85 305.73"
fill="none" stroke="black" stroke-width="0.5"/>
<path d="M407.85 305.73L408.61 303.35"
fill="none" stroke="black" stroke-width="0.5"/>
<path d="M408.61 303.35L409.72 301.1"
fill="none" stroke="black" stroke-width="0.5"/>
<path d="M409.72 301.1L411.16 299.05"
fill="none" stroke="black" stroke-width="0.5"/>
<path d="M411.16 299.05L412.9 297.25"
fill="none" stroke="black" stroke-width="0.5"/>
<path d="M412.9 297.25L414.89 295.73"
fill="none" stroke="black" stroke-width="0.5"/>
<path d="M414.89 295.73L417.08 294.54"
fill="none" stroke="black" stroke-width="0.5"/>
<path d="M417.08 294.54L419.44 293.69"
fill="none" stroke="black" stroke-width="0.5"/>
<path d="M419.44 293.69L421.9 293.22"
fill="none" stroke="black" stroke-width="0.5"/>
<path d="M421.9 293.22L424.4 293.12"
fill="none" stroke="black" stroke-width="0.5"/>
<path d="M424.4 293.12L426.89 293.41"
fill="none" stroke="black" stroke-width="0.5"/>
<path d="M426.89 293.41L429.3 294.07"
fill="none" stroke="black" stroke-width="0.5"/>
<path d="M429.3 294.07L431.58 295.09"
fill="none" stroke="black" stroke-width="0.5"/>
<path d="M431.58 295.09L433.68 296.45"
fill="none" stroke="black" stroke-width="0.5"/>
<path d="M433.68 296.45L435.55 298.12"
fill="none" stroke="black" stroke-width="0.5"/>
<path d="M435.55 298.12L437.15 300.05"
fill="none" stroke="black" stroke-width="0.5"/>
<path d="M437.15 300.05L438.43 302.2"
fill="none" stroke="black" stroke-width="0.5"/>
<path d="M438.43 302.2L439.36 304.52"
fill="none" stroke="black" stroke-width="0.5"/>
<path d="M439.36 304.52L439.93 306.96"
fill="none" stroke="black" stroke-width="0.5"/>
<path d="M439.93 306.96L440.12 309.46"
fill="none" stroke="black" stroke-width="0.5"/>
</svg>
