<?xml version="1.0" encoding="UTF-8"?>
<svg xmlns="http://www.w3.org/2000/svg" width="800.000" height="600.000" viewBox="0.0 0.0 800.000 600.000" version="1.1">
  <desc>Produce by Acme CAD Converter</desc>
<path d="M281.93 348.68L418.3 348.68"
fill="none" stroke="black" stroke-width="0.5"/>
<path d="M418.3 348.68L418.3 212.32Z"
fill="none" stroke="black" stroke-width="0.5"/>
<path d="M418.3 212.32L281.93 212.32"
fill="none" stroke="black" stroke-width="0.5"/>
<path d="M281.93 212.32L281.93 348.68Z"
fill="none" stroke="black" stroke-width="0.5"/>
<path d="M339.9 281.13L339.9 279.87 339.88 280.5 339.9 281.13Z"
fill="black" stroke="black" stroke-width="0.2"/>
<path d="M339.9 281.13L339.96 281.76 339.9 279.87 339.9 281.13Z"
fill="black" stroke="black" stroke-width="0.2"/>
<path d="M339.96 281.76L339.96 279.24 339.9 279.87 339.96 281.76Z"
fill="black" stroke="black" stroke-width="0.2"/>
<path d="M339.96 281.76L340.06 282.38 339.96 279.24 339.96 281.76Z"
fill="black" stroke="black" stroke-width="0.2"/>
<path d="M340.06 282.38L340.06 278.62 339.96 279.24 340.06 282.38Z"
fill="black" stroke="black" stroke-width="0.2"/>
<path d="M340.06 282.38L340.19 282.99 340.06 278.62 340.06 282.38Z"
fill="black" stroke="black" stroke-width="0.2"/>
<path d="M340.19 282.99L340.19 278 340.06 278.62 340.19 282.99Z"
fill="black" stroke="black" stroke-width="0.2"/>
<path d="M340.19 282.99L340.37 283.6 340.19 278 340.19 282.99Z"
fill="black" stroke="black" stroke-width="0.2"/>
<path d="M340.37 283.6L340.37 277.4 340.19 278 340.37 283.6Z"
fill="black" stroke="black" stroke-width="0.2"/>
<path d="M340.37 283.6L340.58 284.19 340.37 277.4 340.37 283.6Z"
fill="black" stroke="black" stroke-width="0.2"/>
<path d="M340.58 284.19L340.58 276.8 340.37 277.4 340.58 284.19Z"
fill="black" stroke="black" stroke-width="0.2"/>
<path d="M340.58 284.19L340.82 284.77 340.58 276.8 340.58 284.19Z"
fill="black" stroke="black" stroke-width="0.2"/>
<path d="M340.82 284.77L340.82 276.22 340.58 276.8 340.82 284.77Z"
fill="black" stroke="black" stroke-width="0.2"/>
<path d="M340.82 284.77L341.1 285.34 340.82 276.22 340.82 284.77Z"
fill="black" stroke="black" stroke-width="0.2"/>
<path d="M341.1 285.34L341.1 275.66 340.82 276.22 341.1 285.34Z"
fill="black" stroke="black" stroke-width="0.2"/>
<path d="M341.1 285.34L341.42 285.88 341.1 275.66 341.1 285.34Z"
fill="black" stroke="black" stroke-width="0.2"/>
<path d="M341.42 285.88L341.42 275.12 341.1 275.66 341.42 285.88Z"
fill="black" stroke="black" stroke-width="0.2"/>
<path d="M341.42 285.88L341.76 286.41 341.42 275.12 341.42 285.88Z"
fill="black" stroke="black" stroke-width="0.2"/>
<path d="M341.76 286.41L341.76 274.59 341.42 275.12 341.76 286.41Z"
fill="black" stroke="black" stroke-width="0.2"/>
<path d="M341.76 286.41L342.14 286.91 341.76 274.59 341.76 286.41Z"
fill="black" stroke="black" stroke-width="0.2"/>
<path d="M342.14 286.91L342.14 274.09 341.76 274.59 342.14 286.91Z"
fill="black" stroke="black" stroke-width="0.2"/>
<path d="M342.14 286.91L342.55 287.39 342.14 274.09 342.14 286.91Z"
fill="black" stroke="black" stroke-width="0.2"/>
<path d="M342.55 287.39L342.55 273.61 342.14 274.09 342.55 287.39Z"
fill="black" stroke="black" stroke-width="0.2"/>
<path d="M342.55 287.39L342.99 287.84 342.55 273.61 342.55 287.39Z"
fill="black" stroke="black" stroke-width="0.2"/>
<path d="M342.99 287.84L342.99 273.16 342.55 273.61 342.99 287.84Z"
fill="black" stroke="black" stroke-width="0.2"/>
<path d="M342.99 287.84L343.46 288.27 342.99 273.16 342.99 287.84Z"
fill="black" stroke="black" stroke-width="0.2"/>
<path d="M343.46 288.27L343.46 272.73 342.99 273.16 343.46 288.27Z"
fill="black" stroke="black" stroke-width="0.2"/>
<path d="M343.46 288.27L343.95 288.66 343.46 272.73 343.46 288.27Z"
fill="black" stroke="black" stroke-width="0.2"/>
<path d="M343.95 288.66L343.95 272.34 343.46 272.73 343.95 288.66Z"
fill="black" stroke="black" stroke-width="0.2"/>
<path d="M343.95 288.66L344.46 289.03 343.95 272.34 343.95 288.66Z"
fill="black" stroke="black" stroke-width="0.2"/>
<path d="M344.46 289.03L344.46 271.97 343.95 272.34 344.46 289.03Z"
fill="black" stroke="black" stroke-width="0.2"/>
<path d="M344.46 289.03L345 289.36 344.46 271.97 344.46 289.03Z"
fill="black" stroke="black" stroke-width="0.2"/>
<path d="M345 289.36L345 271.64 344.46 271.97 345 289.36Z"
fill="black" stroke="black" stroke-width="0.2"/>
<path d="M345 289.36L345.55 289.65 345 271.64 345 289.36Z"
fill="black" stroke="black" stroke-width="0.2"/>
<path d="M345.55 289.65L345.55 271.34 345 271.64 345.55 289.65Z"
fill="black" stroke="black" stroke-width="0.2"/>
<path d="M345.55 289.65L346.13 289.92 345.55 271.34 345.55 289.65Z"
fill="black" stroke="black" stroke-width="0.2"/>
<path d="M346.13 289.92L346.13 271.08 345.55 271.34 346.13 289.92Z"
fill="black" stroke="black" stroke-width="0.2"/>
<path d="M346.13 289.92L346.71 290.15 346.13 271.08 346.13 289.92Z"
fill="black" stroke="black" stroke-width="0.2"/>
<path d="M346.71 290.15L346.71 270.85 346.13 271.08 346.71 290.15Z"
fill="black" stroke="black" stroke-width="0.2"/>
<path d="M346.71 290.15L347.31 290.34 346.71 270.85 346.71 290.15Z"
fill="black" stroke="black" stroke-width="0.2"/>
<path d="M347.31 290.34L347.31 270.66 346.71 270.85 347.31 290.34Z"
fill="black" stroke="black" stroke-width="0.2"/>
<path d="M347.31 290.34L347.92 290.49 347.31 270.66 347.31 290.34Z"
fill="black" stroke="black" stroke-width="0.2"/>
<path d="M347.92 290.49L347.92 270.51 347.31 270.66 347.92 290.49Z"
fill="black" stroke="black" stroke-width="0.2"/>
<path d="M347.92 290.49L348.54 290.61 347.92 270.51 347.92 290.49Z"
fill="black" stroke="black" stroke-width="0.2"/>
<path d="M348.54 290.61L348.54 270.39 347.92 270.51 348.54 290.61Z"
fill="black" stroke="black" stroke-width="0.2"/>
<path d="M348.54 290.61L349.17 290.68 348.54 270.39 348.54 290.61Z"
fill="black" stroke="black" stroke-width="0.2"/>
<path d="M349.17 290.68L349.17 270.32 348.54 270.39 349.17 290.68Z"
fill="black" stroke="black" stroke-width="0.2"/>
<path d="M349.17 290.68L349.8 290.72 349.17 270.32 349.17 290.68Z"
fill="black" stroke="black" stroke-width="0.2"/>
<path d="M349.8 290.72L349.8 270.28 349.17 270.32 349.8 290.72Z"
fill="black" stroke="black" stroke-width="0.2"/>
<path d="M349.8 290.72L350.43 290.72 349.8 270.28 349.8 290.72Z"
fill="black" stroke="black" stroke-width="0.2"/>
<path d="M350.43 290.72L350.43 270.28 349.8 270.28 350.43 290.72Z"
fill="black" stroke="black" stroke-width="0.2"/>
<path d="M350.43 290.72L351.06 290.68 350.43 270.28 350.43 290.72Z"
fill="black" stroke="black" stroke-width="0.2"/>
<path d="M351.06 290.68L351.06 270.32 350.43 270.28 351.06 290.68Z"
fill="black" stroke="black" stroke-width="0.2"/>
<path d="M351.06 290.68L351.68 290.61 351.06 270.32 351.06 290.68Z"
fill="black" stroke="black" stroke-width="0.2"/>
<path d="M351.68 290.61L351.68 270.39 351.06 270.32 351.68 290.61Z"
fill="black" stroke="black" stroke-width="0.2"/>
<path d="M351.68 290.61L352.3 290.49 351.68 270.39 351.68 290.61Z"
fill="black" stroke="black" stroke-width="0.2"/>
<path d="M352.3 290.49L352.3 270.51 351.68 270.39 352.3 290.49Z"
fill="black" stroke="black" stroke-width="0.2"/>
<path d="M352.3 290.49L352.91 290.34 352.3 270.51 352.3 290.49Z"
fill="black" stroke="black" stroke-width="0.2"/>
<path d="M352.91 290.34L352.91 270.66 352.3 270.51 352.91 290.34Z"
fill="black" stroke="black" stroke-width="0.2"/>
<path d="M352.91 290.34L353.51 290.15 352.91 270.66 352.91 290.34Z"
fill="black" stroke="black" stroke-width="0.2"/>
<path d="M353.51 290.15L353.51 270.85 352.91 270.66 353.51 290.15Z"
fill="black" stroke="black" stroke-width="0.2"/>
<path d="M353.51 290.15L354.1 289.92 353.51 270.85 353.51 290.15Z"
fill="black" stroke="black" stroke-width="0.2"/>
<path d="M354.1 289.92L354.1 271.08 353.51 270.85 354.1 289.92Z"
fill="black" stroke="black" stroke-width="0.2"/>
<path d="M354.1 289.92L354.67 289.65 354.1 271.08 354.1 289.92Z"
fill="black" stroke="black" stroke-width="0.2"/>
<path d="M354.67 289.65L354.67 271.34 354.1 271.08 354.67 289.65Z"
fill="black" stroke="black" stroke-width="0.2"/>
<path d="M354.67 289.65L355.23 289.36 354.67 271.34 354.67 289.65Z"
fill="black" stroke="black" stroke-width="0.2"/>
<path d="M355.23 289.36L355.23 271.64 354.67 271.34 355.23 289.36Z"
fill="black" stroke="black" stroke-width="0.2"/>
<path d="M355.23 289.36L355.76 289.03 355.23 271.64 355.23 289.36Z"
fill="black" stroke="black" stroke-width="0.2"/>
<path d="M355.76 289.03L355.76 271.97 355.23 271.64 355.76 289.03Z"
fill="black" stroke="black" stroke-width="0.2"/>
<path d="M355.76 289.03L356.28 288.66 355.76 271.97 355.76 289.03Z"
fill="black" stroke="black" stroke-width="0.2"/>
<path d="M356.28 288.66L356.28 272.34 355.76 271.97 356.28 288.66Z"
fill="black" stroke="black" stroke-width="0.2"/>
<path d="M356.28 288.66L356.77 288.27 356.28 272.34 356.28 288.66Z"
fill="black" stroke="black" stroke-width="0.2"/>
<path d="M356.77 288.27L356.77 272.73 356.28 272.34 356.77 288.27Z"
fill="black" stroke="black" stroke-width="0.2"/>
<path d="M356.77 288.27L357.23 287.84 356.77 272.73 356.77 288.27Z"
fill="black" stroke="black" stroke-width="0.2"/>
<path d="M357.23 287.84L357.23 273.16 356.77 272.73 357.23 287.84Z"
fill="black" stroke="black" stroke-width="0.2"/>
<path d="M357.23 287.84L357.67 287.39 357.23 273.16 357.23 287.84Z"
fill="black" stroke="black" stroke-width="0.2"/>
<path d="M357.67 287.39L357.67 273.61 357.23 273.16 357.67 287.39Z"
fill="black" stroke="black" stroke-width="0.2"/>
<path d="M357.67 287.39L358.08 286.91 357.67 273.61 357.67 287.39Z"
fill="black" stroke="black" stroke-width="0.2"/>
<path d="M358.08 286.91L358.08 274.09 357.67 273.61 358.08 286.91Z"
fill="black" stroke="black" stroke-width="0.2"/>
<path d="M358.08 286.91L358.46 286.41 358.08 274.09 358.08 286.91Z"
fill="black" stroke="black" stroke-width="0.2"/>
<path d="M358.46 286.41L358.46 274.59 358.08 274.09 358.46 286.41Z"
fill="black" stroke="black" stroke-width="0.2"/>
<path d="M358.46 286.41L358.81 285.88 358.46 274.59 358.46 286.41Z"
fill="black" stroke="black" stroke-width="0.2"/>
<path d="M358.81 285.88L358.81 275.12 358.46 274.59 358.81 285.88Z"
fill="black" stroke="black" stroke-width="0.2"/>
<path d="M358.81 285.88L359.12 285.34 358.81 275.12 358.81 285.88Z"
fill="black" stroke="black" stroke-width="0.2"/>
<path d="M359.12 285.34L359.12 275.66 358.81 275.12 359.12 285.34Z"
fill="black" stroke="black" stroke-width="0.2"/>
<path d="M359.12 285.34L359.4 284.77 359.12 275.66 359.12 285.34Z"
fill="black" stroke="black" stroke-width="0.2"/>
<path d="M359.4 284.77L359.4 276.22 359.12 275.66 359.4 284.77Z"
fill="black" stroke="black" stroke-width="0.2"/>
<path d="M359.4 284.77L359.65 284.19 359.4 276.22 359.4 284.77Z"
fill="black" stroke="black" stroke-width="0.2"/>
<path d="M359.65 284.19L359.65 276.8 359.4 276.22 359.65 284.19Z"
fill="black" stroke="black" stroke-width="0.2"/>
<path d="M359.65 284.19L359.86 283.6 359.65 276.8 359.65 284.19Z"
fill="black" stroke="black" stroke-width="0.2"/>
<path d="M359.86 283.6L359.86 277.4 359.65 276.8 359.86 283.6Z"
fill="black" stroke="black" stroke-width="0.2"/>
<path d="M359.86 283.6L360.03 282.99 359.86 277.4 359.86 283.6Z"
fill="black" stroke="black" stroke-width="0.2"/>
<path d="M360.03 282.99L360.03 278 359.86 277.4 360.03 282.99Z"
fill="black" stroke="black" stroke-width="0.2"/>
<path d="M360.03 282.99L360.17 282.38 360.03 278 360.03 282.99Z"
fill="black" stroke="black" stroke-width="0.2"/>
<path d="M360.17 282.38L360.17 278.62 360.03 278 360.17 282.38Z"
fill="black" stroke="black" stroke-width="0.2"/>
<path d="M360.17 282.38L360.26 281.76 360.17 278.62 360.17 282.38Z"
fill="black" stroke="black" stroke-width="0.2"/>
<path d="M360.26 281.76L360.26 279.24 360.17 278.62 360.26 281.76Z"
fill="black" stroke="black" stroke-width="0.2"/>
<path d="M360.26 281.76L360.32 281.13 360.26 279.24 360.26 281.76Z"
fill="black" stroke="black" stroke-width="0.2"/>
<path d="M360.32 281.13L360.32 279.87 360.26 279.24 360.32 281.13Z"
fill="black" stroke="black" stroke-width="0.2"/>
<path d="M360.32 281.13L360.34 280.5 360.32 279.87 360.32 281.13Z"
fill="black" stroke="black" stroke-width="0.2"/>
<path d="M360.34 280.5L360.14 282.49"
fill="none" stroke="black" stroke-width="0.5"/>
<path d="M360.14 282.49L359.56 284.41"
fill="none" stroke="black" stroke-width="0.5"/>
<path d="M359.56 284.41L358.62 286.18"
fill="none" stroke="black" stroke-width="0.5"/>
<path d="M358.62 286.18L357.34 287.73"
fill="none" stroke="black" stroke-width="0.5"/>
<path d="M357.34 287.73L355.79 289"
fill="none" stroke="black" stroke-width="0.5"/>
<path d="M355.79 289L354.03 289.95"
fill="none" stroke="black" stroke-width="0.5"/>
<path d="M354.03 289.95L352.11 290.53"
fill="none" stroke="black" stroke-width="0.5"/>
<path d="M352.11 290.53L350.11 290.73"
fill="none" stroke="black" stroke-width="0.5"/>
<path d="M350.11 290.73L348.12 290.53"
fill="none" stroke="black" stroke-width="0.5"/>
<path d="M348.12 290.53L346.2 289.95"
fill="none" stroke="black" stroke-width="0.5"/>
<path d="M346.2 289.95L344.43 289"
fill="none" stroke="black" stroke-width="0.5"/>
<path d="M344.43 289L342.88 287.73"
fill="none" stroke="black" stroke-width="0.5"/>
<path d="M342.88 287.73L341.61 286.18"
fill="none" stroke="black" stroke-width="0.5"/>
<path d="M341.61 286.18L340.66 284.41"
fill="none" stroke="black" stroke-width="0.5"/>
<path d="M340.66 284.41L340.08 282.49"
fill="none" stroke="black" stroke-width="0.5"/>
<path d="M340.08 282.49L339.88 280.5"
fill="none" stroke="black" stroke-width="0.5"/>
<path d="M339.88 280.5L340.08 278.5"
fill="none" stroke="black" stroke-width="0.5"/>
<path d="M340.08 278.5L340.66 276.59"
fill="none" stroke="black" stroke-width="0.5"/>
<path d="M340.66 276.59L341.61 274.82"
fill="none" stroke="black" stroke-width="0.5"/>
<path d="M341.61 274.82L342.88 273.27"
fill="none" stroke="black" stroke-width="0.5"/>
<path d="M342.88 273.27L344.43 272"
fill="none" stroke="black" stroke-width="0.5"/>
<path d="M344.43 272L346.2 271.05"
fill="none" stroke="black" stroke-width="0.5"/>
<path d="M346.2 271.05L348.12 270.47"
fill="none" stroke="black" stroke-width="0.5"/>
<path d="M348.12 270.47L350.11 270.27"
fill="none" stroke="black" stroke-width="0.5"/>
<path d="M350.11 270.27L352.11 270.47"
fill="none" stroke="black" stroke-width="0.5"/>
<path d="M352.11 270.47L354.03 271.05"
fill="none" stroke="black" stroke-width="0.5"/>
<path d="M354.03 271.05L355.79 272"
fill="none" stroke="black" stroke-width="0.5"/>
<path d="M355.79 272L357.34 273.27"
fill="none" stroke="black" stroke-width="0.5"/>
<path d="M357.34 273.27L358.62 274.82"
fill="none" stroke="black" stroke-width="0.5"/>
<path d="M358.62 274.82L359.56 276.59"
fill="none" stroke="black" stroke-width="0.5"/>
<path d="M359.56 276.59L360.14 278.5"
fill="none" stroke="black" stroke-width="0.5"/>
<path d="M360.14 278.5L360.34 280.5"
fill="none" stroke="black" stroke-width="0.5"/>
<path d="M281.93 246.41L418.3 246.41"
fill="none" stroke="black" stroke-width="0.5"/>
<path d="M281.93 314.59L418.3 314.59"
fill="none" stroke="black" stroke-width="0.5"/>
<path d="M418.3 246.41L418.3 212.32Z"
fill="none" stroke="black" stroke-width="0.5"/>
</svg>
