<?xml version="1.0" encoding="UTF-8"?>
<svg xmlns="http://www.w3.org/2000/svg" width="800.000" height="600.000" viewBox="0.0 0.0 800.000 600.000" version="1.1">
  <desc>Produce by Acme CAD Converter</desc>
<path d="M480.93 333.57L480.73 339.3"
fill="none" stroke="black" stroke-width="3.5"/>
<path d="M480.73 339.3L480.14 345"
fill="none" stroke="black" stroke-width="3.5"/>
<path d="M480.14 345L479.15 350.65"
fill="none" stroke="black" stroke-width="3.5"/>
<path d="M479.15 350.65L477.78 356.22"
fill="none" stroke="black" stroke-width="3.5"/>
<path d="M477.78 356.22L476.03 361.68"
fill="none" stroke="black" stroke-width="3.5"/>
<path d="M476.03 361.68L473.9 367"
fill="none" stroke="black" stroke-width="3.5"/>
<path d="M473.9 367L471.42 372.17"
fill="none" stroke="black" stroke-width="3.5"/>
<path d="M471.42 372.17L468.58 377.15"
fill="none" stroke="black" stroke-width="3.5"/>
<path d="M468.58 377.15L465.4 381.93"
fill="none" stroke="black" stroke-width="3.5"/>
<path d="M465.4 381.93L461.91 386.47"
fill="none" stroke="black" stroke-width="3.5"/>
<path d="M461.91 386.47L458.1 390.76"
fill="none" stroke="black" stroke-width="3.5"/>
<path d="M458.1 390.76L454.01 394.78"
fill="none" stroke="black" stroke-width="3.5"/>
<path d="M454.01 394.78L449.66 398.51"
fill="none" stroke="black" stroke-width="3.5"/>
<path d="M449.66 398.51L445.05 401.93"
fill="none" stroke="black" stroke-width="3.5"/>
<path d="M445.05 401.93L440.23 405.02"
fill="none" stroke="black" stroke-width="3.5"/>
<path d="M440.23 405.02L435.2 407.77"
fill="none" stroke="black" stroke-width="3.5"/>
<path d="M435.2 407.77L429.99 410.17"
fill="none" stroke="black" stroke-width="3.5"/>
<path d="M429.99 410.17L424.63 412.2"
fill="none" stroke="black" stroke-width="3.5"/>
<path d="M424.63 412.2L419.14 413.86"
fill="none" stroke="black" stroke-width="3.5"/>
<path d="M419.14 413.86L413.55 415.14"
fill="none" stroke="black" stroke-width="3.5"/>
<path d="M413.55 415.14L407.88 416.02"
fill="none" stroke="black" stroke-width="3.5"/>
<path d="M407.88 416.02L402.17 416.52"
fill="none" stroke="black" stroke-width="3.5"/>
<path d="M402.17 416.52L396.44 416.62"
fill="none" stroke="black" stroke-width="3.5"/>
<path d="M396.44 416.62L390.71 416.32"
fill="none" stroke="black" stroke-width="3.5"/>
<path d="M390.71 416.32L385.02 415.63"
fill="none" stroke="black" stroke-width="3.5"/>
<path d="M385.02 415.63L379.39 414.55"
fill="none" stroke="black" stroke-width="3.5"/>
<path d="M379.39 414.55L373.85 413.08"
fill="none" stroke="black" stroke-width="3.5"/>
<path d="M373.85 413.08L368.42 411.23"
fill="none" stroke="black" stroke-width="3.5"/>
<path d="M368.42 411.23L363.13 409.01"
fill="none" stroke="black" stroke-width="3.5"/>
<path d="M363.13 409.01L358.01 406.44"
fill="none" stroke="black" stroke-width="3.5"/>
<path d="M358.01 406.44L353.08 403.51"
fill="none" stroke="black" stroke-width="3.5"/>
<path d="M353.08 403.51L348.36 400.26"
fill="none" stroke="black" stroke-width="3.5"/>
<path d="M348.36 400.26L343.88 396.68"
fill="none" stroke="black" stroke-width="3.5"/>
<path d="M343.88 396.68L339.65 392.81"
fill="none" stroke="black" stroke-width="3.5"/>
<path d="M339.65 392.81L335.7 388.65"
fill="none" stroke="black" stroke-width="3.5"/>
<path d="M335.7 388.65L332.05 384.23"
fill="none" stroke="black" stroke-width="3.5"/>
<path d="M332.05 384.23L328.71 379.57"
fill="none" stroke="black" stroke-width="3.5"/>
<path d="M328.71 379.57L325.7 374.69"
fill="none" stroke="black" stroke-width="3.5"/>
<path d="M325.7 374.69L323.04 369.61"
fill="none" stroke="black" stroke-width="3.5"/>
<path d="M323.04 369.61L320.73 364.36"
fill="none" stroke="black" stroke-width="3.5"/>
<path d="M320.73 364.36L318.79 358.96"
fill="none" stroke="black" stroke-width="3.5"/>
<path d="M318.79 358.96L317.23 353.45"
fill="none" stroke="black" stroke-width="3.5"/>
<path d="M317.23 353.45L316.05 347.84"
fill="none" stroke="black" stroke-width="3.5"/>
<path d="M316.05 347.84L315.26 342.16"
fill="none" stroke="black" stroke-width="3.5"/>
<path d="M315.26 342.16L314.86 336.44"
fill="none" stroke="black" stroke-width="3.5"/>
<path d="M314.86 336.44L314.86 330.7Z"
fill="none" stroke="black" stroke-width="3.5"/>
<path d="M314.86 330.7L315.26 324.98"
fill="none" stroke="black" stroke-width="3.5"/>
<path d="M315.26 324.98L316.05 319.31"
fill="none" stroke="black" stroke-width="3.5"/>
<path d="M316.05 319.31L317.23 313.69"
fill="none" stroke="black" stroke-width="3.5"/>
<path d="M317.23 313.69L318.79 308.18"
fill="none" stroke="black" stroke-width="3.5"/>
<path d="M318.79 308.18L320.73 302.78"
fill="none" stroke="black" stroke-width="3.5"/>
<path d="M320.73 302.78L323.04 297.53"
fill="none" stroke="black" stroke-width="3.5"/>
<path d="M323.04 297.53L325.7 292.46"
fill="none" stroke="black" stroke-width="3.5"/>
<path d="M325.7 292.46L328.71 287.58"
fill="none" stroke="black" stroke-width="3.5"/>
<path d="M328.71 287.58L332.05 282.91"
fill="none" stroke="black" stroke-width="3.5"/>
<path d="M332.05 282.91L335.7 278.49"
fill="none" stroke="black" stroke-width="3.5"/>
<path d="M335.7 278.49L339.65 274.34"
fill="none" stroke="black" stroke-width="3.5"/>
<path d="M339.65 274.34L343.88 270.46"
fill="none" stroke="black" stroke-width="3.5"/>
<path d="M343.88 270.46L348.36 266.89"
fill="none" stroke="black" stroke-width="3.5"/>
<path d="M348.36 266.89L353.08 263.63"
fill="none" stroke="black" stroke-width="3.5"/>
<path d="M353.08 263.63L358.01 260.7"
fill="none" stroke="black" stroke-width="3.5"/>
<path d="M358.01 260.7L363.13 258.13"
fill="none" stroke="black" stroke-width="3.5"/>
<path d="M363.13 258.13L368.42 255.91"
fill="none" stroke="black" stroke-width="3.5"/>
<path d="M368.42 255.91L373.85 254.06"
fill="none" stroke="black" stroke-width="3.5"/>
<path d="M373.85 254.06L379.39 252.6"
fill="none" stroke="black" stroke-width="3.5"/>
<path d="M379.39 252.6L385.02 251.51"
fill="none" stroke="black" stroke-width="3.5"/>
<path d="M385.02 251.51L390.71 250.82"
fill="none" stroke="black" stroke-width="3.5"/>
<path d="M390.71 250.82L396.44 250.53"
fill="none" stroke="black" stroke-width="3.5"/>
<path d="M396.44 250.53L402.17 250.62"
fill="none" stroke="black" stroke-width="3.5"/>
<path d="M402.17 250.62L407.88 251.12"
fill="none" stroke="black" stroke-width="3.5"/>
<path d="M407.88 251.12L413.55 252.01"
fill="none" stroke="black" stroke-width="3.5"/>
<path d="M413.55 252.01L419.14 253.28"
fill="none" stroke="black" stroke-width="3.5"/>
<path d="M419.14 253.28L424.63 254.94"
fill="none" stroke="black" stroke-width="3.5"/>
<path d="M424.63 254.94L429.99 256.97"
fill="none" stroke="black" stroke-width="3.5"/>
<path d="M429.99 256.97L435.2 259.37"
fill="none" stroke="black" stroke-width="3.5"/>
<path d="M435.2 259.37L440.23 262.12"
fill="none" stroke="black" stroke-width="3.5"/>
<path d="M440.23 262.12L445.05 265.22"
fill="none" stroke="black" stroke-width="3.5"/>
<path d="M445.05 265.22L449.66 268.63"
fill="none" stroke="black" stroke-width="3.5"/>
<path d="M449.66 268.63L454.01 272.36"
fill="none" stroke="black" stroke-width="3.5"/>
<path d="M454.01 272.36L458.1 276.38"
fill="none" stroke="black" stroke-width="3.5"/>
<path d="M458.1 276.38L461.91 280.67"
fill="none" stroke="black" stroke-width="3.5"/>
<path d="M461.91 280.67L465.4 285.22"
fill="none" stroke="black" stroke-width="3.5"/>
<path d="M465.4 285.22L468.58 289.99"
fill="none" stroke="black" stroke-width="3.5"/>
<path d="M468.58 289.99L471.42 294.97"
fill="none" stroke="black" stroke-width="3.5"/>
<path d="M471.42 294.97L473.9 300.14"
fill="none" stroke="black" stroke-width="3.5"/>
<path d="M473.9 300.14L476.03 305.46"
fill="none" stroke="black" stroke-width="3.5"/>
<path d="M476.03 305.46L477.78 310.92"
fill="none" stroke="black" stroke-width="3.5"/>
<path d="M477.78 310.92L479.15 316.49"
fill="none" stroke="black" stroke-width="3.5"/>
<path d="M479.15 316.49L480.14 322.14"
fill="none" stroke="black" stroke-width="3.5"/>
<path d="M480.14 322.14L480.73 327.84"
fill="none" stroke="black" stroke-width="3.5"/>
<path d="M480.73 327.84L480.93 333.57"
fill="none" stroke="black" stroke-width="3.5"/>
</svg>
