<?xml version="1.0" encoding="UTF-8"?>
<svg xmlns="http://www.w3.org/2000/svg" width="800.000" height="600.000" viewBox="0.0 0.0 800.000 600.000" version="1.1">
  <desc>Produce by Acme CAD Converter</desc>
<path d="M468.24 290.57L468.04 295.72"
fill="none" stroke="black" stroke-width="0.5"/>
<path d="M468.04 295.72L467.46 300.84"
fill="none" stroke="black" stroke-width="0.5"/>
<path d="M467.46 300.84L466.49 305.91"
fill="none" stroke="black" stroke-width="0.5"/>
<path d="M466.49 305.91L465.14 310.89"
fill="none" stroke="black" stroke-width="0.5"/>
<path d="M465.14 310.89L463.41 315.75"
fill="none" stroke="black" stroke-width="0.5"/>
<path d="M463.41 315.75L461.33 320.47"
fill="none" stroke="black" stroke-width="0.5"/>
<path d="M461.33 320.47L458.89 325.01"
fill="none" stroke="black" stroke-width="0.5"/>
<path d="M458.89 325.01L456.12 329.36"
fill="none" stroke="black" stroke-width="0.5"/>
<path d="M456.12 329.36L453.02 333.49"
fill="none" stroke="black" stroke-width="0.5"/>
<path d="M453.02 333.49L449.63 337.37"
fill="none" stroke="black" stroke-width="0.5"/>
<path d="M449.63 337.37L445.94 340.98"
fill="none" stroke="black" stroke-width="0.5"/>
<path d="M445.94 340.98L442 344.3"
fill="none" stroke="black" stroke-width="0.5"/>
<path d="M442 344.3L437.82 347.32"
fill="none" stroke="black" stroke-width="0.5"/>
<path d="M437.82 347.32L433.42 350.01"
fill="none" stroke="black" stroke-width="0.5"/>
<path d="M433.42 350.01L428.82 352.36"
fill="none" stroke="black" stroke-width="0.5"/>
<path d="M428.82 352.36L424.07 354.36"
fill="none" stroke="black" stroke-width="0.5"/>
<path d="M424.07 354.36L419.18 355.99"
fill="none" stroke="black" stroke-width="0.5"/>
<path d="M419.18 355.99L414.17 357.24"
fill="none" stroke="black" stroke-width="0.5"/>
<path d="M414.17 357.24L409.09 358.12"
fill="none" stroke="black" stroke-width="0.5"/>
<path d="M409.09 358.12L403.96 358.6"
fill="none" stroke="black" stroke-width="0.5"/>
<path d="M403.96 358.6L398.8 358.7"
fill="none" stroke="black" stroke-width="0.5"/>
<path d="M398.8 358.7L393.65 358.41"
fill="none" stroke="black" stroke-width="0.5"/>
<path d="M393.65 358.41L388.54 357.73"
fill="none" stroke="black" stroke-width="0.5"/>
<path d="M388.54 357.73L383.49 356.66"
fill="none" stroke="black" stroke-width="0.5"/>
<path d="M383.49 356.66L378.54 355.22"
fill="none" stroke="black" stroke-width="0.5"/>
<path d="M378.54 355.22L373.71 353.4"
fill="none" stroke="black" stroke-width="0.5"/>
<path d="M373.71 353.4L369.04 351.23"
fill="none" stroke="black" stroke-width="0.5"/>
<path d="M369.04 351.23L364.54 348.71"
fill="none" stroke="black" stroke-width="0.5"/>
<path d="M364.54 348.71L360.24 345.85"
fill="none" stroke="black" stroke-width="0.5"/>
<path d="M360.24 345.85L356.18 342.68"
fill="none" stroke="black" stroke-width="0.5"/>
<path d="M356.18 342.68L352.36 339.21"
fill="none" stroke="black" stroke-width="0.5"/>
<path d="M352.36 339.21L348.82 335.46"
fill="none" stroke="black" stroke-width="0.5"/>
<path d="M348.82 335.46L345.57 331.45"
fill="none" stroke="black" stroke-width="0.5"/>
<path d="M345.57 331.45L342.63 327.21"
fill="none" stroke="black" stroke-width="0.5"/>
<path d="M342.63 327.21L340.03 322.76"
fill="none" stroke="black" stroke-width="0.5"/>
<path d="M340.03 322.76L337.76 318.13"
fill="none" stroke="black" stroke-width="0.5"/>
<path d="M337.76 318.13L335.86 313.33"
fill="none" stroke="black" stroke-width="0.5"/>
<path d="M335.86 313.33L334.32 308.41"
fill="none" stroke="black" stroke-width="0.5"/>
<path d="M334.32 308.41L333.16 303.39"
fill="none" stroke="black" stroke-width="0.5"/>
<path d="M333.16 303.39L332.38 298.29"
fill="none" stroke="black" stroke-width="0.5"/>
<path d="M332.38 298.29L331.99 293.15"
fill="none" stroke="black" stroke-width="0.5"/>
<path d="M331.99 293.15L331.99 287.99Z"
fill="none" stroke="black" stroke-width="0.5"/>
<path d="M331.99 287.99L332.38 282.84"
fill="none" stroke="black" stroke-width="0.5"/>
<path d="M332.38 282.84L333.16 277.75"
fill="none" stroke="black" stroke-width="0.5"/>
<path d="M333.16 277.75L334.32 272.72"
fill="none" stroke="black" stroke-width="0.5"/>
<path d="M334.32 272.72L335.86 267.8"
fill="none" stroke="black" stroke-width="0.5"/>
<path d="M335.86 267.8L337.76 263.01"
fill="none" stroke="black" stroke-width="0.5"/>
<path d="M337.76 263.01L340.03 258.37"
fill="none" stroke="black" stroke-width="0.5"/>
<path d="M340.03 258.37L342.63 253.92"
fill="none" stroke="black" stroke-width="0.5"/>
<path d="M342.63 253.92L345.57 249.68"
fill="none" stroke="black" stroke-width="0.5"/>
<path d="M345.57 249.68L348.82 245.67"
fill="none" stroke="black" stroke-width="0.5"/>
<path d="M348.82 245.67L352.36 241.92"
fill="none" stroke="black" stroke-width="0.5"/>
<path d="M352.36 241.92L356.18 238.45"
fill="none" stroke="black" stroke-width="0.5"/>
<path d="M356.18 238.45L360.24 235.28"
fill="none" stroke="black" stroke-width="0.5"/>
<path d="M360.24 235.28L364.54 232.43"
fill="none" stroke="black" stroke-width="0.5"/>
<path d="M364.54 232.43L369.04 229.9"
fill="none" stroke="black" stroke-width="0.5"/>
<path d="M369.04 229.9L373.71 227.73"
fill="none" stroke="black" stroke-width="0.5"/>
<path d="M373.71 227.73L378.54 225.92"
fill="none" stroke="black" stroke-width="0.5"/>
<path d="M378.54 225.92L383.49 224.47"
fill="none" stroke="black" stroke-width="0.5"/>
<path d="M383.49 224.47L388.54 223.4"
fill="none" stroke="black" stroke-width="0.5"/>
<path d="M388.54 223.4L393.65 222.72"
fill="none" stroke="black" stroke-width="0.5"/>
<path d="M393.65 222.72L398.8 222.43"
fill="none" stroke="black" stroke-width="0.5"/>
<path d="M398.8 222.43L403.96 222.53"
fill="none" stroke="black" stroke-width="0.5"/>
<path d="M403.96 222.53L409.09 223.02"
fill="none" stroke="black" stroke-width="0.5"/>
<path d="M409.09 223.02L414.17 223.89"
fill="none" stroke="black" stroke-width="0.5"/>
<path d="M414.17 223.89L419.18 225.15"
fill="none" stroke="black" stroke-width="0.5"/>
<path d="M419.18 225.15L424.07 226.78"
fill="none" stroke="black" stroke-width="0.5"/>
<path d="M424.07 226.78L428.82 228.77"
fill="none" stroke="black" stroke-width="0.5"/>
<path d="M428.82 228.77L433.42 231.12"
fill="none" stroke="black" stroke-width="0.5"/>
<path d="M433.42 231.12L437.82 233.81"
fill="none" stroke="black" stroke-width="0.5"/>
<path d="M437.82 233.81L442 236.83"
fill="none" stroke="black" stroke-width="0.5"/>
<path d="M442 236.83L445.94 240.15"
fill="none" stroke="black" stroke-width="0.5"/>
<path d="M445.94 240.15L449.63 243.77"
fill="none" stroke="black" stroke-width="0.5"/>
<path d="M449.63 243.77L453.02 247.65"
fill="none" stroke="black" stroke-width="0.5"/>
<path d="M453.02 247.65L456.12 251.77"
fill="none" stroke="black" stroke-width="0.5"/>
<path d="M456.12 251.77L458.89 256.12"
fill="none" stroke="black" stroke-width="0.5"/>
<path d="M458.89 256.12L461.33 260.67"
fill="none" stroke="black" stroke-width="0.5"/>
<path d="M461.33 260.67L463.41 265.38"
fill="none" stroke="black" stroke-width="0.5"/>
<path d="M463.41 265.38L465.14 270.24"
fill="none" stroke="black" stroke-width="0.5"/>
<path d="M465.14 270.24L466.49 275.22"
fill="none" stroke="black" stroke-width="0.5"/>
<path d="M466.49 275.22L467.46 280.29"
fill="none" stroke="black" stroke-width="0.5"/>
<path d="M467.46 280.29L468.04 285.41"
fill="none" stroke="black" stroke-width="0.5"/>
<path d="M468.04 285.41L468.24 290.57"
fill="none" stroke="black" stroke-width="0.5"/>
<path d="M351.9 338.75L448.28 242.38"
fill="none" stroke="black" stroke-width="0.5"/>
<path d="M448.28 338.75L351.9 242.38"
fill="none" stroke="black" stroke-width="0.5"/>
<path d="M368.46 291.2L368.46 289.94 368.44 290.57 368.46 291.2Z"
fill="black" stroke="black" stroke-width="0.2"/>
<path d="M368.46 291.2L368.52 291.82 368.46 289.94 368.46 291.2Z"
fill="black" stroke="black" stroke-width="0.2"/>
<path d="M368.52 291.82L368.52 289.31 368.46 289.94 368.52 291.82Z"
fill="black" stroke="black" stroke-width="0.2"/>
<path d="M368.52 291.82L368.61 292.44 368.52 289.31 368.52 291.82Z"
fill="black" stroke="black" stroke-width="0.2"/>
<path d="M368.61 292.44L368.61 288.69 368.52 289.31 368.61 292.44Z"
fill="black" stroke="black" stroke-width="0.2"/>
<path d="M368.61 292.44L368.75 293.06 368.61 288.69 368.61 292.44Z"
fill="black" stroke="black" stroke-width="0.2"/>
<path d="M368.75 293.06L368.75 288.07 368.61 288.69 368.75 293.06Z"
fill="black" stroke="black" stroke-width="0.2"/>
<path d="M368.75 293.06L368.92 293.67 368.75 288.07 368.75 293.06Z"
fill="black" stroke="black" stroke-width="0.2"/>
<path d="M368.92 293.67L368.92 287.47 368.75 288.07 368.92 293.67Z"
fill="black" stroke="black" stroke-width="0.2"/>
<path d="M368.92 293.67L369.13 294.26 368.92 287.47 368.92 293.67Z"
fill="black" stroke="black" stroke-width="0.2"/>
<path d="M369.13 294.26L369.13 286.87 368.92 287.47 369.13 294.26Z"
fill="black" stroke="black" stroke-width="0.2"/>
<path d="M369.13 294.26L369.38 294.84 369.13 286.87 369.13 294.26Z"
fill="black" stroke="black" stroke-width="0.2"/>
<path d="M369.38 294.84L369.38 286.29 369.13 286.87 369.38 294.84Z"
fill="black" stroke="black" stroke-width="0.2"/>
<path d="M369.38 294.84L369.66 295.4 369.38 286.29 369.38 294.84Z"
fill="black" stroke="black" stroke-width="0.2"/>
<path d="M369.66 295.4L369.66 285.73 369.38 286.29 369.66 295.4Z"
fill="black" stroke="black" stroke-width="0.2"/>
<path d="M369.66 295.4L369.97 295.95 369.66 285.73 369.66 295.4Z"
fill="black" stroke="black" stroke-width="0.2"/>
<path d="M369.97 295.95L369.97 285.18 369.66 285.73 369.97 295.95Z"
fill="black" stroke="black" stroke-width="0.2"/>
<path d="M369.97 295.95L370.32 296.47 369.97 285.18 369.97 295.95Z"
fill="black" stroke="black" stroke-width="0.2"/>
<path d="M370.32 296.47L370.32 284.66 369.97 285.18 370.32 296.47Z"
fill="black" stroke="black" stroke-width="0.2"/>
<path d="M370.32 296.47L370.7 296.97 370.32 284.66 370.32 296.47Z"
fill="black" stroke="black" stroke-width="0.2"/>
<path d="M370.7 296.97L370.7 284.16 370.32 284.66 370.7 296.97Z"
fill="black" stroke="black" stroke-width="0.2"/>
<path d="M370.7 296.97L371.11 297.45 370.7 284.16 370.7 296.97Z"
fill="black" stroke="black" stroke-width="0.2"/>
<path d="M371.11 297.45L371.11 283.68 370.7 284.16 371.11 297.45Z"
fill="black" stroke="black" stroke-width="0.2"/>
<path d="M371.11 297.45L371.55 297.9 371.11 283.68 371.11 297.45Z"
fill="black" stroke="black" stroke-width="0.2"/>
<path d="M371.55 297.9L371.55 283.23 371.11 283.68 371.55 297.9Z"
fill="black" stroke="black" stroke-width="0.2"/>
<path d="M371.55 297.9L372.01 298.33 371.55 283.23 371.55 297.9Z"
fill="black" stroke="black" stroke-width="0.2"/>
<path d="M372.01 298.33L372.01 282.8 371.55 283.23 372.01 298.33Z"
fill="black" stroke="black" stroke-width="0.2"/>
<path d="M372.01 298.33L372.5 298.72 372.01 282.8 372.01 298.33Z"
fill="black" stroke="black" stroke-width="0.2"/>
<path d="M372.5 298.72L372.5 282.41 372.01 282.8 372.5 298.72Z"
fill="black" stroke="black" stroke-width="0.2"/>
<path d="M372.5 298.72L373.02 299.09 372.5 282.41 372.5 298.72Z"
fill="black" stroke="black" stroke-width="0.2"/>
<path d="M373.02 299.09L373.02 282.05 372.5 282.41 373.02 299.09Z"
fill="black" stroke="black" stroke-width="0.2"/>
<path d="M373.02 299.09L373.55 299.42 373.02 282.05 373.02 299.09Z"
fill="black" stroke="black" stroke-width="0.2"/>
<path d="M373.55 299.42L373.55 281.71 373.02 282.05 373.55 299.42Z"
fill="black" stroke="black" stroke-width="0.2"/>
<path d="M373.55 299.42L374.11 299.72 373.55 281.71 373.55 299.42Z"
fill="black" stroke="black" stroke-width="0.2"/>
<path d="M374.11 299.72L374.11 281.42 373.55 281.71 374.11 299.72Z"
fill="black" stroke="black" stroke-width="0.2"/>
<path d="M374.11 299.72L374.68 299.98 374.11 281.42 374.11 299.72Z"
fill="black" stroke="black" stroke-width="0.2"/>
<path d="M374.68 299.98L374.68 281.15 374.11 281.42 374.68 299.98Z"
fill="black" stroke="black" stroke-width="0.2"/>
<path d="M374.68 299.98L375.27 300.21 374.68 281.15 374.68 299.98Z"
fill="black" stroke="black" stroke-width="0.2"/>
<path d="M375.27 300.21L375.27 280.93 374.68 281.15 375.27 300.21Z"
fill="black" stroke="black" stroke-width="0.2"/>
<path d="M375.27 300.21L375.87 300.4 375.27 280.93 375.27 300.21Z"
fill="black" stroke="black" stroke-width="0.2"/>
<path d="M375.87 300.4L375.87 280.73 375.27 280.93 375.87 300.4Z"
fill="black" stroke="black" stroke-width="0.2"/>
<path d="M375.87 300.4L376.48 300.55 375.87 280.73 375.87 300.4Z"
fill="black" stroke="black" stroke-width="0.2"/>
<path d="M376.48 300.55L376.48 280.58 375.87 280.73 376.48 300.55Z"
fill="black" stroke="black" stroke-width="0.2"/>
<path d="M376.48 300.55L377.09 300.67 376.48 280.58 376.48 300.55Z"
fill="black" stroke="black" stroke-width="0.2"/>
<path d="M377.09 300.67L377.09 280.47 376.48 280.58 377.09 300.67Z"
fill="black" stroke="black" stroke-width="0.2"/>
<path d="M377.09 300.67L377.72 300.74 377.09 280.47 377.09 300.67Z"
fill="black" stroke="black" stroke-width="0.2"/>
<path d="M377.72 300.74L377.72 280.39 377.09 280.47 377.72 300.74Z"
fill="black" stroke="black" stroke-width="0.2"/>
<path d="M377.72 300.74L378.35 300.78 377.72 280.39 377.72 300.74Z"
fill="black" stroke="black" stroke-width="0.2"/>
<path d="M378.35 300.78L378.35 280.35 377.72 280.39 378.35 300.78Z"
fill="black" stroke="black" stroke-width="0.2"/>
<path d="M378.35 300.78L378.98 300.78 378.35 280.35 378.35 300.78Z"
fill="black" stroke="black" stroke-width="0.2"/>
<path d="M378.98 300.78L378.98 280.35 378.35 280.35 378.98 300.78Z"
fill="black" stroke="black" stroke-width="0.2"/>
<path d="M378.98 300.78L379.61 300.74 378.98 280.35 378.98 300.78Z"
fill="black" stroke="black" stroke-width="0.2"/>
<path d="M379.61 300.74L379.61 280.39 378.98 280.35 379.61 300.74Z"
fill="black" stroke="black" stroke-width="0.2"/>
<path d="M379.61 300.74L380.23 300.67 379.61 280.39 379.61 300.74Z"
fill="black" stroke="black" stroke-width="0.2"/>
<path d="M380.23 300.67L380.23 280.47 379.61 280.39 380.23 300.67Z"
fill="black" stroke="black" stroke-width="0.2"/>
<path d="M380.23 300.67L380.85 300.55 380.23 280.47 380.23 300.67Z"
fill="black" stroke="black" stroke-width="0.2"/>
<path d="M380.85 300.55L380.85 280.58 380.23 280.47 380.85 300.55Z"
fill="black" stroke="black" stroke-width="0.2"/>
<path d="M380.85 300.55L381.46 300.4 380.85 280.58 380.85 300.55Z"
fill="black" stroke="black" stroke-width="0.2"/>
<path d="M381.46 300.4L381.46 280.73 380.85 280.58 381.46 300.4Z"
fill="black" stroke="black" stroke-width="0.2"/>
<path d="M381.46 300.4L382.06 300.21 381.46 280.73 381.46 300.4Z"
fill="black" stroke="black" stroke-width="0.2"/>
<path d="M382.06 300.21L382.06 280.93 381.46 280.73 382.06 300.21Z"
fill="black" stroke="black" stroke-width="0.2"/>
<path d="M382.06 300.21L382.65 299.98 382.06 280.93 382.06 300.21Z"
fill="black" stroke="black" stroke-width="0.2"/>
<path d="M382.65 299.98L382.65 281.15 382.06 280.93 382.65 299.98Z"
fill="black" stroke="black" stroke-width="0.2"/>
<path d="M382.65 299.98L383.22 299.72 382.65 281.15 382.65 299.98Z"
fill="black" stroke="black" stroke-width="0.2"/>
<path d="M383.22 299.72L383.22 281.42 382.65 281.15 383.22 299.72Z"
fill="black" stroke="black" stroke-width="0.2"/>
<path d="M383.22 299.72L383.77 299.42 383.22 281.42 383.22 299.72Z"
fill="black" stroke="black" stroke-width="0.2"/>
<path d="M383.77 299.42L383.77 281.71 383.22 281.42 383.77 299.42Z"
fill="black" stroke="black" stroke-width="0.2"/>
<path d="M383.77 299.42L384.31 299.09 383.77 281.71 383.77 299.42Z"
fill="black" stroke="black" stroke-width="0.2"/>
<path d="M384.31 299.09L384.31 282.05 383.77 281.71 384.31 299.09Z"
fill="black" stroke="black" stroke-width="0.2"/>
<path d="M384.31 299.09L384.82 298.72 384.31 282.05 384.31 299.09Z"
fill="black" stroke="black" stroke-width="0.2"/>
<path d="M384.82 298.72L384.82 282.41 384.31 282.05 384.82 298.72Z"
fill="black" stroke="black" stroke-width="0.2"/>
<path d="M384.82 298.72L385.31 298.33 384.82 282.41 384.82 298.72Z"
fill="black" stroke="black" stroke-width="0.2"/>
<path d="M385.31 298.33L385.31 282.8 384.82 282.41 385.31 298.33Z"
fill="black" stroke="black" stroke-width="0.2"/>
<path d="M385.31 298.33L385.78 297.9 385.31 282.8 385.31 298.33Z"
fill="black" stroke="black" stroke-width="0.2"/>
<path d="M385.78 297.9L385.78 283.23 385.31 282.8 385.78 297.9Z"
fill="black" stroke="black" stroke-width="0.2"/>
<path d="M385.78 297.9L386.22 297.45 385.78 283.23 385.78 297.9Z"
fill="black" stroke="black" stroke-width="0.2"/>
<path d="M386.22 297.45L386.22 283.68 385.78 283.23 386.22 297.45Z"
fill="black" stroke="black" stroke-width="0.2"/>
<path d="M386.22 297.45L386.63 296.97 386.22 283.68 386.22 297.45Z"
fill="black" stroke="black" stroke-width="0.2"/>
<path d="M386.63 296.97L386.63 284.16 386.22 283.68 386.63 296.97Z"
fill="black" stroke="black" stroke-width="0.2"/>
<path d="M386.63 296.97L387.01 296.47 386.63 284.16 386.63 296.97Z"
fill="black" stroke="black" stroke-width="0.2"/>
<path d="M387.01 296.47L387.01 284.66 386.63 284.16 387.01 296.47Z"
fill="black" stroke="black" stroke-width="0.2"/>
<path d="M387.01 296.47L387.35 295.95 387.01 284.66 387.01 296.47Z"
fill="black" stroke="black" stroke-width="0.2"/>
<path d="M387.35 295.95L387.35 285.18 387.01 284.66 387.35 295.95Z"
fill="black" stroke="black" stroke-width="0.2"/>
<path d="M387.35 295.95L387.67 295.4 387.35 285.18 387.35 295.95Z"
fill="black" stroke="black" stroke-width="0.2"/>
<path d="M387.67 295.4L387.67 285.73 387.35 285.18 387.67 295.4Z"
fill="black" stroke="black" stroke-width="0.2"/>
<path d="M387.67 295.4L387.95 294.84 387.67 285.73 387.67 295.4Z"
fill="black" stroke="black" stroke-width="0.2"/>
<path d="M387.95 294.84L387.95 286.29 387.67 285.73 387.95 294.84Z"
fill="black" stroke="black" stroke-width="0.2"/>
<path d="M387.95 294.84L388.19 294.26 387.95 286.29 387.95 294.84Z"
fill="black" stroke="black" stroke-width="0.2"/>
<path d="M388.19 294.26L388.19 286.87 387.95 286.29 388.19 294.26Z"
fill="black" stroke="black" stroke-width="0.2"/>
<path d="M388.19 294.26L388.4 293.67 388.19 286.87 388.19 294.26Z"
fill="black" stroke="black" stroke-width="0.2"/>
<path d="M388.4 293.67L388.4 287.47 388.19 286.87 388.4 293.67Z"
fill="black" stroke="black" stroke-width="0.2"/>
<path d="M388.4 293.67L388.58 293.06 388.4 287.47 388.4 293.67Z"
fill="black" stroke="black" stroke-width="0.2"/>
<path d="M388.58 293.06L388.58 288.07 388.4 287.47 388.58 293.06Z"
fill="black" stroke="black" stroke-width="0.2"/>
<path d="M388.58 293.06L388.71 292.44 388.58 288.07 388.58 293.06Z"
fill="black" stroke="black" stroke-width="0.2"/>
<path d="M388.71 292.44L388.71 288.69 388.58 288.07 388.71 292.44Z"
fill="black" stroke="black" stroke-width="0.2"/>
<path d="M388.71 292.44L388.81 291.82 388.71 288.69 388.71 292.44Z"
fill="black" stroke="black" stroke-width="0.2"/>
<path d="M388.81 291.82L388.81 289.31 388.71 288.69 388.81 291.82Z"
fill="black" stroke="black" stroke-width="0.2"/>
<path d="M388.81 291.82L388.87 291.2 388.81 289.31 388.81 291.82Z"
fill="black" stroke="black" stroke-width="0.2"/>
<path d="M388.87 291.2L388.87 289.94 388.81 289.31 388.87 291.2Z"
fill="black" stroke="black" stroke-width="0.2"/>
<path d="M388.87 291.2L388.88 290.57 388.87 289.94 388.87 291.2Z"
fill="black" stroke="black" stroke-width="0.2"/>
<path d="M388.88 290.57L388.69 292.56"
fill="none" stroke="black" stroke-width="0.5"/>
<path d="M388.69 292.56L388.11 294.48"
fill="none" stroke="black" stroke-width="0.5"/>
<path d="M388.11 294.48L387.16 296.25"
fill="none" stroke="black" stroke-width="0.5"/>
<path d="M387.16 296.25L385.89 297.79"
fill="none" stroke="black" stroke-width="0.5"/>
<path d="M385.89 297.79L384.34 299.07"
fill="none" stroke="black" stroke-width="0.5"/>
<path d="M384.34 299.07L382.57 300.01"
fill="none" stroke="black" stroke-width="0.5"/>
<path d="M382.57 300.01L380.66 300.59"
fill="none" stroke="black" stroke-width="0.5"/>
<path d="M380.66 300.59L378.66 300.79"
fill="none" stroke="black" stroke-width="0.5"/>
<path d="M378.66 300.79L376.67 300.59"
fill="none" stroke="black" stroke-width="0.5"/>
<path d="M376.67 300.59L374.75 300.01"
fill="none" stroke="black" stroke-width="0.5"/>
<path d="M374.75 300.01L372.98 299.07"
fill="none" stroke="black" stroke-width="0.5"/>
<path d="M372.98 299.07L371.43 297.79"
fill="none" stroke="black" stroke-width="0.5"/>
<path d="M371.43 297.79L370.16 296.25"
fill="none" stroke="black" stroke-width="0.5"/>
<path d="M370.16 296.25L369.22 294.48"
fill="none" stroke="black" stroke-width="0.5"/>
<path d="M369.22 294.48L368.64 292.56"
fill="none" stroke="black" stroke-width="0.5"/>
<path d="M368.64 292.56L368.44 290.57"
fill="none" stroke="black" stroke-width="0.5"/>
<path d="M368.44 290.57L368.64 288.57"
fill="none" stroke="black" stroke-width="0.5"/>
<path d="M368.64 288.57L369.22 286.65"
fill="none" stroke="black" stroke-width="0.5"/>
<path d="M369.22 286.65L370.16 284.89"
fill="none" stroke="black" stroke-width="0.5"/>
<path d="M370.16 284.89L371.43 283.34"
fill="none" stroke="black" stroke-width="0.5"/>
<path d="M371.43 283.34L372.98 282.07"
fill="none" stroke="black" stroke-width="0.5"/>
<path d="M372.98 282.07L374.75 281.12"
fill="none" stroke="black" stroke-width="0.5"/>
<path d="M374.75 281.12L376.67 280.54"
fill="none" stroke="black" stroke-width="0.5"/>
<path d="M376.67 280.54L378.66 280.34"
fill="none" stroke="black" stroke-width="0.5"/>
<path d="M378.66 280.34L380.66 280.54"
fill="none" stroke="black" stroke-width="0.5"/>
<path d="M380.66 280.54L382.57 281.12"
fill="none" stroke="black" stroke-width="0.5"/>
<path d="M382.57 281.12L384.34 282.07"
fill="none" stroke="black" stroke-width="0.5"/>
<path d="M384.34 282.07L385.89 283.34"
fill="none" stroke="black" stroke-width="0.5"/>
<path d="M385.89 283.34L387.16 284.89"
fill="none" stroke="black" stroke-width="0.5"/>
<path d="M387.16 284.89L388.11 286.65"
fill="none" stroke="black" stroke-width="0.5"/>
<path d="M388.11 286.65L388.69 288.57"
fill="none" stroke="black" stroke-width="0.5"/>
<path d="M388.69 288.57L388.88 290.57"
fill="none" stroke="black" stroke-width="0.5"/>
<path d="M411.31 291.2L411.31 289.94 411.29 290.57 411.31 291.2Z"
fill="black" stroke="black" stroke-width="0.2"/>
<path d="M411.31 291.2L411.37 291.82 411.31 289.94 411.31 291.2Z"
fill="black" stroke="black" stroke-width="0.2"/>
<path d="M411.37 291.82L411.37 289.31 411.31 289.94 411.37 291.82Z"
fill="black" stroke="black" stroke-width="0.2"/>
<path d="M411.37 291.82L411.47 292.44 411.37 289.31 411.37 291.82Z"
fill="black" stroke="black" stroke-width="0.2"/>
<path d="M411.47 292.44L411.47 288.69 411.37 289.31 411.47 292.44Z"
fill="black" stroke="black" stroke-width="0.2"/>
<path d="M411.47 292.44L411.6 293.06 411.47 288.69 411.47 292.44Z"
fill="black" stroke="black" stroke-width="0.2"/>
<path d="M411.6 293.06L411.6 288.07 411.47 288.69 411.6 293.06Z"
fill="black" stroke="black" stroke-width="0.2"/>
<path d="M411.6 293.06L411.78 293.67 411.6 288.07 411.6 293.06Z"
fill="black" stroke="black" stroke-width="0.2"/>
<path d="M411.78 293.67L411.78 287.47 411.6 288.07 411.78 293.67Z"
fill="black" stroke="black" stroke-width="0.2"/>
<path d="M411.78 293.67L411.98 294.26 411.78 287.47 411.78 293.67Z"
fill="black" stroke="black" stroke-width="0.2"/>
<path d="M411.98 294.26L411.98 286.87 411.78 287.47 411.98 294.26Z"
fill="black" stroke="black" stroke-width="0.2"/>
<path d="M411.98 294.26L412.23 294.84 411.98 286.87 411.98 294.26Z"
fill="black" stroke="black" stroke-width="0.2"/>
<path d="M412.23 294.84L412.23 286.29 411.98 286.87 412.23 294.84Z"
fill="black" stroke="black" stroke-width="0.2"/>
<path d="M412.23 294.84L412.51 295.4 412.23 286.29 412.23 294.84Z"
fill="black" stroke="black" stroke-width="0.2"/>
<path d="M412.51 295.4L412.51 285.73 412.23 286.29 412.51 295.4Z"
fill="black" stroke="black" stroke-width="0.2"/>
<path d="M412.51 295.4L412.83 295.95 412.51 285.73 412.51 295.4Z"
fill="black" stroke="black" stroke-width="0.2"/>
<path d="M412.83 295.95L412.83 285.18 412.51 285.73 412.83 295.95Z"
fill="black" stroke="black" stroke-width="0.2"/>
<path d="M412.83 295.95L413.17 296.47 412.83 285.18 412.83 295.95Z"
fill="black" stroke="black" stroke-width="0.2"/>
<path d="M413.17 296.47L413.17 284.66 412.83 285.18 413.17 296.47Z"
fill="black" stroke="black" stroke-width="0.2"/>
<path d="M413.17 296.47L413.55 296.97 413.17 284.66 413.17 296.47Z"
fill="black" stroke="black" stroke-width="0.2"/>
<path d="M413.55 296.97L413.55 284.16 413.17 284.66 413.55 296.97Z"
fill="black" stroke="black" stroke-width="0.2"/>
<path d="M413.55 296.97L413.96 297.45 413.55 284.16 413.55 296.97Z"
fill="black" stroke="black" stroke-width="0.2"/>
<path d="M413.96 297.45L413.96 283.68 413.55 284.16 413.96 297.45Z"
fill="black" stroke="black" stroke-width="0.2"/>
<path d="M413.96 297.45L414.4 297.9 413.96 283.68 413.96 297.45Z"
fill="black" stroke="black" stroke-width="0.2"/>
<path d="M414.4 297.9L414.4 283.23 413.96 283.68 414.4 297.9Z"
fill="black" stroke="black" stroke-width="0.2"/>
<path d="M414.4 297.9L414.87 298.33 414.4 283.23 414.4 297.9Z"
fill="black" stroke="black" stroke-width="0.2"/>
<path d="M414.87 298.33L414.87 282.8 414.4 283.23 414.87 298.33Z"
fill="black" stroke="black" stroke-width="0.2"/>
<path d="M414.87 298.33L415.36 298.72 414.87 282.8 414.87 298.33Z"
fill="black" stroke="black" stroke-width="0.2"/>
<path d="M415.36 298.72L415.36 282.41 414.87 282.8 415.36 298.72Z"
fill="black" stroke="black" stroke-width="0.2"/>
<path d="M415.36 298.72L415.87 299.09 415.36 282.41 415.36 298.72Z"
fill="black" stroke="black" stroke-width="0.2"/>
<path d="M415.87 299.09L415.87 282.05 415.36 282.41 415.87 299.09Z"
fill="black" stroke="black" stroke-width="0.2"/>
<path d="M415.87 299.09L416.41 299.42 415.87 282.05 415.87 299.09Z"
fill="black" stroke="black" stroke-width="0.2"/>
<path d="M416.41 299.42L416.41 281.71 415.87 282.05 416.41 299.42Z"
fill="black" stroke="black" stroke-width="0.2"/>
<path d="M416.41 299.42L416.96 299.72 416.41 281.71 416.41 299.42Z"
fill="black" stroke="black" stroke-width="0.2"/>
<path d="M416.96 299.72L416.96 281.42 416.41 281.71 416.96 299.72Z"
fill="black" stroke="black" stroke-width="0.2"/>
<path d="M416.96 299.72L417.53 299.98 416.96 281.42 416.96 299.72Z"
fill="black" stroke="black" stroke-width="0.2"/>
<path d="M417.53 299.98L417.53 281.15 416.96 281.42 417.53 299.98Z"
fill="black" stroke="black" stroke-width="0.2"/>
<path d="M417.53 299.98L418.12 300.21 417.53 281.15 417.53 299.98Z"
fill="black" stroke="black" stroke-width="0.2"/>
<path d="M418.12 300.21L418.12 280.93 417.53 281.15 418.12 300.21Z"
fill="black" stroke="black" stroke-width="0.2"/>
<path d="M418.12 300.21L418.72 300.4 418.12 280.93 418.12 300.21Z"
fill="black" stroke="black" stroke-width="0.2"/>
<path d="M418.72 300.4L418.72 280.73 418.12 280.93 418.72 300.4Z"
fill="black" stroke="black" stroke-width="0.2"/>
<path d="M418.72 300.4L419.33 300.55 418.72 280.73 418.72 300.4Z"
fill="black" stroke="black" stroke-width="0.2"/>
<path d="M419.33 300.55L419.33 280.58 418.72 280.73 419.33 300.55Z"
fill="black" stroke="black" stroke-width="0.2"/>
<path d="M419.33 300.55L419.95 300.67 419.33 280.58 419.33 300.55Z"
fill="black" stroke="black" stroke-width="0.2"/>
<path d="M419.95 300.67L419.95 280.47 419.33 280.58 419.95 300.67Z"
fill="black" stroke="black" stroke-width="0.2"/>
<path d="M419.95 300.67L420.57 300.74 419.95 280.47 419.95 300.67Z"
fill="black" stroke="black" stroke-width="0.2"/>
<path d="M420.57 300.74L420.57 280.39 419.95 280.47 420.57 300.74Z"
fill="black" stroke="black" stroke-width="0.2"/>
<path d="M420.57 300.74L421.2 300.78 420.57 280.39 420.57 300.74Z"
fill="black" stroke="black" stroke-width="0.2"/>
<path d="M421.2 300.78L421.2 280.35 420.57 280.39 421.2 300.78Z"
fill="black" stroke="black" stroke-width="0.2"/>
<path d="M421.2 300.78L421.83 300.78 421.2 280.35 421.2 300.78Z"
fill="black" stroke="black" stroke-width="0.2"/>
<path d="M421.83 300.78L421.83 280.35 421.2 280.35 421.83 300.78Z"
fill="black" stroke="black" stroke-width="0.2"/>
<path d="M421.83 300.78L422.46 300.74 421.83 280.35 421.83 300.78Z"
fill="black" stroke="black" stroke-width="0.2"/>
<path d="M422.46 300.74L422.46 280.39 421.83 280.35 422.46 300.74Z"
fill="black" stroke="black" stroke-width="0.2"/>
<path d="M422.46 300.74L423.08 300.67 422.46 280.39 422.46 300.74Z"
fill="black" stroke="black" stroke-width="0.2"/>
<path d="M423.08 300.67L423.08 280.47 422.46 280.39 423.08 300.67Z"
fill="black" stroke="black" stroke-width="0.2"/>
<path d="M423.08 300.67L423.7 300.55 423.08 280.47 423.08 300.67Z"
fill="black" stroke="black" stroke-width="0.2"/>
<path d="M423.7 300.55L423.7 280.58 423.08 280.47 423.7 300.55Z"
fill="black" stroke="black" stroke-width="0.2"/>
<path d="M423.7 300.55L424.31 300.4 423.7 280.58 423.7 300.55Z"
fill="black" stroke="black" stroke-width="0.2"/>
<path d="M424.31 300.4L424.31 280.73 423.7 280.58 424.31 300.4Z"
fill="black" stroke="black" stroke-width="0.2"/>
<path d="M424.31 300.4L424.91 300.21 424.31 280.73 424.31 300.4Z"
fill="black" stroke="black" stroke-width="0.2"/>
<path d="M424.91 300.21L424.91 280.93 424.31 280.73 424.91 300.21Z"
fill="black" stroke="black" stroke-width="0.2"/>
<path d="M424.91 300.21L425.5 299.98 424.91 280.93 424.91 300.21Z"
fill="black" stroke="black" stroke-width="0.2"/>
<path d="M425.5 299.98L425.5 281.15 424.91 280.93 425.5 299.98Z"
fill="black" stroke="black" stroke-width="0.2"/>
<path d="M425.5 299.98L426.07 299.72 425.5 281.15 425.5 299.98Z"
fill="black" stroke="black" stroke-width="0.2"/>
<path d="M426.07 299.72L426.07 281.42 425.5 281.15 426.07 299.72Z"
fill="black" stroke="black" stroke-width="0.2"/>
<path d="M426.07 299.72L426.63 299.42 426.07 281.42 426.07 299.72Z"
fill="black" stroke="black" stroke-width="0.2"/>
<path d="M426.63 299.42L426.63 281.71 426.07 281.42 426.63 299.42Z"
fill="black" stroke="black" stroke-width="0.2"/>
<path d="M426.63 299.42L427.16 299.09 426.63 281.71 426.63 299.42Z"
fill="black" stroke="black" stroke-width="0.2"/>
<path d="M427.16 299.09L427.16 282.05 426.63 281.71 427.16 299.09Z"
fill="black" stroke="black" stroke-width="0.2"/>
<path d="M427.16 299.09L427.68 298.72 427.16 282.05 427.16 299.09Z"
fill="black" stroke="black" stroke-width="0.2"/>
<path d="M427.68 298.72L427.68 282.41 427.16 282.05 427.68 298.72Z"
fill="black" stroke="black" stroke-width="0.2"/>
<path d="M427.68 298.72L428.17 298.33 427.68 282.41 427.68 298.72Z"
fill="black" stroke="black" stroke-width="0.2"/>
<path d="M428.17 298.33L428.17 282.8 427.68 282.41 428.17 298.33Z"
fill="black" stroke="black" stroke-width="0.2"/>
<path d="M428.17 298.33L428.63 297.9 428.17 282.8 428.17 298.33Z"
fill="black" stroke="black" stroke-width="0.2"/>
<path d="M428.63 297.9L428.63 283.23 428.17 282.8 428.63 297.9Z"
fill="black" stroke="black" stroke-width="0.2"/>
<path d="M428.63 297.9L429.07 297.45 428.63 283.23 428.63 297.9Z"
fill="black" stroke="black" stroke-width="0.2"/>
<path d="M429.07 297.45L429.07 283.68 428.63 283.23 429.07 297.45Z"
fill="black" stroke="black" stroke-width="0.2"/>
<path d="M429.07 297.45L429.48 296.97 429.07 283.68 429.07 297.45Z"
fill="black" stroke="black" stroke-width="0.2"/>
<path d="M429.48 296.97L429.48 284.16 429.07 283.68 429.48 296.97Z"
fill="black" stroke="black" stroke-width="0.2"/>
<path d="M429.48 296.97L429.86 296.47 429.48 284.16 429.48 296.97Z"
fill="black" stroke="black" stroke-width="0.2"/>
<path d="M429.86 296.47L429.86 284.66 429.48 284.16 429.86 296.47Z"
fill="black" stroke="black" stroke-width="0.2"/>
<path d="M429.86 296.47L430.21 295.95 429.86 284.66 429.86 296.47Z"
fill="black" stroke="black" stroke-width="0.2"/>
<path d="M430.21 295.95L430.21 285.18 429.86 284.66 430.21 295.95Z"
fill="black" stroke="black" stroke-width="0.2"/>
<path d="M430.21 295.95L430.52 295.4 430.21 285.18 430.21 295.95Z"
fill="black" stroke="black" stroke-width="0.2"/>
<path d="M430.52 295.4L430.52 285.73 430.21 285.18 430.52 295.4Z"
fill="black" stroke="black" stroke-width="0.2"/>
<path d="M430.52 295.4L430.8 294.84 430.52 285.73 430.52 295.4Z"
fill="black" stroke="black" stroke-width="0.2"/>
<path d="M430.8 294.84L430.8 286.29 430.52 285.73 430.8 294.84Z"
fill="black" stroke="black" stroke-width="0.2"/>
<path d="M430.8 294.84L431.05 294.26 430.8 286.29 430.8 294.84Z"
fill="black" stroke="black" stroke-width="0.2"/>
<path d="M431.05 294.26L431.05 286.87 430.8 286.29 431.05 294.26Z"
fill="black" stroke="black" stroke-width="0.2"/>
<path d="M431.05 294.26L431.26 293.67 431.05 286.87 431.05 294.26Z"
fill="black" stroke="black" stroke-width="0.2"/>
<path d="M431.26 293.67L431.26 287.47 431.05 286.87 431.26 293.67Z"
fill="black" stroke="black" stroke-width="0.2"/>
<path d="M431.26 293.67L431.43 293.06 431.26 287.47 431.26 293.67Z"
fill="black" stroke="black" stroke-width="0.2"/>
<path d="M431.43 293.06L431.43 288.07 431.26 287.47 431.43 293.06Z"
fill="black" stroke="black" stroke-width="0.2"/>
<path d="M431.43 293.06L431.56 292.44 431.43 288.07 431.43 293.06Z"
fill="black" stroke="black" stroke-width="0.2"/>
<path d="M431.56 292.44L431.56 288.69 431.43 288.07 431.56 292.44Z"
fill="black" stroke="black" stroke-width="0.2"/>
<path d="M431.56 292.44L431.66 291.82 431.56 288.69 431.56 292.44Z"
fill="black" stroke="black" stroke-width="0.2"/>
<path d="M431.66 291.82L431.66 289.31 431.56 288.69 431.66 291.82Z"
fill="black" stroke="black" stroke-width="0.2"/>
<path d="M431.66 291.82L431.72 291.2 431.66 289.31 431.66 291.82Z"
fill="black" stroke="black" stroke-width="0.2"/>
<path d="M431.72 291.2L431.72 289.94 431.66 289.31 431.72 291.2Z"
fill="black" stroke="black" stroke-width="0.2"/>
<path d="M431.72 291.2L431.74 290.57 431.72 289.94 431.72 291.2Z"
fill="black" stroke="black" stroke-width="0.2"/>
<path d="M431.74 290.57L431.54 292.56"
fill="none" stroke="black" stroke-width="0.5"/>
<path d="M431.54 292.56L430.96 294.48"
fill="none" stroke="black" stroke-width="0.5"/>
<path d="M430.96 294.48L430.02 296.25"
fill="none" stroke="black" stroke-width="0.5"/>
<path d="M430.02 296.25L428.74 297.79"
fill="none" stroke="black" stroke-width="0.5"/>
<path d="M428.74 297.79L427.2 299.07"
fill="none" stroke="black" stroke-width="0.5"/>
<path d="M427.2 299.07L425.43 300.01"
fill="none" stroke="black" stroke-width="0.5"/>
<path d="M425.43 300.01L423.51 300.59"
fill="none" stroke="black" stroke-width="0.5"/>
<path d="M423.51 300.59L421.52 300.79"
fill="none" stroke="black" stroke-width="0.5"/>
<path d="M421.52 300.79L419.52 300.59"
fill="none" stroke="black" stroke-width="0.5"/>
<path d="M419.52 300.59L417.6 300.01"
fill="none" stroke="black" stroke-width="0.5"/>
<path d="M417.6 300.01L415.84 299.07"
fill="none" stroke="black" stroke-width="0.5"/>
<path d="M415.84 299.07L414.29 297.79"
fill="none" stroke="black" stroke-width="0.5"/>
<path d="M414.29 297.79L413.02 296.25"
fill="none" stroke="black" stroke-width="0.5"/>
<path d="M413.02 296.25L412.07 294.48"
fill="none" stroke="black" stroke-width="0.5"/>
<path d="M412.07 294.48L411.49 292.56"
fill="none" stroke="black" stroke-width="0.5"/>
<path d="M411.49 292.56L411.29 290.57"
fill="none" stroke="black" stroke-width="0.5"/>
<path d="M411.29 290.57L411.49 288.57"
fill="none" stroke="black" stroke-width="0.5"/>
<path d="M411.49 288.57L412.07 286.65"
fill="none" stroke="black" stroke-width="0.5"/>
<path d="M412.07 286.65L413.02 284.89"
fill="none" stroke="black" stroke-width="0.5"/>
<path d="M413.02 284.89L414.29 283.34"
fill="none" stroke="black" stroke-width="0.5"/>
<path d="M414.29 283.34L415.84 282.07"
fill="none" stroke="black" stroke-width="0.5"/>
<path d="M415.84 282.07L417.6 281.12"
fill="none" stroke="black" stroke-width="0.5"/>
<path d="M417.6 281.12L419.52 280.54"
fill="none" stroke="black" stroke-width="0.5"/>
<path d="M419.52 280.54L421.52 280.34"
fill="none" stroke="black" stroke-width="0.5"/>
<path d="M421.52 280.34L423.51 280.54"
fill="none" stroke="black" stroke-width="0.5"/>
<path d="M423.51 280.54L425.43 281.12"
fill="none" stroke="black" stroke-width="0.5"/>
<path d="M425.43 281.12L427.2 282.07"
fill="none" stroke="black" stroke-width="0.5"/>
<path d="M427.2 282.07L428.74 283.34"
fill="none" stroke="black" stroke-width="0.5"/>
<path d="M428.74 283.34L430.02 284.89"
fill="none" stroke="black" stroke-width="0.5"/>
<path d="M430.02 284.89L430.96 286.65"
fill="none" stroke="black" stroke-width="0.5"/>
<path d="M430.96 286.65L431.54 288.57"
fill="none" stroke="black" stroke-width="0.5"/>
<path d="M431.54 288.57L431.74 290.57"
fill="none" stroke="black" stroke-width="0.5"/>
</svg>
