<?xml version="1.0" encoding="UTF-8"?>
<svg xmlns="http://www.w3.org/2000/svg" width="800.000" height="600.000" viewBox="0.0 0.0 800.000 600.000" version="1.1">
  <desc>Produce by Acme CAD Converter</desc>
<path d="M321.37 359.14L457.7 359.14"
fill="none" stroke="black" stroke-width="3.5"/>
<path d="M457.7 359.14L457.7 222.82Z"
fill="none" stroke="black" stroke-width="3.5"/>
<path d="M457.7 222.82L321.37 222.82"
fill="none" stroke="black" stroke-width="3.5"/>
<path d="M321.37 222.82L321.37 359.14Z"
fill="none" stroke="black" stroke-width="3.5"/>
<path d="M321.37 222.82L457.7 359.14"
fill="none" stroke="black" stroke-width="3.5"/>
<path d="M321.37 359.14L457.7 222.82"
fill="none" stroke="black" stroke-width="3.5"/>
<path d="M357.9 291.61L357.9 290.35 357.88 290.98 357.9 291.61Z"
fill="black" stroke="black" stroke-width="0.2"/>
<path d="M357.9 291.61L357.96 292.24 357.9 290.35 357.9 291.61Z"
fill="black" stroke="black" stroke-width="0.2"/>
<path d="M357.96 292.24L357.96 289.72 357.9 290.35 357.96 292.24Z"
fill="black" stroke="black" stroke-width="0.2"/>
<path d="M357.96 292.24L358.05 292.86 357.96 289.72 357.96 292.24Z"
fill="black" stroke="black" stroke-width="0.2"/>
<path d="M358.05 292.86L358.05 289.1 357.96 289.72 358.05 292.86Z"
fill="black" stroke="black" stroke-width="0.2"/>
<path d="M358.05 292.86L358.19 293.47 358.05 289.1 358.05 292.86Z"
fill="black" stroke="black" stroke-width="0.2"/>
<path d="M358.19 293.47L358.19 288.49 358.05 289.1 358.19 293.47Z"
fill="black" stroke="black" stroke-width="0.2"/>
<path d="M358.19 293.47L358.36 294.08 358.19 288.49 358.19 293.47Z"
fill="black" stroke="black" stroke-width="0.2"/>
<path d="M358.36 294.08L358.36 287.88 358.19 288.49 358.36 294.08Z"
fill="black" stroke="black" stroke-width="0.2"/>
<path d="M358.36 294.08L358.57 294.67 358.36 287.88 358.36 294.08Z"
fill="black" stroke="black" stroke-width="0.2"/>
<path d="M358.57 294.67L358.57 287.29 358.36 287.88 358.57 294.67Z"
fill="black" stroke="black" stroke-width="0.2"/>
<path d="M358.57 294.67L358.81 295.25 358.57 287.29 358.57 294.67Z"
fill="black" stroke="black" stroke-width="0.2"/>
<path d="M358.81 295.25L358.81 286.71 358.57 287.29 358.81 295.25Z"
fill="black" stroke="black" stroke-width="0.2"/>
<path d="M358.81 295.25L359.09 295.82 358.81 286.71 358.81 295.25Z"
fill="black" stroke="black" stroke-width="0.2"/>
<path d="M359.09 295.82L359.09 286.14 358.81 286.71 359.09 295.82Z"
fill="black" stroke="black" stroke-width="0.2"/>
<path d="M359.09 295.82L359.41 296.36 359.09 286.14 359.09 295.82Z"
fill="black" stroke="black" stroke-width="0.2"/>
<path d="M359.41 296.36L359.41 285.6 359.09 286.14 359.41 296.36Z"
fill="black" stroke="black" stroke-width="0.2"/>
<path d="M359.41 296.36L359.76 296.89 359.41 285.6 359.41 296.36Z"
fill="black" stroke="black" stroke-width="0.2"/>
<path d="M359.76 296.89L359.76 285.07 359.41 285.6 359.76 296.89Z"
fill="black" stroke="black" stroke-width="0.2"/>
<path d="M359.76 296.89L360.14 297.39 359.76 285.07 359.76 296.89Z"
fill="black" stroke="black" stroke-width="0.2"/>
<path d="M360.14 297.39L360.14 284.57 359.76 285.07 360.14 297.39Z"
fill="black" stroke="black" stroke-width="0.2"/>
<path d="M360.14 297.39L360.55 297.87 360.14 284.57 360.14 297.39Z"
fill="black" stroke="black" stroke-width="0.2"/>
<path d="M360.55 297.87L360.55 284.09 360.14 284.57 360.55 297.87Z"
fill="black" stroke="black" stroke-width="0.2"/>
<path d="M360.55 297.87L360.98 298.32 360.55 284.09 360.55 297.87Z"
fill="black" stroke="black" stroke-width="0.2"/>
<path d="M360.98 298.32L360.98 283.64 360.55 284.09 360.98 298.32Z"
fill="black" stroke="black" stroke-width="0.2"/>
<path d="M360.98 298.32L361.45 298.74 360.98 283.64 360.98 298.32Z"
fill="black" stroke="black" stroke-width="0.2"/>
<path d="M361.45 298.74L361.45 283.22 360.98 283.64 361.45 298.74Z"
fill="black" stroke="black" stroke-width="0.2"/>
<path d="M361.45 298.74L361.94 299.14 361.45 283.22 361.45 298.74Z"
fill="black" stroke="black" stroke-width="0.2"/>
<path d="M361.94 299.14L361.94 282.82 361.45 283.22 361.94 299.14Z"
fill="black" stroke="black" stroke-width="0.2"/>
<path d="M361.94 299.14L362.45 299.5 361.94 282.82 361.94 299.14Z"
fill="black" stroke="black" stroke-width="0.2"/>
<path d="M362.45 299.5L362.45 282.46 361.94 282.82 362.45 299.5Z"
fill="black" stroke="black" stroke-width="0.2"/>
<path d="M362.45 299.5L362.99 299.84 362.45 282.46 362.45 299.5Z"
fill="black" stroke="black" stroke-width="0.2"/>
<path d="M362.99 299.84L362.99 282.13 362.45 282.46 362.99 299.84Z"
fill="black" stroke="black" stroke-width="0.2"/>
<path d="M362.99 299.84L363.54 300.13 362.99 282.13 362.99 299.84Z"
fill="black" stroke="black" stroke-width="0.2"/>
<path d="M363.54 300.13L363.54 281.83 362.99 282.13 363.54 300.13Z"
fill="black" stroke="black" stroke-width="0.2"/>
<path d="M363.54 300.13L364.12 300.4 363.54 281.83 363.54 300.13Z"
fill="black" stroke="black" stroke-width="0.2"/>
<path d="M364.12 300.4L364.12 281.56 363.54 281.83 364.12 300.4Z"
fill="black" stroke="black" stroke-width="0.2"/>
<path d="M364.12 300.4L364.7 300.62 364.12 281.56 364.12 300.4Z"
fill="black" stroke="black" stroke-width="0.2"/>
<path d="M364.7 300.62L364.7 281.34 364.12 281.56 364.7 300.62Z"
fill="black" stroke="black" stroke-width="0.2"/>
<path d="M364.7 300.62L365.3 300.81 364.7 281.34 364.7 300.62Z"
fill="black" stroke="black" stroke-width="0.2"/>
<path d="M365.3 300.81L365.3 281.15 364.7 281.34 365.3 300.81Z"
fill="black" stroke="black" stroke-width="0.2"/>
<path d="M365.3 300.81L365.91 300.97 365.3 281.15 365.3 300.81Z"
fill="black" stroke="black" stroke-width="0.2"/>
<path d="M365.91 300.97L365.91 280.99 365.3 281.15 365.91 300.97Z"
fill="black" stroke="black" stroke-width="0.2"/>
<path d="M365.91 300.97L366.53 301.08 365.91 280.99 365.91 300.97Z"
fill="black" stroke="black" stroke-width="0.2"/>
<path d="M366.53 301.08L366.53 280.88 365.91 280.99 366.53 301.08Z"
fill="black" stroke="black" stroke-width="0.2"/>
<path d="M366.53 301.08L367.16 301.16 366.53 280.88 366.53 301.08Z"
fill="black" stroke="black" stroke-width="0.2"/>
<path d="M367.16 301.16L367.16 280.8 366.53 280.88 367.16 301.16Z"
fill="black" stroke="black" stroke-width="0.2"/>
<path d="M367.16 301.16L367.79 301.2 367.16 280.8 367.16 301.16Z"
fill="black" stroke="black" stroke-width="0.2"/>
<path d="M367.79 301.2L367.79 280.76 367.16 280.8 367.79 301.2Z"
fill="black" stroke="black" stroke-width="0.2"/>
<path d="M367.79 301.2L368.42 301.2 367.79 280.76 367.79 301.2Z"
fill="black" stroke="black" stroke-width="0.2"/>
<path d="M368.42 301.2L368.42 280.76 367.79 280.76 368.42 301.2Z"
fill="black" stroke="black" stroke-width="0.2"/>
<path d="M368.42 301.2L369.05 301.16 368.42 280.76 368.42 301.2Z"
fill="black" stroke="black" stroke-width="0.2"/>
<path d="M369.05 301.16L369.05 280.8 368.42 280.76 369.05 301.16Z"
fill="black" stroke="black" stroke-width="0.2"/>
<path d="M369.05 301.16L369.67 301.08 369.05 280.8 369.05 301.16Z"
fill="black" stroke="black" stroke-width="0.2"/>
<path d="M369.67 301.08L369.67 280.88 369.05 280.8 369.67 301.08Z"
fill="black" stroke="black" stroke-width="0.2"/>
<path d="M369.67 301.08L370.29 300.97 369.67 280.88 369.67 301.08Z"
fill="black" stroke="black" stroke-width="0.2"/>
<path d="M370.29 300.97L370.29 280.99 369.67 280.88 370.29 300.97Z"
fill="black" stroke="black" stroke-width="0.2"/>
<path d="M370.29 300.97L370.9 300.81 370.29 280.99 370.29 300.97Z"
fill="black" stroke="black" stroke-width="0.2"/>
<path d="M370.9 300.81L370.9 281.15 370.29 280.99 370.9 300.81Z"
fill="black" stroke="black" stroke-width="0.2"/>
<path d="M370.9 300.81L371.5 300.62 370.9 281.15 370.9 300.81Z"
fill="black" stroke="black" stroke-width="0.2"/>
<path d="M371.5 300.62L371.5 281.34 370.9 281.15 371.5 300.62Z"
fill="black" stroke="black" stroke-width="0.2"/>
<path d="M371.5 300.62L372.09 300.4 371.5 281.34 371.5 300.62Z"
fill="black" stroke="black" stroke-width="0.2"/>
<path d="M372.09 300.4L372.09 281.56 371.5 281.34 372.09 300.4Z"
fill="black" stroke="black" stroke-width="0.2"/>
<path d="M372.09 300.4L372.66 300.13 372.09 281.56 372.09 300.4Z"
fill="black" stroke="black" stroke-width="0.2"/>
<path d="M372.66 300.13L372.66 281.83 372.09 281.56 372.66 300.13Z"
fill="black" stroke="black" stroke-width="0.2"/>
<path d="M372.66 300.13L373.21 299.84 372.66 281.83 372.66 300.13Z"
fill="black" stroke="black" stroke-width="0.2"/>
<path d="M373.21 299.84L373.21 282.13 372.66 281.83 373.21 299.84Z"
fill="black" stroke="black" stroke-width="0.2"/>
<path d="M373.21 299.84L373.75 299.5 373.21 282.13 373.21 299.84Z"
fill="black" stroke="black" stroke-width="0.2"/>
<path d="M373.75 299.5L373.75 282.46 373.21 282.13 373.75 299.5Z"
fill="black" stroke="black" stroke-width="0.2"/>
<path d="M373.75 299.5L374.26 299.14 373.75 282.46 373.75 299.5Z"
fill="black" stroke="black" stroke-width="0.2"/>
<path d="M374.26 299.14L374.26 282.82 373.75 282.46 374.26 299.14Z"
fill="black" stroke="black" stroke-width="0.2"/>
<path d="M374.26 299.14L374.75 298.74 374.26 282.82 374.26 299.14Z"
fill="black" stroke="black" stroke-width="0.2"/>
<path d="M374.75 298.74L374.75 283.22 374.26 282.82 374.75 298.74Z"
fill="black" stroke="black" stroke-width="0.2"/>
<path d="M374.75 298.74L375.22 298.32 374.75 283.22 374.75 298.74Z"
fill="black" stroke="black" stroke-width="0.2"/>
<path d="M375.22 298.32L375.22 283.64 374.75 283.22 375.22 298.32Z"
fill="black" stroke="black" stroke-width="0.2"/>
<path d="M375.22 298.32L375.66 297.87 375.22 283.64 375.22 298.32Z"
fill="black" stroke="black" stroke-width="0.2"/>
<path d="M375.66 297.87L375.66 284.09 375.22 283.64 375.66 297.87Z"
fill="black" stroke="black" stroke-width="0.2"/>
<path d="M375.66 297.87L376.07 297.39 375.66 284.09 375.66 297.87Z"
fill="black" stroke="black" stroke-width="0.2"/>
<path d="M376.07 297.39L376.07 284.57 375.66 284.09 376.07 297.39Z"
fill="black" stroke="black" stroke-width="0.2"/>
<path d="M376.07 297.39L376.45 296.89 376.07 284.57 376.07 297.39Z"
fill="black" stroke="black" stroke-width="0.2"/>
<path d="M376.45 296.89L376.45 285.07 376.07 284.57 376.45 296.89Z"
fill="black" stroke="black" stroke-width="0.2"/>
<path d="M376.45 296.89L376.8 296.36 376.45 285.07 376.45 296.89Z"
fill="black" stroke="black" stroke-width="0.2"/>
<path d="M376.8 296.36L376.8 285.6 376.45 285.07 376.8 296.36Z"
fill="black" stroke="black" stroke-width="0.2"/>
<path d="M376.8 296.36L377.11 295.82 376.8 285.6 376.8 296.36Z"
fill="black" stroke="black" stroke-width="0.2"/>
<path d="M377.11 295.82L377.11 286.14 376.8 285.6 377.11 295.82Z"
fill="black" stroke="black" stroke-width="0.2"/>
<path d="M377.11 295.82L377.39 295.25 377.11 286.14 377.11 295.82Z"
fill="black" stroke="black" stroke-width="0.2"/>
<path d="M377.39 295.25L377.39 286.71 377.11 286.14 377.39 295.25Z"
fill="black" stroke="black" stroke-width="0.2"/>
<path d="M377.39 295.25L377.64 294.67 377.39 286.71 377.39 295.25Z"
fill="black" stroke="black" stroke-width="0.2"/>
<path d="M377.64 294.67L377.64 287.29 377.39 286.71 377.64 294.67Z"
fill="black" stroke="black" stroke-width="0.2"/>
<path d="M377.64 294.67L377.85 294.08 377.64 287.29 377.64 294.67Z"
fill="black" stroke="black" stroke-width="0.2"/>
<path d="M377.85 294.08L377.85 287.88 377.64 287.29 377.85 294.08Z"
fill="black" stroke="black" stroke-width="0.2"/>
<path d="M377.85 294.08L378.02 293.47 377.85 287.88 377.85 294.08Z"
fill="black" stroke="black" stroke-width="0.2"/>
<path d="M378.02 293.47L378.02 288.49 377.85 287.88 378.02 293.47Z"
fill="black" stroke="black" stroke-width="0.2"/>
<path d="M378.02 293.47L378.15 292.86 378.02 288.49 378.02 293.47Z"
fill="black" stroke="black" stroke-width="0.2"/>
<path d="M378.15 292.86L378.15 289.1 378.02 288.49 378.15 292.86Z"
fill="black" stroke="black" stroke-width="0.2"/>
<path d="M378.15 292.86L378.25 292.24 378.15 289.1 378.15 292.86Z"
fill="black" stroke="black" stroke-width="0.2"/>
<path d="M378.25 292.24L378.25 289.72 378.15 289.1 378.25 292.24Z"
fill="black" stroke="black" stroke-width="0.2"/>
<path d="M378.25 292.24L378.31 291.61 378.25 289.72 378.25 292.24Z"
fill="black" stroke="black" stroke-width="0.2"/>
<path d="M378.31 291.61L378.31 290.35 378.25 289.72 378.31 291.61Z"
fill="black" stroke="black" stroke-width="0.2"/>
<path d="M378.31 291.61L378.33 290.98 378.31 290.35 378.31 291.61Z"
fill="black" stroke="black" stroke-width="0.2"/>
<path d="M378.33 290.98L378.13 292.98"
fill="none" stroke="black" stroke-width="3.5"/>
<path d="M378.13 292.98L377.55 294.89"
fill="none" stroke="black" stroke-width="3.5"/>
<path d="M377.55 294.89L376.6 296.66"
fill="none" stroke="black" stroke-width="3.5"/>
<path d="M376.6 296.66L375.33 298.21"
fill="none" stroke="black" stroke-width="3.5"/>
<path d="M375.33 298.21L373.78 299.48"
fill="none" stroke="black" stroke-width="3.5"/>
<path d="M373.78 299.48L372.02 300.43"
fill="none" stroke="black" stroke-width="3.5"/>
<path d="M372.02 300.43L370.1 301.01"
fill="none" stroke="black" stroke-width="3.5"/>
<path d="M370.1 301.01L368.1 301.2"
fill="none" stroke="black" stroke-width="3.5"/>
<path d="M368.1 301.2L366.11 301.01"
fill="none" stroke="black" stroke-width="3.5"/>
<path d="M366.11 301.01L364.19 300.43"
fill="none" stroke="black" stroke-width="3.5"/>
<path d="M364.19 300.43L362.42 299.48"
fill="none" stroke="black" stroke-width="3.5"/>
<path d="M362.42 299.48L360.87 298.21"
fill="none" stroke="black" stroke-width="3.5"/>
<path d="M360.87 298.21L359.6 296.66"
fill="none" stroke="black" stroke-width="3.5"/>
<path d="M359.6 296.66L358.66 294.89"
fill="none" stroke="black" stroke-width="3.5"/>
<path d="M358.66 294.89L358.07 292.98"
fill="none" stroke="black" stroke-width="3.5"/>
<path d="M358.07 292.98L357.88 290.98"
fill="none" stroke="black" stroke-width="3.5"/>
<path d="M357.88 290.98L358.07 288.99"
fill="none" stroke="black" stroke-width="3.5"/>
<path d="M358.07 288.99L358.66 287.07"
fill="none" stroke="black" stroke-width="3.5"/>
<path d="M358.66 287.07L359.6 285.3"
fill="none" stroke="black" stroke-width="3.5"/>
<path d="M359.6 285.3L360.87 283.75"
fill="none" stroke="black" stroke-width="3.5"/>
<path d="M360.87 283.75L362.42 282.48"
fill="none" stroke="black" stroke-width="3.5"/>
<path d="M362.42 282.48L364.19 281.53"
fill="none" stroke="black" stroke-width="3.5"/>
<path d="M364.19 281.53L366.11 280.95"
fill="none" stroke="black" stroke-width="3.5"/>
<path d="M366.11 280.95L368.1 280.76"
fill="none" stroke="black" stroke-width="3.5"/>
<path d="M368.1 280.76L370.1 280.95"
fill="none" stroke="black" stroke-width="3.5"/>
<path d="M370.1 280.95L372.02 281.53"
fill="none" stroke="black" stroke-width="3.5"/>
<path d="M372.02 281.53L373.78 282.48"
fill="none" stroke="black" stroke-width="3.5"/>
<path d="M373.78 282.48L375.33 283.75"
fill="none" stroke="black" stroke-width="3.5"/>
<path d="M375.33 283.75L376.6 285.3"
fill="none" stroke="black" stroke-width="3.5"/>
<path d="M376.6 285.3L377.55 287.07"
fill="none" stroke="black" stroke-width="3.5"/>
<path d="M377.55 287.07L378.13 288.99"
fill="none" stroke="black" stroke-width="3.5"/>
<path d="M378.13 288.99L378.33 290.98"
fill="none" stroke="black" stroke-width="3.5"/>
<path d="M400.76 291.61L400.76 290.35 400.74 290.98 400.76 291.61Z"
fill="black" stroke="black" stroke-width="0.2"/>
<path d="M400.76 291.61L400.82 292.24 400.76 290.35 400.76 291.61Z"
fill="black" stroke="black" stroke-width="0.2"/>
<path d="M400.82 292.24L400.82 289.72 400.76 290.35 400.82 292.24Z"
fill="black" stroke="black" stroke-width="0.2"/>
<path d="M400.82 292.24L400.92 292.86 400.82 289.72 400.82 292.24Z"
fill="black" stroke="black" stroke-width="0.2"/>
<path d="M400.92 292.86L400.92 289.1 400.82 289.72 400.92 292.86Z"
fill="black" stroke="black" stroke-width="0.2"/>
<path d="M400.92 292.86L401.05 293.47 400.92 289.1 400.92 292.86Z"
fill="black" stroke="black" stroke-width="0.2"/>
<path d="M401.05 293.47L401.05 288.49 400.92 289.1 401.05 293.47Z"
fill="black" stroke="black" stroke-width="0.2"/>
<path d="M401.05 293.47L401.22 294.08 401.05 288.49 401.05 293.47Z"
fill="black" stroke="black" stroke-width="0.2"/>
<path d="M401.22 294.08L401.22 287.88 401.05 288.49 401.22 294.08Z"
fill="black" stroke="black" stroke-width="0.2"/>
<path d="M401.22 294.08L401.43 294.67 401.22 287.88 401.22 294.08Z"
fill="black" stroke="black" stroke-width="0.2"/>
<path d="M401.43 294.67L401.43 287.29 401.22 287.88 401.43 294.67Z"
fill="black" stroke="black" stroke-width="0.2"/>
<path d="M401.43 294.67L401.68 295.25 401.43 287.29 401.43 294.67Z"
fill="black" stroke="black" stroke-width="0.2"/>
<path d="M401.68 295.25L401.68 286.71 401.43 287.29 401.68 295.25Z"
fill="black" stroke="black" stroke-width="0.2"/>
<path d="M401.68 295.25L401.96 295.82 401.68 286.71 401.68 295.25Z"
fill="black" stroke="black" stroke-width="0.2"/>
<path d="M401.96 295.82L401.96 286.14 401.68 286.71 401.96 295.82Z"
fill="black" stroke="black" stroke-width="0.2"/>
<path d="M401.96 295.82L402.27 296.36 401.96 286.14 401.96 295.82Z"
fill="black" stroke="black" stroke-width="0.2"/>
<path d="M402.27 296.36L402.27 285.6 401.96 286.14 402.27 296.36Z"
fill="black" stroke="black" stroke-width="0.2"/>
<path d="M402.27 296.36L402.62 296.89 402.27 285.6 402.27 296.36Z"
fill="black" stroke="black" stroke-width="0.2"/>
<path d="M402.62 296.89L402.62 285.07 402.27 285.6 402.62 296.89Z"
fill="black" stroke="black" stroke-width="0.2"/>
<path d="M402.62 296.89L403 297.39 402.62 285.07 402.62 296.89Z"
fill="black" stroke="black" stroke-width="0.2"/>
<path d="M403 297.39L403 284.57 402.62 285.07 403 297.39Z"
fill="black" stroke="black" stroke-width="0.2"/>
<path d="M403 297.39L403.41 297.87 403 284.57 403 297.39Z"
fill="black" stroke="black" stroke-width="0.2"/>
<path d="M403.41 297.87L403.41 284.09 403 284.57 403.41 297.87Z"
fill="black" stroke="black" stroke-width="0.2"/>
<path d="M403.41 297.87L403.85 298.32 403.41 284.09 403.41 297.87Z"
fill="black" stroke="black" stroke-width="0.2"/>
<path d="M403.85 298.32L403.85 283.64 403.41 284.09 403.85 298.32Z"
fill="black" stroke="black" stroke-width="0.2"/>
<path d="M403.85 298.32L404.31 298.74 403.85 283.64 403.85 298.32Z"
fill="black" stroke="black" stroke-width="0.2"/>
<path d="M404.31 298.74L404.31 283.22 403.85 283.64 404.31 298.74Z"
fill="black" stroke="black" stroke-width="0.2"/>
<path d="M404.31 298.74L404.8 299.14 404.31 283.22 404.31 298.74Z"
fill="black" stroke="black" stroke-width="0.2"/>
<path d="M404.8 299.14L404.8 282.82 404.31 283.22 404.8 299.14Z"
fill="black" stroke="black" stroke-width="0.2"/>
<path d="M404.8 299.14L405.32 299.5 404.8 282.82 404.8 299.14Z"
fill="black" stroke="black" stroke-width="0.2"/>
<path d="M405.32 299.5L405.32 282.46 404.8 282.82 405.32 299.5Z"
fill="black" stroke="black" stroke-width="0.2"/>
<path d="M405.32 299.5L405.85 299.84 405.32 282.46 405.32 299.5Z"
fill="black" stroke="black" stroke-width="0.2"/>
<path d="M405.85 299.84L405.85 282.13 405.32 282.46 405.85 299.84Z"
fill="black" stroke="black" stroke-width="0.2"/>
<path d="M405.85 299.84L406.41 300.13 405.85 282.13 405.85 299.84Z"
fill="black" stroke="black" stroke-width="0.2"/>
<path d="M406.41 300.13L406.41 281.83 405.85 282.13 406.41 300.13Z"
fill="black" stroke="black" stroke-width="0.2"/>
<path d="M406.41 300.13L406.98 300.4 406.41 281.83 406.41 300.13Z"
fill="black" stroke="black" stroke-width="0.2"/>
<path d="M406.98 300.4L406.98 281.56 406.41 281.83 406.98 300.4Z"
fill="black" stroke="black" stroke-width="0.2"/>
<path d="M406.98 300.4L407.57 300.62 406.98 281.56 406.98 300.4Z"
fill="black" stroke="black" stroke-width="0.2"/>
<path d="M407.57 300.62L407.57 281.34 406.98 281.56 407.57 300.62Z"
fill="black" stroke="black" stroke-width="0.2"/>
<path d="M407.57 300.62L408.17 300.81 407.57 281.34 407.57 300.62Z"
fill="black" stroke="black" stroke-width="0.2"/>
<path d="M408.17 300.81L408.17 281.15 407.57 281.34 408.17 300.81Z"
fill="black" stroke="black" stroke-width="0.2"/>
<path d="M408.17 300.81L408.78 300.97 408.17 281.15 408.17 300.81Z"
fill="black" stroke="black" stroke-width="0.2"/>
<path d="M408.78 300.97L408.78 280.99 408.17 281.15 408.78 300.97Z"
fill="black" stroke="black" stroke-width="0.2"/>
<path d="M408.78 300.97L409.4 301.08 408.78 280.99 408.78 300.97Z"
fill="black" stroke="black" stroke-width="0.2"/>
<path d="M409.4 301.08L409.4 280.88 408.78 280.99 409.4 301.08Z"
fill="black" stroke="black" stroke-width="0.2"/>
<path d="M409.4 301.08L410.02 301.16 409.4 280.88 409.4 301.08Z"
fill="black" stroke="black" stroke-width="0.2"/>
<path d="M410.02 301.16L410.02 280.8 409.4 280.88 410.02 301.16Z"
fill="black" stroke="black" stroke-width="0.2"/>
<path d="M410.02 301.16L410.65 301.2 410.02 280.8 410.02 301.16Z"
fill="black" stroke="black" stroke-width="0.2"/>
<path d="M410.65 301.2L410.65 280.76 410.02 280.8 410.65 301.2Z"
fill="black" stroke="black" stroke-width="0.2"/>
<path d="M410.65 301.2L411.28 301.2 410.65 280.76 410.65 301.2Z"
fill="black" stroke="black" stroke-width="0.2"/>
<path d="M411.28 301.2L411.28 280.76 410.65 280.76 411.28 301.2Z"
fill="black" stroke="black" stroke-width="0.2"/>
<path d="M411.28 301.2L411.91 301.16 411.28 280.76 411.28 301.2Z"
fill="black" stroke="black" stroke-width="0.2"/>
<path d="M411.91 301.16L411.91 280.8 411.28 280.76 411.91 301.16Z"
fill="black" stroke="black" stroke-width="0.2"/>
<path d="M411.91 301.16L412.53 301.08 411.91 280.8 411.91 301.16Z"
fill="black" stroke="black" stroke-width="0.2"/>
<path d="M412.53 301.08L412.53 280.88 411.91 280.8 412.53 301.08Z"
fill="black" stroke="black" stroke-width="0.2"/>
<path d="M412.53 301.08L413.15 300.97 412.53 280.88 412.53 301.08Z"
fill="black" stroke="black" stroke-width="0.2"/>
<path d="M413.15 300.97L413.15 280.99 412.53 280.88 413.15 300.97Z"
fill="black" stroke="black" stroke-width="0.2"/>
<path d="M413.15 300.97L413.76 300.81 413.15 280.99 413.15 300.97Z"
fill="black" stroke="black" stroke-width="0.2"/>
<path d="M413.76 300.81L413.76 281.15 413.15 280.99 413.76 300.81Z"
fill="black" stroke="black" stroke-width="0.2"/>
<path d="M413.76 300.81L414.36 300.62 413.76 281.15 413.76 300.81Z"
fill="black" stroke="black" stroke-width="0.2"/>
<path d="M414.36 300.62L414.36 281.34 413.76 281.15 414.36 300.62Z"
fill="black" stroke="black" stroke-width="0.2"/>
<path d="M414.36 300.62L414.95 300.4 414.36 281.34 414.36 300.62Z"
fill="black" stroke="black" stroke-width="0.2"/>
<path d="M414.95 300.4L414.95 281.56 414.36 281.34 414.95 300.4Z"
fill="black" stroke="black" stroke-width="0.2"/>
<path d="M414.95 300.4L415.52 300.13 414.95 281.56 414.95 300.4Z"
fill="black" stroke="black" stroke-width="0.2"/>
<path d="M415.52 300.13L415.52 281.83 414.95 281.56 415.52 300.13Z"
fill="black" stroke="black" stroke-width="0.2"/>
<path d="M415.52 300.13L416.08 299.84 415.52 281.83 415.52 300.13Z"
fill="black" stroke="black" stroke-width="0.2"/>
<path d="M416.08 299.84L416.08 282.13 415.52 281.83 416.08 299.84Z"
fill="black" stroke="black" stroke-width="0.2"/>
<path d="M416.08 299.84L416.61 299.5 416.08 282.13 416.08 299.84Z"
fill="black" stroke="black" stroke-width="0.2"/>
<path d="M416.61 299.5L416.61 282.46 416.08 282.13 416.61 299.5Z"
fill="black" stroke="black" stroke-width="0.2"/>
<path d="M416.61 299.5L417.13 299.14 416.61 282.46 416.61 299.5Z"
fill="black" stroke="black" stroke-width="0.2"/>
<path d="M417.13 299.14L417.13 282.82 416.61 282.46 417.13 299.14Z"
fill="black" stroke="black" stroke-width="0.2"/>
<path d="M417.13 299.14L417.62 298.74 417.13 282.82 417.13 299.14Z"
fill="black" stroke="black" stroke-width="0.2"/>
<path d="M417.62 298.74L417.62 283.22 417.13 282.82 417.62 298.74Z"
fill="black" stroke="black" stroke-width="0.2"/>
<path d="M417.62 298.74L418.08 298.32 417.62 283.22 417.62 298.74Z"
fill="black" stroke="black" stroke-width="0.2"/>
<path d="M418.08 298.32L418.08 283.64 417.62 283.22 418.08 298.32Z"
fill="black" stroke="black" stroke-width="0.2"/>
<path d="M418.08 298.32L418.52 297.87 418.08 283.64 418.08 298.32Z"
fill="black" stroke="black" stroke-width="0.2"/>
<path d="M418.52 297.87L418.52 284.09 418.08 283.64 418.52 297.87Z"
fill="black" stroke="black" stroke-width="0.2"/>
<path d="M418.52 297.87L418.93 297.39 418.52 284.09 418.52 297.87Z"
fill="black" stroke="black" stroke-width="0.2"/>
<path d="M418.93 297.39L418.93 284.57 418.52 284.09 418.93 297.39Z"
fill="black" stroke="black" stroke-width="0.2"/>
<path d="M418.93 297.39L419.31 296.89 418.93 284.57 418.93 297.39Z"
fill="black" stroke="black" stroke-width="0.2"/>
<path d="M419.31 296.89L419.31 285.07 418.93 284.57 419.31 296.89Z"
fill="black" stroke="black" stroke-width="0.2"/>
<path d="M419.31 296.89L419.66 296.36 419.31 285.07 419.31 296.89Z"
fill="black" stroke="black" stroke-width="0.2"/>
<path d="M419.66 296.36L419.66 285.6 419.31 285.07 419.66 296.36Z"
fill="black" stroke="black" stroke-width="0.2"/>
<path d="M419.66 296.36L419.97 295.82 419.66 285.6 419.66 296.36Z"
fill="black" stroke="black" stroke-width="0.2"/>
<path d="M419.97 295.82L419.97 286.14 419.66 285.6 419.97 295.82Z"
fill="black" stroke="black" stroke-width="0.2"/>
<path d="M419.97 295.82L420.25 295.25 419.97 286.14 419.97 295.82Z"
fill="black" stroke="black" stroke-width="0.2"/>
<path d="M420.25 295.25L420.25 286.71 419.97 286.14 420.25 295.25Z"
fill="black" stroke="black" stroke-width="0.2"/>
<path d="M420.25 295.25L420.5 294.67 420.25 286.71 420.25 295.25Z"
fill="black" stroke="black" stroke-width="0.2"/>
<path d="M420.5 294.67L420.5 287.29 420.25 286.71 420.5 294.67Z"
fill="black" stroke="black" stroke-width="0.2"/>
<path d="M420.5 294.67L420.71 294.08 420.5 287.29 420.5 294.67Z"
fill="black" stroke="black" stroke-width="0.2"/>
<path d="M420.71 294.08L420.71 287.88 420.5 287.29 420.71 294.08Z"
fill="black" stroke="black" stroke-width="0.2"/>
<path d="M420.71 294.08L420.88 293.47 420.71 287.88 420.71 294.08Z"
fill="black" stroke="black" stroke-width="0.2"/>
<path d="M420.88 293.47L420.88 288.49 420.71 287.88 420.88 293.47Z"
fill="black" stroke="black" stroke-width="0.2"/>
<path d="M420.88 293.47L421.02 292.86 420.88 288.49 420.88 293.47Z"
fill="black" stroke="black" stroke-width="0.2"/>
<path d="M421.02 292.86L421.02 289.1 420.88 288.49 421.02 292.86Z"
fill="black" stroke="black" stroke-width="0.2"/>
<path d="M421.02 292.86L421.11 292.24 421.02 289.1 421.02 292.86Z"
fill="black" stroke="black" stroke-width="0.2"/>
<path d="M421.11 292.24L421.11 289.72 421.02 289.1 421.11 292.24Z"
fill="black" stroke="black" stroke-width="0.2"/>
<path d="M421.11 292.24L421.17 291.61 421.11 289.72 421.11 292.24Z"
fill="black" stroke="black" stroke-width="0.2"/>
<path d="M421.17 291.61L421.17 290.35 421.11 289.72 421.17 291.61Z"
fill="black" stroke="black" stroke-width="0.2"/>
<path d="M421.17 291.61L421.19 290.98 421.17 290.35 421.17 291.61Z"
fill="black" stroke="black" stroke-width="0.2"/>
<path d="M421.19 290.98L420.99 292.98"
fill="none" stroke="black" stroke-width="3.5"/>
<path d="M420.99 292.98L420.41 294.89"
fill="none" stroke="black" stroke-width="3.5"/>
<path d="M420.41 294.89L419.47 296.66"
fill="none" stroke="black" stroke-width="3.5"/>
<path d="M419.47 296.66L418.2 298.21"
fill="none" stroke="black" stroke-width="3.5"/>
<path d="M418.2 298.21L416.65 299.48"
fill="none" stroke="black" stroke-width="3.5"/>
<path d="M416.65 299.48L414.88 300.43"
fill="none" stroke="black" stroke-width="3.5"/>
<path d="M414.88 300.43L412.96 301.01"
fill="none" stroke="black" stroke-width="3.5"/>
<path d="M412.96 301.01L410.97 301.2"
fill="none" stroke="black" stroke-width="3.5"/>
<path d="M410.97 301.2L408.97 301.01"
fill="none" stroke="black" stroke-width="3.5"/>
<path d="M408.97 301.01L407.05 300.43"
fill="none" stroke="black" stroke-width="3.5"/>
<path d="M407.05 300.43L405.29 299.48"
fill="none" stroke="black" stroke-width="3.5"/>
<path d="M405.29 299.48L403.74 298.21"
fill="none" stroke="black" stroke-width="3.5"/>
<path d="M403.74 298.21L402.46 296.66"
fill="none" stroke="black" stroke-width="3.5"/>
<path d="M402.46 296.66L401.52 294.89"
fill="none" stroke="black" stroke-width="3.5"/>
<path d="M401.52 294.89L400.94 292.98"
fill="none" stroke="black" stroke-width="3.5"/>
<path d="M400.94 292.98L400.74 290.98"
fill="none" stroke="black" stroke-width="3.5"/>
<path d="M400.74 290.98L400.94 288.99"
fill="none" stroke="black" stroke-width="3.5"/>
<path d="M400.94 288.99L401.52 287.07"
fill="none" stroke="black" stroke-width="3.5"/>
<path d="M401.52 287.07L402.46 285.3"
fill="none" stroke="black" stroke-width="3.5"/>
<path d="M402.46 285.3L403.74 283.75"
fill="none" stroke="black" stroke-width="3.5"/>
<path d="M403.74 283.75L405.29 282.48"
fill="none" stroke="black" stroke-width="3.5"/>
<path d="M405.29 282.48L407.05 281.53"
fill="none" stroke="black" stroke-width="3.5"/>
<path d="M407.05 281.53L408.97 280.95"
fill="none" stroke="black" stroke-width="3.5"/>
<path d="M408.97 280.95L410.97 280.76"
fill="none" stroke="black" stroke-width="3.5"/>
<path d="M410.97 280.76L412.96 280.95"
fill="none" stroke="black" stroke-width="3.5"/>
<path d="M412.96 280.95L414.88 281.53"
fill="none" stroke="black" stroke-width="3.5"/>
<path d="M414.88 281.53L416.65 282.48"
fill="none" stroke="black" stroke-width="3.5"/>
<path d="M416.65 282.48L418.2 283.75"
fill="none" stroke="black" stroke-width="3.5"/>
<path d="M418.2 283.75L419.47 285.3"
fill="none" stroke="black" stroke-width="3.5"/>
<path d="M419.47 285.3L420.41 287.07"
fill="none" stroke="black" stroke-width="3.5"/>
<path d="M420.41 287.07L420.99 288.99"
fill="none" stroke="black" stroke-width="3.5"/>
<path d="M420.99 288.99L421.19 290.98"
fill="none" stroke="black" stroke-width="3.5"/>
</svg>
