<?xml version="1.0" encoding="UTF-8"?>
<svg xmlns="http://www.w3.org/2000/svg" width="800.000" height="600.000" viewBox="0.0 0.0 800.000 600.000" version="1.1">
  <desc>Produce by Acme CAD Converter</desc>
<path d="M504.69 333.81L504.49 341.07"
fill="none" stroke="black" stroke-width="0.5"/>
<path d="M504.49 341.07L503.9 348.31"
fill="none" stroke="black" stroke-width="0.5"/>
<path d="M503.9 348.31L502.92 355.51"
fill="none" stroke="black" stroke-width="0.5"/>
<path d="M502.92 355.51L501.55 362.64"
fill="none" stroke="black" stroke-width="0.5"/>
<path d="M501.55 362.64L499.8 369.69"
fill="none" stroke="black" stroke-width="0.5"/>
<path d="M499.8 369.69L497.66 376.63"
fill="none" stroke="black" stroke-width="0.5"/>
<path d="M497.66 376.63L495.16 383.45"
fill="none" stroke="black" stroke-width="0.5"/>
<path d="M495.16 383.45L492.29 390.13"
fill="none" stroke="black" stroke-width="0.5"/>
<path d="M492.29 390.13L489.06 396.63"
fill="none" stroke="black" stroke-width="0.5"/>
<path d="M489.06 396.63L485.49 402.96"
fill="none" stroke="black" stroke-width="0.5"/>
<path d="M485.49 402.96L481.57 409.08"
fill="none" stroke="black" stroke-width="0.5"/>
<path d="M481.57 409.08L477.34 414.98"
fill="none" stroke="black" stroke-width="0.5"/>
<path d="M477.34 414.98L472.78 420.64"
fill="none" stroke="black" stroke-width="0.5"/>
<path d="M472.78 420.64L467.93 426.05"
fill="none" stroke="black" stroke-width="0.5"/>
<path d="M467.93 426.05L462.8 431.18"
fill="none" stroke="black" stroke-width="0.5"/>
<path d="M462.8 431.18L457.39 436.03"
fill="none" stroke="black" stroke-width="0.5"/>
<path d="M457.39 436.03L451.73 440.59"
fill="none" stroke="black" stroke-width="0.5"/>
<path d="M451.73 440.59L445.83 444.82"
fill="none" stroke="black" stroke-width="0.5"/>
<path d="M445.83 444.82L439.71 448.74"
fill="none" stroke="black" stroke-width="0.5"/>
<path d="M439.71 448.74L433.38 452.31"
fill="none" stroke="black" stroke-width="0.5"/>
<path d="M433.38 452.31L426.88 455.54"
fill="none" stroke="black" stroke-width="0.5"/>
<path d="M426.88 455.54L420.2 458.41"
fill="none" stroke="black" stroke-width="0.5"/>
<path d="M420.2 458.41L413.38 460.91"
fill="none" stroke="black" stroke-width="0.5"/>
<path d="M413.38 460.91L406.44 463.05"
fill="none" stroke="black" stroke-width="0.5"/>
<path d="M406.44 463.05L399.39 464.8"
fill="none" stroke="black" stroke-width="0.5"/>
<path d="M399.39 464.8L392.26 466.17"
fill="none" stroke="black" stroke-width="0.5"/>
<path d="M392.26 466.17L385.06 467.15"
fill="none" stroke="black" stroke-width="0.5"/>
<path d="M385.06 467.15L377.82 467.74"
fill="none" stroke="black" stroke-width="0.5"/>
<path d="M377.82 467.74L370.56 467.94"
fill="none" stroke="black" stroke-width="0.5"/>
<path d="M370.56 467.94L363.29 467.74"
fill="none" stroke="black" stroke-width="0.5"/>
<path d="M363.29 467.74L356.05 467.15"
fill="none" stroke="black" stroke-width="0.5"/>
<path d="M356.05 467.15L348.86 466.17"
fill="none" stroke="black" stroke-width="0.5"/>
<path d="M348.86 466.17L341.72 464.8"
fill="none" stroke="black" stroke-width="0.5"/>
<path d="M341.72 464.8L334.67 463.05"
fill="none" stroke="black" stroke-width="0.5"/>
<path d="M334.67 463.05L327.73 460.91"
fill="none" stroke="black" stroke-width="0.5"/>
<path d="M327.73 460.91L320.91 458.41"
fill="none" stroke="black" stroke-width="0.5"/>
<path d="M320.91 458.41L314.24 455.54"
fill="none" stroke="black" stroke-width="0.5"/>
<path d="M314.24 455.54L307.73 452.31"
fill="none" stroke="black" stroke-width="0.5"/>
<path d="M307.73 452.31L301.4 448.74"
fill="none" stroke="black" stroke-width="0.5"/>
<path d="M301.4 448.74L295.28 444.82"
fill="none" stroke="black" stroke-width="0.5"/>
<path d="M295.28 444.82L289.38 440.59"
fill="none" stroke="black" stroke-width="0.5"/>
<path d="M289.38 440.59L283.72 436.03"
fill="none" stroke="black" stroke-width="0.5"/>
<path d="M283.72 436.03L278.31 431.18"
fill="none" stroke="black" stroke-width="0.5"/>
<path d="M278.31 431.18L273.18 426.05"
fill="none" stroke="black" stroke-width="0.5"/>
<path d="M273.18 426.05L268.33 420.64"
fill="none" stroke="black" stroke-width="0.5"/>
<path d="M268.33 420.64L263.78 414.98"
fill="none" stroke="black" stroke-width="0.5"/>
<path d="M263.78 414.98L259.54 409.08"
fill="none" stroke="black" stroke-width="0.5"/>
<path d="M259.54 409.08L255.63 402.96"
fill="none" stroke="black" stroke-width="0.5"/>
<path d="M255.63 402.96L252.05 396.63"
fill="none" stroke="black" stroke-width="0.5"/>
<path d="M252.05 396.63L248.82 390.13"
fill="none" stroke="black" stroke-width="0.5"/>
<path d="M248.82 390.13L245.95 383.45"
fill="none" stroke="black" stroke-width="0.5"/>
<path d="M245.95 383.45L243.45 376.63"
fill="none" stroke="black" stroke-width="0.5"/>
<path d="M243.45 376.63L241.32 369.69"
fill="none" stroke="black" stroke-width="0.5"/>
<path d="M241.32 369.69L239.56 362.64"
fill="none" stroke="black" stroke-width="0.5"/>
<path d="M239.56 362.64L238.19 355.51"
fill="none" stroke="black" stroke-width="0.5"/>
<path d="M238.19 355.51L237.21 348.31"
fill="none" stroke="black" stroke-width="0.5"/>
<path d="M237.21 348.31L236.62 341.07"
fill="none" stroke="black" stroke-width="0.5"/>
<path d="M236.62 341.07L236.43 333.81"
fill="none" stroke="black" stroke-width="0.5"/>
<path d="M236.43 333.81L236.62 326.54"
fill="none" stroke="black" stroke-width="0.5"/>
<path d="M236.62 326.54L237.21 319.3"
fill="none" stroke="black" stroke-width="0.5"/>
<path d="M237.21 319.3L238.19 312.11"
fill="none" stroke="black" stroke-width="0.5"/>
<path d="M238.19 312.11L239.56 304.97"
fill="none" stroke="black" stroke-width="0.5"/>
<path d="M239.56 304.97L241.32 297.92"
fill="none" stroke="black" stroke-width="0.5"/>
<path d="M241.32 297.92L243.45 290.98"
fill="none" stroke="black" stroke-width="0.5"/>
<path d="M243.45 290.98L245.95 284.16"
fill="none" stroke="black" stroke-width="0.5"/>
<path d="M245.95 284.16L248.82 277.49"
fill="none" stroke="black" stroke-width="0.5"/>
<path d="M248.82 277.49L252.05 270.98"
fill="none" stroke="black" stroke-width="0.5"/>
<path d="M252.05 270.98L255.63 264.66"
fill="none" stroke="black" stroke-width="0.5"/>
<path d="M255.63 264.66L259.54 258.53"
fill="none" stroke="black" stroke-width="0.5"/>
<path d="M259.54 258.53L263.78 252.63"
fill="none" stroke="black" stroke-width="0.5"/>
<path d="M263.78 252.63L268.33 246.97"
fill="none" stroke="black" stroke-width="0.5"/>
<path d="M268.33 246.97L273.18 241.57"
fill="none" stroke="black" stroke-width="0.5"/>
<path d="M273.18 241.57L278.31 236.43"
fill="none" stroke="black" stroke-width="0.5"/>
<path d="M278.31 236.43L283.72 231.58"
fill="none" stroke="black" stroke-width="0.5"/>
<path d="M283.72 231.58L289.38 227.03"
fill="none" stroke="black" stroke-width="0.5"/>
<path d="M289.38 227.03L295.28 222.79"
fill="none" stroke="black" stroke-width="0.5"/>
<path d="M295.28 222.79L301.4 218.88"
fill="none" stroke="black" stroke-width="0.5"/>
<path d="M301.4 218.88L307.73 215.3"
fill="none" stroke="black" stroke-width="0.5"/>
<path d="M307.73 215.3L314.24 212.07"
fill="none" stroke="black" stroke-width="0.5"/>
<path d="M314.24 212.07L320.91 209.2"
fill="none" stroke="black" stroke-width="0.5"/>
<path d="M320.91 209.2L327.73 206.7"
fill="none" stroke="black" stroke-width="0.5"/>
<path d="M327.73 206.7L334.67 204.57"
fill="none" stroke="black" stroke-width="0.5"/>
<path d="M334.67 204.57L341.72 202.81"
fill="none" stroke="black" stroke-width="0.5"/>
<path d="M341.72 202.81L348.86 201.44"
fill="none" stroke="black" stroke-width="0.5"/>
<path d="M348.86 201.44L356.05 200.46"
fill="none" stroke="black" stroke-width="0.5"/>
<path d="M356.05 200.46L363.29 199.87"
fill="none" stroke="black" stroke-width="0.5"/>
<path d="M363.29 199.87L370.56 199.68"
fill="none" stroke="black" stroke-width="0.5"/>
<path d="M370.56 199.68L377.82 199.87"
fill="none" stroke="black" stroke-width="0.5"/>
<path d="M377.82 199.87L385.06 200.46"
fill="none" stroke="black" stroke-width="0.5"/>
<path d="M385.06 200.46L392.26 201.44"
fill="none" stroke="black" stroke-width="0.5"/>
<path d="M392.26 201.44L399.39 202.81"
fill="none" stroke="black" stroke-width="0.5"/>
<path d="M399.39 202.81L406.44 204.57"
fill="none" stroke="black" stroke-width="0.5"/>
<path d="M406.44 204.57L413.38 206.7"
fill="none" stroke="black" stroke-width="0.5"/>
<path d="M413.38 206.7L420.2 209.2"
fill="none" stroke="black" stroke-width="0.5"/>
<path d="M420.2 209.2L426.88 212.07"
fill="none" stroke="black" stroke-width="0.5"/>
<path d="M426.88 212.07L433.38 215.3"
fill="none" stroke="black" stroke-width="0.5"/>
<path d="M433.38 215.3L439.71 218.88"
fill="none" stroke="black" stroke-width="0.5"/>
<path d="M439.71 218.88L445.83 222.79"
fill="none" stroke="black" stroke-width="0.5"/>
<path d="M445.83 222.79L451.73 227.03"
fill="none" stroke="black" stroke-width="0.5"/>
<path d="M451.73 227.03L457.39 231.58"
fill="none" stroke="black" stroke-width="0.5"/>
<path d="M457.39 231.58L462.8 236.43"
fill="none" stroke="black" stroke-width="0.5"/>
<path d="M462.8 236.43L467.93 241.57"
fill="none" stroke="black" stroke-width="0.5"/>
<path d="M467.93 241.57L472.78 246.97"
fill="none" stroke="black" stroke-width="0.5"/>
<path d="M472.78 246.97L477.34 252.63"
fill="none" stroke="black" stroke-width="0.5"/>
<path d="M477.34 252.63L481.57 258.53"
fill="none" stroke="black" stroke-width="0.5"/>
<path d="M481.57 258.53L485.49 264.66"
fill="none" stroke="black" stroke-width="0.5"/>
<path d="M485.49 264.66L489.06 270.98"
fill="none" stroke="black" stroke-width="0.5"/>
<path d="M489.06 270.98L492.29 277.49"
fill="none" stroke="black" stroke-width="0.5"/>
<path d="M492.29 277.49L495.16 284.16"
fill="none" stroke="black" stroke-width="0.5"/>
<path d="M495.16 284.16L497.66 290.98"
fill="none" stroke="black" stroke-width="0.5"/>
<path d="M497.66 290.98L499.8 297.92"
fill="none" stroke="black" stroke-width="0.5"/>
<path d="M499.8 297.92L501.55 304.97"
fill="none" stroke="black" stroke-width="0.5"/>
<path d="M501.55 304.97L502.92 312.11"
fill="none" stroke="black" stroke-width="0.5"/>
<path d="M502.92 312.11L503.9 319.3"
fill="none" stroke="black" stroke-width="0.5"/>
<path d="M503.9 319.3L504.49 326.54"
fill="none" stroke="black" stroke-width="0.5"/>
<path d="M504.49 326.54L504.69 333.81"
fill="none" stroke="black" stroke-width="0.5"/>
<path d="M275.71 428.65L465.4 238.96"
fill="none" stroke="black" stroke-width="0.5"/>
</svg>
