<?xml version="1.0" encoding="UTF-8"?>
<svg xmlns="http://www.w3.org/2000/svg" width="800.000" height="600.000" viewBox="0.0 0.0 800.000 600.000" version="1.1">
  <desc>Produce by Acme CAD Converter</desc>
<path d="M380.24 280.37L380.24 280.37Z"
fill="none" stroke="black" stroke-width="0.5"/>
<path d="M447.97 280.37L447.77 285.55"
fill="none" stroke="black" stroke-width="0.5"/>
<path d="M447.77 285.55L447.18 290.71"
fill="none" stroke="black" stroke-width="0.5"/>
<path d="M447.18 290.71L446.19 295.8"
fill="none" stroke="black" stroke-width="0.5"/>
<path d="M446.19 295.8L444.81 300.8"
fill="none" stroke="black" stroke-width="0.5"/>
<path d="M444.81 300.8L443.06 305.69"
fill="none" stroke="black" stroke-width="0.5"/>
<path d="M443.06 305.69L440.94 310.42"
fill="none" stroke="black" stroke-width="0.5"/>
<path d="M440.94 310.42L438.46 314.98"
fill="none" stroke="black" stroke-width="0.5"/>
<path d="M438.46 314.98L435.64 319.33"
fill="none" stroke="black" stroke-width="0.5"/>
<path d="M435.64 319.33L432.49 323.46"
fill="none" stroke="black" stroke-width="0.5"/>
<path d="M432.49 323.46L429.04 327.33"
fill="none" stroke="black" stroke-width="0.5"/>
<path d="M429.04 327.33L425.3 330.93"
fill="none" stroke="black" stroke-width="0.5"/>
<path d="M425.3 330.93L421.3 334.23"
fill="none" stroke="black" stroke-width="0.5"/>
<path d="M421.3 334.23L417.06 337.22"
fill="none" stroke="black" stroke-width="0.5"/>
<path d="M417.06 337.22L412.6 339.87"
fill="none" stroke="black" stroke-width="0.5"/>
<path d="M412.6 339.87L407.95 342.17"
fill="none" stroke="black" stroke-width="0.5"/>
<path d="M407.95 342.17L403.13 344.11"
fill="none" stroke="black" stroke-width="0.5"/>
<path d="M403.13 344.11L398.19 345.68"
fill="none" stroke="black" stroke-width="0.5"/>
<path d="M398.19 345.68L393.14 346.86"
fill="none" stroke="black" stroke-width="0.5"/>
<path d="M393.14 346.86L388.01 347.65"
fill="none" stroke="black" stroke-width="0.5"/>
<path d="M388.01 347.65L382.83 348.05"
fill="none" stroke="black" stroke-width="0.5"/>
<path d="M382.83 348.05L377.65 348.05"
fill="none" stroke="black" stroke-width="0.5"/>
<path d="M377.65 348.05L372.47 347.65"
fill="none" stroke="black" stroke-width="0.5"/>
<path d="M372.47 347.65L367.35 346.86"
fill="none" stroke="black" stroke-width="0.5"/>
<path d="M367.35 346.86L362.29 345.68"
fill="none" stroke="black" stroke-width="0.5"/>
<path d="M362.29 345.68L357.35 344.11"
fill="none" stroke="black" stroke-width="0.5"/>
<path d="M357.35 344.11L352.53 342.17"
fill="none" stroke="black" stroke-width="0.5"/>
<path d="M352.53 342.17L347.89 339.87"
fill="none" stroke="black" stroke-width="0.5"/>
<path d="M347.89 339.87L343.43 337.22"
fill="none" stroke="black" stroke-width="0.5"/>
<path d="M343.43 337.22L339.18 334.23"
fill="none" stroke="black" stroke-width="0.5"/>
<path d="M339.18 334.23L335.18 330.93"
fill="none" stroke="black" stroke-width="0.5"/>
<path d="M335.18 330.93L331.44 327.33"
fill="none" stroke="black" stroke-width="0.5"/>
<path d="M331.44 327.33L327.99 323.46"
fill="none" stroke="black" stroke-width="0.5"/>
<path d="M327.99 323.46L324.84 319.33"
fill="none" stroke="black" stroke-width="0.5"/>
<path d="M324.84 319.33L322.02 314.98"
fill="none" stroke="black" stroke-width="0.5"/>
<path d="M322.02 314.98L319.54 310.42"
fill="none" stroke="black" stroke-width="0.5"/>
<path d="M319.54 310.42L317.42 305.69"
fill="none" stroke="black" stroke-width="0.5"/>
<path d="M317.42 305.69L315.67 300.8"
fill="none" stroke="black" stroke-width="0.5"/>
<path d="M315.67 300.8L314.29 295.8"
fill="none" stroke="black" stroke-width="0.5"/>
<path d="M314.29 295.8L313.31 290.71"
fill="none" stroke="black" stroke-width="0.5"/>
<path d="M313.31 290.71L312.71 285.55"
fill="none" stroke="black" stroke-width="0.5"/>
<path d="M312.71 285.55L312.51 280.37"
fill="none" stroke="black" stroke-width="0.5"/>
<path d="M312.51 280.37L312.71 275.18"
fill="none" stroke="black" stroke-width="0.5"/>
<path d="M312.71 275.18L313.31 270.03"
fill="none" stroke="black" stroke-width="0.5"/>
<path d="M313.31 270.03L314.29 264.94"
fill="none" stroke="black" stroke-width="0.5"/>
<path d="M314.29 264.94L315.67 259.93"
fill="none" stroke="black" stroke-width="0.5"/>
<path d="M315.67 259.93L317.42 255.05"
fill="none" stroke="black" stroke-width="0.5"/>
<path d="M317.42 255.05L319.54 250.32"
fill="none" stroke="black" stroke-width="0.5"/>
<path d="M319.54 250.32L322.02 245.76"
fill="none" stroke="black" stroke-width="0.5"/>
<path d="M322.02 245.76L324.84 241.4"
fill="none" stroke="black" stroke-width="0.5"/>
<path d="M324.84 241.4L327.99 237.28"
fill="none" stroke="black" stroke-width="0.5"/>
<path d="M327.99 237.28L331.44 233.4"
fill="none" stroke="black" stroke-width="0.5"/>
<path d="M331.44 233.4L335.18 229.8"
fill="none" stroke="black" stroke-width="0.5"/>
<path d="M335.18 229.8L339.18 226.5"
fill="none" stroke="black" stroke-width="0.5"/>
<path d="M339.18 226.5L343.43 223.52"
fill="none" stroke="black" stroke-width="0.5"/>
<path d="M343.43 223.52L347.89 220.87"
fill="none" stroke="black" stroke-width="0.5"/>
<path d="M347.89 220.87L352.53 218.57"
fill="none" stroke="black" stroke-width="0.5"/>
<path d="M352.53 218.57L357.35 216.63"
fill="none" stroke="black" stroke-width="0.5"/>
<path d="M357.35 216.63L362.29 215.06"
fill="none" stroke="black" stroke-width="0.5"/>
<path d="M362.29 215.06L367.35 213.88"
fill="none" stroke="black" stroke-width="0.5"/>
<path d="M367.35 213.88L372.47 213.09"
fill="none" stroke="black" stroke-width="0.5"/>
<path d="M372.47 213.09L377.65 212.69"
fill="none" stroke="black" stroke-width="0.5"/>
<path d="M377.65 212.69L382.83 212.69"
fill="none" stroke="black" stroke-width="0.5"/>
<path d="M382.83 212.69L388.01 213.09"
fill="none" stroke="black" stroke-width="0.5"/>
<path d="M388.01 213.09L393.14 213.88"
fill="none" stroke="black" stroke-width="0.5"/>
<path d="M393.14 213.88L398.19 215.06"
fill="none" stroke="black" stroke-width="0.5"/>
<path d="M398.19 215.06L403.13 216.63"
fill="none" stroke="black" stroke-width="0.5"/>
<path d="M403.13 216.63L407.95 218.57"
fill="none" stroke="black" stroke-width="0.5"/>
<path d="M407.95 218.57L412.6 220.87"
fill="none" stroke="black" stroke-width="0.5"/>
<path d="M412.6 220.87L417.06 223.52"
fill="none" stroke="black" stroke-width="0.5"/>
<path d="M417.06 223.52L421.3 226.5"
fill="none" stroke="black" stroke-width="0.5"/>
<path d="M421.3 226.5L425.3 229.8"
fill="none" stroke="black" stroke-width="0.5"/>
<path d="M425.3 229.8L429.04 233.4"
fill="none" stroke="black" stroke-width="0.5"/>
<path d="M429.04 233.4L432.49 237.28"
fill="none" stroke="black" stroke-width="0.5"/>
<path d="M432.49 237.28L435.64 241.4"
fill="none" stroke="black" stroke-width="0.5"/>
<path d="M435.64 241.4L438.46 245.76"
fill="none" stroke="black" stroke-width="0.5"/>
<path d="M438.46 245.76L440.94 250.32"
fill="none" stroke="black" stroke-width="0.5"/>
<path d="M440.94 250.32L443.06 255.05"
fill="none" stroke="black" stroke-width="0.5"/>
<path d="M443.06 255.05L444.81 259.93"
fill="none" stroke="black" stroke-width="0.5"/>
<path d="M444.81 259.93L446.19 264.94"
fill="none" stroke="black" stroke-width="0.5"/>
<path d="M446.19 264.94L447.18 270.03"
fill="none" stroke="black" stroke-width="0.5"/>
<path d="M447.18 270.03L447.77 275.18"
fill="none" stroke="black" stroke-width="0.5"/>
<path d="M447.77 275.18L447.97 280.37"
fill="none" stroke="black" stroke-width="0.5"/>
<path d="M380.24 348.1L447.97 348.1"
fill="none" stroke="black" stroke-width="0.5"/>
</svg>
