<?xml version="1.0" encoding="UTF-8"?>
<svg xmlns="http://www.w3.org/2000/svg" width="800.000" height="600.000" viewBox="0.0 0.0 800.000 600.000" version="1.1">
  <desc>Produce by Acme CAD Converter</desc>
<path d="M436.49 261.68L436.29 267.46"
fill="none" stroke="black" stroke-width="3.5"/>
<path d="M436.29 267.46L435.7 273.22"
fill="none" stroke="black" stroke-width="3.5"/>
<path d="M435.7 273.22L434.7 278.92"
fill="none" stroke="black" stroke-width="3.5"/>
<path d="M434.7 278.92L433.32 284.54"
fill="none" stroke="black" stroke-width="3.5"/>
<path d="M433.32 284.54L431.55 290.06"
fill="none" stroke="black" stroke-width="3.5"/>
<path d="M431.55 290.06L429.4 295.43"
fill="none" stroke="black" stroke-width="3.5"/>
<path d="M429.4 295.43L426.89 300.65"
fill="none" stroke="black" stroke-width="3.5"/>
<path d="M426.89 300.65L424.02 305.68"
fill="none" stroke="black" stroke-width="3.5"/>
<path d="M424.02 305.68L420.82 310.5"
fill="none" stroke="black" stroke-width="3.5"/>
<path d="M420.82 310.5L417.29 315.08"
fill="none" stroke="black" stroke-width="3.5"/>
<path d="M417.29 315.08L413.45 319.42"
fill="none" stroke="black" stroke-width="3.5"/>
<path d="M413.45 319.42L409.32 323.47"
fill="none" stroke="black" stroke-width="3.5"/>
<path d="M409.32 323.47L404.92 327.24"
fill="none" stroke="black" stroke-width="3.5"/>
<path d="M404.92 327.24L400.27 330.69"
fill="none" stroke="black" stroke-width="3.5"/>
<path d="M400.27 330.69L395.4 333.81"
fill="none" stroke="black" stroke-width="3.5"/>
<path d="M395.4 333.81L390.32 336.59"
fill="none" stroke="black" stroke-width="3.5"/>
<path d="M390.32 336.59L385.06 339.01"
fill="none" stroke="black" stroke-width="3.5"/>
<path d="M385.06 339.01L379.65 341.06"
fill="none" stroke="black" stroke-width="3.5"/>
<path d="M379.65 341.06L374.11 342.74"
fill="none" stroke="black" stroke-width="3.5"/>
<path d="M374.11 342.74L368.47 344.02"
fill="none" stroke="black" stroke-width="3.5"/>
<path d="M368.47 344.02L362.75 344.92"
fill="none" stroke="black" stroke-width="3.5"/>
<path d="M362.75 344.92L356.98 345.42"
fill="none" stroke="black" stroke-width="3.5"/>
<path d="M356.98 345.42L351.19 345.52"
fill="none" stroke="black" stroke-width="3.5"/>
<path d="M351.19 345.52L345.41 345.22"
fill="none" stroke="black" stroke-width="3.5"/>
<path d="M345.41 345.22L339.67 344.52"
fill="none" stroke="black" stroke-width="3.5"/>
<path d="M339.67 344.52L333.98 343.43"
fill="none" stroke="black" stroke-width="3.5"/>
<path d="M333.98 343.43L328.39 341.95"
fill="none" stroke="black" stroke-width="3.5"/>
<path d="M328.39 341.95L322.91 340.08"
fill="none" stroke="black" stroke-width="3.5"/>
<path d="M322.91 340.08L317.57 337.84"
fill="none" stroke="black" stroke-width="3.5"/>
<path d="M317.57 337.84L312.4 335.24"
fill="none" stroke="black" stroke-width="3.5"/>
<path d="M312.4 335.24L307.42 332.29"
fill="none" stroke="black" stroke-width="3.5"/>
<path d="M307.42 332.29L302.65 329"
fill="none" stroke="black" stroke-width="3.5"/>
<path d="M302.65 329L298.13 325.39"
fill="none" stroke="black" stroke-width="3.5"/>
<path d="M298.13 325.39L293.86 321.48"
fill="none" stroke="black" stroke-width="3.5"/>
<path d="M293.86 321.48L289.87 317.28"
fill="none" stroke="black" stroke-width="3.5"/>
<path d="M289.87 317.28L286.19 312.82"
fill="none" stroke="black" stroke-width="3.5"/>
<path d="M286.19 312.82L282.82 308.11"
fill="none" stroke="black" stroke-width="3.5"/>
<path d="M282.82 308.11L279.78 303.19"
fill="none" stroke="black" stroke-width="3.5"/>
<path d="M279.78 303.19L277.09 298.06"
fill="none" stroke="black" stroke-width="3.5"/>
<path d="M277.09 298.06L274.76 292.76"
fill="none" stroke="black" stroke-width="3.5"/>
<path d="M274.76 292.76L272.8 287.31"
fill="none" stroke="black" stroke-width="3.5"/>
<path d="M272.8 287.31L271.22 281.75"
fill="none" stroke="black" stroke-width="3.5"/>
<path d="M271.22 281.75L270.03 276.08"
fill="none" stroke="black" stroke-width="3.5"/>
<path d="M270.03 276.08L269.24 270.35"
fill="none" stroke="black" stroke-width="3.5"/>
<path d="M269.24 270.35L268.84 264.57"
fill="none" stroke="black" stroke-width="3.5"/>
<path d="M268.84 264.57L268.84 258.78Z"
fill="none" stroke="black" stroke-width="3.5"/>
<path d="M268.84 258.78L269.24 253.01"
fill="none" stroke="black" stroke-width="3.5"/>
<path d="M269.24 253.01L270.03 247.28"
fill="none" stroke="black" stroke-width="3.5"/>
<path d="M270.03 247.28L271.22 241.61"
fill="none" stroke="black" stroke-width="3.5"/>
<path d="M271.22 241.61L272.8 236.04"
fill="none" stroke="black" stroke-width="3.5"/>
<path d="M272.8 236.04L274.76 230.59"
fill="none" stroke="black" stroke-width="3.5"/>
<path d="M274.76 230.59L277.09 225.3"
fill="none" stroke="black" stroke-width="3.5"/>
<path d="M277.09 225.3L279.78 220.17"
fill="none" stroke="black" stroke-width="3.5"/>
<path d="M279.78 220.17L282.82 215.24"
fill="none" stroke="black" stroke-width="3.5"/>
<path d="M282.82 215.24L286.19 210.54"
fill="none" stroke="black" stroke-width="3.5"/>
<path d="M286.19 210.54L289.87 206.07"
fill="none" stroke="black" stroke-width="3.5"/>
<path d="M289.87 206.07L293.86 201.87"
fill="none" stroke="black" stroke-width="3.5"/>
<path d="M293.86 201.87L298.13 197.96"
fill="none" stroke="black" stroke-width="3.5"/>
<path d="M298.13 197.96L302.65 194.35"
fill="none" stroke="black" stroke-width="3.5"/>
<path d="M302.65 194.35L307.42 191.06"
fill="none" stroke="black" stroke-width="3.5"/>
<path d="M307.42 191.06L312.4 188.11"
fill="none" stroke="black" stroke-width="3.5"/>
<path d="M312.4 188.11L317.57 185.51"
fill="none" stroke="black" stroke-width="3.5"/>
<path d="M317.57 185.51L322.91 183.27"
fill="none" stroke="black" stroke-width="3.5"/>
<path d="M322.91 183.27L328.39 181.41"
fill="none" stroke="black" stroke-width="3.5"/>
<path d="M328.39 181.41L333.98 179.93"
fill="none" stroke="black" stroke-width="3.5"/>
<path d="M333.98 179.93L339.67 178.83"
fill="none" stroke="black" stroke-width="3.5"/>
<path d="M339.67 178.83L345.41 178.14"
fill="none" stroke="black" stroke-width="3.5"/>
<path d="M345.41 178.14L351.19 177.84"
fill="none" stroke="black" stroke-width="3.5"/>
<path d="M351.19 177.84L356.98 177.94"
fill="none" stroke="black" stroke-width="3.5"/>
<path d="M356.98 177.94L362.75 178.44"
fill="none" stroke="black" stroke-width="3.5"/>
<path d="M362.75 178.44L368.47 179.33"
fill="none" stroke="black" stroke-width="3.5"/>
<path d="M368.47 179.33L374.11 180.62"
fill="none" stroke="black" stroke-width="3.5"/>
<path d="M374.11 180.62L379.65 182.29"
fill="none" stroke="black" stroke-width="3.5"/>
<path d="M379.65 182.29L385.06 184.35"
fill="none" stroke="black" stroke-width="3.5"/>
<path d="M385.06 184.35L390.32 186.77"
fill="none" stroke="black" stroke-width="3.5"/>
<path d="M390.32 186.77L395.4 189.55"
fill="none" stroke="black" stroke-width="3.5"/>
<path d="M395.4 189.55L400.27 192.67"
fill="none" stroke="black" stroke-width="3.5"/>
<path d="M400.27 192.67L404.92 196.12"
fill="none" stroke="black" stroke-width="3.5"/>
<path d="M404.92 196.12L409.32 199.88"
fill="none" stroke="black" stroke-width="3.5"/>
<path d="M409.32 199.88L413.45 203.94"
fill="none" stroke="black" stroke-width="3.5"/>
<path d="M413.45 203.94L417.29 208.27"
fill="none" stroke="black" stroke-width="3.5"/>
<path d="M417.29 208.27L420.82 212.86"
fill="none" stroke="black" stroke-width="3.5"/>
<path d="M420.82 212.86L424.02 217.68"
fill="none" stroke="black" stroke-width="3.5"/>
<path d="M424.02 217.68L426.89 222.71"
fill="none" stroke="black" stroke-width="3.5"/>
<path d="M426.89 222.71L429.4 227.92"
fill="none" stroke="black" stroke-width="3.5"/>
<path d="M429.4 227.92L431.55 233.3"
fill="none" stroke="black" stroke-width="3.5"/>
<path d="M431.55 233.3L433.32 238.81"
fill="none" stroke="black" stroke-width="3.5"/>
<path d="M433.32 238.81L434.7 244.43"
fill="none" stroke="black" stroke-width="3.5"/>
<path d="M434.7 244.43L435.7 250.14"
fill="none" stroke="black" stroke-width="3.5"/>
<path d="M435.7 250.14L436.29 255.89"
fill="none" stroke="black" stroke-width="3.5"/>
<path d="M436.29 255.89L436.49 261.68"
fill="none" stroke="black" stroke-width="3.5"/>
</svg>
