<?xml version="1.0" encoding="UTF-8"?>
<svg xmlns="http://www.w3.org/2000/svg" width="800.000" height="600.000" viewBox="0.0 0.0 800.000 600.000" version="1.1">
  <desc>Produce by Acme CAD Converter</desc>
<path d="M350.24 297L350.28 298.42 350.24 295.58 350.24 297Z"
fill="black" stroke="black" stroke-width="0.2"/>
<path d="M350.28 298.42L350.28 294.17 350.24 295.58 350.28 298.42Z"
fill="black" stroke="black" stroke-width="0.2"/>
<path d="M350.28 298.42L350.36 299.83 350.28 294.17 350.28 298.42Z"
fill="black" stroke="black" stroke-width="0.2"/>
<path d="M350.36 299.83L350.36 292.75 350.28 294.17 350.36 299.83Z"
fill="black" stroke="black" stroke-width="0.2"/>
<path d="M350.36 299.83L350.48 301.24 350.36 292.75 350.36 299.83Z"
fill="black" stroke="black" stroke-width="0.2"/>
<path d="M350.48 301.24L350.48 291.34 350.36 292.75 350.48 301.24Z"
fill="black" stroke="black" stroke-width="0.2"/>
<path d="M350.48 301.24L350.64 302.65 350.48 291.34 350.48 301.24Z"
fill="black" stroke="black" stroke-width="0.2"/>
<path d="M350.64 302.65L350.64 289.93 350.48 291.34 350.64 302.65Z"
fill="black" stroke="black" stroke-width="0.2"/>
<path d="M350.64 302.65L350.84 304.05 350.64 289.93 350.64 302.65Z"
fill="black" stroke="black" stroke-width="0.2"/>
<path d="M350.84 304.05L350.84 288.53 350.64 289.93 350.84 304.05Z"
fill="black" stroke="black" stroke-width="0.2"/>
<path d="M350.84 304.05L351.08 305.45 350.84 288.53 350.84 304.05Z"
fill="black" stroke="black" stroke-width="0.2"/>
<path d="M351.08 305.45L351.08 287.14 350.84 288.53 351.08 305.45Z"
fill="black" stroke="black" stroke-width="0.2"/>
<path d="M351.08 305.45L351.36 306.84 351.08 287.14 351.08 305.45Z"
fill="black" stroke="black" stroke-width="0.2"/>
<path d="M351.36 306.84L351.36 285.75 351.08 287.14 351.36 306.84Z"
fill="black" stroke="black" stroke-width="0.2"/>
<path d="M351.36 306.84L351.67 308.22 351.36 285.75 351.36 306.84Z"
fill="black" stroke="black" stroke-width="0.2"/>
<path d="M351.67 308.22L351.67 284.37 351.36 285.75 351.67 308.22Z"
fill="black" stroke="black" stroke-width="0.2"/>
<path d="M351.67 308.22L352.03 309.59 351.67 284.37 351.67 308.22Z"
fill="black" stroke="black" stroke-width="0.2"/>
<path d="M352.03 309.59L352.03 282.99 351.67 284.37 352.03 309.59Z"
fill="black" stroke="black" stroke-width="0.2"/>
<path d="M352.03 309.59L352.42 310.95 352.03 282.99 352.03 309.59Z"
fill="black" stroke="black" stroke-width="0.2"/>
<path d="M352.42 310.95L352.42 281.63 352.03 282.99 352.42 310.95Z"
fill="black" stroke="black" stroke-width="0.2"/>
<path d="M352.42 310.95L352.85 312.3 352.42 281.63 352.42 310.95Z"
fill="black" stroke="black" stroke-width="0.2"/>
<path d="M352.85 312.3L352.85 280.28 352.42 281.63 352.85 312.3Z"
fill="black" stroke="black" stroke-width="0.2"/>
<path d="M352.85 312.3L353.32 313.64 352.85 280.28 352.85 312.3Z"
fill="black" stroke="black" stroke-width="0.2"/>
<path d="M353.32 313.64L353.32 278.95 352.85 280.28 353.32 313.64Z"
fill="black" stroke="black" stroke-width="0.2"/>
<path d="M353.32 313.64L353.83 314.96 353.32 278.95 353.32 313.64Z"
fill="black" stroke="black" stroke-width="0.2"/>
<path d="M353.83 314.96L353.83 277.63 353.32 278.95 353.83 314.96Z"
fill="black" stroke="black" stroke-width="0.2"/>
<path d="M353.83 314.96L354.38 316.27 353.83 277.63 353.83 314.96Z"
fill="black" stroke="black" stroke-width="0.2"/>
<path d="M354.38 316.27L354.38 276.32 353.83 277.63 354.38 316.27Z"
fill="black" stroke="black" stroke-width="0.2"/>
<path d="M354.38 316.27L354.96 317.56 354.38 276.32 354.38 316.27Z"
fill="black" stroke="black" stroke-width="0.2"/>
<path d="M354.96 317.56L354.96 275.03 354.38 276.32 354.96 317.56Z"
fill="black" stroke="black" stroke-width="0.2"/>
<path d="M354.96 317.56L355.57 318.83 354.96 275.03 354.96 317.56Z"
fill="black" stroke="black" stroke-width="0.2"/>
<path d="M355.57 318.83L355.57 273.75 354.96 275.03 355.57 318.83Z"
fill="black" stroke="black" stroke-width="0.2"/>
<path d="M355.57 318.83L356.23 320.09 355.57 273.75 355.57 318.83Z"
fill="black" stroke="black" stroke-width="0.2"/>
<path d="M356.23 320.09L356.23 272.49 355.57 273.75 356.23 320.09Z"
fill="black" stroke="black" stroke-width="0.2"/>
<path d="M356.23 320.09L356.92 321.33 356.23 272.49 356.23 320.09Z"
fill="black" stroke="black" stroke-width="0.2"/>
<path d="M356.92 321.33L356.92 271.26 356.23 272.49 356.92 321.33Z"
fill="black" stroke="black" stroke-width="0.2"/>
<path d="M356.92 321.33L357.64 322.55 356.92 271.26 356.92 321.33Z"
fill="black" stroke="black" stroke-width="0.2"/>
<path d="M357.64 322.55L357.64 270.04 356.92 271.26 357.64 322.55Z"
fill="black" stroke="black" stroke-width="0.2"/>
<path d="M357.64 322.55L358.39 323.75 357.64 270.04 357.64 322.55Z"
fill="black" stroke="black" stroke-width="0.2"/>
<path d="M358.39 323.75L358.39 268.84 357.64 270.04 358.39 323.75Z"
fill="black" stroke="black" stroke-width="0.2"/>
<path d="M358.39 323.75L359.18 324.92 358.39 268.84 358.39 323.75Z"
fill="black" stroke="black" stroke-width="0.2"/>
<path d="M359.18 324.92L359.18 267.66 358.39 268.84 359.18 324.92Z"
fill="black" stroke="black" stroke-width="0.2"/>
<path d="M359.18 324.92L360.01 326.07 359.18 267.66 359.18 324.92Z"
fill="black" stroke="black" stroke-width="0.2"/>
<path d="M360.01 326.07L360.01 266.51 359.18 267.66 360.01 326.07Z"
fill="black" stroke="black" stroke-width="0.2"/>
<path d="M360.01 326.07L360.86 327.2 360.01 266.51 360.01 326.07Z"
fill="black" stroke="black" stroke-width="0.2"/>
<path d="M360.86 327.2L360.86 265.38 360.01 266.51 360.86 327.2Z"
fill="black" stroke="black" stroke-width="0.2"/>
<path d="M360.86 327.2L361.75 328.31 360.86 265.38 360.86 327.2Z"
fill="black" stroke="black" stroke-width="0.2"/>
<path d="M361.75 328.31L361.75 264.28 360.86 265.38 361.75 328.31Z"
fill="black" stroke="black" stroke-width="0.2"/>
<path d="M361.75 328.31L362.67 329.39 361.75 264.28 361.75 328.31Z"
fill="black" stroke="black" stroke-width="0.2"/>
<path d="M362.67 329.39L362.67 263.2 361.75 264.28 362.67 329.39Z"
fill="black" stroke="black" stroke-width="0.2"/>
<path d="M362.67 329.39L363.61 330.44 362.67 263.2 362.67 329.39Z"
fill="black" stroke="black" stroke-width="0.2"/>
<path d="M363.61 330.44L363.61 262.14 362.67 263.2 363.61 330.44Z"
fill="black" stroke="black" stroke-width="0.2"/>
<path d="M363.61 330.44L364.59 331.47 363.61 262.14 363.61 330.44Z"
fill="black" stroke="black" stroke-width="0.2"/>
<path d="M364.59 331.47L364.59 261.12 363.61 262.14 364.59 331.47Z"
fill="black" stroke="black" stroke-width="0.2"/>
<path d="M364.59 331.47L365.6 332.47 364.59 261.12 364.59 331.47Z"
fill="black" stroke="black" stroke-width="0.2"/>
<path d="M365.6 332.47L365.6 260.12 364.59 261.12 365.6 332.47Z"
fill="black" stroke="black" stroke-width="0.2"/>
<path d="M365.6 332.47L366.63 333.43 365.6 260.12 365.6 332.47Z"
fill="black" stroke="black" stroke-width="0.2"/>
<path d="M366.63 333.43L366.63 259.15 365.6 260.12 366.63 333.43Z"
fill="black" stroke="black" stroke-width="0.2"/>
<path d="M366.63 333.43L367.69 334.37 366.63 259.15 366.63 333.43Z"
fill="black" stroke="black" stroke-width="0.2"/>
<path d="M367.69 334.37L367.69 258.21 366.63 259.15 367.69 334.37Z"
fill="black" stroke="black" stroke-width="0.2"/>
<path d="M367.69 334.37L368.77 335.28 367.69 258.21 367.69 334.37Z"
fill="black" stroke="black" stroke-width="0.2"/>
<path d="M368.77 335.28L368.77 257.3 367.69 258.21 368.77 335.28Z"
fill="black" stroke="black" stroke-width="0.2"/>
<path d="M368.77 335.28L369.89 336.16 368.77 257.3 368.77 335.28Z"
fill="black" stroke="black" stroke-width="0.2"/>
<path d="M369.89 336.16L369.89 256.42 368.77 257.3 369.89 336.16Z"
fill="black" stroke="black" stroke-width="0.2"/>
<path d="M369.89 336.16L371.02 337.01 369.89 256.42 369.89 336.16Z"
fill="black" stroke="black" stroke-width="0.2"/>
<path d="M371.02 337.01L371.02 255.57 369.89 256.42 371.02 337.01Z"
fill="black" stroke="black" stroke-width="0.2"/>
<path d="M371.02 337.01L372.18 337.83 371.02 255.57 371.02 337.01Z"
fill="black" stroke="black" stroke-width="0.2"/>
<path d="M372.18 337.83L372.18 254.76 371.02 255.57 372.18 337.83Z"
fill="black" stroke="black" stroke-width="0.2"/>
<path d="M372.18 337.83L373.36 338.61 372.18 254.76 372.18 337.83Z"
fill="black" stroke="black" stroke-width="0.2"/>
<path d="M373.36 338.61L373.36 253.98 372.18 254.76 373.36 338.61Z"
fill="black" stroke="black" stroke-width="0.2"/>
<path d="M373.36 338.61L374.56 339.36 373.36 253.98 373.36 338.61Z"
fill="black" stroke="black" stroke-width="0.2"/>
<path d="M374.56 339.36L374.56 253.23 373.36 253.98 374.56 339.36Z"
fill="black" stroke="black" stroke-width="0.2"/>
<path d="M374.56 339.36L375.79 340.07 374.56 253.23 374.56 339.36Z"
fill="black" stroke="black" stroke-width="0.2"/>
<path d="M375.79 340.07L375.79 252.52 374.56 253.23 375.79 340.07Z"
fill="black" stroke="black" stroke-width="0.2"/>
<path d="M375.79 340.07L377.03 340.75 375.79 252.52 375.79 340.07Z"
fill="black" stroke="black" stroke-width="0.2"/>
<path d="M377.03 340.75L377.03 251.84 375.79 252.52 377.03 340.75Z"
fill="black" stroke="black" stroke-width="0.2"/>
<path d="M377.03 340.75L378.29 341.39 377.03 251.84 377.03 340.75Z"
fill="black" stroke="black" stroke-width="0.2"/>
<path d="M378.29 341.39L378.29 251.19 377.03 251.84 378.29 341.39Z"
fill="black" stroke="black" stroke-width="0.2"/>
<path d="M378.29 341.39L379.57 342 378.29 251.19 378.29 341.39Z"
fill="black" stroke="black" stroke-width="0.2"/>
<path d="M379.57 342L379.57 250.58 378.29 251.19 379.57 342Z"
fill="black" stroke="black" stroke-width="0.2"/>
<path d="M379.57 342L380.87 342.57 379.57 250.58 379.57 342Z"
fill="black" stroke="black" stroke-width="0.2"/>
<path d="M380.87 342.57L380.87 250.01 379.57 250.58 380.87 342.57Z"
fill="black" stroke="black" stroke-width="0.2"/>
<path d="M380.87 342.57L382.18 343.11 380.87 250.01 380.87 342.57Z"
fill="black" stroke="black" stroke-width="0.2"/>
<path d="M382.18 343.11L382.18 249.48 380.87 250.01 382.18 343.11Z"
fill="black" stroke="black" stroke-width="0.2"/>
<path d="M382.18 343.11L383.51 343.61 382.18 249.48 382.18 343.11Z"
fill="black" stroke="black" stroke-width="0.2"/>
<path d="M383.51 343.61L383.51 248.98 382.18 249.48 383.51 343.61Z"
fill="black" stroke="black" stroke-width="0.2"/>
<path d="M383.51 343.61L384.85 344.07 383.51 248.98 383.51 343.61Z"
fill="black" stroke="black" stroke-width="0.2"/>
<path d="M384.85 344.07L384.85 248.52 383.51 248.98 384.85 344.07Z"
fill="black" stroke="black" stroke-width="0.2"/>
<path d="M384.85 344.07L386.2 344.49 384.85 248.52 384.85 344.07Z"
fill="black" stroke="black" stroke-width="0.2"/>
<path d="M386.2 344.49L386.2 248.1 384.85 248.52 386.2 344.49Z"
fill="black" stroke="black" stroke-width="0.2"/>
<path d="M386.2 344.49L387.56 344.87 386.2 248.1 386.2 344.49Z"
fill="black" stroke="black" stroke-width="0.2"/>
<path d="M387.56 344.87L387.56 247.71 386.2 248.1 387.56 344.87Z"
fill="black" stroke="black" stroke-width="0.2"/>
<path d="M387.56 344.87L388.93 345.22 387.56 247.71 387.56 344.87Z"
fill="black" stroke="black" stroke-width="0.2"/>
<path d="M388.93 345.22L388.93 247.37 387.56 247.71 388.93 345.22Z"
fill="black" stroke="black" stroke-width="0.2"/>
<path d="M388.93 345.22L390.32 345.53 388.93 247.37 388.93 345.22Z"
fill="black" stroke="black" stroke-width="0.2"/>
<path d="M390.32 345.53L390.32 247.06 388.93 247.37 390.32 345.53Z"
fill="black" stroke="black" stroke-width="0.2"/>
<path d="M390.32 345.53L391.71 345.79 390.32 247.06 390.32 345.53Z"
fill="black" stroke="black" stroke-width="0.2"/>
<path d="M391.71 345.79L391.71 246.79 390.32 247.06 391.71 345.79Z"
fill="black" stroke="black" stroke-width="0.2"/>
<path d="M391.71 345.79L393.11 346.02 391.71 246.79 391.71 345.79Z"
fill="black" stroke="black" stroke-width="0.2"/>
<path d="M393.11 346.02L393.11 246.56 391.71 246.79 393.11 346.02Z"
fill="black" stroke="black" stroke-width="0.2"/>
<path d="M393.11 346.02L394.51 346.21 393.11 246.56 393.11 346.02Z"
fill="black" stroke="black" stroke-width="0.2"/>
<path d="M394.51 346.21L394.51 246.37 393.11 246.56 394.51 346.21Z"
fill="black" stroke="black" stroke-width="0.2"/>
<path d="M394.51 346.21L395.92 346.36 394.51 246.37 394.51 346.21Z"
fill="black" stroke="black" stroke-width="0.2"/>
<path d="M395.92 346.36L395.92 246.22 394.51 246.37 395.92 346.36Z"
fill="black" stroke="black" stroke-width="0.2"/>
<path d="M395.92 346.36L397.33 346.47 395.92 246.22 395.92 346.36Z"
fill="black" stroke="black" stroke-width="0.2"/>
<path d="M397.33 346.47L397.33 246.11 395.92 246.22 397.33 346.47Z"
fill="black" stroke="black" stroke-width="0.2"/>
<path d="M397.33 346.47L398.75 346.54 397.33 246.11 397.33 346.47Z"
fill="black" stroke="black" stroke-width="0.2"/>
<path d="M398.75 346.54L398.75 246.04 397.33 246.11 398.75 346.54Z"
fill="black" stroke="black" stroke-width="0.2"/>
<path d="M398.75 346.54L400.16 346.57 398.75 246.04 398.75 346.54Z"
fill="black" stroke="black" stroke-width="0.2"/>
<path d="M400.16 346.57L400.16 246.01 398.75 246.04 400.16 346.57Z"
fill="black" stroke="black" stroke-width="0.2"/>
<path d="M400.16 346.57L401.58 346.56 400.16 246.01 400.16 346.57Z"
fill="black" stroke="black" stroke-width="0.2"/>
<path d="M401.58 346.56L401.58 246.02 400.16 246.01 401.58 346.56Z"
fill="black" stroke="black" stroke-width="0.2"/>
<path d="M401.58 346.56L402.99 346.51 401.58 246.02 401.58 346.56Z"
fill="black" stroke="black" stroke-width="0.2"/>
<path d="M402.99 346.51L402.99 246.07 401.58 246.02 402.99 346.51Z"
fill="black" stroke="black" stroke-width="0.2"/>
<path d="M402.99 346.51L404.41 346.42 402.99 246.07 402.99 346.51Z"
fill="black" stroke="black" stroke-width="0.2"/>
<path d="M404.41 346.42L404.41 246.16 402.99 246.07 404.41 346.42Z"
fill="black" stroke="black" stroke-width="0.2"/>
<path d="M404.41 346.42L405.82 346.29 404.41 246.16 404.41 346.42Z"
fill="black" stroke="black" stroke-width="0.2"/>
<path d="M405.82 346.29L405.82 246.29 404.41 246.16 405.82 346.29Z"
fill="black" stroke="black" stroke-width="0.2"/>
<path d="M405.82 346.29L407.23 346.12 405.82 246.29 405.82 346.29Z"
fill="black" stroke="black" stroke-width="0.2"/>
<path d="M407.23 346.12L407.23 246.46 405.82 246.29 407.23 346.12Z"
fill="black" stroke="black" stroke-width="0.2"/>
<path d="M407.23 346.12L408.63 345.91 407.23 246.46 407.23 346.12Z"
fill="black" stroke="black" stroke-width="0.2"/>
<path d="M408.63 345.91L408.63 246.67 407.23 246.46 408.63 345.91Z"
fill="black" stroke="black" stroke-width="0.2"/>
<path d="M408.63 345.91L410.02 345.66 408.63 246.67 408.63 345.91Z"
fill="black" stroke="black" stroke-width="0.2"/>
<path d="M410.02 345.66L410.02 246.92 408.63 246.67 410.02 345.66Z"
fill="black" stroke="black" stroke-width="0.2"/>
<path d="M410.02 345.66L411.41 345.38 410.02 246.92 410.02 345.66Z"
fill="black" stroke="black" stroke-width="0.2"/>
<path d="M411.41 345.38L411.41 247.21 410.02 246.92 411.41 345.38Z"
fill="black" stroke="black" stroke-width="0.2"/>
<path d="M411.41 345.38L412.79 345.05 411.41 247.21 411.41 345.38Z"
fill="black" stroke="black" stroke-width="0.2"/>
<path d="M412.79 345.05L412.79 247.53 411.41 247.21 412.79 345.05Z"
fill="black" stroke="black" stroke-width="0.2"/>
<path d="M412.79 345.05L414.16 344.69 412.79 247.53 412.79 345.05Z"
fill="black" stroke="black" stroke-width="0.2"/>
<path d="M414.16 344.69L414.16 247.9 412.79 247.53 414.16 344.69Z"
fill="black" stroke="black" stroke-width="0.2"/>
<path d="M414.16 344.69L415.51 344.28 414.16 247.9 414.16 344.69Z"
fill="black" stroke="black" stroke-width="0.2"/>
<path d="M415.51 344.28L415.51 248.3 414.16 247.9 415.51 344.28Z"
fill="black" stroke="black" stroke-width="0.2"/>
<path d="M415.51 344.28L416.86 343.84 415.51 248.3 415.51 344.28Z"
fill="black" stroke="black" stroke-width="0.2"/>
<path d="M416.86 343.84L416.86 248.74 415.51 248.3 416.86 343.84Z"
fill="black" stroke="black" stroke-width="0.2"/>
<path d="M416.86 343.84L418.19 343.36 416.86 248.74 416.86 343.84Z"
fill="black" stroke="black" stroke-width="0.2"/>
<path d="M418.19 343.36L418.19 249.22 416.86 248.74 418.19 343.36Z"
fill="black" stroke="black" stroke-width="0.2"/>
<path d="M418.19 343.36L419.51 342.84 418.19 249.22 418.19 343.36Z"
fill="black" stroke="black" stroke-width="0.2"/>
<path d="M419.51 342.84L419.51 249.74 418.19 249.22 419.51 342.84Z"
fill="black" stroke="black" stroke-width="0.2"/>
<path d="M419.51 342.84L420.82 342.29 419.51 249.74 419.51 342.84Z"
fill="black" stroke="black" stroke-width="0.2"/>
<path d="M420.82 342.29L420.82 250.29 419.51 249.74 420.82 342.29Z"
fill="black" stroke="black" stroke-width="0.2"/>
<path d="M420.82 342.29L422.1 341.7 420.82 250.29 420.82 342.29Z"
fill="black" stroke="black" stroke-width="0.2"/>
<path d="M422.1 341.7L422.1 250.88 420.82 250.29 422.1 341.7Z"
fill="black" stroke="black" stroke-width="0.2"/>
<path d="M422.1 341.7L423.37 341.07 422.1 250.88 422.1 341.7Z"
fill="black" stroke="black" stroke-width="0.2"/>
<path d="M423.37 341.07L423.37 251.51 422.1 250.88 423.37 341.07Z"
fill="black" stroke="black" stroke-width="0.2"/>
<path d="M423.37 341.07L424.63 340.41 423.37 251.51 423.37 341.07Z"
fill="black" stroke="black" stroke-width="0.2"/>
<path d="M424.63 340.41L424.63 252.17 423.37 251.51 424.63 340.41Z"
fill="black" stroke="black" stroke-width="0.2"/>
<path d="M424.63 340.41L425.86 339.72 424.63 252.17 424.63 340.41Z"
fill="black" stroke="black" stroke-width="0.2"/>
<path d="M425.86 339.72L425.86 252.87 424.63 252.17 425.86 339.72Z"
fill="black" stroke="black" stroke-width="0.2"/>
<path d="M425.86 339.72L427.07 338.99 425.86 252.87 425.86 339.72Z"
fill="black" stroke="black" stroke-width="0.2"/>
<path d="M427.07 338.99L427.07 253.6 425.86 252.87 427.07 338.99Z"
fill="black" stroke="black" stroke-width="0.2"/>
<path d="M427.07 338.99L428.27 338.22 427.07 253.6 427.07 338.99Z"
fill="black" stroke="black" stroke-width="0.2"/>
<path d="M428.27 338.22L428.27 254.36 427.07 253.6 428.27 338.22Z"
fill="black" stroke="black" stroke-width="0.2"/>
<path d="M428.27 338.22L429.44 337.42 428.27 254.36 428.27 338.22Z"
fill="black" stroke="black" stroke-width="0.2"/>
<path d="M429.44 337.42L429.44 255.16 428.27 254.36 429.44 337.42Z"
fill="black" stroke="black" stroke-width="0.2"/>
<path d="M429.44 337.42L430.58 336.59 429.44 255.16 429.44 337.42Z"
fill="black" stroke="black" stroke-width="0.2"/>
<path d="M430.58 336.59L430.58 255.99 429.44 255.16 430.58 336.59Z"
fill="black" stroke="black" stroke-width="0.2"/>
<path d="M430.58 336.59L431.71 335.73 430.58 255.99 430.58 336.59Z"
fill="black" stroke="black" stroke-width="0.2"/>
<path d="M431.71 335.73L431.71 256.86 430.58 255.99 431.71 335.73Z"
fill="black" stroke="black" stroke-width="0.2"/>
<path d="M431.71 335.73L432.81 334.83 431.71 256.86 431.71 335.73Z"
fill="black" stroke="black" stroke-width="0.2"/>
<path d="M432.81 334.83L432.81 257.75 431.71 256.86 432.81 334.83Z"
fill="black" stroke="black" stroke-width="0.2"/>
<path d="M432.81 334.83L433.88 333.91 432.81 257.75 432.81 334.83Z"
fill="black" stroke="black" stroke-width="0.2"/>
<path d="M433.88 333.91L433.88 258.68 432.81 257.75 433.88 333.91Z"
fill="black" stroke="black" stroke-width="0.2"/>
<path d="M433.88 333.91L434.92 332.95 433.88 258.68 433.88 333.91Z"
fill="black" stroke="black" stroke-width="0.2"/>
<path d="M434.92 332.95L434.92 259.63 433.88 258.68 434.92 332.95Z"
fill="black" stroke="black" stroke-width="0.2"/>
<path d="M434.92 332.95L435.94 331.97 434.92 259.63 434.92 332.95Z"
fill="black" stroke="black" stroke-width="0.2"/>
<path d="M435.94 331.97L435.94 260.61 434.92 259.63 435.94 331.97Z"
fill="black" stroke="black" stroke-width="0.2"/>
<path d="M435.94 331.97L436.93 330.96 435.94 260.61 435.94 331.97Z"
fill="black" stroke="black" stroke-width="0.2"/>
<path d="M436.93 330.96L436.93 261.63 435.94 260.61 436.93 330.96Z"
fill="black" stroke="black" stroke-width="0.2"/>
<path d="M436.93 330.96L437.9 329.92 436.93 261.63 436.93 330.96Z"
fill="black" stroke="black" stroke-width="0.2"/>
<path d="M437.9 329.92L437.9 262.67 436.93 261.63 437.9 329.92Z"
fill="black" stroke="black" stroke-width="0.2"/>
<path d="M437.9 329.92L438.83 328.85 437.9 262.67 437.9 329.92Z"
fill="black" stroke="black" stroke-width="0.2"/>
<path d="M438.83 328.85L438.83 263.73 437.9 262.67 438.83 328.85Z"
fill="black" stroke="black" stroke-width="0.2"/>
<path d="M438.83 328.85L439.73 327.76 438.83 263.73 438.83 328.85Z"
fill="black" stroke="black" stroke-width="0.2"/>
<path d="M439.73 327.76L439.73 264.83 438.83 263.73 439.73 327.76Z"
fill="black" stroke="black" stroke-width="0.2"/>
<path d="M439.73 327.76L440.6 326.64 439.73 264.83 439.73 327.76Z"
fill="black" stroke="black" stroke-width="0.2"/>
<path d="M440.6 326.64L440.6 265.94 439.73 264.83 440.6 326.64Z"
fill="black" stroke="black" stroke-width="0.2"/>
<path d="M440.6 326.64L441.44 325.5 440.6 265.94 440.6 326.64Z"
fill="black" stroke="black" stroke-width="0.2"/>
<path d="M441.44 325.5L441.44 267.08 440.6 265.94 441.44 325.5Z"
fill="black" stroke="black" stroke-width="0.2"/>
<path d="M441.44 325.5L442.25 324.34 441.44 267.08 441.44 325.5Z"
fill="black" stroke="black" stroke-width="0.2"/>
<path d="M442.25 324.34L442.25 268.25 441.44 267.08 442.25 324.34Z"
fill="black" stroke="black" stroke-width="0.2"/>
<path d="M442.25 324.34L443.02 323.15 442.25 268.25 442.25 324.34Z"
fill="black" stroke="black" stroke-width="0.2"/>
<path d="M443.02 323.15L443.02 269.44 442.25 268.25 443.02 323.15Z"
fill="black" stroke="black" stroke-width="0.2"/>
<path d="M443.02 323.15L443.76 321.94 443.02 269.44 443.02 323.15Z"
fill="black" stroke="black" stroke-width="0.2"/>
<path d="M443.76 321.94L443.76 270.64 443.02 269.44 443.76 321.94Z"
fill="black" stroke="black" stroke-width="0.2"/>
<path d="M443.76 321.94L444.47 320.71 443.76 270.64 443.76 321.94Z"
fill="black" stroke="black" stroke-width="0.2"/>
<path d="M444.47 320.71L444.47 271.87 443.76 270.64 444.47 320.71Z"
fill="black" stroke="black" stroke-width="0.2"/>
<path d="M444.47 320.71L445.14 319.46 444.47 271.87 444.47 320.71Z"
fill="black" stroke="black" stroke-width="0.2"/>
<path d="M445.14 319.46L445.14 273.12 444.47 271.87 445.14 319.46Z"
fill="black" stroke="black" stroke-width="0.2"/>
<path d="M445.14 319.46L445.77 318.2 445.14 273.12 445.14 319.46Z"
fill="black" stroke="black" stroke-width="0.2"/>
<path d="M445.77 318.2L445.77 274.39 445.14 273.12 445.77 318.2Z"
fill="black" stroke="black" stroke-width="0.2"/>
<path d="M445.77 318.2L446.37 316.91 445.77 274.39 445.77 318.2Z"
fill="black" stroke="black" stroke-width="0.2"/>
<path d="M446.37 316.91L446.37 275.67 445.77 274.39 446.37 316.91Z"
fill="black" stroke="black" stroke-width="0.2"/>
<path d="M446.37 316.91L446.93 315.61 446.37 275.67 446.37 316.91Z"
fill="black" stroke="black" stroke-width="0.2"/>
<path d="M446.93 315.61L446.93 276.97 446.37 275.67 446.93 315.61Z"
fill="black" stroke="black" stroke-width="0.2"/>
<path d="M446.93 315.61L447.46 314.3 446.93 276.97 446.93 315.61Z"
fill="black" stroke="black" stroke-width="0.2"/>
<path d="M447.46 314.3L447.46 278.29 446.93 276.97 447.46 314.3Z"
fill="black" stroke="black" stroke-width="0.2"/>
<path d="M447.46 314.3L447.95 312.97 447.46 278.29 447.46 314.3Z"
fill="black" stroke="black" stroke-width="0.2"/>
<path d="M447.95 312.97L447.95 279.61 447.46 278.29 447.95 312.97Z"
fill="black" stroke="black" stroke-width="0.2"/>
<path d="M447.95 312.97L448.4 311.63 447.95 279.61 447.95 312.97Z"
fill="black" stroke="black" stroke-width="0.2"/>
<path d="M448.4 311.63L448.4 280.96 447.95 279.61 448.4 311.63Z"
fill="black" stroke="black" stroke-width="0.2"/>
<path d="M448.4 311.63L448.81 310.27 448.4 280.96 448.4 311.63Z"
fill="black" stroke="black" stroke-width="0.2"/>
<path d="M448.81 310.27L448.81 282.31 448.4 280.96 448.81 310.27Z"
fill="black" stroke="black" stroke-width="0.2"/>
<path d="M448.81 310.27L449.19 308.91 448.81 282.31 448.81 310.27Z"
fill="black" stroke="black" stroke-width="0.2"/>
<path d="M449.19 308.91L449.19 283.68 448.81 282.31 449.19 308.91Z"
fill="black" stroke="black" stroke-width="0.2"/>
<path d="M449.19 308.91L449.52 307.53 449.19 283.68 449.19 308.91Z"
fill="black" stroke="black" stroke-width="0.2"/>
<path d="M449.52 307.53L449.52 285.05 449.19 283.68 449.52 307.53Z"
fill="black" stroke="black" stroke-width="0.2"/>
<path d="M449.52 307.53L449.82 306.14 449.52 285.05 449.52 307.53Z"
fill="black" stroke="black" stroke-width="0.2"/>
<path d="M449.82 306.14L449.82 286.44 449.52 285.05 449.82 306.14Z"
fill="black" stroke="black" stroke-width="0.2"/>
<path d="M449.82 306.14L450.08 304.75 449.82 286.44 449.82 306.14Z"
fill="black" stroke="black" stroke-width="0.2"/>
<path d="M450.08 304.75L450.08 287.83 449.82 286.44 450.08 304.75Z"
fill="black" stroke="black" stroke-width="0.2"/>
<path d="M450.08 304.75L450.3 303.35 450.08 287.83 450.08 304.75Z"
fill="black" stroke="black" stroke-width="0.2"/>
<path d="M450.3 303.35L450.3 289.23 450.08 287.83 450.3 303.35Z"
fill="black" stroke="black" stroke-width="0.2"/>
<path d="M450.3 303.35L450.48 301.95 450.3 289.23 450.3 303.35Z"
fill="black" stroke="black" stroke-width="0.2"/>
<path d="M450.48 301.95L450.48 290.64 450.3 289.23 450.48 301.95Z"
fill="black" stroke="black" stroke-width="0.2"/>
<path d="M450.48 301.95L450.62 300.54 450.48 290.64 450.48 301.95Z"
fill="black" stroke="black" stroke-width="0.2"/>
<path d="M450.62 300.54L450.62 292.05 450.48 290.64 450.62 300.54Z"
fill="black" stroke="black" stroke-width="0.2"/>
<path d="M450.62 300.54L450.72 299.12 450.62 292.05 450.62 300.54Z"
fill="black" stroke="black" stroke-width="0.2"/>
<path d="M450.72 299.12L450.72 293.46 450.62 292.05 450.72 299.12Z"
fill="black" stroke="black" stroke-width="0.2"/>
<path d="M450.72 299.12L450.78 297.71 450.72 293.46 450.72 299.12Z"
fill="black" stroke="black" stroke-width="0.2"/>
<path d="M450.78 297.71L450.78 294.88 450.72 293.46 450.78 297.71Z"
fill="black" stroke="black" stroke-width="0.2"/>
<path d="M450.78 297.71L450.8 296.29 450.78 294.88 450.78 297.71Z"
fill="black" stroke="black" stroke-width="0.2"/>
<path d="M450.8 296.29L450.6 300.74"
fill="none" stroke="black" stroke-width="3.5"/>
<path d="M450.6 300.74L450.01 305.14"
fill="none" stroke="black" stroke-width="3.5"/>
<path d="M450.01 305.14L449.03 309.48"
fill="none" stroke="black" stroke-width="3.5"/>
<path d="M449.03 309.48L447.68 313.72"
fill="none" stroke="black" stroke-width="3.5"/>
<path d="M447.68 313.72L445.95 317.82"
fill="none" stroke="black" stroke-width="3.5"/>
<path d="M445.95 317.82L443.87 321.75"
fill="none" stroke="black" stroke-width="3.5"/>
<path d="M443.87 321.75L441.45 325.48"
fill="none" stroke="black" stroke-width="3.5"/>
<path d="M441.45 325.48L438.71 328.99"
fill="none" stroke="black" stroke-width="3.5"/>
<path d="M438.71 328.99L435.67 332.24"
fill="none" stroke="black" stroke-width="3.5"/>
<path d="M435.67 332.24L432.36 335.2"
fill="none" stroke="black" stroke-width="3.5"/>
<path d="M432.36 335.2L428.8 337.86"
fill="none" stroke="black" stroke-width="3.5"/>
<path d="M428.8 337.86L425.01 340.2"
fill="none" stroke="black" stroke-width="3.5"/>
<path d="M425.01 340.2L421.03 342.19"
fill="none" stroke="black" stroke-width="3.5"/>
<path d="M421.03 342.19L416.9 343.83"
fill="none" stroke="black" stroke-width="3.5"/>
<path d="M416.9 343.83L412.63 345.09"
fill="none" stroke="black" stroke-width="3.5"/>
<path d="M412.63 345.09L408.27 345.97"
fill="none" stroke="black" stroke-width="3.5"/>
<path d="M408.27 345.97L403.85 346.46"
fill="none" stroke="black" stroke-width="3.5"/>
<path d="M403.85 346.46L399.4 346.56"
fill="none" stroke="black" stroke-width="3.5"/>
<path d="M399.4 346.56L394.97 346.26"
fill="none" stroke="black" stroke-width="3.5"/>
<path d="M394.97 346.26L390.57 345.58"
fill="none" stroke="black" stroke-width="3.5"/>
<path d="M390.57 345.58L386.25 344.51"
fill="none" stroke="black" stroke-width="3.5"/>
<path d="M386.25 344.51L382.05 343.06"
fill="none" stroke="black" stroke-width="3.5"/>
<path d="M382.05 343.06L377.99 341.24"
fill="none" stroke="black" stroke-width="3.5"/>
<path d="M377.99 341.24L374.1 339.07"
fill="none" stroke="black" stroke-width="3.5"/>
<path d="M374.1 339.07L370.43 336.57"
fill="none" stroke="black" stroke-width="3.5"/>
<path d="M370.43 336.57L366.98 333.76"
fill="none" stroke="black" stroke-width="3.5"/>
<path d="M366.98 333.76L363.8 330.65"
fill="none" stroke="black" stroke-width="3.5"/>
<path d="M363.8 330.65L360.91 327.27"
fill="none" stroke="black" stroke-width="3.5"/>
<path d="M360.91 327.27L358.33 323.64"
fill="none" stroke="black" stroke-width="3.5"/>
<path d="M358.33 323.64L356.08 319.81"
fill="none" stroke="black" stroke-width="3.5"/>
<path d="M356.08 319.81L354.17 315.79"
fill="none" stroke="black" stroke-width="3.5"/>
<path d="M354.17 315.79L352.63 311.62"
fill="none" stroke="black" stroke-width="3.5"/>
<path d="M352.63 311.62L351.46 307.33"
fill="none" stroke="black" stroke-width="3.5"/>
<path d="M351.46 307.33L350.68 302.95"
fill="none" stroke="black" stroke-width="3.5"/>
<path d="M350.68 302.95L350.29 298.52"
fill="none" stroke="black" stroke-width="3.5"/>
<path d="M350.29 298.52L350.29 294.07Z"
fill="none" stroke="black" stroke-width="3.5"/>
<path d="M350.29 294.07L350.68 289.64"
fill="none" stroke="black" stroke-width="3.5"/>
<path d="M350.68 289.64L351.46 285.26"
fill="none" stroke="black" stroke-width="3.5"/>
<path d="M351.46 285.26L352.63 280.97"
fill="none" stroke="black" stroke-width="3.5"/>
<path d="M352.63 280.97L354.17 276.79"
fill="none" stroke="black" stroke-width="3.5"/>
<path d="M354.17 276.79L356.08 272.78"
fill="none" stroke="black" stroke-width="3.5"/>
<path d="M356.08 272.78L358.33 268.94"
fill="none" stroke="black" stroke-width="3.5"/>
<path d="M358.33 268.94L360.91 265.32"
fill="none" stroke="black" stroke-width="3.5"/>
<path d="M360.91 265.32L363.8 261.94"
fill="none" stroke="black" stroke-width="3.5"/>
<path d="M363.8 261.94L366.98 258.83"
fill="none" stroke="black" stroke-width="3.5"/>
<path d="M366.98 258.83L370.43 256.01"
fill="none" stroke="black" stroke-width="3.5"/>
<path d="M370.43 256.01L374.1 253.51"
fill="none" stroke="black" stroke-width="3.5"/>
<path d="M374.1 253.51L377.99 251.34"
fill="none" stroke="black" stroke-width="3.5"/>
<path d="M377.99 251.34L382.05 249.53"
fill="none" stroke="black" stroke-width="3.5"/>
<path d="M382.05 249.53L386.25 248.08"
fill="none" stroke="black" stroke-width="3.5"/>
<path d="M386.25 248.08L390.57 247.01"
fill="none" stroke="black" stroke-width="3.5"/>
<path d="M390.57 247.01L394.97 246.32"
fill="none" stroke="black" stroke-width="3.5"/>
<path d="M394.97 246.32L399.4 246.03"
fill="none" stroke="black" stroke-width="3.5"/>
<path d="M399.4 246.03L403.85 246.12"
fill="none" stroke="black" stroke-width="3.5"/>
<path d="M403.85 246.12L408.27 246.62"
fill="none" stroke="black" stroke-width="3.5"/>
<path d="M408.27 246.62L412.63 247.5"
fill="none" stroke="black" stroke-width="3.5"/>
<path d="M412.63 247.5L416.9 248.76"
fill="none" stroke="black" stroke-width="3.5"/>
<path d="M416.9 248.76L421.03 250.39"
fill="none" stroke="black" stroke-width="3.5"/>
<path d="M421.03 250.39L425.01 252.38"
fill="none" stroke="black" stroke-width="3.5"/>
<path d="M425.01 252.38L428.8 254.72"
fill="none" stroke="black" stroke-width="3.5"/>
<path d="M428.8 254.72L432.36 257.38"
fill="none" stroke="black" stroke-width="3.5"/>
<path d="M432.36 257.38L435.67 260.35"
fill="none" stroke="black" stroke-width="3.5"/>
<path d="M435.67 260.35L438.71 263.6"
fill="none" stroke="black" stroke-width="3.5"/>
<path d="M438.71 263.6L441.45 267.1"
fill="none" stroke="black" stroke-width="3.5"/>
<path d="M441.45 267.1L443.87 270.83"
fill="none" stroke="black" stroke-width="3.5"/>
<path d="M443.87 270.83L445.95 274.76"
fill="none" stroke="black" stroke-width="3.5"/>
<path d="M445.95 274.76L447.68 278.86"
fill="none" stroke="black" stroke-width="3.5"/>
<path d="M447.68 278.86L449.03 283.1"
fill="none" stroke="black" stroke-width="3.5"/>
<path d="M449.03 283.1L450.01 287.44"
fill="none" stroke="black" stroke-width="3.5"/>
<path d="M450.01 287.44L450.6 291.85"
fill="none" stroke="black" stroke-width="3.5"/>
<path d="M450.6 291.85L450.8 296.29"
fill="none" stroke="black" stroke-width="3.5"/>
<path d="M400.52 246.01L400.52 178.98Z"
fill="none" stroke="black" stroke-width="3.5"/>
</svg>
