<?xml version="1.0" encoding="UTF-8"?>
<svg xmlns="http://www.w3.org/2000/svg" width="800.000" height="600.000" viewBox="0.0 0.0 800.000 600.000" version="1.1">
  <desc>Produce by Acme CAD Converter</desc>
<path d="M286.67 336.43L422.15 200.95"
fill="none" stroke="black" stroke-width="0.5"/>
<path d="M286.67 200.95L422.15 336.43"
fill="none" stroke="black" stroke-width="0.5"/>
<path d="M286.67 200.95L422.15 200.95"
fill="none" stroke="black" stroke-width="0.5"/>
<path d="M286.67 336.43L286.67 200.95Z"
fill="none" stroke="black" stroke-width="0.5"/>
<path d="M422.15 336.43L286.67 336.43"
fill="none" stroke="black" stroke-width="0.5"/>
<path d="M422.15 200.95L422.15 336.43Z"
fill="none" stroke="black" stroke-width="0.5"/>
<path d="M512.47 244.49L506.02 238.04"
fill="none" stroke="black" stroke-width="0.5"/>
<path d="M506.02 238.04L496.34 234.82"
fill="none" stroke="black" stroke-width="0.5"/>
<path d="M496.34 234.82L483.44 234.82"
fill="none" stroke="black" stroke-width="0.5"/>
<path d="M483.44 234.82L473.76 238.04"
fill="none" stroke="black" stroke-width="0.5"/>
<path d="M473.76 238.04L467.31 244.49"
fill="none" stroke="black" stroke-width="0.5"/>
<path d="M467.31 244.49L467.31 250.95Z"
fill="none" stroke="black" stroke-width="0.5"/>
<path d="M467.31 250.95L470.53 257.4"
fill="none" stroke="black" stroke-width="0.5"/>
<path d="M470.53 257.4L473.76 260.62"
fill="none" stroke="black" stroke-width="0.5"/>
<path d="M473.76 260.62L480.21 263.85"
fill="none" stroke="black" stroke-width="0.5"/>
<path d="M480.21 263.85L499.57 270.3"
fill="none" stroke="black" stroke-width="0.5"/>
<path d="M499.57 270.3L506.02 273.53"
fill="none" stroke="black" stroke-width="0.5"/>
<path d="M506.02 273.53L509.24 276.75"
fill="none" stroke="black" stroke-width="0.5"/>
<path d="M509.24 276.75L512.47 283.2"
fill="none" stroke="black" stroke-width="0.5"/>
<path d="M512.47 283.2L512.47 292.88Z"
fill="none" stroke="black" stroke-width="0.5"/>
<path d="M512.47 292.88L506.02 299.33"
fill="none" stroke="black" stroke-width="0.5"/>
<path d="M506.02 299.33L496.34 302.56"
fill="none" stroke="black" stroke-width="0.5"/>
<path d="M496.34 302.56L483.44 302.56"
fill="none" stroke="black" stroke-width="0.5"/>
<path d="M483.44 302.56L473.76 299.33"
fill="none" stroke="black" stroke-width="0.5"/>
<path d="M473.76 299.33L467.31 292.88"
fill="none" stroke="black" stroke-width="0.5"/>
</svg>
