<?xml version="1.0" encoding="UTF-8"?>
<svg xmlns="http://www.w3.org/2000/svg" width="800.000" height="600.000" viewBox="0.0 0.0 800.000 600.000" version="1.1">
  <desc>Produce by Acme CAD Converter</desc>
<path d="M334.57 289.62L334.57 286.33 334.55 287.98 334.57 289.62Z"
fill="black" stroke="black" stroke-width="0.2"/>
<path d="M334.57 289.62L334.63 291.27 334.57 286.33 334.57 289.62Z"
fill="black" stroke="black" stroke-width="0.2"/>
<path d="M334.63 291.27L334.63 284.68 334.57 286.33 334.63 291.27Z"
fill="black" stroke="black" stroke-width="0.2"/>
<path d="M334.63 291.27L334.73 292.91 334.63 284.68 334.63 291.27Z"
fill="black" stroke="black" stroke-width="0.2"/>
<path d="M334.73 292.91L334.73 283.04 334.63 284.68 334.73 292.91Z"
fill="black" stroke="black" stroke-width="0.2"/>
<path d="M334.73 292.91L334.87 294.55 334.73 283.04 334.73 292.91Z"
fill="black" stroke="black" stroke-width="0.2"/>
<path d="M334.87 294.55L334.87 281.4 334.73 283.04 334.87 294.55Z"
fill="black" stroke="black" stroke-width="0.2"/>
<path d="M334.87 294.55L335.05 296.19 334.87 281.4 334.87 294.55Z"
fill="black" stroke="black" stroke-width="0.2"/>
<path d="M335.05 296.19L335.05 279.76 334.87 281.4 335.05 296.19Z"
fill="black" stroke="black" stroke-width="0.2"/>
<path d="M335.05 296.19L335.26 297.82 335.05 279.76 335.05 296.19Z"
fill="black" stroke="black" stroke-width="0.2"/>
<path d="M335.26 297.82L335.26 278.13 335.05 279.76 335.26 297.82Z"
fill="black" stroke="black" stroke-width="0.2"/>
<path d="M335.26 297.82L335.52 299.45 335.26 278.13 335.26 297.82Z"
fill="black" stroke="black" stroke-width="0.2"/>
<path d="M335.52 299.45L335.52 276.5 335.26 278.13 335.52 299.45Z"
fill="black" stroke="black" stroke-width="0.2"/>
<path d="M335.52 299.45L335.82 301.07 335.52 276.5 335.52 299.45Z"
fill="black" stroke="black" stroke-width="0.2"/>
<path d="M335.82 301.07L335.82 274.89 335.52 276.5 335.82 301.07Z"
fill="black" stroke="black" stroke-width="0.2"/>
<path d="M335.82 301.07L336.16 302.68 335.82 274.89 335.82 301.07Z"
fill="black" stroke="black" stroke-width="0.2"/>
<path d="M336.16 302.68L336.16 273.27 335.82 274.89 336.16 302.68Z"
fill="black" stroke="black" stroke-width="0.2"/>
<path d="M336.16 302.68L336.53 304.28 336.16 273.27 336.16 302.68Z"
fill="black" stroke="black" stroke-width="0.2"/>
<path d="M336.53 304.28L336.53 271.67 336.16 273.27 336.53 304.28Z"
fill="black" stroke="black" stroke-width="0.2"/>
<path d="M336.53 304.28L336.94 305.88 336.53 271.67 336.53 304.28Z"
fill="black" stroke="black" stroke-width="0.2"/>
<path d="M336.94 305.88L336.94 270.08 336.53 271.67 336.94 305.88Z"
fill="black" stroke="black" stroke-width="0.2"/>
<path d="M336.94 305.88L337.39 307.46 336.94 270.08 336.94 305.88Z"
fill="black" stroke="black" stroke-width="0.2"/>
<path d="M337.39 307.46L337.39 268.49 336.94 270.08 337.39 307.46Z"
fill="black" stroke="black" stroke-width="0.2"/>
<path d="M337.39 307.46L337.88 309.03 337.39 268.49 337.39 307.46Z"
fill="black" stroke="black" stroke-width="0.2"/>
<path d="M337.88 309.03L337.88 266.92 337.39 268.49 337.88 309.03Z"
fill="black" stroke="black" stroke-width="0.2"/>
<path d="M337.88 309.03L338.41 310.59 337.88 266.92 337.88 309.03Z"
fill="black" stroke="black" stroke-width="0.2"/>
<path d="M338.41 310.59L338.41 265.36 337.88 266.92 338.41 310.59Z"
fill="black" stroke="black" stroke-width="0.2"/>
<path d="M338.41 310.59L338.98 312.14 338.41 265.36 338.41 310.59Z"
fill="black" stroke="black" stroke-width="0.2"/>
<path d="M338.98 312.14L338.98 263.81 338.41 265.36 338.98 312.14Z"
fill="black" stroke="black" stroke-width="0.2"/>
<path d="M338.98 312.14L339.58 313.67 338.98 263.81 338.98 312.14Z"
fill="black" stroke="black" stroke-width="0.2"/>
<path d="M339.58 313.67L339.58 262.28 338.98 263.81 339.58 313.67Z"
fill="black" stroke="black" stroke-width="0.2"/>
<path d="M339.58 313.67L340.22 315.19 339.58 262.28 339.58 313.67Z"
fill="black" stroke="black" stroke-width="0.2"/>
<path d="M340.22 315.19L340.22 260.76 339.58 262.28 340.22 315.19Z"
fill="black" stroke="black" stroke-width="0.2"/>
<path d="M340.22 315.19L340.9 316.69 340.22 260.76 340.22 315.19Z"
fill="black" stroke="black" stroke-width="0.2"/>
<path d="M340.9 316.69L340.9 259.26 340.22 260.76 340.9 316.69Z"
fill="black" stroke="black" stroke-width="0.2"/>
<path d="M340.9 316.69L341.61 318.18 340.9 259.26 340.9 316.69Z"
fill="black" stroke="black" stroke-width="0.2"/>
<path d="M341.61 318.18L341.61 257.78 340.9 259.26 341.61 318.18Z"
fill="black" stroke="black" stroke-width="0.2"/>
<path d="M341.61 318.18L342.35 319.64 341.61 257.78 341.61 318.18Z"
fill="black" stroke="black" stroke-width="0.2"/>
<path d="M342.35 319.64L342.35 256.31 341.61 257.78 342.35 319.64Z"
fill="black" stroke="black" stroke-width="0.2"/>
<path d="M342.35 319.64L343.14 321.09 342.35 256.31 342.35 319.64Z"
fill="black" stroke="black" stroke-width="0.2"/>
<path d="M343.14 321.09L343.14 254.86 342.35 256.31 343.14 321.09Z"
fill="black" stroke="black" stroke-width="0.2"/>
<path d="M343.14 321.09L343.96 322.52 343.14 254.86 343.14 321.09Z"
fill="black" stroke="black" stroke-width="0.2"/>
<path d="M343.96 322.52L343.96 253.43 343.14 254.86 343.96 322.52Z"
fill="black" stroke="black" stroke-width="0.2"/>
<path d="M343.96 322.52L344.81 323.93 343.96 253.43 343.96 322.52Z"
fill="black" stroke="black" stroke-width="0.2"/>
<path d="M344.81 323.93L344.81 252.02 343.96 253.43 344.81 323.93Z"
fill="black" stroke="black" stroke-width="0.2"/>
<path d="M344.81 323.93L345.69 325.32 344.81 252.02 344.81 323.93Z"
fill="black" stroke="black" stroke-width="0.2"/>
<path d="M345.69 325.32L345.69 250.64 344.81 252.02 345.69 325.32Z"
fill="black" stroke="black" stroke-width="0.2"/>
<path d="M345.69 325.32L346.61 326.68 345.69 250.64 345.69 325.32Z"
fill="black" stroke="black" stroke-width="0.2"/>
<path d="M346.61 326.68L346.61 249.27 345.69 250.64 346.61 326.68Z"
fill="black" stroke="black" stroke-width="0.2"/>
<path d="M346.61 326.68L347.56 328.03 346.61 249.27 346.61 326.68Z"
fill="black" stroke="black" stroke-width="0.2"/>
<path d="M347.56 328.03L347.56 247.93 346.61 249.27 347.56 328.03Z"
fill="black" stroke="black" stroke-width="0.2"/>
<path d="M347.56 328.03L348.55 329.35 347.56 247.93 347.56 328.03Z"
fill="black" stroke="black" stroke-width="0.2"/>
<path d="M348.55 329.35L348.55 246.6 347.56 247.93 348.55 329.35Z"
fill="black" stroke="black" stroke-width="0.2"/>
<path d="M348.55 329.35L349.56 330.64 348.55 246.6 348.55 329.35Z"
fill="black" stroke="black" stroke-width="0.2"/>
<path d="M349.56 330.64L349.56 245.31 348.55 246.6 349.56 330.64Z"
fill="black" stroke="black" stroke-width="0.2"/>
<path d="M349.56 330.64L350.61 331.92 349.56 245.31 349.56 330.64Z"
fill="black" stroke="black" stroke-width="0.2"/>
<path d="M350.61 331.92L350.61 244.04 349.56 245.31 350.61 331.92Z"
fill="black" stroke="black" stroke-width="0.2"/>
<path d="M350.61 331.92L351.69 333.16 350.61 244.04 350.61 331.92Z"
fill="black" stroke="black" stroke-width="0.2"/>
<path d="M351.69 333.16L351.69 242.79 350.61 244.04 351.69 333.16Z"
fill="black" stroke="black" stroke-width="0.2"/>
<path d="M351.69 333.16L352.79 334.38 351.69 242.79 351.69 333.16Z"
fill="black" stroke="black" stroke-width="0.2"/>
<path d="M352.79 334.38L352.79 241.57 351.69 242.79 352.79 334.38Z"
fill="black" stroke="black" stroke-width="0.2"/>
<path d="M352.79 334.38L353.93 335.57 352.79 241.57 352.79 334.38Z"
fill="black" stroke="black" stroke-width="0.2"/>
<path d="M353.93 335.57L353.93 240.38 352.79 241.57 353.93 335.57Z"
fill="black" stroke="black" stroke-width="0.2"/>
<path d="M353.93 335.57L355.09 336.74 353.93 240.38 353.93 335.57Z"
fill="black" stroke="black" stroke-width="0.2"/>
<path d="M355.09 336.74L355.09 239.22 353.93 240.38 355.09 336.74Z"
fill="black" stroke="black" stroke-width="0.2"/>
<path d="M355.09 336.74L356.29 337.87 355.09 239.22 355.09 336.74Z"
fill="black" stroke="black" stroke-width="0.2"/>
<path d="M356.29 337.87L356.29 238.08 355.09 239.22 356.29 337.87Z"
fill="black" stroke="black" stroke-width="0.2"/>
<path d="M356.29 337.87L357.5 338.98 356.29 238.08 356.29 337.87Z"
fill="black" stroke="black" stroke-width="0.2"/>
<path d="M357.5 338.98L357.5 236.97 356.29 238.08 357.5 338.98Z"
fill="black" stroke="black" stroke-width="0.2"/>
<path d="M357.5 338.98L358.75 340.06 357.5 236.97 357.5 338.98Z"
fill="black" stroke="black" stroke-width="0.2"/>
<path d="M358.75 340.06L358.75 235.9 357.5 236.97 358.75 340.06Z"
fill="black" stroke="black" stroke-width="0.2"/>
<path d="M358.75 340.06L360.02 341.1 358.75 235.9 358.75 340.06Z"
fill="black" stroke="black" stroke-width="0.2"/>
<path d="M360.02 341.1L360.02 234.85 358.75 235.9 360.02 341.1Z"
fill="black" stroke="black" stroke-width="0.2"/>
<path d="M360.02 341.1L361.32 342.12 360.02 234.85 360.02 341.1Z"
fill="black" stroke="black" stroke-width="0.2"/>
<path d="M361.32 342.12L361.32 233.83 360.02 234.85 361.32 342.12Z"
fill="black" stroke="black" stroke-width="0.2"/>
<path d="M361.32 342.12L362.64 343.1 361.32 233.83 361.32 342.12Z"
fill="black" stroke="black" stroke-width="0.2"/>
<path d="M362.64 343.1L362.64 232.85 361.32 233.83 362.64 343.1Z"
fill="black" stroke="black" stroke-width="0.2"/>
<path d="M362.64 343.1L363.98 344.05 362.64 232.85 362.64 343.1Z"
fill="black" stroke="black" stroke-width="0.2"/>
<path d="M363.98 344.05L363.98 231.9 362.64 232.85 363.98 344.05Z"
fill="black" stroke="black" stroke-width="0.2"/>
<path d="M363.98 344.05L365.35 344.97 363.98 231.9 363.98 344.05Z"
fill="black" stroke="black" stroke-width="0.2"/>
<path d="M365.35 344.97L365.35 230.98 363.98 231.9 365.35 344.97Z"
fill="black" stroke="black" stroke-width="0.2"/>
<path d="M365.35 344.97L366.74 345.86 365.35 230.98 365.35 344.97Z"
fill="black" stroke="black" stroke-width="0.2"/>
<path d="M366.74 345.86L366.74 230.09 365.35 230.98 366.74 345.86Z"
fill="black" stroke="black" stroke-width="0.2"/>
<path d="M366.74 345.86L368.15 346.71 366.74 230.09 366.74 345.86Z"
fill="black" stroke="black" stroke-width="0.2"/>
<path d="M368.15 346.71L368.15 229.24 366.74 230.09 368.15 346.71Z"
fill="black" stroke="black" stroke-width="0.2"/>
<path d="M368.15 346.71L369.57 347.53 368.15 229.24 368.15 346.71Z"
fill="black" stroke="black" stroke-width="0.2"/>
<path d="M369.57 347.53L369.57 228.43 368.15 229.24 369.57 347.53Z"
fill="black" stroke="black" stroke-width="0.2"/>
<path d="M369.57 347.53L371.02 348.31 369.57 228.43 369.57 347.53Z"
fill="black" stroke="black" stroke-width="0.2"/>
<path d="M371.02 348.31L371.02 227.64 369.57 228.43 371.02 348.31Z"
fill="black" stroke="black" stroke-width="0.2"/>
<path d="M371.02 348.31L372.49 349.06 371.02 227.64 371.02 348.31Z"
fill="black" stroke="black" stroke-width="0.2"/>
<path d="M372.49 349.06L372.49 226.89 371.02 227.64 372.49 349.06Z"
fill="black" stroke="black" stroke-width="0.2"/>
<path d="M372.49 349.06L373.98 349.77 372.49 226.89 372.49 349.06Z"
fill="black" stroke="black" stroke-width="0.2"/>
<path d="M373.98 349.77L373.98 226.18 372.49 226.89 373.98 349.77Z"
fill="black" stroke="black" stroke-width="0.2"/>
<path d="M373.98 349.77L375.48 350.45 373.98 226.18 373.98 349.77Z"
fill="black" stroke="black" stroke-width="0.2"/>
<path d="M375.48 350.45L375.48 225.51 373.98 226.18 375.48 350.45Z"
fill="black" stroke="black" stroke-width="0.2"/>
<path d="M375.48 350.45L376.99 351.09 375.48 225.51 375.48 350.45Z"
fill="black" stroke="black" stroke-width="0.2"/>
<path d="M376.99 351.09L376.99 224.87 375.48 225.51 376.99 351.09Z"
fill="black" stroke="black" stroke-width="0.2"/>
<path d="M376.99 351.09L378.53 351.69 376.99 224.87 376.99 351.09Z"
fill="black" stroke="black" stroke-width="0.2"/>
<path d="M378.53 351.69L378.53 224.27 376.99 224.87 378.53 351.69Z"
fill="black" stroke="black" stroke-width="0.2"/>
<path d="M378.53 351.69L380.07 352.25 378.53 224.27 378.53 351.69Z"
fill="black" stroke="black" stroke-width="0.2"/>
<path d="M380.07 352.25L380.07 223.7 378.53 224.27 380.07 352.25Z"
fill="black" stroke="black" stroke-width="0.2"/>
<path d="M380.07 352.25L381.63 352.78 380.07 223.7 380.07 352.25Z"
fill="black" stroke="black" stroke-width="0.2"/>
<path d="M381.63 352.78L381.63 223.17 380.07 223.7 381.63 352.78Z"
fill="black" stroke="black" stroke-width="0.2"/>
<path d="M381.63 352.78L383.2 353.27 381.63 223.17 381.63 352.78Z"
fill="black" stroke="black" stroke-width="0.2"/>
<path d="M383.2 353.27L383.2 222.68 381.63 223.17 383.2 353.27Z"
fill="black" stroke="black" stroke-width="0.2"/>
<path d="M383.2 353.27L384.79 353.72 383.2 222.68 383.2 353.27Z"
fill="black" stroke="black" stroke-width="0.2"/>
<path d="M384.79 353.72L384.79 222.23 383.2 222.68 384.79 353.72Z"
fill="black" stroke="black" stroke-width="0.2"/>
<path d="M384.79 353.72L386.38 354.14 384.79 222.23 384.79 353.72Z"
fill="black" stroke="black" stroke-width="0.2"/>
<path d="M386.38 354.14L386.38 221.82 384.79 222.23 386.38 354.14Z"
fill="black" stroke="black" stroke-width="0.2"/>
<path d="M386.38 354.14L387.99 354.51 386.38 221.82 386.38 354.14Z"
fill="black" stroke="black" stroke-width="0.2"/>
<path d="M387.99 354.51L387.99 221.44 386.38 221.82 387.99 354.51Z"
fill="black" stroke="black" stroke-width="0.2"/>
<path d="M387.99 354.51L389.6 354.85 387.99 221.44 387.99 354.51Z"
fill="black" stroke="black" stroke-width="0.2"/>
<path d="M389.6 354.85L389.6 221.11 387.99 221.44 389.6 354.85Z"
fill="black" stroke="black" stroke-width="0.2"/>
<path d="M389.6 354.85L391.22 355.14 389.6 221.11 389.6 354.85Z"
fill="black" stroke="black" stroke-width="0.2"/>
<path d="M391.22 355.14L391.22 220.81 389.6 221.11 391.22 355.14Z"
fill="black" stroke="black" stroke-width="0.2"/>
<path d="M391.22 355.14L392.84 355.4 391.22 220.81 391.22 355.14Z"
fill="black" stroke="black" stroke-width="0.2"/>
<path d="M392.84 355.4L392.84 220.55 391.22 220.81 392.84 355.4Z"
fill="black" stroke="black" stroke-width="0.2"/>
<path d="M392.84 355.4L394.48 355.62 392.84 220.55 392.84 355.4Z"
fill="black" stroke="black" stroke-width="0.2"/>
<path d="M394.48 355.62L394.48 220.33 392.84 220.55 394.48 355.62Z"
fill="black" stroke="black" stroke-width="0.2"/>
<path d="M394.48 355.62L396.11 355.8 394.48 220.33 394.48 355.62Z"
fill="black" stroke="black" stroke-width="0.2"/>
<path d="M396.11 355.8L396.11 220.16 394.48 220.33 396.11 355.8Z"
fill="black" stroke="black" stroke-width="0.2"/>
<path d="M396.11 355.8L397.75 355.94 396.11 220.16 396.11 355.8Z"
fill="black" stroke="black" stroke-width="0.2"/>
<path d="M397.75 355.94L397.75 220.02 396.11 220.16 397.75 355.94Z"
fill="black" stroke="black" stroke-width="0.2"/>
<path d="M397.75 355.94L399.4 356.04 397.75 220.02 397.75 355.94Z"
fill="black" stroke="black" stroke-width="0.2"/>
<path d="M399.4 356.04L399.4 219.92 397.75 220.02 399.4 356.04Z"
fill="black" stroke="black" stroke-width="0.2"/>
<path d="M399.4 356.04L401.04 356.1 399.4 219.92 399.4 356.04Z"
fill="black" stroke="black" stroke-width="0.2"/>
<path d="M401.04 356.1L401.04 219.86 399.4 219.92 401.04 356.1Z"
fill="black" stroke="black" stroke-width="0.2"/>
<path d="M401.04 356.1L402.69 356.12 401.04 219.86 401.04 356.1Z"
fill="black" stroke="black" stroke-width="0.2"/>
<path d="M402.69 356.12L402.69 219.84 401.04 219.86 402.69 356.12Z"
fill="black" stroke="black" stroke-width="0.2"/>
<path d="M470.83 287.98L470.63 293.13"
fill="none" stroke="black" stroke-width="0.5"/>
<path d="M470.63 293.13L470.05 298.25"
fill="none" stroke="black" stroke-width="0.5"/>
<path d="M470.05 298.25L469.08 303.32"
fill="none" stroke="black" stroke-width="0.5"/>
<path d="M469.08 303.32L467.73 308.3"
fill="none" stroke="black" stroke-width="0.5"/>
<path d="M467.73 308.3L466.01 313.16"
fill="none" stroke="black" stroke-width="0.5"/>
<path d="M466.01 313.16L463.92 317.87"
fill="none" stroke="black" stroke-width="0.5"/>
<path d="M463.92 317.87L461.48 322.42"
fill="none" stroke="black" stroke-width="0.5"/>
<path d="M461.48 322.42L458.71 326.77"
fill="none" stroke="black" stroke-width="0.5"/>
<path d="M458.71 326.77L455.62 330.89"
fill="none" stroke="black" stroke-width="0.5"/>
<path d="M455.62 330.89L452.22 334.77"
fill="none" stroke="black" stroke-width="0.5"/>
<path d="M452.22 334.77L448.54 338.38"
fill="none" stroke="black" stroke-width="0.5"/>
<path d="M448.54 338.38L444.59 341.71"
fill="none" stroke="black" stroke-width="0.5"/>
<path d="M444.59 341.71L440.41 344.72"
fill="none" stroke="black" stroke-width="0.5"/>
<path d="M440.41 344.72L436.01 347.41"
fill="none" stroke="black" stroke-width="0.5"/>
<path d="M436.01 347.41L431.42 349.76"
fill="none" stroke="black" stroke-width="0.5"/>
<path d="M431.42 349.76L426.67 351.76"
fill="none" stroke="black" stroke-width="0.5"/>
<path d="M426.67 351.76L421.77 353.39"
fill="none" stroke="black" stroke-width="0.5"/>
<path d="M421.77 353.39L416.77 354.64"
fill="none" stroke="black" stroke-width="0.5"/>
<path d="M416.77 354.64L411.69 355.52"
fill="none" stroke="black" stroke-width="0.5"/>
<path d="M411.69 355.52L406.56 356.01"
fill="none" stroke="black" stroke-width="0.5"/>
<path d="M406.56 356.01L401.4 356.1"
fill="none" stroke="black" stroke-width="0.5"/>
<path d="M401.4 356.1L396.25 355.81"
fill="none" stroke="black" stroke-width="0.5"/>
<path d="M396.25 355.81L391.14 355.13"
fill="none" stroke="black" stroke-width="0.5"/>
<path d="M391.14 355.13L386.09 354.06"
fill="none" stroke="black" stroke-width="0.5"/>
<path d="M386.09 354.06L381.14 352.62"
fill="none" stroke="black" stroke-width="0.5"/>
<path d="M381.14 352.62L376.32 350.8"
fill="none" stroke="black" stroke-width="0.5"/>
<path d="M376.32 350.8L371.64 348.63"
fill="none" stroke="black" stroke-width="0.5"/>
<path d="M371.64 348.63L367.14 346.11"
fill="none" stroke="black" stroke-width="0.5"/>
<path d="M367.14 346.11L362.85 343.25"
fill="none" stroke="black" stroke-width="0.5"/>
<path d="M362.85 343.25L358.78 340.08"
fill="none" stroke="black" stroke-width="0.5"/>
<path d="M358.78 340.08L354.97 336.61"
fill="none" stroke="black" stroke-width="0.5"/>
<path d="M354.97 336.61L351.42 332.86"
fill="none" stroke="black" stroke-width="0.5"/>
<path d="M351.42 332.86L348.18 328.86"
fill="none" stroke="black" stroke-width="0.5"/>
<path d="M348.18 328.86L345.24 324.62"
fill="none" stroke="black" stroke-width="0.5"/>
<path d="M345.24 324.62L342.63 320.17"
fill="none" stroke="black" stroke-width="0.5"/>
<path d="M342.63 320.17L340.37 315.53"
fill="none" stroke="black" stroke-width="0.5"/>
<path d="M340.37 315.53L338.47 310.74"
fill="none" stroke="black" stroke-width="0.5"/>
<path d="M338.47 310.74L336.93 305.82"
fill="none" stroke="black" stroke-width="0.5"/>
<path d="M336.93 305.82L335.77 300.8"
fill="none" stroke="black" stroke-width="0.5"/>
<path d="M335.77 300.8L334.99 295.7"
fill="none" stroke="black" stroke-width="0.5"/>
<path d="M334.99 295.7L334.6 290.55"
fill="none" stroke="black" stroke-width="0.5"/>
<path d="M334.6 290.55L334.6 285.4Z"
fill="none" stroke="black" stroke-width="0.5"/>
<path d="M334.6 285.4L334.99 280.26"
fill="none" stroke="black" stroke-width="0.5"/>
<path d="M334.99 280.26L335.77 275.16"
fill="none" stroke="black" stroke-width="0.5"/>
<path d="M335.77 275.16L336.93 270.13"
fill="none" stroke="black" stroke-width="0.5"/>
<path d="M336.93 270.13L338.47 265.21"
fill="none" stroke="black" stroke-width="0.5"/>
<path d="M338.47 265.21L340.37 260.42"
fill="none" stroke="black" stroke-width="0.5"/>
<path d="M340.37 260.42L342.63 255.78"
fill="none" stroke="black" stroke-width="0.5"/>
<path d="M342.63 255.78L345.24 251.34"
fill="none" stroke="black" stroke-width="0.5"/>
<path d="M345.24 251.34L348.18 247.1"
fill="none" stroke="black" stroke-width="0.5"/>
<path d="M348.18 247.1L351.42 243.09"
fill="none" stroke="black" stroke-width="0.5"/>
<path d="M351.42 243.09L354.97 239.34"
fill="none" stroke="black" stroke-width="0.5"/>
<path d="M354.97 239.34L358.78 235.87"
fill="none" stroke="black" stroke-width="0.5"/>
<path d="M358.78 235.87L362.85 232.7"
fill="none" stroke="black" stroke-width="0.5"/>
<path d="M362.85 232.7L367.14 229.84"
fill="none" stroke="black" stroke-width="0.5"/>
<path d="M367.14 229.84L371.64 227.32"
fill="none" stroke="black" stroke-width="0.5"/>
<path d="M371.64 227.32L376.32 225.15"
fill="none" stroke="black" stroke-width="0.5"/>
<path d="M376.32 225.15L381.14 223.33"
fill="none" stroke="black" stroke-width="0.5"/>
<path d="M381.14 223.33L386.09 221.89"
fill="none" stroke="black" stroke-width="0.5"/>
<path d="M386.09 221.89L391.14 220.82"
fill="none" stroke="black" stroke-width="0.5"/>
<path d="M391.14 220.82L396.25 220.14"
fill="none" stroke="black" stroke-width="0.5"/>
<path d="M396.25 220.14L401.4 219.85"
fill="none" stroke="black" stroke-width="0.5"/>
<path d="M401.4 219.85L406.56 219.95"
fill="none" stroke="black" stroke-width="0.5"/>
<path d="M406.56 219.95L411.69 220.43"
fill="none" stroke="black" stroke-width="0.5"/>
<path d="M411.69 220.43L416.77 221.31"
fill="none" stroke="black" stroke-width="0.5"/>
<path d="M416.77 221.31L421.77 222.56"
fill="none" stroke="black" stroke-width="0.5"/>
<path d="M421.77 222.56L426.67 224.2"
fill="none" stroke="black" stroke-width="0.5"/>
<path d="M426.67 224.2L431.42 226.19"
fill="none" stroke="black" stroke-width="0.5"/>
<path d="M431.42 226.19L436.01 228.54"
fill="none" stroke="black" stroke-width="0.5"/>
<path d="M436.01 228.54L440.41 231.23"
fill="none" stroke="black" stroke-width="0.5"/>
<path d="M440.41 231.23L444.59 234.25"
fill="none" stroke="black" stroke-width="0.5"/>
<path d="M444.59 234.25L448.54 237.57"
fill="none" stroke="black" stroke-width="0.5"/>
<path d="M448.54 237.57L452.22 241.18"
fill="none" stroke="black" stroke-width="0.5"/>
<path d="M452.22 241.18L455.62 245.06"
fill="none" stroke="black" stroke-width="0.5"/>
<path d="M455.62 245.06L458.71 249.19"
fill="none" stroke="black" stroke-width="0.5"/>
<path d="M458.71 249.19L461.48 253.54"
fill="none" stroke="black" stroke-width="0.5"/>
<path d="M461.48 253.54L463.92 258.08"
fill="none" stroke="black" stroke-width="0.5"/>
<path d="M463.92 258.08L466.01 262.8"
fill="none" stroke="black" stroke-width="0.5"/>
<path d="M466.01 262.8L467.73 267.66"
fill="none" stroke="black" stroke-width="0.5"/>
<path d="M467.73 267.66L469.08 272.63"
fill="none" stroke="black" stroke-width="0.5"/>
<path d="M469.08 272.63L470.05 277.7"
fill="none" stroke="black" stroke-width="0.5"/>
<path d="M470.05 277.7L470.63 282.82"
fill="none" stroke="black" stroke-width="0.5"/>
<path d="M470.63 282.82L470.83 287.98"
fill="none" stroke="black" stroke-width="0.5"/>
<path d="M402.69 219.84L402.69 356.12Z"
fill="none" stroke="black" stroke-width="0.5"/>
</svg>
