<?xml version="1.0" encoding="UTF-8"?>
<svg xmlns="http://www.w3.org/2000/svg" width="800.000" height="600.000" viewBox="0.0 0.0 800.000 600.000" version="1.1">
  <desc>Produce by Acme CAD Converter</desc>
<path d="M310.97 282.55L311.37 288.36 353.59 282.55 353.59 282.55 310.97 282.55Z"
fill-rule="nonzero" fill="black"/>
<path d="M311.37 288.36L312.55 294.05 353.59 282.55 353.59 282.55 311.37 288.36Z"
fill-rule="nonzero" fill="black"/>
<path d="M312.55 294.05L314.5 299.53 353.59 282.55 353.59 282.55 312.55 294.05Z"
fill-rule="nonzero" fill="black"/>
<path d="M314.5 299.53L317.18 304.7 353.59 282.55 353.59 282.55 314.5 299.53Z"
fill-rule="nonzero" fill="black"/>
<path d="M317.18 304.7L320.53 309.45 353.59 282.55 353.59 282.55 317.18 304.7Z"
fill-rule="nonzero" fill="black"/>
<path d="M320.53 309.45L324.5 313.7 353.59 282.55 353.59 282.55 320.53 309.45Z"
fill-rule="nonzero" fill="black"/>
<path d="M324.5 313.7L329.02 317.37 353.59 282.55 353.59 282.55 324.5 313.7Z"
fill-rule="nonzero" fill="black"/>
<path d="M329.02 317.37L333.99 320.39 353.59 282.55 353.59 282.55 329.02 317.37Z"
fill-rule="nonzero" fill="black"/>
<path d="M333.99 320.39L339.32 322.71 353.59 282.55 353.59 282.55 333.99 320.39Z"
fill-rule="nonzero" fill="black"/>
<path d="M339.32 322.71L344.92 324.28 353.59 282.55 353.59 282.55 339.32 322.71Z"
fill-rule="nonzero" fill="black"/>
<path d="M344.92 324.28L350.68 325.07 353.59 282.55 353.59 282.55 344.92 324.28Z"
fill-rule="nonzero" fill="black"/>
<path d="M350.68 325.07L356.5 325.07 353.59 282.55 353.59 282.55 350.68 325.07Z"
fill-rule="nonzero" fill="black"/>
<path d="M356.5 325.07L362.26 324.28 353.59 282.55 353.59 282.55 356.5 325.07Z"
fill-rule="nonzero" fill="black"/>
<path d="M362.26 324.28L367.86 322.71 353.59 282.55 353.59 282.55 362.26 324.28Z"
fill-rule="nonzero" fill="black"/>
<path d="M367.86 322.71L373.2 320.39 353.59 282.55 353.59 282.55 367.86 322.71Z"
fill-rule="nonzero" fill="black"/>
<path d="M373.2 320.39L378.17 317.37 353.59 282.55 353.59 282.55 373.2 320.39Z"
fill-rule="nonzero" fill="black"/>
<path d="M378.17 317.37L382.68 313.7 353.59 282.55 353.59 282.55 378.17 317.37Z"
fill-rule="nonzero" fill="black"/>
<path d="M382.68 313.7L386.65 309.45 353.59 282.55 353.59 282.55 382.68 313.7Z"
fill-rule="nonzero" fill="black"/>
<path d="M386.65 309.45L390.01 304.7 353.59 282.55 353.59 282.55 386.65 309.45Z"
fill-rule="nonzero" fill="black"/>
<path d="M390.01 304.7L392.68 299.53 353.59 282.55 353.59 282.55 390.01 304.7Z"
fill-rule="nonzero" fill="black"/>
<path d="M392.68 299.53L394.63 294.05 353.59 282.55 353.59 282.55 392.68 299.53Z"
fill-rule="nonzero" fill="black"/>
<path d="M394.63 294.05L395.81 288.36 353.59 282.55 353.59 282.55 394.63 294.05Z"
fill-rule="nonzero" fill="black"/>
<path d="M395.81 288.36L396.21 282.55 353.59 282.55 353.59 282.55 395.81 288.36Z"
fill-rule="nonzero" fill="black"/>
<path d="M396.21 282.55L395.81 276.75 353.59 282.55 353.59 282.55 396.21 282.55Z"
fill-rule="nonzero" fill="black"/>
<path d="M395.81 276.75L394.63 271.06 353.59 282.55 353.59 282.55 395.81 276.75Z"
fill-rule="nonzero" fill="black"/>
<path d="M394.63 271.06L392.68 265.57 353.59 282.55 353.59 282.55 394.63 271.06Z"
fill-rule="nonzero" fill="black"/>
<path d="M392.68 265.57L390.01 260.41 353.59 282.55 353.59 282.55 392.68 265.57Z"
fill-rule="nonzero" fill="black"/>
<path d="M390.01 260.41L386.65 255.66 353.59 282.55 353.59 282.55 390.01 260.41Z"
fill-rule="nonzero" fill="black"/>
<path d="M386.65 255.66L382.68 251.41 353.59 282.55 353.59 282.55 386.65 255.66Z"
fill-rule="nonzero" fill="black"/>
<path d="M382.68 251.41L378.17 247.74 353.59 282.55 353.59 282.55 382.68 251.41Z"
fill-rule="nonzero" fill="black"/>
<path d="M378.17 247.74L373.2 244.71 353.59 282.55 353.59 282.55 378.17 247.74Z"
fill-rule="nonzero" fill="black"/>
<path d="M373.2 244.71L367.86 242.4 353.59 282.55 353.59 282.55 373.2 244.71Z"
fill-rule="nonzero" fill="black"/>
<path d="M367.86 242.4L362.26 240.83 353.59 282.55 353.59 282.55 367.86 242.4Z"
fill-rule="nonzero" fill="black"/>
<path d="M362.26 240.83L356.5 240.03 353.59 282.55 353.59 282.55 362.26 240.83Z"
fill-rule="nonzero" fill="black"/>
<path d="M356.5 240.03L350.68 240.03 353.59 282.55 353.59 282.55 356.5 240.03Z"
fill-rule="nonzero" fill="black"/>
<path d="M350.68 240.03L344.92 240.83 353.59 282.55 353.59 282.55 350.68 240.03Z"
fill-rule="nonzero" fill="black"/>
<path d="M344.92 240.83L339.32 242.4 353.59 282.55 353.59 282.55 344.92 240.83Z"
fill-rule="nonzero" fill="black"/>
<path d="M339.32 242.4L333.99 244.71 353.59 282.55 353.59 282.55 339.32 242.4Z"
fill-rule="nonzero" fill="black"/>
<path d="M333.99 244.71L329.02 247.74 353.59 282.55 353.59 282.55 333.99 244.71Z"
fill-rule="nonzero" fill="black"/>
<path d="M329.02 247.74L324.5 251.41 353.59 282.55 353.59 282.55 329.02 247.74Z"
fill-rule="nonzero" fill="black"/>
<path d="M324.5 251.41L320.53 255.66 353.59 282.55 353.59 282.55 324.5 251.41Z"
fill-rule="nonzero" fill="black"/>
<path d="M320.53 255.66L317.18 260.41 353.59 282.55 353.59 282.55 320.53 255.66Z"
fill-rule="nonzero" fill="black"/>
<path d="M317.18 260.41L314.5 265.57 353.59 282.55 353.59 282.55 317.18 260.41Z"
fill-rule="nonzero" fill="black"/>
<path d="M314.5 265.57L312.55 271.06 353.59 282.55 353.59 282.55 314.5 265.57Z"
fill-rule="nonzero" fill="black"/>
<path d="M312.55 271.06L311.37 276.75 353.59 282.55 353.59 282.55 312.55 271.06Z"
fill-rule="nonzero" fill="black"/>
<path d="M311.37 276.75L310.97 282.55 353.59 282.55 353.59 282.55 311.37 276.75Z"
fill-rule="nonzero" fill="black"/>
</svg>
