<?xml version="1.0" encoding="UTF-8"?>
<svg xmlns="http://www.w3.org/2000/svg" width="800.000" height="600.000" viewBox="0.0 0.0 800.000 600.000" version="1.1">
  <desc>Produce by Acme CAD Converter</desc>
<path d="M394.7 282.7L394.7 282.7Z"
fill="none" stroke="black" stroke-width="0.5"/>
<path d="M394.7 148.6L391.8 148.8"
fill="none" stroke="black" stroke-width="0.5"/>
<path d="M391.8 148.8L388.9 149.39"
fill="none" stroke="black" stroke-width="0.5"/>
<path d="M388.9 149.39L386.02 150.37"
fill="none" stroke="black" stroke-width="0.5"/>
<path d="M386.02 150.37L383.17 151.73"
fill="none" stroke="black" stroke-width="0.5"/>
<path d="M383.17 151.73L380.35 153.49"
fill="none" stroke="black" stroke-width="0.5"/>
<path d="M380.35 153.49L377.58 155.62"
fill="none" stroke="black" stroke-width="0.5"/>
<path d="M377.58 155.62L374.85 158.12"
fill="none" stroke="black" stroke-width="0.5"/>
<path d="M374.85 158.12L372.18 160.99"
fill="none" stroke="black" stroke-width="0.5"/>
<path d="M372.18 160.99L369.58 164.22"
fill="none" stroke="black" stroke-width="0.5"/>
<path d="M369.58 164.22L367.05 167.79"
fill="none" stroke="black" stroke-width="0.5"/>
<path d="M367.05 167.79L364.6 171.71"
fill="none" stroke="black" stroke-width="0.5"/>
<path d="M364.6 171.71L362.24 175.94"
fill="none" stroke="black" stroke-width="0.5"/>
<path d="M362.24 175.94L359.98 180.49"
fill="none" stroke="black" stroke-width="0.5"/>
<path d="M359.98 180.49L357.81 185.34"
fill="none" stroke="black" stroke-width="0.5"/>
<path d="M357.81 185.34L355.76 190.48"
fill="none" stroke="black" stroke-width="0.5"/>
<path d="M355.76 190.48L353.82 195.88"
fill="none" stroke="black" stroke-width="0.5"/>
<path d="M353.82 195.88L352 201.54"
fill="none" stroke="black" stroke-width="0.5"/>
<path d="M352 201.54L350.31 207.44"
fill="none" stroke="black" stroke-width="0.5"/>
<path d="M350.31 207.44L348.74 213.56"
fill="none" stroke="black" stroke-width="0.5"/>
<path d="M348.74 213.56L347.31 219.88"
fill="none" stroke="black" stroke-width="0.5"/>
<path d="M347.31 219.88L346.02 226.39"
fill="none" stroke="black" stroke-width="0.5"/>
<path d="M346.02 226.39L344.87 233.06"
fill="none" stroke="black" stroke-width="0.5"/>
<path d="M344.87 233.06L343.87 239.88"
fill="none" stroke="black" stroke-width="0.5"/>
<path d="M343.87 239.88L343.02 246.82"
fill="none" stroke="black" stroke-width="0.5"/>
<path d="M343.02 246.82L342.32 253.87"
fill="none" stroke="black" stroke-width="0.5"/>
<path d="M342.32 253.87L341.77 261"
fill="none" stroke="black" stroke-width="0.5"/>
<path d="M341.77 261L341.38 268.2"
fill="none" stroke="black" stroke-width="0.5"/>
<path d="M341.38 268.2L341.14 275.44"
fill="none" stroke="black" stroke-width="0.5"/>
<path d="M341.14 275.44L341.06 282.7"
fill="none" stroke="black" stroke-width="0.5"/>
<path d="M341.06 282.7L341.14 289.96"
fill="none" stroke="black" stroke-width="0.5"/>
<path d="M341.14 289.96L341.38 297.19"
fill="none" stroke="black" stroke-width="0.5"/>
<path d="M341.38 297.19L341.77 304.39"
fill="none" stroke="black" stroke-width="0.5"/>
<path d="M341.77 304.39L342.32 311.52"
fill="none" stroke="black" stroke-width="0.5"/>
<path d="M342.32 311.52L343.02 318.57"
fill="none" stroke="black" stroke-width="0.5"/>
<path d="M343.02 318.57L343.87 325.51"
fill="none" stroke="black" stroke-width="0.5"/>
<path d="M343.87 325.51L344.87 332.33"
fill="none" stroke="black" stroke-width="0.5"/>
<path d="M344.87 332.33L346.02 339"
fill="none" stroke="black" stroke-width="0.5"/>
<path d="M346.02 339L347.31 345.51"
fill="none" stroke="black" stroke-width="0.5"/>
<path d="M347.31 345.51L348.74 351.83"
fill="none" stroke="black" stroke-width="0.5"/>
<path d="M348.74 351.83L350.31 357.95"
fill="none" stroke="black" stroke-width="0.5"/>
<path d="M350.31 357.95L352 363.85"
fill="none" stroke="black" stroke-width="0.5"/>
<path d="M352 363.85L353.82 369.51"
fill="none" stroke="black" stroke-width="0.5"/>
<path d="M353.82 369.51L355.76 374.91"
fill="none" stroke="black" stroke-width="0.5"/>
<path d="M355.76 374.91L357.81 380.05"
fill="none" stroke="black" stroke-width="0.5"/>
<path d="M357.81 380.05L359.98 384.9"
fill="none" stroke="black" stroke-width="0.5"/>
<path d="M359.98 384.9L362.24 389.45"
fill="none" stroke="black" stroke-width="0.5"/>
<path d="M362.24 389.45L364.6 393.69"
fill="none" stroke="black" stroke-width="0.5"/>
<path d="M364.6 393.69L367.05 397.6"
fill="none" stroke="black" stroke-width="0.5"/>
<path d="M367.05 397.6L369.58 401.17"
fill="none" stroke="black" stroke-width="0.5"/>
<path d="M369.58 401.17L372.18 404.4"
fill="none" stroke="black" stroke-width="0.5"/>
<path d="M372.18 404.4L374.85 407.27"
fill="none" stroke="black" stroke-width="0.5"/>
<path d="M374.85 407.27L377.58 409.77"
fill="none" stroke="black" stroke-width="0.5"/>
<path d="M377.58 409.77L380.35 411.91"
fill="none" stroke="black" stroke-width="0.5"/>
<path d="M380.35 411.91L383.17 413.66"
fill="none" stroke="black" stroke-width="0.5"/>
<path d="M383.17 413.66L386.02 415.03"
fill="none" stroke="black" stroke-width="0.5"/>
<path d="M386.02 415.03L388.9 416.01"
fill="none" stroke="black" stroke-width="0.5"/>
<path d="M388.9 416.01L391.8 416.6"
fill="none" stroke="black" stroke-width="0.5"/>
<path d="M391.8 416.6L394.7 416.79"
fill="none" stroke="black" stroke-width="0.5"/>
<path d="M394.7 416.79L397.61 416.6"
fill="none" stroke="black" stroke-width="0.5"/>
<path d="M397.61 416.6L400.5 416.01"
fill="none" stroke="black" stroke-width="0.5"/>
<path d="M400.5 416.01L403.38 415.03"
fill="none" stroke="black" stroke-width="0.5"/>
<path d="M403.38 415.03L406.23 413.66"
fill="none" stroke="black" stroke-width="0.5"/>
<path d="M406.23 413.66L409.05 411.91"
fill="none" stroke="black" stroke-width="0.5"/>
<path d="M409.05 411.91L411.83 409.77"
fill="none" stroke="black" stroke-width="0.5"/>
<path d="M411.83 409.77L414.56 407.27"
fill="none" stroke="black" stroke-width="0.5"/>
<path d="M414.56 407.27L417.22 404.4"
fill="none" stroke="black" stroke-width="0.5"/>
<path d="M417.22 404.4L419.83 401.17"
fill="none" stroke="black" stroke-width="0.5"/>
<path d="M419.83 401.17L422.36 397.6"
fill="none" stroke="black" stroke-width="0.5"/>
<path d="M422.36 397.6L424.8 393.69"
fill="none" stroke="black" stroke-width="0.5"/>
<path d="M424.8 393.69L427.16 389.45"
fill="none" stroke="black" stroke-width="0.5"/>
<path d="M427.16 389.45L429.43 384.9"
fill="none" stroke="black" stroke-width="0.5"/>
<path d="M429.43 384.9L431.59 380.05"
fill="none" stroke="black" stroke-width="0.5"/>
<path d="M431.59 380.05L433.64 374.91"
fill="none" stroke="black" stroke-width="0.5"/>
<path d="M433.64 374.91L435.58 369.51"
fill="none" stroke="black" stroke-width="0.5"/>
<path d="M435.58 369.51L437.4 363.85"
fill="none" stroke="black" stroke-width="0.5"/>
<path d="M437.4 363.85L439.1 357.95"
fill="none" stroke="black" stroke-width="0.5"/>
<path d="M439.1 357.95L440.66 351.83"
fill="none" stroke="black" stroke-width="0.5"/>
<path d="M440.66 351.83L442.09 345.51"
fill="none" stroke="black" stroke-width="0.5"/>
<path d="M442.09 345.51L443.38 339"
fill="none" stroke="black" stroke-width="0.5"/>
<path d="M443.38 339L444.53 332.33"
fill="none" stroke="black" stroke-width="0.5"/>
<path d="M444.53 332.33L445.53 325.51"
fill="none" stroke="black" stroke-width="0.5"/>
<path d="M445.53 325.51L446.39 318.57"
fill="none" stroke="black" stroke-width="0.5"/>
<path d="M446.39 318.57L447.09 311.52"
fill="none" stroke="black" stroke-width="0.5"/>
<path d="M447.09 311.52L447.63 304.39"
fill="none" stroke="black" stroke-width="0.5"/>
<path d="M447.63 304.39L448.03 297.19"
fill="none" stroke="black" stroke-width="0.5"/>
<path d="M448.03 297.19L448.26 289.96"
fill="none" stroke="black" stroke-width="0.5"/>
<path d="M448.26 289.96L448.34 282.7"
fill="none" stroke="black" stroke-width="0.5"/>
<path d="M448.34 282.7L448.26 275.44"
fill="none" stroke="black" stroke-width="0.5"/>
<path d="M448.26 275.44L448.03 268.2"
fill="none" stroke="black" stroke-width="0.5"/>
<path d="M448.03 268.2L447.63 261"
fill="none" stroke="black" stroke-width="0.5"/>
<path d="M447.63 261L447.09 253.87"
fill="none" stroke="black" stroke-width="0.5"/>
<path d="M447.09 253.87L446.39 246.82"
fill="none" stroke="black" stroke-width="0.5"/>
<path d="M446.39 246.82L445.53 239.88"
fill="none" stroke="black" stroke-width="0.5"/>
<path d="M445.53 239.88L444.53 233.06"
fill="none" stroke="black" stroke-width="0.5"/>
<path d="M444.53 233.06L443.38 226.39"
fill="none" stroke="black" stroke-width="0.5"/>
<path d="M443.38 226.39L442.09 219.88"
fill="none" stroke="black" stroke-width="0.5"/>
<path d="M442.09 219.88L440.66 213.56"
fill="none" stroke="black" stroke-width="0.5"/>
<path d="M440.66 213.56L439.1 207.44"
fill="none" stroke="black" stroke-width="0.5"/>
<path d="M439.1 207.44L437.4 201.54"
fill="none" stroke="black" stroke-width="0.5"/>
<path d="M437.4 201.54L435.58 195.88"
fill="none" stroke="black" stroke-width="0.5"/>
<path d="M435.58 195.88L433.64 190.48"
fill="none" stroke="black" stroke-width="0.5"/>
<path d="M433.64 190.48L431.59 185.34"
fill="none" stroke="black" stroke-width="0.5"/>
<path d="M431.59 185.34L429.43 180.49"
fill="none" stroke="black" stroke-width="0.5"/>
<path d="M429.43 180.49L427.16 175.94"
fill="none" stroke="black" stroke-width="0.5"/>
<path d="M427.16 175.94L424.8 171.71"
fill="none" stroke="black" stroke-width="0.5"/>
<path d="M424.8 171.71L422.36 167.79"
fill="none" stroke="black" stroke-width="0.5"/>
<path d="M422.36 167.79L419.83 164.22"
fill="none" stroke="black" stroke-width="0.5"/>
<path d="M419.83 164.22L417.22 160.99"
fill="none" stroke="black" stroke-width="0.5"/>
<path d="M417.22 160.99L414.56 158.12"
fill="none" stroke="black" stroke-width="0.5"/>
<path d="M414.56 158.12L411.83 155.62"
fill="none" stroke="black" stroke-width="0.5"/>
<path d="M411.83 155.62L409.05 153.49"
fill="none" stroke="black" stroke-width="0.5"/>
<path d="M409.05 153.49L406.23 151.73"
fill="none" stroke="black" stroke-width="0.5"/>
<path d="M406.23 151.73L403.38 150.37"
fill="none" stroke="black" stroke-width="0.5"/>
<path d="M403.38 150.37L400.5 149.39"
fill="none" stroke="black" stroke-width="0.5"/>
<path d="M400.5 149.39L397.61 148.8"
fill="none" stroke="black" stroke-width="0.5"/>
<path d="M397.61 148.8L394.7 148.6"
fill="none" stroke="black" stroke-width="0.5"/>
<path d="M528.8 282.7L528.6 279.79"
fill="none" stroke="black" stroke-width="0.5"/>
<path d="M528.6 279.79L528.01 276.9"
fill="none" stroke="black" stroke-width="0.5"/>
<path d="M528.01 276.9L527.03 274.02"
fill="none" stroke="black" stroke-width="0.5"/>
<path d="M527.03 274.02L525.66 271.17"
fill="none" stroke="black" stroke-width="0.5"/>
<path d="M525.66 271.17L523.91 268.35"
fill="none" stroke="black" stroke-width="0.5"/>
<path d="M523.91 268.35L521.78 265.57"
fill="none" stroke="black" stroke-width="0.5"/>
<path d="M521.78 265.57L519.28 262.84"
fill="none" stroke="black" stroke-width="0.5"/>
<path d="M519.28 262.84L516.41 260.17"
fill="none" stroke="black" stroke-width="0.5"/>
<path d="M516.41 260.17L513.18 257.57"
fill="none" stroke="black" stroke-width="0.5"/>
<path d="M513.18 257.57L509.6 255.04"
fill="none" stroke="black" stroke-width="0.5"/>
<path d="M509.6 255.04L505.69 252.6"
fill="none" stroke="black" stroke-width="0.5"/>
<path d="M505.69 252.6L501.46 250.24"
fill="none" stroke="black" stroke-width="0.5"/>
<path d="M501.46 250.24L496.91 247.97"
fill="none" stroke="black" stroke-width="0.5"/>
<path d="M496.91 247.97L492.06 245.81"
fill="none" stroke="black" stroke-width="0.5"/>
<path d="M492.06 245.81L486.92 243.75"
fill="none" stroke="black" stroke-width="0.5"/>
<path d="M486.92 243.75L481.51 241.81"
fill="none" stroke="black" stroke-width="0.5"/>
<path d="M481.51 241.81L475.85 239.99"
fill="none" stroke="black" stroke-width="0.5"/>
<path d="M475.85 239.99L469.96 238.3"
fill="none" stroke="black" stroke-width="0.5"/>
<path d="M469.96 238.3L463.84 236.74"
fill="none" stroke="black" stroke-width="0.5"/>
<path d="M463.84 236.74L457.51 235.31"
fill="none" stroke="black" stroke-width="0.5"/>
<path d="M457.51 235.31L451.01 234.02"
fill="none" stroke="black" stroke-width="0.5"/>
<path d="M451.01 234.02L444.34 232.87"
fill="none" stroke="black" stroke-width="0.5"/>
<path d="M444.34 232.87L437.52 231.87"
fill="none" stroke="black" stroke-width="0.5"/>
<path d="M437.52 231.87L430.58 231.01"
fill="none" stroke="black" stroke-width="0.5"/>
<path d="M430.58 231.01L423.53 230.31"
fill="none" stroke="black" stroke-width="0.5"/>
<path d="M423.53 230.31L416.4 229.76"
fill="none" stroke="black" stroke-width="0.5"/>
<path d="M416.4 229.76L409.2 229.37"
fill="none" stroke="black" stroke-width="0.5"/>
<path d="M409.2 229.37L401.96 229.14"
fill="none" stroke="black" stroke-width="0.5"/>
<path d="M401.96 229.14L394.7 229.06"
fill="none" stroke="black" stroke-width="0.5"/>
<path d="M394.7 229.06L387.44 229.14"
fill="none" stroke="black" stroke-width="0.5"/>
<path d="M387.44 229.14L380.2 229.37"
fill="none" stroke="black" stroke-width="0.5"/>
<path d="M380.2 229.37L373.01 229.76"
fill="none" stroke="black" stroke-width="0.5"/>
<path d="M373.01 229.76L365.88 230.31"
fill="none" stroke="black" stroke-width="0.5"/>
<path d="M365.88 230.31L358.83 231.01"
fill="none" stroke="black" stroke-width="0.5"/>
<path d="M358.83 231.01L351.88 231.87"
fill="none" stroke="black" stroke-width="0.5"/>
<path d="M351.88 231.87L345.07 232.87"
fill="none" stroke="black" stroke-width="0.5"/>
<path d="M345.07 232.87L338.4 234.02"
fill="none" stroke="black" stroke-width="0.5"/>
<path d="M338.4 234.02L331.89 235.31"
fill="none" stroke="black" stroke-width="0.5"/>
<path d="M331.89 235.31L325.57 236.74"
fill="none" stroke="black" stroke-width="0.5"/>
<path d="M325.57 236.74L319.45 238.3"
fill="none" stroke="black" stroke-width="0.5"/>
<path d="M319.45 238.3L313.55 239.99"
fill="none" stroke="black" stroke-width="0.5"/>
<path d="M313.55 239.99L307.89 241.81"
fill="none" stroke="black" stroke-width="0.5"/>
<path d="M307.89 241.81L302.48 243.75"
fill="none" stroke="black" stroke-width="0.5"/>
<path d="M302.48 243.75L297.35 245.81"
fill="none" stroke="black" stroke-width="0.5"/>
<path d="M297.35 245.81L292.5 247.97"
fill="none" stroke="black" stroke-width="0.5"/>
<path d="M292.5 247.97L287.95 250.24"
fill="none" stroke="black" stroke-width="0.5"/>
<path d="M287.95 250.24L283.71 252.6"
fill="none" stroke="black" stroke-width="0.5"/>
<path d="M283.71 252.6L279.8 255.04"
fill="none" stroke="black" stroke-width="0.5"/>
<path d="M279.8 255.04L276.23 257.57"
fill="none" stroke="black" stroke-width="0.5"/>
<path d="M276.23 257.57L273 260.17"
fill="none" stroke="black" stroke-width="0.5"/>
<path d="M273 260.17L270.13 262.84"
fill="none" stroke="black" stroke-width="0.5"/>
<path d="M270.13 262.84L267.62 265.57"
fill="none" stroke="black" stroke-width="0.5"/>
<path d="M267.62 265.57L265.49 268.35"
fill="none" stroke="black" stroke-width="0.5"/>
<path d="M265.49 268.35L263.74 271.17"
fill="none" stroke="black" stroke-width="0.5"/>
<path d="M263.74 271.17L262.37 274.02"
fill="none" stroke="black" stroke-width="0.5"/>
<path d="M262.37 274.02L261.39 276.9"
fill="none" stroke="black" stroke-width="0.5"/>
<path d="M261.39 276.9L260.8 279.79"
fill="none" stroke="black" stroke-width="0.5"/>
<path d="M260.8 279.79L260.61 282.7"
fill="none" stroke="black" stroke-width="0.5"/>
<path d="M260.61 282.7L260.8 285.6"
fill="none" stroke="black" stroke-width="0.5"/>
<path d="M260.8 285.6L261.39 288.5"
fill="none" stroke="black" stroke-width="0.5"/>
<path d="M261.39 288.5L262.37 291.37"
fill="none" stroke="black" stroke-width="0.5"/>
<path d="M262.37 291.37L263.74 294.23"
fill="none" stroke="black" stroke-width="0.5"/>
<path d="M263.74 294.23L265.49 297.05"
fill="none" stroke="black" stroke-width="0.5"/>
<path d="M265.49 297.05L267.62 299.82"
fill="none" stroke="black" stroke-width="0.5"/>
<path d="M267.62 299.82L270.13 302.55"
fill="none" stroke="black" stroke-width="0.5"/>
<path d="M270.13 302.55L273 305.22"
fill="none" stroke="black" stroke-width="0.5"/>
<path d="M273 305.22L276.23 307.82"
fill="none" stroke="black" stroke-width="0.5"/>
<path d="M276.23 307.82L279.8 310.35"
fill="none" stroke="black" stroke-width="0.5"/>
<path d="M279.8 310.35L283.71 312.8"
fill="none" stroke="black" stroke-width="0.5"/>
<path d="M283.71 312.8L287.95 315.16"
fill="none" stroke="black" stroke-width="0.5"/>
<path d="M287.95 315.16L292.5 317.42"
fill="none" stroke="black" stroke-width="0.5"/>
<path d="M292.5 317.42L297.35 319.58"
fill="none" stroke="black" stroke-width="0.5"/>
<path d="M297.35 319.58L302.48 321.64"
fill="none" stroke="black" stroke-width="0.5"/>
<path d="M302.48 321.64L307.89 323.58"
fill="none" stroke="black" stroke-width="0.5"/>
<path d="M307.89 323.58L313.55 325.4"
fill="none" stroke="black" stroke-width="0.5"/>
<path d="M313.55 325.4L319.45 327.09"
fill="none" stroke="black" stroke-width="0.5"/>
<path d="M319.45 327.09L325.57 328.66"
fill="none" stroke="black" stroke-width="0.5"/>
<path d="M325.57 328.66L331.89 330.09"
fill="none" stroke="black" stroke-width="0.5"/>
<path d="M331.89 330.09L338.4 331.38"
fill="none" stroke="black" stroke-width="0.5"/>
<path d="M338.4 331.38L345.07 332.53"
fill="none" stroke="black" stroke-width="0.5"/>
<path d="M345.07 332.53L351.88 333.53"
fill="none" stroke="black" stroke-width="0.5"/>
<path d="M351.88 333.53L358.83 334.38"
fill="none" stroke="black" stroke-width="0.5"/>
<path d="M358.83 334.38L365.88 335.08"
fill="none" stroke="black" stroke-width="0.5"/>
<path d="M365.88 335.08L373.01 335.63"
fill="none" stroke="black" stroke-width="0.5"/>
<path d="M373.01 335.63L380.2 336.02"
fill="none" stroke="black" stroke-width="0.5"/>
<path d="M380.2 336.02L387.44 336.26"
fill="none" stroke="black" stroke-width="0.5"/>
<path d="M387.44 336.26L394.7 336.34"
fill="none" stroke="black" stroke-width="0.5"/>
<path d="M394.7 336.34L401.96 336.26"
fill="none" stroke="black" stroke-width="0.5"/>
<path d="M401.96 336.26L409.2 336.02"
fill="none" stroke="black" stroke-width="0.5"/>
<path d="M409.2 336.02L416.4 335.63"
fill="none" stroke="black" stroke-width="0.5"/>
<path d="M416.4 335.63L423.53 335.08"
fill="none" stroke="black" stroke-width="0.5"/>
<path d="M423.53 335.08L430.58 334.38"
fill="none" stroke="black" stroke-width="0.5"/>
<path d="M430.58 334.38L437.52 333.53"
fill="none" stroke="black" stroke-width="0.5"/>
<path d="M437.52 333.53L444.34 332.53"
fill="none" stroke="black" stroke-width="0.5"/>
<path d="M444.34 332.53L451.01 331.38"
fill="none" stroke="black" stroke-width="0.5"/>
<path d="M451.01 331.38L457.51 330.09"
fill="none" stroke="black" stroke-width="0.5"/>
<path d="M457.51 330.09L463.84 328.66"
fill="none" stroke="black" stroke-width="0.5"/>
<path d="M463.84 328.66L469.96 327.09"
fill="none" stroke="black" stroke-width="0.5"/>
<path d="M469.96 327.09L475.85 325.4"
fill="none" stroke="black" stroke-width="0.5"/>
<path d="M475.85 325.4L481.51 323.58"
fill="none" stroke="black" stroke-width="0.5"/>
<path d="M481.51 323.58L486.92 321.64"
fill="none" stroke="black" stroke-width="0.5"/>
<path d="M486.92 321.64L492.06 319.58"
fill="none" stroke="black" stroke-width="0.5"/>
<path d="M492.06 319.58L496.91 317.42"
fill="none" stroke="black" stroke-width="0.5"/>
<path d="M496.91 317.42L501.46 315.16"
fill="none" stroke="black" stroke-width="0.5"/>
<path d="M501.46 315.16L505.69 312.8"
fill="none" stroke="black" stroke-width="0.5"/>
<path d="M505.69 312.8L509.6 310.35"
fill="none" stroke="black" stroke-width="0.5"/>
<path d="M509.6 310.35L513.18 307.82"
fill="none" stroke="black" stroke-width="0.5"/>
<path d="M513.18 307.82L516.41 305.22"
fill="none" stroke="black" stroke-width="0.5"/>
<path d="M516.41 305.22L519.28 302.55"
fill="none" stroke="black" stroke-width="0.5"/>
<path d="M519.28 302.55L521.78 299.82"
fill="none" stroke="black" stroke-width="0.5"/>
<path d="M521.78 299.82L523.91 297.05"
fill="none" stroke="black" stroke-width="0.5"/>
<path d="M523.91 297.05L525.66 294.23"
fill="none" stroke="black" stroke-width="0.5"/>
<path d="M525.66 294.23L527.03 291.37"
fill="none" stroke="black" stroke-width="0.5"/>
<path d="M527.03 291.37L528.01 288.5"
fill="none" stroke="black" stroke-width="0.5"/>
<path d="M528.01 288.5L528.6 285.6"
fill="none" stroke="black" stroke-width="0.5"/>
<path d="M528.6 285.6L528.8 282.7"
fill="none" stroke="black" stroke-width="0.5"/>
</svg>
