<?xml version="1.0" encoding="UTF-8"?>
<svg xmlns="http://www.w3.org/2000/svg" width="800.000" height="600.000" viewBox="0.0 0.0 800.000 600.000" version="1.1">
  <desc>Produce by Acme CAD Converter</desc>
<path d="M536.96 281.87L536.96 351.8Z"
fill="none" stroke="cyan" stroke-width="0.5"/>
<path d="M340.97 281.87L536.96 281.87"
fill="none" stroke="cyan" stroke-width="0.5"/>
<path d="M275.42 281.87L275.8 288.96 340.97 281.87 340.97 281.87 275.42 281.87Z"
fill-rule="nonzero" fill="cyan"/>
<path d="M275.8 288.96L276.95 295.97 340.97 281.87 340.97 281.87 275.8 288.96Z"
fill-rule="nonzero" fill="cyan"/>
<path d="M276.95 295.97L278.85 302.81 340.97 281.87 340.97 281.87 276.95 295.97Z"
fill-rule="nonzero" fill="cyan"/>
<path d="M278.85 302.81L281.48 309.4 340.97 281.87 340.97 281.87 278.85 302.81Z"
fill-rule="nonzero" fill="cyan"/>
<path d="M281.48 309.4L284.8 315.67 340.97 281.87 340.97 281.87 281.48 309.4Z"
fill-rule="nonzero" fill="cyan"/>
<path d="M284.8 315.67L288.79 321.55 340.97 281.87 340.97 281.87 284.8 315.67Z"
fill-rule="nonzero" fill="cyan"/>
<path d="M288.79 321.55L293.38 326.96 340.97 281.87 340.97 281.87 288.79 321.55Z"
fill-rule="nonzero" fill="cyan"/>
<path d="M293.38 326.96L298.53 331.84 340.97 281.87 340.97 281.87 293.38 326.96Z"
fill-rule="nonzero" fill="cyan"/>
<path d="M298.53 331.84L304.18 336.14 340.97 281.87 340.97 281.87 298.53 331.84Z"
fill-rule="nonzero" fill="cyan"/>
<path d="M304.18 336.14L310.27 339.8 340.97 281.87 340.97 281.87 304.18 336.14Z"
fill-rule="nonzero" fill="cyan"/>
<path d="M310.27 339.8L316.71 342.78 340.97 281.87 340.97 281.87 310.27 339.8Z"
fill-rule="nonzero" fill="cyan"/>
<path d="M316.71 342.78L323.44 345.04 340.97 281.87 340.97 281.87 316.71 342.78Z"
fill-rule="nonzero" fill="cyan"/>
<path d="M323.44 345.04L330.37 346.57 340.97 281.87 340.97 281.87 323.44 345.04Z"
fill-rule="nonzero" fill="cyan"/>
<path d="M330.37 346.57L337.43 347.34 340.97 281.87 340.97 281.87 330.37 346.57Z"
fill-rule="nonzero" fill="cyan"/>
<path d="M337.43 347.34L344.52 347.34 340.97 281.87 340.97 281.87 337.43 347.34Z"
fill-rule="nonzero" fill="cyan"/>
<path d="M344.52 347.34L351.58 346.57 340.97 281.87 340.97 281.87 344.52 347.34Z"
fill-rule="nonzero" fill="cyan"/>
<path d="M351.58 346.57L358.51 345.04 340.97 281.87 340.97 281.87 351.58 346.57Z"
fill-rule="nonzero" fill="cyan"/>
<path d="M358.51 345.04L365.24 342.78 340.97 281.87 340.97 281.87 358.51 345.04Z"
fill-rule="nonzero" fill="cyan"/>
<path d="M365.24 342.78L371.68 339.8 340.97 281.87 340.97 281.87 365.24 342.78Z"
fill-rule="nonzero" fill="cyan"/>
<path d="M371.68 339.8L377.76 336.14 340.97 281.87 340.97 281.87 371.68 339.8Z"
fill-rule="nonzero" fill="cyan"/>
<path d="M377.76 336.14L383.42 331.84 340.97 281.87 340.97 281.87 377.76 336.14Z"
fill-rule="nonzero" fill="cyan"/>
<path d="M383.42 331.84L388.57 326.96 340.97 281.87 340.97 281.87 383.42 331.84Z"
fill-rule="nonzero" fill="cyan"/>
<path d="M388.57 326.96L393.16 321.55 340.97 281.87 340.97 281.87 388.57 326.96Z"
fill-rule="nonzero" fill="cyan"/>
<path d="M393.16 321.55L397.15 315.67 340.97 281.87 340.97 281.87 393.16 321.55Z"
fill-rule="nonzero" fill="cyan"/>
<path d="M397.15 315.67L400.47 309.4 340.97 281.87 340.97 281.87 397.15 315.67Z"
fill-rule="nonzero" fill="cyan"/>
<path d="M400.47 309.4L403.1 302.81 340.97 281.87 340.97 281.87 400.47 309.4Z"
fill-rule="nonzero" fill="cyan"/>
<path d="M403.1 302.81L405 295.97 340.97 281.87 340.97 281.87 403.1 302.81Z"
fill-rule="nonzero" fill="cyan"/>
<path d="M405 295.97L406.15 288.96 340.97 281.87 340.97 281.87 405 295.97Z"
fill-rule="nonzero" fill="cyan"/>
<path d="M406.15 288.96L406.53 281.87 340.97 281.87 340.97 281.87 406.15 288.96Z"
fill-rule="nonzero" fill="cyan"/>
<path d="M406.53 281.87L406.15 274.79 340.97 281.87 340.97 281.87 406.53 281.87Z"
fill-rule="nonzero" fill="cyan"/>
<path d="M406.15 274.79L405 267.78 340.97 281.87 340.97 281.87 406.15 274.79Z"
fill-rule="nonzero" fill="cyan"/>
<path d="M405 267.78L403.1 260.94 340.97 281.87 340.97 281.87 405 267.78Z"
fill-rule="nonzero" fill="cyan"/>
<path d="M403.1 260.94L400.47 254.35 340.97 281.87 340.97 281.87 403.1 260.94Z"
fill-rule="nonzero" fill="cyan"/>
<path d="M400.47 254.35L397.15 248.08 340.97 281.87 340.97 281.87 400.47 254.35Z"
fill-rule="nonzero" fill="cyan"/>
<path d="M397.15 248.08L393.16 242.2 340.97 281.87 340.97 281.87 397.15 248.08Z"
fill-rule="nonzero" fill="cyan"/>
<path d="M393.16 242.2L388.57 236.79 340.97 281.87 340.97 281.87 393.16 242.2Z"
fill-rule="nonzero" fill="cyan"/>
<path d="M388.57 236.79L383.42 231.91 340.97 281.87 340.97 281.87 388.57 236.79Z"
fill-rule="nonzero" fill="cyan"/>
<path d="M383.42 231.91L377.76 227.61 340.97 281.87 340.97 281.87 383.42 231.91Z"
fill-rule="nonzero" fill="cyan"/>
<path d="M377.76 227.61L371.68 223.95 340.97 281.87 340.97 281.87 377.76 227.61Z"
fill-rule="nonzero" fill="cyan"/>
<path d="M371.68 223.95L365.24 220.97 340.97 281.87 340.97 281.87 371.68 223.95Z"
fill-rule="nonzero" fill="cyan"/>
<path d="M365.24 220.97L358.51 218.71 340.97 281.87 340.97 281.87 365.24 220.97Z"
fill-rule="nonzero" fill="cyan"/>
<path d="M358.51 218.71L351.58 217.18 340.97 281.87 340.97 281.87 358.51 218.71Z"
fill-rule="nonzero" fill="cyan"/>
<path d="M351.58 217.18L344.52 216.41 340.97 281.87 340.97 281.87 351.58 217.18Z"
fill-rule="nonzero" fill="cyan"/>
<path d="M344.52 216.41L337.43 216.41 340.97 281.87 340.97 281.87 344.52 216.41Z"
fill-rule="nonzero" fill="cyan"/>
<path d="M337.43 216.41L330.37 217.18 340.97 281.87 340.97 281.87 337.43 216.41Z"
fill-rule="nonzero" fill="cyan"/>
<path d="M330.37 217.18L323.44 218.71 340.97 281.87 340.97 281.87 330.37 217.18Z"
fill-rule="nonzero" fill="cyan"/>
<path d="M323.44 218.71L316.71 220.97 340.97 281.87 340.97 281.87 323.44 218.71Z"
fill-rule="nonzero" fill="cyan"/>
<path d="M316.71 220.97L310.27 223.95 340.97 281.87 340.97 281.87 316.71 220.97Z"
fill-rule="nonzero" fill="cyan"/>
<path d="M310.27 223.95L304.18 227.61 340.97 281.87 340.97 281.87 310.27 223.95Z"
fill-rule="nonzero" fill="cyan"/>
<path d="M304.18 227.61L298.53 231.91 340.97 281.87 340.97 281.87 304.18 227.61Z"
fill-rule="nonzero" fill="cyan"/>
<path d="M298.53 231.91L293.38 236.79 340.97 281.87 340.97 281.87 298.53 231.91Z"
fill-rule="nonzero" fill="cyan"/>
<path d="M293.38 236.79L288.79 242.2 340.97 281.87 340.97 281.87 293.38 236.79Z"
fill-rule="nonzero" fill="cyan"/>
<path d="M288.79 242.2L284.8 248.08 340.97 281.87 340.97 281.87 288.79 242.2Z"
fill-rule="nonzero" fill="cyan"/>
<path d="M284.8 248.08L281.48 254.35 340.97 281.87 340.97 281.87 284.8 248.08Z"
fill-rule="nonzero" fill="cyan"/>
<path d="M281.48 254.35L278.85 260.94 340.97 281.87 340.97 281.87 281.48 254.35Z"
fill-rule="nonzero" fill="cyan"/>
<path d="M278.85 260.94L276.95 267.78 340.97 281.87 340.97 281.87 278.85 260.94Z"
fill-rule="nonzero" fill="cyan"/>
<path d="M276.95 267.78L275.8 274.79 340.97 281.87 340.97 281.87 276.95 267.78Z"
fill-rule="nonzero" fill="cyan"/>
<path d="M275.8 274.79L275.42 281.87 340.97 281.87 340.97 281.87 275.8 274.79Z"
fill-rule="nonzero" fill="cyan"/>
</svg>
