<?xml version="1.0" encoding="UTF-8"?>
<svg xmlns="http://www.w3.org/2000/svg" width="800.000" height="600.000" viewBox="0.0 0.0 800.000 600.000" version="1.1">
  <desc>Produce by Acme CAD Converter</desc>
<path d="M352.74 347.55L359 347.17 352.74 295.61 352.74 295.61 352.74 347.55Z"
fill-rule="nonzero" fill="cyan"/>
<path d="M359 347.17L365.17 346.04 352.74 295.61 352.74 295.61 359 347.17Z"
fill-rule="nonzero" fill="cyan"/>
<path d="M365.17 346.04L371.16 344.17 352.74 295.61 352.74 295.61 365.17 346.04Z"
fill-rule="nonzero" fill="cyan"/>
<path d="M371.16 344.17L376.88 341.6 352.74 295.61 352.74 295.61 371.16 344.17Z"
fill-rule="nonzero" fill="cyan"/>
<path d="M376.88 341.6L382.24 338.35 352.74 295.61 352.74 295.61 376.88 341.6Z"
fill-rule="nonzero" fill="cyan"/>
<path d="M382.24 338.35L387.18 334.49 352.74 295.61 352.74 295.61 382.24 338.35Z"
fill-rule="nonzero" fill="cyan"/>
<path d="M387.18 334.49L391.61 330.05 352.74 295.61 352.74 295.61 387.18 334.49Z"
fill-rule="nonzero" fill="cyan"/>
<path d="M391.61 330.05L395.48 325.12 352.74 295.61 352.74 295.61 391.61 330.05Z"
fill-rule="nonzero" fill="cyan"/>
<path d="M395.48 325.12L398.73 319.75 352.74 295.61 352.74 295.61 395.48 325.12Z"
fill-rule="nonzero" fill="cyan"/>
<path d="M398.73 319.75L401.3 314.03 352.74 295.61 352.74 295.61 398.73 319.75Z"
fill-rule="nonzero" fill="cyan"/>
<path d="M401.3 314.03L403.17 308.04 352.74 295.61 352.74 295.61 401.3 314.03Z"
fill-rule="nonzero" fill="cyan"/>
<path d="M403.17 308.04L404.3 301.87 352.74 295.61 352.74 295.61 403.17 308.04Z"
fill-rule="nonzero" fill="cyan"/>
<path d="M404.3 301.87L404.67 295.61 352.74 295.61 352.74 295.61 404.3 301.87Z"
fill-rule="nonzero" fill="cyan"/>
<path d="M404.67 295.61L404.3 289.35 352.74 295.61 352.74 295.61 404.67 295.61Z"
fill-rule="nonzero" fill="cyan"/>
<path d="M404.3 289.35L403.17 283.19 352.74 295.61 352.74 295.61 404.3 289.35Z"
fill-rule="nonzero" fill="cyan"/>
<path d="M403.17 283.19L401.3 277.2 352.74 295.61 352.74 295.61 403.17 283.19Z"
fill-rule="nonzero" fill="cyan"/>
<path d="M401.3 277.2L398.73 271.48 352.74 295.61 352.74 295.61 401.3 277.2Z"
fill-rule="nonzero" fill="cyan"/>
<path d="M398.73 271.48L395.48 266.11 352.74 295.61 352.74 295.61 398.73 271.48Z"
fill-rule="nonzero" fill="cyan"/>
<path d="M395.48 266.11L391.61 261.18 352.74 295.61 352.74 295.61 395.48 266.11Z"
fill-rule="nonzero" fill="cyan"/>
<path d="M391.61 261.18L387.18 256.74 352.74 295.61 352.74 295.61 391.61 261.18Z"
fill-rule="nonzero" fill="cyan"/>
<path d="M387.18 256.74L382.24 252.87 352.74 295.61 352.74 295.61 387.18 256.74Z"
fill-rule="nonzero" fill="cyan"/>
<path d="M382.24 252.87L376.88 249.63 352.74 295.61 352.74 295.61 382.24 252.87Z"
fill-rule="nonzero" fill="cyan"/>
<path d="M376.88 249.63L371.16 247.06 352.74 295.61 352.74 295.61 376.88 249.63Z"
fill-rule="nonzero" fill="cyan"/>
<path d="M371.16 247.06L365.17 245.19 352.74 295.61 352.74 295.61 371.16 247.06Z"
fill-rule="nonzero" fill="cyan"/>
<path d="M365.17 245.19L359 244.06 352.74 295.61 352.74 295.61 365.17 245.19Z"
fill-rule="nonzero" fill="cyan"/>
<path d="M359 244.06L352.74 243.68 352.74 295.61 352.74 295.61 359 244.06Z"
fill-rule="nonzero" fill="cyan"/>
<path d="M352.74 243.68L346.48 244.06 352.74 295.61 352.74 295.61 352.74 243.68Z"
fill-rule="nonzero" fill="cyan"/>
<path d="M346.48 244.06L340.31 245.19 352.74 295.61 352.74 295.61 346.48 244.06Z"
fill-rule="nonzero" fill="cyan"/>
<path d="M340.31 245.19L334.33 247.06 352.74 295.61 352.74 295.61 340.31 245.19Z"
fill-rule="nonzero" fill="cyan"/>
<path d="M334.33 247.06L328.61 249.63 352.74 295.61 352.74 295.61 334.33 247.06Z"
fill-rule="nonzero" fill="cyan"/>
<path d="M328.61 249.63L323.24 252.87 352.74 295.61 352.74 295.61 328.61 249.63Z"
fill-rule="nonzero" fill="cyan"/>
<path d="M323.24 252.87L318.3 256.74 352.74 295.61 352.74 295.61 323.24 252.87Z"
fill-rule="nonzero" fill="cyan"/>
<path d="M318.3 256.74L313.87 261.18 352.74 295.61 352.74 295.61 318.3 256.74Z"
fill-rule="nonzero" fill="cyan"/>
<path d="M313.87 261.18L310 266.11 352.74 295.61 352.74 295.61 313.87 261.18Z"
fill-rule="nonzero" fill="cyan"/>
<path d="M310 266.11L306.76 271.48 352.74 295.61 352.74 295.61 310 266.11Z"
fill-rule="nonzero" fill="cyan"/>
<path d="M306.76 271.48L304.18 277.2 352.74 295.61 352.74 295.61 306.76 271.48Z"
fill-rule="nonzero" fill="cyan"/>
<path d="M304.18 277.2L302.32 283.19 352.74 295.61 352.74 295.61 304.18 277.2Z"
fill-rule="nonzero" fill="cyan"/>
<path d="M302.32 283.19L301.19 289.35 352.74 295.61 352.74 295.61 302.32 283.19Z"
fill-rule="nonzero" fill="cyan"/>
<path d="M301.19 289.35L300.81 295.61 352.74 295.61 352.74 295.61 301.19 289.35Z"
fill-rule="nonzero" fill="cyan"/>
<path d="M300.81 295.61L301.19 301.87 352.74 295.61 352.74 295.61 300.81 295.61Z"
fill-rule="nonzero" fill="cyan"/>
<path d="M301.19 301.87L302.32 308.04 352.74 295.61 352.74 295.61 301.19 301.87Z"
fill-rule="nonzero" fill="cyan"/>
<path d="M302.32 308.04L304.18 314.03 352.74 295.61 352.74 295.61 302.32 308.04Z"
fill-rule="nonzero" fill="cyan"/>
<path d="M304.18 314.03L306.76 319.75 352.74 295.61 352.74 295.61 304.18 314.03Z"
fill-rule="nonzero" fill="cyan"/>
<path d="M306.76 319.75L310 325.12 352.74 295.61 352.74 295.61 306.76 319.75Z"
fill-rule="nonzero" fill="cyan"/>
<path d="M310 325.12L313.87 330.05 352.74 295.61 352.74 295.61 310 325.12Z"
fill-rule="nonzero" fill="cyan"/>
<path d="M313.87 330.05L318.3 334.49 352.74 295.61 352.74 295.61 313.87 330.05Z"
fill-rule="nonzero" fill="cyan"/>
<path d="M318.3 334.49L323.24 338.35 352.74 295.61 352.74 295.61 318.3 334.49Z"
fill-rule="nonzero" fill="cyan"/>
<path d="M323.24 338.35L328.61 341.6 352.74 295.61 352.74 295.61 323.24 338.35Z"
fill-rule="nonzero" fill="cyan"/>
<path d="M328.61 341.6L334.33 344.17 352.74 295.61 352.74 295.61 328.61 341.6Z"
fill-rule="nonzero" fill="cyan"/>
<path d="M334.33 344.17L340.31 346.04 352.74 295.61 352.74 295.61 334.33 344.17Z"
fill-rule="nonzero" fill="cyan"/>
<path d="M340.31 346.04L346.48 347.17 352.74 295.61 352.74 295.61 340.31 346.04Z"
fill-rule="nonzero" fill="cyan"/>
<path d="M346.48 347.17L352.74 347.55 352.74 295.61 352.74 295.61 346.48 347.17Z"
fill-rule="nonzero" fill="cyan"/>
<path d="M583.23 289.32L612.41 295.61"
fill="none" stroke="cyan" stroke-width="0.5"/>
<path d="M612.41 295.61L588.34 313.27"
fill="none" stroke="cyan" stroke-width="0.5"/>
<path d="M404.67 295.61L429.47 298.08"
fill="none" stroke="cyan" stroke-width="0.5"/>
<path d="M429.47 298.08L439.31 299.67"
fill="none" stroke="cyan" stroke-width="0.5"/>
<path d="M453.29 302.1L468.59 305.49"
fill="none" stroke="cyan" stroke-width="0.5"/>
<path d="M468.59 305.49L483.88 309.64"
fill="none" stroke="cyan" stroke-width="0.5"/>
<path d="M483.88 309.64L496.94 313.55"
fill="none" stroke="cyan" stroke-width="0.5"/>
<path d="M496.94 313.55L508.26 316.82"
fill="none" stroke="cyan" stroke-width="0.5"/>
<path d="M508.26 316.82L518.32 319.04"
fill="none" stroke="cyan" stroke-width="0.5"/>
<path d="M518.32 319.04L527.6 319.83"
fill="none" stroke="cyan" stroke-width="0.5"/>
<path d="M527.6 319.83L536.53 318.9"
fill="none" stroke="cyan" stroke-width="0.5"/>
<path d="M536.53 318.9L545.41 316.54"
fill="none" stroke="cyan" stroke-width="0.5"/>
<path d="M545.41 316.54L554.15 313.31"
fill="none" stroke="cyan" stroke-width="0.5"/>
<path d="M567.29 307.91L574.4 305.05"
fill="none" stroke="cyan" stroke-width="0.5"/>
<path d="M574.4 305.05L585.72 301.12"
fill="none" stroke="cyan" stroke-width="0.5"/>
<path d="M585.72 301.12L598.3 297.84"
fill="none" stroke="cyan" stroke-width="0.5"/>
<path d="M598.3 297.84L612.41 295.61"
fill="none" stroke="cyan" stroke-width="0.5"/>
</svg>
