<?xml version="1.0" encoding="UTF-8"?>
<svg xmlns="http://www.w3.org/2000/svg" width="800.000" height="600.000" viewBox="0.0 0.0 800.000 600.000" version="1.1">
  <desc>Produce by Acme CAD Converter</desc>
<path d="M369.93 285.57L369.93 284.59 369.91 285.08 369.93 285.57Z"
fill="black" stroke="black" stroke-width="0.2"/>
<path d="M369.93 285.57L369.98 286.06 369.93 284.59 369.93 285.57Z"
fill="black" stroke="black" stroke-width="0.2"/>
<path d="M369.98 286.06L369.98 284.1 369.93 284.59 369.98 286.06Z"
fill="black" stroke="black" stroke-width="0.2"/>
<path d="M369.98 286.06L370.08 286.54 369.98 284.1 369.98 286.06Z"
fill="black" stroke="black" stroke-width="0.2"/>
<path d="M370.08 286.54L370.08 283.62 369.98 284.1 370.08 286.54Z"
fill="black" stroke="black" stroke-width="0.2"/>
<path d="M370.08 286.54L370.22 287.01 370.08 283.62 370.08 286.54Z"
fill="black" stroke="black" stroke-width="0.2"/>
<path d="M370.22 287.01L370.22 283.15 370.08 283.62 370.22 287.01Z"
fill="black" stroke="black" stroke-width="0.2"/>
<path d="M370.22 287.01L370.39 287.47 370.22 283.15 370.22 287.01Z"
fill="black" stroke="black" stroke-width="0.2"/>
<path d="M370.39 287.47L370.39 282.69 370.22 283.15 370.39 287.47Z"
fill="black" stroke="black" stroke-width="0.2"/>
<path d="M370.39 287.47L370.6 287.91 370.39 282.69 370.39 287.47Z"
fill="black" stroke="black" stroke-width="0.2"/>
<path d="M370.6 287.91L370.6 282.24 370.39 282.69 370.6 287.91Z"
fill="black" stroke="black" stroke-width="0.2"/>
<path d="M370.6 287.91L370.85 288.34 370.6 282.24 370.6 287.91Z"
fill="black" stroke="black" stroke-width="0.2"/>
<path d="M370.85 288.34L370.85 281.82 370.6 282.24 370.85 288.34Z"
fill="black" stroke="black" stroke-width="0.2"/>
<path d="M370.85 288.34L371.13 288.74 370.85 281.82 370.85 288.34Z"
fill="black" stroke="black" stroke-width="0.2"/>
<path d="M371.13 288.74L371.13 281.41 370.85 281.82 371.13 288.74Z"
fill="black" stroke="black" stroke-width="0.2"/>
<path d="M371.13 288.74L371.44 289.12 371.13 281.41 371.13 288.74Z"
fill="black" stroke="black" stroke-width="0.2"/>
<path d="M371.44 289.12L371.44 281.03 371.13 281.41 371.44 289.12Z"
fill="black" stroke="black" stroke-width="0.2"/>
<path d="M371.44 289.12L371.78 289.48 371.44 281.03 371.44 289.12Z"
fill="black" stroke="black" stroke-width="0.2"/>
<path d="M371.78 289.48L371.78 280.68 371.44 281.03 371.78 289.48Z"
fill="black" stroke="black" stroke-width="0.2"/>
<path d="M371.78 289.48L372.15 289.8 371.78 280.68 371.78 289.48Z"
fill="black" stroke="black" stroke-width="0.2"/>
<path d="M372.15 289.8L372.15 280.35 371.78 280.68 372.15 289.8Z"
fill="black" stroke="black" stroke-width="0.2"/>
<path d="M372.15 289.8L372.54 290.1 372.15 280.35 372.15 289.8Z"
fill="black" stroke="black" stroke-width="0.2"/>
<path d="M372.54 290.1L372.54 280.06 372.15 280.35 372.54 290.1Z"
fill="black" stroke="black" stroke-width="0.2"/>
<path d="M372.54 290.1L372.96 290.36 372.54 280.06 372.54 290.1Z"
fill="black" stroke="black" stroke-width="0.2"/>
<path d="M372.96 290.36L372.96 279.8 372.54 280.06 372.96 290.36Z"
fill="black" stroke="black" stroke-width="0.2"/>
<path d="M372.96 290.36L373.39 290.59 372.96 279.8 372.96 290.36Z"
fill="black" stroke="black" stroke-width="0.2"/>
<path d="M373.39 290.59L373.39 279.57 372.96 279.8 373.39 290.59Z"
fill="black" stroke="black" stroke-width="0.2"/>
<path d="M373.39 290.59L373.84 290.78 373.39 279.57 373.39 290.59Z"
fill="black" stroke="black" stroke-width="0.2"/>
<path d="M373.84 290.78L373.84 279.38 373.39 279.57 373.84 290.78Z"
fill="black" stroke="black" stroke-width="0.2"/>
<path d="M373.84 290.78L374.31 290.94 373.84 279.38 373.84 290.78Z"
fill="black" stroke="black" stroke-width="0.2"/>
<path d="M374.31 290.94L374.31 279.22 373.84 279.38 374.31 290.94Z"
fill="black" stroke="black" stroke-width="0.2"/>
<path d="M374.31 290.94L374.78 291.05 374.31 279.22 374.31 290.94Z"
fill="black" stroke="black" stroke-width="0.2"/>
<path d="M374.78 291.05L374.78 279.1 374.31 279.22 374.78 291.05Z"
fill="black" stroke="black" stroke-width="0.2"/>
<path d="M374.78 291.05L375.27 291.13 374.78 279.1 374.78 291.05Z"
fill="black" stroke="black" stroke-width="0.2"/>
<path d="M375.27 291.13L375.27 279.02 374.78 279.1 375.27 291.13Z"
fill="black" stroke="black" stroke-width="0.2"/>
<path d="M375.27 291.13L375.76 291.17 375.27 279.02 375.27 291.13Z"
fill="black" stroke="black" stroke-width="0.2"/>
<path d="M375.76 291.17L375.76 278.98 375.27 279.02 375.76 291.17Z"
fill="black" stroke="black" stroke-width="0.2"/>
<path d="M375.76 291.17L376.25 291.17 375.76 278.98 375.76 291.17Z"
fill="black" stroke="black" stroke-width="0.2"/>
<path d="M376.25 291.17L376.25 278.98 375.76 278.98 376.25 291.17Z"
fill="black" stroke="black" stroke-width="0.2"/>
<path d="M376.25 291.17L376.74 291.13 376.25 278.98 376.25 291.17Z"
fill="black" stroke="black" stroke-width="0.2"/>
<path d="M376.74 291.13L376.74 279.02 376.25 278.98 376.74 291.13Z"
fill="black" stroke="black" stroke-width="0.2"/>
<path d="M376.74 291.13L377.22 291.05 376.74 279.02 376.74 291.13Z"
fill="black" stroke="black" stroke-width="0.2"/>
<path d="M377.22 291.05L377.22 279.1 376.74 279.02 377.22 291.05Z"
fill="black" stroke="black" stroke-width="0.2"/>
<path d="M377.22 291.05L377.7 290.94 377.22 279.1 377.22 291.05Z"
fill="black" stroke="black" stroke-width="0.2"/>
<path d="M377.7 290.94L377.7 279.22 377.22 279.1 377.7 290.94Z"
fill="black" stroke="black" stroke-width="0.2"/>
<path d="M377.7 290.94L378.17 290.78 377.7 279.22 377.7 290.94Z"
fill="black" stroke="black" stroke-width="0.2"/>
<path d="M378.17 290.78L378.17 279.38 377.7 279.22 378.17 290.78Z"
fill="black" stroke="black" stroke-width="0.2"/>
<path d="M378.17 290.78L378.62 290.59 378.17 279.38 378.17 290.78Z"
fill="black" stroke="black" stroke-width="0.2"/>
<path d="M378.62 290.59L378.62 279.57 378.17 279.38 378.62 290.59Z"
fill="black" stroke="black" stroke-width="0.2"/>
<path d="M378.62 290.59L379.05 290.36 378.62 279.57 378.62 290.59Z"
fill="black" stroke="black" stroke-width="0.2"/>
<path d="M379.05 290.36L379.05 279.8 378.62 279.57 379.05 290.36Z"
fill="black" stroke="black" stroke-width="0.2"/>
<path d="M379.05 290.36L379.47 290.1 379.05 279.8 379.05 290.36Z"
fill="black" stroke="black" stroke-width="0.2"/>
<path d="M379.47 290.1L379.47 280.06 379.05 279.8 379.47 290.1Z"
fill="black" stroke="black" stroke-width="0.2"/>
<path d="M379.47 290.1L379.86 289.8 379.47 280.06 379.47 290.1Z"
fill="black" stroke="black" stroke-width="0.2"/>
<path d="M379.86 289.8L379.86 280.35 379.47 280.06 379.86 289.8Z"
fill="black" stroke="black" stroke-width="0.2"/>
<path d="M379.86 289.8L380.23 289.48 379.86 280.35 379.86 289.8Z"
fill="black" stroke="black" stroke-width="0.2"/>
<path d="M380.23 289.48L380.23 280.68 379.86 280.35 380.23 289.48Z"
fill="black" stroke="black" stroke-width="0.2"/>
<path d="M380.23 289.48L380.57 289.12 380.23 280.68 380.23 289.48Z"
fill="black" stroke="black" stroke-width="0.2"/>
<path d="M380.57 289.12L380.57 281.03 380.23 280.68 380.57 289.12Z"
fill="black" stroke="black" stroke-width="0.2"/>
<path d="M380.57 289.12L380.88 288.74 380.57 281.03 380.57 289.12Z"
fill="black" stroke="black" stroke-width="0.2"/>
<path d="M380.88 288.74L380.88 281.41 380.57 281.03 380.88 288.74Z"
fill="black" stroke="black" stroke-width="0.2"/>
<path d="M380.88 288.74L381.16 288.34 380.88 281.41 380.88 288.74Z"
fill="black" stroke="black" stroke-width="0.2"/>
<path d="M381.16 288.34L381.16 281.82 380.88 281.41 381.16 288.34Z"
fill="black" stroke="black" stroke-width="0.2"/>
<path d="M381.16 288.34L381.4 287.91 381.16 281.82 381.16 288.34Z"
fill="black" stroke="black" stroke-width="0.2"/>
<path d="M381.4 287.91L381.4 282.24 381.16 281.82 381.4 287.91Z"
fill="black" stroke="black" stroke-width="0.2"/>
<path d="M381.4 287.91L381.62 287.47 381.4 282.24 381.4 287.91Z"
fill="black" stroke="black" stroke-width="0.2"/>
<path d="M381.62 287.47L381.62 282.69 381.4 282.24 381.62 287.47Z"
fill="black" stroke="black" stroke-width="0.2"/>
<path d="M381.62 287.47L381.79 287.01 381.62 282.69 381.62 287.47Z"
fill="black" stroke="black" stroke-width="0.2"/>
<path d="M381.79 287.01L381.79 283.15 381.62 282.69 381.79 287.01Z"
fill="black" stroke="black" stroke-width="0.2"/>
<path d="M381.79 287.01L381.93 286.54 381.79 283.15 381.79 287.01Z"
fill="black" stroke="black" stroke-width="0.2"/>
<path d="M381.93 286.54L381.93 283.62 381.79 283.15 381.93 286.54Z"
fill="black" stroke="black" stroke-width="0.2"/>
<path d="M381.93 286.54L382.02 286.06 381.93 283.62 381.93 286.54Z"
fill="black" stroke="black" stroke-width="0.2"/>
<path d="M382.02 286.06L382.02 284.1 381.93 283.62 382.02 286.06Z"
fill="black" stroke="black" stroke-width="0.2"/>
<path d="M382.02 286.06L382.08 285.57 382.02 284.1 382.02 286.06Z"
fill="black" stroke="black" stroke-width="0.2"/>
<path d="M382.08 285.57L382.08 284.59 382.02 284.1 382.08 285.57Z"
fill="black" stroke="black" stroke-width="0.2"/>
<path d="M382.08 285.57L382.1 285.08 382.08 284.59 382.08 285.57Z"
fill="black" stroke="black" stroke-width="0.2"/>
<path d="M382.1 285.08L381.91 286.59"
fill="none" stroke="black" stroke-width="0.5"/>
<path d="M381.91 286.59L381.35 288.02"
fill="none" stroke="black" stroke-width="0.5"/>
<path d="M381.35 288.02L380.45 289.25"
fill="none" stroke="black" stroke-width="0.5"/>
<path d="M380.45 289.25L379.27 290.23"
fill="none" stroke="black" stroke-width="0.5"/>
<path d="M379.27 290.23L377.89 290.88"
fill="none" stroke="black" stroke-width="0.5"/>
<path d="M377.89 290.88L376.39 291.16"
fill="none" stroke="black" stroke-width="0.5"/>
<path d="M376.39 291.16L374.86 291.07"
fill="none" stroke="black" stroke-width="0.5"/>
<path d="M374.86 291.07L373.41 290.6"
fill="none" stroke="black" stroke-width="0.5"/>
<path d="M373.41 290.6L372.12 289.78"
fill="none" stroke="black" stroke-width="0.5"/>
<path d="M372.12 289.78L371.07 288.66"
fill="none" stroke="black" stroke-width="0.5"/>
<path d="M371.07 288.66L370.33 287.32"
fill="none" stroke="black" stroke-width="0.5"/>
<path d="M370.33 287.32L369.95 285.84"
fill="none" stroke="black" stroke-width="0.5"/>
<path d="M369.95 285.84L369.95 284.31Z"
fill="none" stroke="black" stroke-width="0.5"/>
<path d="M369.95 284.31L370.33 282.83"
fill="none" stroke="black" stroke-width="0.5"/>
<path d="M370.33 282.83L371.07 281.49"
fill="none" stroke="black" stroke-width="0.5"/>
<path d="M371.07 281.49L372.12 280.38"
fill="none" stroke="black" stroke-width="0.5"/>
<path d="M372.12 280.38L373.41 279.56"
fill="none" stroke="black" stroke-width="0.5"/>
<path d="M373.41 279.56L374.86 279.09"
fill="none" stroke="black" stroke-width="0.5"/>
<path d="M374.86 279.09L376.39 278.99"
fill="none" stroke="black" stroke-width="0.5"/>
<path d="M376.39 278.99L377.89 279.28"
fill="none" stroke="black" stroke-width="0.5"/>
<path d="M377.89 279.28L379.27 279.93"
fill="none" stroke="black" stroke-width="0.5"/>
<path d="M379.27 279.93L380.45 280.9"
fill="none" stroke="black" stroke-width="0.5"/>
<path d="M380.45 280.9L381.35 282.14"
fill="none" stroke="black" stroke-width="0.5"/>
<path d="M381.35 282.14L381.91 283.56"
fill="none" stroke="black" stroke-width="0.5"/>
<path d="M381.91 283.56L382.1 285.08"
fill="none" stroke="black" stroke-width="0.5"/>
<path d="M398.39 285.57L398.39 284.59 398.37 285.08 398.39 285.57Z"
fill="black" stroke="black" stroke-width="0.2"/>
<path d="M398.39 285.57L398.45 286.06 398.39 284.59 398.39 285.57Z"
fill="black" stroke="black" stroke-width="0.2"/>
<path d="M398.45 286.06L398.45 284.1 398.39 284.59 398.45 286.06Z"
fill="black" stroke="black" stroke-width="0.2"/>
<path d="M398.45 286.06L398.54 286.54 398.45 284.1 398.45 286.06Z"
fill="black" stroke="black" stroke-width="0.2"/>
<path d="M398.54 286.54L398.54 283.62 398.45 284.1 398.54 286.54Z"
fill="black" stroke="black" stroke-width="0.2"/>
<path d="M398.54 286.54L398.68 287.01 398.54 283.62 398.54 286.54Z"
fill="black" stroke="black" stroke-width="0.2"/>
<path d="M398.68 287.01L398.68 283.15 398.54 283.62 398.68 287.01Z"
fill="black" stroke="black" stroke-width="0.2"/>
<path d="M398.68 287.01L398.85 287.47 398.68 283.15 398.68 287.01Z"
fill="black" stroke="black" stroke-width="0.2"/>
<path d="M398.85 287.47L398.85 282.69 398.68 283.15 398.85 287.47Z"
fill="black" stroke="black" stroke-width="0.2"/>
<path d="M398.85 287.47L399.06 287.91 398.85 282.69 398.85 287.47Z"
fill="black" stroke="black" stroke-width="0.2"/>
<path d="M399.06 287.91L399.06 282.24 398.85 282.69 399.06 287.91Z"
fill="black" stroke="black" stroke-width="0.2"/>
<path d="M399.06 287.91L399.31 288.34 399.06 282.24 399.06 287.91Z"
fill="black" stroke="black" stroke-width="0.2"/>
<path d="M399.31 288.34L399.31 281.82 399.06 282.24 399.31 288.34Z"
fill="black" stroke="black" stroke-width="0.2"/>
<path d="M399.31 288.34L399.59 288.74 399.31 281.82 399.31 288.34Z"
fill="black" stroke="black" stroke-width="0.2"/>
<path d="M399.59 288.74L399.59 281.41 399.31 281.82 399.59 288.74Z"
fill="black" stroke="black" stroke-width="0.2"/>
<path d="M399.59 288.74L399.9 289.12 399.59 281.41 399.59 288.74Z"
fill="black" stroke="black" stroke-width="0.2"/>
<path d="M399.9 289.12L399.9 281.03 399.59 281.41 399.9 289.12Z"
fill="black" stroke="black" stroke-width="0.2"/>
<path d="M399.9 289.12L400.24 289.48 399.9 281.03 399.9 289.12Z"
fill="black" stroke="black" stroke-width="0.2"/>
<path d="M400.24 289.48L400.24 280.68 399.9 281.03 400.24 289.48Z"
fill="black" stroke="black" stroke-width="0.2"/>
<path d="M400.24 289.48L400.61 289.8 400.24 280.68 400.24 289.48Z"
fill="black" stroke="black" stroke-width="0.2"/>
<path d="M400.61 289.8L400.61 280.35 400.24 280.68 400.61 289.8Z"
fill="black" stroke="black" stroke-width="0.2"/>
<path d="M400.61 289.8L401 290.1 400.61 280.35 400.61 289.8Z"
fill="black" stroke="black" stroke-width="0.2"/>
<path d="M401 290.1L401 280.06 400.61 280.35 401 290.1Z"
fill="black" stroke="black" stroke-width="0.2"/>
<path d="M401 290.1L401.42 290.36 401 280.06 401 290.1Z"
fill="black" stroke="black" stroke-width="0.2"/>
<path d="M401.42 290.36L401.42 279.8 401 280.06 401.42 290.36Z"
fill="black" stroke="black" stroke-width="0.2"/>
<path d="M401.42 290.36L401.85 290.59 401.42 279.8 401.42 290.36Z"
fill="black" stroke="black" stroke-width="0.2"/>
<path d="M401.85 290.59L401.85 279.57 401.42 279.8 401.85 290.59Z"
fill="black" stroke="black" stroke-width="0.2"/>
<path d="M401.85 290.59L402.3 290.78 401.85 279.57 401.85 290.59Z"
fill="black" stroke="black" stroke-width="0.2"/>
<path d="M402.3 290.78L402.3 279.38 401.85 279.57 402.3 290.78Z"
fill="black" stroke="black" stroke-width="0.2"/>
<path d="M402.3 290.78L402.77 290.94 402.3 279.38 402.3 290.78Z"
fill="black" stroke="black" stroke-width="0.2"/>
<path d="M402.77 290.94L402.77 279.22 402.3 279.38 402.77 290.94Z"
fill="black" stroke="black" stroke-width="0.2"/>
<path d="M402.77 290.94L403.24 291.05 402.77 279.22 402.77 290.94Z"
fill="black" stroke="black" stroke-width="0.2"/>
<path d="M403.24 291.05L403.24 279.1 402.77 279.22 403.24 291.05Z"
fill="black" stroke="black" stroke-width="0.2"/>
<path d="M403.24 291.05L403.73 291.13 403.24 279.1 403.24 291.05Z"
fill="black" stroke="black" stroke-width="0.2"/>
<path d="M403.73 291.13L403.73 279.02 403.24 279.1 403.73 291.13Z"
fill="black" stroke="black" stroke-width="0.2"/>
<path d="M403.73 291.13L404.22 291.17 403.73 279.02 403.73 291.13Z"
fill="black" stroke="black" stroke-width="0.2"/>
<path d="M404.22 291.17L404.22 278.98 403.73 279.02 404.22 291.17Z"
fill="black" stroke="black" stroke-width="0.2"/>
<path d="M404.22 291.17L404.71 291.17 404.22 278.98 404.22 291.17Z"
fill="black" stroke="black" stroke-width="0.2"/>
<path d="M404.71 291.17L404.71 278.98 404.22 278.98 404.71 291.17Z"
fill="black" stroke="black" stroke-width="0.2"/>
<path d="M404.71 291.17L405.2 291.13 404.71 278.98 404.71 291.17Z"
fill="black" stroke="black" stroke-width="0.2"/>
<path d="M405.2 291.13L405.2 279.02 404.71 278.98 405.2 291.13Z"
fill="black" stroke="black" stroke-width="0.2"/>
<path d="M405.2 291.13L405.68 291.05 405.2 279.02 405.2 291.13Z"
fill="black" stroke="black" stroke-width="0.2"/>
<path d="M405.68 291.05L405.68 279.1 405.2 279.02 405.68 291.05Z"
fill="black" stroke="black" stroke-width="0.2"/>
<path d="M405.68 291.05L406.16 290.94 405.68 279.1 405.68 291.05Z"
fill="black" stroke="black" stroke-width="0.2"/>
<path d="M406.16 290.94L406.16 279.22 405.68 279.1 406.16 290.94Z"
fill="black" stroke="black" stroke-width="0.2"/>
<path d="M406.16 290.94L406.63 290.78 406.16 279.22 406.16 290.94Z"
fill="black" stroke="black" stroke-width="0.2"/>
<path d="M406.63 290.78L406.63 279.38 406.16 279.22 406.63 290.78Z"
fill="black" stroke="black" stroke-width="0.2"/>
<path d="M406.63 290.78L407.08 290.59 406.63 279.38 406.63 290.78Z"
fill="black" stroke="black" stroke-width="0.2"/>
<path d="M407.08 290.59L407.08 279.57 406.63 279.38 407.08 290.59Z"
fill="black" stroke="black" stroke-width="0.2"/>
<path d="M407.08 290.59L407.51 290.36 407.08 279.57 407.08 290.59Z"
fill="black" stroke="black" stroke-width="0.2"/>
<path d="M407.51 290.36L407.51 279.8 407.08 279.57 407.51 290.36Z"
fill="black" stroke="black" stroke-width="0.2"/>
<path d="M407.51 290.36L407.93 290.1 407.51 279.8 407.51 290.36Z"
fill="black" stroke="black" stroke-width="0.2"/>
<path d="M407.93 290.1L407.93 280.06 407.51 279.8 407.93 290.1Z"
fill="black" stroke="black" stroke-width="0.2"/>
<path d="M407.93 290.1L408.32 289.8 407.93 280.06 407.93 290.1Z"
fill="black" stroke="black" stroke-width="0.2"/>
<path d="M408.32 289.8L408.32 280.35 407.93 280.06 408.32 289.8Z"
fill="black" stroke="black" stroke-width="0.2"/>
<path d="M408.32 289.8L408.69 289.48 408.32 280.35 408.32 289.8Z"
fill="black" stroke="black" stroke-width="0.2"/>
<path d="M408.69 289.48L408.69 280.68 408.32 280.35 408.69 289.48Z"
fill="black" stroke="black" stroke-width="0.2"/>
<path d="M408.69 289.48L409.03 289.12 408.69 280.68 408.69 289.48Z"
fill="black" stroke="black" stroke-width="0.2"/>
<path d="M409.03 289.12L409.03 281.03 408.69 280.68 409.03 289.12Z"
fill="black" stroke="black" stroke-width="0.2"/>
<path d="M409.03 289.12L409.34 288.74 409.03 281.03 409.03 289.12Z"
fill="black" stroke="black" stroke-width="0.2"/>
<path d="M409.34 288.74L409.34 281.41 409.03 281.03 409.34 288.74Z"
fill="black" stroke="black" stroke-width="0.2"/>
<path d="M409.34 288.74L409.62 288.34 409.34 281.41 409.34 288.74Z"
fill="black" stroke="black" stroke-width="0.2"/>
<path d="M409.62 288.34L409.62 281.82 409.34 281.41 409.62 288.34Z"
fill="black" stroke="black" stroke-width="0.2"/>
<path d="M409.62 288.34L409.86 287.91 409.62 281.82 409.62 288.34Z"
fill="black" stroke="black" stroke-width="0.2"/>
<path d="M409.86 287.91L409.86 282.24 409.62 281.82 409.86 287.91Z"
fill="black" stroke="black" stroke-width="0.2"/>
<path d="M409.86 287.91L410.08 287.47 409.86 282.24 409.86 287.91Z"
fill="black" stroke="black" stroke-width="0.2"/>
<path d="M410.08 287.47L410.08 282.69 409.86 282.24 410.08 287.47Z"
fill="black" stroke="black" stroke-width="0.2"/>
<path d="M410.08 287.47L410.25 287.01 410.08 282.69 410.08 287.47Z"
fill="black" stroke="black" stroke-width="0.2"/>
<path d="M410.25 287.01L410.25 283.15 410.08 282.69 410.25 287.01Z"
fill="black" stroke="black" stroke-width="0.2"/>
<path d="M410.25 287.01L410.39 286.54 410.25 283.15 410.25 287.01Z"
fill="black" stroke="black" stroke-width="0.2"/>
<path d="M410.39 286.54L410.39 283.62 410.25 283.15 410.39 286.54Z"
fill="black" stroke="black" stroke-width="0.2"/>
<path d="M410.39 286.54L410.48 286.06 410.39 283.62 410.39 286.54Z"
fill="black" stroke="black" stroke-width="0.2"/>
<path d="M410.48 286.06L410.48 284.1 410.39 283.62 410.48 286.06Z"
fill="black" stroke="black" stroke-width="0.2"/>
<path d="M410.48 286.06L410.54 285.57 410.48 284.1 410.48 286.06Z"
fill="black" stroke="black" stroke-width="0.2"/>
<path d="M410.54 285.57L410.54 284.59 410.48 284.1 410.54 285.57Z"
fill="black" stroke="black" stroke-width="0.2"/>
<path d="M410.54 285.57L410.56 285.08 410.54 284.59 410.54 285.57Z"
fill="black" stroke="black" stroke-width="0.2"/>
<path d="M410.56 285.08L410.37 286.59"
fill="none" stroke="black" stroke-width="0.5"/>
<path d="M410.37 286.59L409.81 288.02"
fill="none" stroke="black" stroke-width="0.5"/>
<path d="M409.81 288.02L408.91 289.25"
fill="none" stroke="black" stroke-width="0.5"/>
<path d="M408.91 289.25L407.73 290.23"
fill="none" stroke="black" stroke-width="0.5"/>
<path d="M407.73 290.23L406.35 290.88"
fill="none" stroke="black" stroke-width="0.5"/>
<path d="M406.35 290.88L404.85 291.16"
fill="none" stroke="black" stroke-width="0.5"/>
<path d="M404.85 291.16L403.32 291.07"
fill="none" stroke="black" stroke-width="0.5"/>
<path d="M403.32 291.07L401.87 290.6"
fill="none" stroke="black" stroke-width="0.5"/>
<path d="M401.87 290.6L400.58 289.78"
fill="none" stroke="black" stroke-width="0.5"/>
<path d="M400.58 289.78L399.53 288.66"
fill="none" stroke="black" stroke-width="0.5"/>
<path d="M399.53 288.66L398.79 287.32"
fill="none" stroke="black" stroke-width="0.5"/>
<path d="M398.79 287.32L398.41 285.84"
fill="none" stroke="black" stroke-width="0.5"/>
<path d="M398.41 285.84L398.41 284.31Z"
fill="none" stroke="black" stroke-width="0.5"/>
<path d="M398.41 284.31L398.79 282.83"
fill="none" stroke="black" stroke-width="0.5"/>
<path d="M398.79 282.83L399.53 281.49"
fill="none" stroke="black" stroke-width="0.5"/>
<path d="M399.53 281.49L400.58 280.38"
fill="none" stroke="black" stroke-width="0.5"/>
<path d="M400.58 280.38L401.87 279.56"
fill="none" stroke="black" stroke-width="0.5"/>
<path d="M401.87 279.56L403.32 279.09"
fill="none" stroke="black" stroke-width="0.5"/>
<path d="M403.32 279.09L404.85 278.99"
fill="none" stroke="black" stroke-width="0.5"/>
<path d="M404.85 278.99L406.35 279.28"
fill="none" stroke="black" stroke-width="0.5"/>
<path d="M406.35 279.28L407.73 279.93"
fill="none" stroke="black" stroke-width="0.5"/>
<path d="M407.73 279.93L408.91 280.9"
fill="none" stroke="black" stroke-width="0.5"/>
<path d="M408.91 280.9L409.81 282.14"
fill="none" stroke="black" stroke-width="0.5"/>
<path d="M409.81 282.14L410.37 283.56"
fill="none" stroke="black" stroke-width="0.5"/>
<path d="M410.37 283.56L410.56 285.08"
fill="none" stroke="black" stroke-width="0.5"/>
<path d="M329.25 264.75L451.22 264.75"
fill="none" stroke="black" stroke-width="0.5"/>
<path d="M451.22 264.75L451.22 305.41Z"
fill="none" stroke="black" stroke-width="0.5"/>
<path d="M451.22 305.41L329.25 305.41"
fill="none" stroke="black" stroke-width="0.5"/>
<path d="M329.25 305.41L329.25 264.75Z"
fill="none" stroke="black" stroke-width="0.5"/>
<path d="M349.58 264.75L349.58 305.41Z"
fill="none" stroke="black" stroke-width="0.5"/>
<path d="M430.89 264.75L430.89 305.41Z"
fill="none" stroke="black" stroke-width="0.5"/>
</svg>
