<?xml version="1.0" encoding="UTF-8"?>
<svg xmlns="http://www.w3.org/2000/svg" width="800.000" height="600.000" viewBox="0.0 0.0 800.000 600.000" version="1.1">
  <desc>Produce by Acme CAD Converter</desc>
<path d="M440.92 289.46L440.72 292.66"
fill="none" stroke="black" stroke-width="3.5"/>
<path d="M440.72 292.66L440.15 295.81"
fill="none" stroke="black" stroke-width="3.5"/>
<path d="M440.15 295.81L439.19 298.87"
fill="none" stroke="black" stroke-width="3.5"/>
<path d="M439.19 298.87L437.88 301.8"
fill="none" stroke="black" stroke-width="3.5"/>
<path d="M437.88 301.8L436.22 304.54"
fill="none" stroke="black" stroke-width="3.5"/>
<path d="M436.22 304.54L434.24 307.06"
fill="none" stroke="black" stroke-width="3.5"/>
<path d="M434.24 307.06L431.97 309.33"
fill="none" stroke="black" stroke-width="3.5"/>
<path d="M431.97 309.33L429.45 311.31"
fill="none" stroke="black" stroke-width="3.5"/>
<path d="M429.45 311.31L426.7 312.97"
fill="none" stroke="black" stroke-width="3.5"/>
<path d="M426.7 312.97L423.78 314.28"
fill="none" stroke="black" stroke-width="3.5"/>
<path d="M423.78 314.28L420.72 315.24"
fill="none" stroke="black" stroke-width="3.5"/>
<path d="M420.72 315.24L417.57 315.81"
fill="none" stroke="black" stroke-width="3.5"/>
<path d="M417.57 315.81L414.36 316.01"
fill="none" stroke="black" stroke-width="3.5"/>
<path d="M414.36 316.01L411.16 315.81"
fill="none" stroke="black" stroke-width="3.5"/>
<path d="M411.16 315.81L408.01 315.24"
fill="none" stroke="black" stroke-width="3.5"/>
<path d="M408.01 315.24L404.95 314.28"
fill="none" stroke="black" stroke-width="3.5"/>
<path d="M404.95 314.28L402.02 312.97"
fill="none" stroke="black" stroke-width="3.5"/>
<path d="M402.02 312.97L399.28 311.31"
fill="none" stroke="black" stroke-width="3.5"/>
<path d="M399.28 311.31L396.76 309.33"
fill="none" stroke="black" stroke-width="3.5"/>
<path d="M396.76 309.33L394.49 307.06"
fill="none" stroke="black" stroke-width="3.5"/>
<path d="M394.49 307.06L392.51 304.54"
fill="none" stroke="black" stroke-width="3.5"/>
<path d="M392.51 304.54L390.85 301.8"
fill="none" stroke="black" stroke-width="3.5"/>
<path d="M390.85 301.8L389.54 298.87"
fill="none" stroke="black" stroke-width="3.5"/>
<path d="M389.54 298.87L388.58 295.81"
fill="none" stroke="black" stroke-width="3.5"/>
<path d="M388.58 295.81L388 292.66"
fill="none" stroke="black" stroke-width="3.5"/>
<path d="M388 292.66L387.81 289.46"
fill="none" stroke="black" stroke-width="3.5"/>
<path d="M387.81 289.46L388 286.25"
fill="none" stroke="black" stroke-width="3.5"/>
<path d="M388 286.25L388.58 283.1"
fill="none" stroke="black" stroke-width="3.5"/>
<path d="M388.58 283.1L389.54 280.04"
fill="none" stroke="black" stroke-width="3.5"/>
<path d="M389.54 280.04L390.85 277.12"
fill="none" stroke="black" stroke-width="3.5"/>
<path d="M390.85 277.12L392.51 274.37"
fill="none" stroke="black" stroke-width="3.5"/>
<path d="M392.51 274.37L394.49 271.85"
fill="none" stroke="black" stroke-width="3.5"/>
<path d="M394.49 271.85L396.76 269.58"
fill="none" stroke="black" stroke-width="3.5"/>
<path d="M396.76 269.58L399.28 267.6"
fill="none" stroke="black" stroke-width="3.5"/>
<path d="M399.28 267.6L402.02 265.94"
fill="none" stroke="black" stroke-width="3.5"/>
<path d="M402.02 265.94L404.95 264.63"
fill="none" stroke="black" stroke-width="3.5"/>
<path d="M404.95 264.63L408.01 263.67"
fill="none" stroke="black" stroke-width="3.5"/>
<path d="M408.01 263.67L411.16 263.1"
fill="none" stroke="black" stroke-width="3.5"/>
<path d="M411.16 263.1L414.36 262.9"
fill="none" stroke="black" stroke-width="3.5"/>
<path d="M414.36 262.9L417.57 263.1"
fill="none" stroke="black" stroke-width="3.5"/>
<path d="M417.57 263.1L420.72 263.67"
fill="none" stroke="black" stroke-width="3.5"/>
<path d="M420.72 263.67L423.78 264.63"
fill="none" stroke="black" stroke-width="3.5"/>
<path d="M423.78 264.63L426.7 265.94"
fill="none" stroke="black" stroke-width="3.5"/>
<path d="M426.7 265.94L429.45 267.6"
fill="none" stroke="black" stroke-width="3.5"/>
<path d="M429.45 267.6L431.97 269.58"
fill="none" stroke="black" stroke-width="3.5"/>
<path d="M431.97 269.58L434.24 271.85"
fill="none" stroke="black" stroke-width="3.5"/>
<path d="M434.24 271.85L436.22 274.37"
fill="none" stroke="black" stroke-width="3.5"/>
<path d="M436.22 274.37L437.88 277.12"
fill="none" stroke="black" stroke-width="3.5"/>
<path d="M437.88 277.12L439.19 280.04"
fill="none" stroke="black" stroke-width="3.5"/>
<path d="M439.19 280.04L440.15 283.1"
fill="none" stroke="black" stroke-width="3.5"/>
<path d="M440.15 283.1L440.72 286.25"
fill="none" stroke="black" stroke-width="3.5"/>
<path d="M440.72 286.25L440.92 289.46"
fill="none" stroke="black" stroke-width="3.5"/>
<path d="M396.68 289.91L396.68 289 396.66 289.46 396.68 289.91Z"
fill="black" stroke="black" stroke-width="0.2"/>
<path d="M396.68 289.91L396.74 290.35 396.68 289 396.68 289.91Z"
fill="black" stroke="black" stroke-width="0.2"/>
<path d="M396.74 290.35L396.74 288.56 396.68 289 396.74 290.35Z"
fill="black" stroke="black" stroke-width="0.2"/>
<path d="M396.74 290.35L396.83 290.79 396.74 288.56 396.74 290.35Z"
fill="black" stroke="black" stroke-width="0.2"/>
<path d="M396.83 290.79L396.83 288.12 396.74 288.56 396.83 290.79Z"
fill="black" stroke="black" stroke-width="0.2"/>
<path d="M396.83 290.79L396.97 291.22 396.83 288.12 396.83 290.79Z"
fill="black" stroke="black" stroke-width="0.2"/>
<path d="M396.97 291.22L396.97 287.69 396.83 288.12 396.97 291.22Z"
fill="black" stroke="black" stroke-width="0.2"/>
<path d="M396.97 291.22L397.13 291.64 396.97 287.69 396.97 291.22Z"
fill="black" stroke="black" stroke-width="0.2"/>
<path d="M397.13 291.64L397.13 287.27 396.97 287.69 397.13 291.64Z"
fill="black" stroke="black" stroke-width="0.2"/>
<path d="M397.13 291.64L397.34 292.05 397.13 287.27 397.13 291.64Z"
fill="black" stroke="black" stroke-width="0.2"/>
<path d="M397.34 292.05L397.34 286.87 397.13 287.27 397.34 292.05Z"
fill="black" stroke="black" stroke-width="0.2"/>
<path d="M397.34 292.05L397.57 292.43 397.34 286.87 397.34 292.05Z"
fill="black" stroke="black" stroke-width="0.2"/>
<path d="M397.57 292.43L397.57 286.48 397.34 286.87 397.57 292.43Z"
fill="black" stroke="black" stroke-width="0.2"/>
<path d="M397.57 292.43L397.84 292.79 397.57 286.48 397.57 292.43Z"
fill="black" stroke="black" stroke-width="0.2"/>
<path d="M397.84 292.79L397.84 286.12 397.57 286.48 397.84 292.79Z"
fill="black" stroke="black" stroke-width="0.2"/>
<path d="M397.84 292.79L398.14 293.13 397.84 286.12 397.84 292.79Z"
fill="black" stroke="black" stroke-width="0.2"/>
<path d="M398.14 293.13L398.14 285.78 397.84 286.12 398.14 293.13Z"
fill="black" stroke="black" stroke-width="0.2"/>
<path d="M398.14 293.13L398.46 293.44 398.14 285.78 398.14 293.13Z"
fill="black" stroke="black" stroke-width="0.2"/>
<path d="M398.46 293.44L398.46 285.47 398.14 285.78 398.46 293.44Z"
fill="black" stroke="black" stroke-width="0.2"/>
<path d="M398.46 293.44L398.82 293.72 398.46 285.47 398.46 293.44Z"
fill="black" stroke="black" stroke-width="0.2"/>
<path d="M398.82 293.72L398.82 285.19 398.46 285.47 398.82 293.72Z"
fill="black" stroke="black" stroke-width="0.2"/>
<path d="M398.82 293.72L399.19 293.98 398.82 285.19 398.82 293.72Z"
fill="black" stroke="black" stroke-width="0.2"/>
<path d="M399.19 293.98L399.19 284.93 398.82 285.19 399.19 293.98Z"
fill="black" stroke="black" stroke-width="0.2"/>
<path d="M399.19 293.98L399.58 294.2 399.19 284.93 399.19 293.98Z"
fill="black" stroke="black" stroke-width="0.2"/>
<path d="M399.58 294.2L399.58 284.71 399.19 284.93 399.58 294.2Z"
fill="black" stroke="black" stroke-width="0.2"/>
<path d="M399.58 294.2L399.99 294.38 399.58 284.71 399.58 294.2Z"
fill="black" stroke="black" stroke-width="0.2"/>
<path d="M399.99 294.38L399.99 284.53 399.58 284.71 399.99 294.38Z"
fill="black" stroke="black" stroke-width="0.2"/>
<path d="M399.99 294.38L400.42 294.53 399.99 284.53 399.99 294.38Z"
fill="black" stroke="black" stroke-width="0.2"/>
<path d="M400.42 294.53L400.42 284.38 399.99 284.53 400.42 294.53Z"
fill="black" stroke="black" stroke-width="0.2"/>
<path d="M400.42 294.53L400.85 294.65 400.42 284.38 400.42 294.53Z"
fill="black" stroke="black" stroke-width="0.2"/>
<path d="M400.85 294.65L400.85 284.26 400.42 284.38 400.85 294.65Z"
fill="black" stroke="black" stroke-width="0.2"/>
<path d="M400.85 294.65L401.3 294.72 400.85 284.26 400.85 294.65Z"
fill="black" stroke="black" stroke-width="0.2"/>
<path d="M401.3 294.72L401.3 284.19 400.85 284.26 401.3 294.72Z"
fill="black" stroke="black" stroke-width="0.2"/>
<path d="M401.3 294.72L401.75 294.76 401.3 284.19 401.3 294.72Z"
fill="black" stroke="black" stroke-width="0.2"/>
<path d="M401.75 294.76L401.75 284.15 401.3 284.19 401.75 294.76Z"
fill="black" stroke="black" stroke-width="0.2"/>
<path d="M401.75 294.76L402.2 294.76 401.75 284.15 401.75 294.76Z"
fill="black" stroke="black" stroke-width="0.2"/>
<path d="M402.2 294.76L402.2 284.15 401.75 284.15 402.2 294.76Z"
fill="black" stroke="black" stroke-width="0.2"/>
<path d="M402.2 294.76L402.65 294.72 402.2 284.15 402.2 294.76Z"
fill="black" stroke="black" stroke-width="0.2"/>
<path d="M402.65 294.72L402.65 284.19 402.2 284.15 402.65 294.72Z"
fill="black" stroke="black" stroke-width="0.2"/>
<path d="M402.65 294.72L403.09 294.65 402.65 284.19 402.65 294.72Z"
fill="black" stroke="black" stroke-width="0.2"/>
<path d="M403.09 294.65L403.09 284.26 402.65 284.19 403.09 294.65Z"
fill="black" stroke="black" stroke-width="0.2"/>
<path d="M403.09 294.65L403.53 294.53 403.09 284.26 403.09 294.65Z"
fill="black" stroke="black" stroke-width="0.2"/>
<path d="M403.53 294.53L403.53 284.38 403.09 284.26 403.53 294.53Z"
fill="black" stroke="black" stroke-width="0.2"/>
<path d="M403.53 294.53L403.95 294.38 403.53 284.38 403.53 294.53Z"
fill="black" stroke="black" stroke-width="0.2"/>
<path d="M403.95 294.38L403.95 284.53 403.53 284.38 403.95 294.38Z"
fill="black" stroke="black" stroke-width="0.2"/>
<path d="M403.95 294.38L404.36 294.2 403.95 284.53 403.95 294.38Z"
fill="black" stroke="black" stroke-width="0.2"/>
<path d="M404.36 294.2L404.36 284.71 403.95 284.53 404.36 294.2Z"
fill="black" stroke="black" stroke-width="0.2"/>
<path d="M404.36 294.2L404.76 293.98 404.36 284.71 404.36 294.2Z"
fill="black" stroke="black" stroke-width="0.2"/>
<path d="M404.76 293.98L404.76 284.93 404.36 284.71 404.76 293.98Z"
fill="black" stroke="black" stroke-width="0.2"/>
<path d="M404.76 293.98L405.13 293.72 404.76 284.93 404.76 293.98Z"
fill="black" stroke="black" stroke-width="0.2"/>
<path d="M405.13 293.72L405.13 285.19 404.76 284.93 405.13 293.72Z"
fill="black" stroke="black" stroke-width="0.2"/>
<path d="M405.13 293.72L405.48 293.44 405.13 285.19 405.13 293.72Z"
fill="black" stroke="black" stroke-width="0.2"/>
<path d="M405.48 293.44L405.48 285.47 405.13 285.19 405.48 293.44Z"
fill="black" stroke="black" stroke-width="0.2"/>
<path d="M405.48 293.44L405.81 293.13 405.48 285.47 405.48 293.44Z"
fill="black" stroke="black" stroke-width="0.2"/>
<path d="M405.81 293.13L405.81 285.78 405.48 285.47 405.81 293.13Z"
fill="black" stroke="black" stroke-width="0.2"/>
<path d="M405.81 293.13L406.11 292.79 405.81 285.78 405.81 293.13Z"
fill="black" stroke="black" stroke-width="0.2"/>
<path d="M406.11 292.79L406.11 286.12 405.81 285.78 406.11 292.79Z"
fill="black" stroke="black" stroke-width="0.2"/>
<path d="M406.11 292.79L406.37 292.43 406.11 286.12 406.11 292.79Z"
fill="black" stroke="black" stroke-width="0.2"/>
<path d="M406.37 292.43L406.37 286.48 406.11 286.12 406.37 292.43Z"
fill="black" stroke="black" stroke-width="0.2"/>
<path d="M406.37 292.43L406.61 292.05 406.37 286.48 406.37 292.43Z"
fill="black" stroke="black" stroke-width="0.2"/>
<path d="M406.61 292.05L406.61 286.87 406.37 286.48 406.61 292.05Z"
fill="black" stroke="black" stroke-width="0.2"/>
<path d="M406.61 292.05L406.81 291.64 406.61 286.87 406.61 292.05Z"
fill="black" stroke="black" stroke-width="0.2"/>
<path d="M406.81 291.64L406.81 287.27 406.61 286.87 406.81 291.64Z"
fill="black" stroke="black" stroke-width="0.2"/>
<path d="M406.81 291.64L406.98 291.22 406.81 287.27 406.81 291.64Z"
fill="black" stroke="black" stroke-width="0.2"/>
<path d="M406.98 291.22L406.98 287.69 406.81 287.27 406.98 291.22Z"
fill="black" stroke="black" stroke-width="0.2"/>
<path d="M406.98 291.22L407.11 290.79 406.98 287.69 406.98 291.22Z"
fill="black" stroke="black" stroke-width="0.2"/>
<path d="M407.11 290.79L407.11 288.12 406.98 287.69 407.11 290.79Z"
fill="black" stroke="black" stroke-width="0.2"/>
<path d="M407.11 290.79L407.21 290.35 407.11 288.12 407.11 290.79Z"
fill="black" stroke="black" stroke-width="0.2"/>
<path d="M407.21 290.35L407.21 288.56 407.11 288.12 407.21 290.35Z"
fill="black" stroke="black" stroke-width="0.2"/>
<path d="M407.21 290.35L407.26 289.91 407.21 288.56 407.21 290.35Z"
fill="black" stroke="black" stroke-width="0.2"/>
<path d="M407.26 289.91L407.26 289 407.21 288.56 407.26 289.91Z"
fill="black" stroke="black" stroke-width="0.2"/>
<path d="M407.26 289.91L407.28 289.46 407.26 289 407.26 289.91Z"
fill="black" stroke="black" stroke-width="0.2"/>
<path d="M407.28 289.46L407.09 290.89"
fill="none" stroke="black" stroke-width="3.5"/>
<path d="M407.09 290.89L406.51 292.21"
fill="none" stroke="black" stroke-width="3.5"/>
<path d="M406.51 292.21L405.6 293.34"
fill="none" stroke="black" stroke-width="3.5"/>
<path d="M405.6 293.34L404.42 294.17"
fill="none" stroke="black" stroke-width="3.5"/>
<path d="M404.42 294.17L403.05 294.65"
fill="none" stroke="black" stroke-width="3.5"/>
<path d="M403.05 294.65L401.61 294.75"
fill="none" stroke="black" stroke-width="3.5"/>
<path d="M401.61 294.75L400.19 294.46"
fill="none" stroke="black" stroke-width="3.5"/>
<path d="M400.19 294.46L398.91 293.79"
fill="none" stroke="black" stroke-width="3.5"/>
<path d="M398.91 293.79L397.85 292.81"
fill="none" stroke="black" stroke-width="3.5"/>
<path d="M397.85 292.81L397.1 291.57"
fill="none" stroke="black" stroke-width="3.5"/>
<path d="M397.1 291.57L396.71 290.18"
fill="none" stroke="black" stroke-width="3.5"/>
<path d="M396.71 290.18L396.71 288.73Z"
fill="none" stroke="black" stroke-width="3.5"/>
<path d="M396.71 288.73L397.1 287.34"
fill="none" stroke="black" stroke-width="3.5"/>
<path d="M397.1 287.34L397.85 286.1"
fill="none" stroke="black" stroke-width="3.5"/>
<path d="M397.85 286.1L398.91 285.12"
fill="none" stroke="black" stroke-width="3.5"/>
<path d="M398.91 285.12L400.19 284.45"
fill="none" stroke="black" stroke-width="3.5"/>
<path d="M400.19 284.45L401.61 284.16"
fill="none" stroke="black" stroke-width="3.5"/>
<path d="M401.61 284.16L403.05 284.26"
fill="none" stroke="black" stroke-width="3.5"/>
<path d="M403.05 284.26L404.42 284.74"
fill="none" stroke="black" stroke-width="3.5"/>
<path d="M404.42 284.74L405.6 285.57"
fill="none" stroke="black" stroke-width="3.5"/>
<path d="M405.6 285.57L406.51 286.7"
fill="none" stroke="black" stroke-width="3.5"/>
<path d="M406.51 286.7L407.09 288.02"
fill="none" stroke="black" stroke-width="3.5"/>
<path d="M407.09 288.02L407.28 289.46"
fill="none" stroke="black" stroke-width="3.5"/>
<path d="M421.46 289.91L421.46 289 421.45 289.46 421.46 289.91Z"
fill="black" stroke="black" stroke-width="0.2"/>
<path d="M421.46 289.91L421.52 290.35 421.46 289 421.46 289.91Z"
fill="black" stroke="black" stroke-width="0.2"/>
<path d="M421.52 290.35L421.52 288.56 421.46 289 421.52 290.35Z"
fill="black" stroke="black" stroke-width="0.2"/>
<path d="M421.52 290.35L421.62 290.79 421.52 288.56 421.52 290.35Z"
fill="black" stroke="black" stroke-width="0.2"/>
<path d="M421.62 290.79L421.62 288.12 421.52 288.56 421.62 290.79Z"
fill="black" stroke="black" stroke-width="0.2"/>
<path d="M421.62 290.79L421.75 291.22 421.62 288.12 421.62 290.79Z"
fill="black" stroke="black" stroke-width="0.2"/>
<path d="M421.75 291.22L421.75 287.69 421.62 288.12 421.75 291.22Z"
fill="black" stroke="black" stroke-width="0.2"/>
<path d="M421.75 291.22L421.92 291.64 421.75 287.69 421.75 291.22Z"
fill="black" stroke="black" stroke-width="0.2"/>
<path d="M421.92 291.64L421.92 287.27 421.75 287.69 421.92 291.64Z"
fill="black" stroke="black" stroke-width="0.2"/>
<path d="M421.92 291.64L422.12 292.05 421.92 287.27 421.92 291.64Z"
fill="black" stroke="black" stroke-width="0.2"/>
<path d="M422.12 292.05L422.12 286.87 421.92 287.27 422.12 292.05Z"
fill="black" stroke="black" stroke-width="0.2"/>
<path d="M422.12 292.05L422.36 292.43 422.12 286.87 422.12 292.05Z"
fill="black" stroke="black" stroke-width="0.2"/>
<path d="M422.36 292.43L422.36 286.48 422.12 286.87 422.36 292.43Z"
fill="black" stroke="black" stroke-width="0.2"/>
<path d="M422.36 292.43L422.62 292.79 422.36 286.48 422.36 292.43Z"
fill="black" stroke="black" stroke-width="0.2"/>
<path d="M422.62 292.79L422.62 286.12 422.36 286.48 422.62 292.79Z"
fill="black" stroke="black" stroke-width="0.2"/>
<path d="M422.62 292.79L422.92 293.13 422.62 286.12 422.62 292.79Z"
fill="black" stroke="black" stroke-width="0.2"/>
<path d="M422.92 293.13L422.92 285.78 422.62 286.12 422.92 293.13Z"
fill="black" stroke="black" stroke-width="0.2"/>
<path d="M422.92 293.13L423.25 293.44 422.92 285.78 422.92 293.13Z"
fill="black" stroke="black" stroke-width="0.2"/>
<path d="M423.25 293.44L423.25 285.47 422.92 285.78 423.25 293.44Z"
fill="black" stroke="black" stroke-width="0.2"/>
<path d="M423.25 293.44L423.6 293.72 423.25 285.47 423.25 293.44Z"
fill="black" stroke="black" stroke-width="0.2"/>
<path d="M423.6 293.72L423.6 285.19 423.25 285.47 423.6 293.72Z"
fill="black" stroke="black" stroke-width="0.2"/>
<path d="M423.6 293.72L423.97 293.98 423.6 285.19 423.6 293.72Z"
fill="black" stroke="black" stroke-width="0.2"/>
<path d="M423.97 293.98L423.97 284.93 423.6 285.19 423.97 293.98Z"
fill="black" stroke="black" stroke-width="0.2"/>
<path d="M423.97 293.98L424.37 294.2 423.97 284.93 423.97 293.98Z"
fill="black" stroke="black" stroke-width="0.2"/>
<path d="M424.37 294.2L424.37 284.71 423.97 284.93 424.37 294.2Z"
fill="black" stroke="black" stroke-width="0.2"/>
<path d="M424.37 294.2L424.78 294.38 424.37 284.71 424.37 294.2Z"
fill="black" stroke="black" stroke-width="0.2"/>
<path d="M424.78 294.38L424.78 284.53 424.37 284.71 424.78 294.38Z"
fill="black" stroke="black" stroke-width="0.2"/>
<path d="M424.78 294.38L425.2 294.53 424.78 284.53 424.78 294.38Z"
fill="black" stroke="black" stroke-width="0.2"/>
<path d="M425.2 294.53L425.2 284.38 424.78 284.53 425.2 294.53Z"
fill="black" stroke="black" stroke-width="0.2"/>
<path d="M425.2 294.53L425.64 294.65 425.2 284.38 425.2 294.53Z"
fill="black" stroke="black" stroke-width="0.2"/>
<path d="M425.64 294.65L425.64 284.26 425.2 284.38 425.64 294.65Z"
fill="black" stroke="black" stroke-width="0.2"/>
<path d="M425.64 294.65L426.08 294.72 425.64 284.26 425.64 294.65Z"
fill="black" stroke="black" stroke-width="0.2"/>
<path d="M426.08 294.72L426.08 284.19 425.64 284.26 426.08 294.72Z"
fill="black" stroke="black" stroke-width="0.2"/>
<path d="M426.08 294.72L426.53 294.76 426.08 284.19 426.08 294.72Z"
fill="black" stroke="black" stroke-width="0.2"/>
<path d="M426.53 294.76L426.53 284.15 426.08 284.19 426.53 294.76Z"
fill="black" stroke="black" stroke-width="0.2"/>
<path d="M426.53 294.76L426.98 294.76 426.53 284.15 426.53 294.76Z"
fill="black" stroke="black" stroke-width="0.2"/>
<path d="M426.98 294.76L426.98 284.15 426.53 284.15 426.98 294.76Z"
fill="black" stroke="black" stroke-width="0.2"/>
<path d="M426.98 294.76L427.43 294.72 426.98 284.15 426.98 294.76Z"
fill="black" stroke="black" stroke-width="0.2"/>
<path d="M427.43 294.72L427.43 284.19 426.98 284.15 427.43 294.72Z"
fill="black" stroke="black" stroke-width="0.2"/>
<path d="M427.43 294.72L427.88 294.65 427.43 284.19 427.43 294.72Z"
fill="black" stroke="black" stroke-width="0.2"/>
<path d="M427.88 294.65L427.88 284.26 427.43 284.19 427.88 294.65Z"
fill="black" stroke="black" stroke-width="0.2"/>
<path d="M427.88 294.65L428.31 294.53 427.88 284.26 427.88 294.65Z"
fill="black" stroke="black" stroke-width="0.2"/>
<path d="M428.31 294.53L428.31 284.38 427.88 284.26 428.31 294.53Z"
fill="black" stroke="black" stroke-width="0.2"/>
<path d="M428.31 294.53L428.74 294.38 428.31 284.38 428.31 294.53Z"
fill="black" stroke="black" stroke-width="0.2"/>
<path d="M428.74 294.38L428.74 284.53 428.31 284.38 428.74 294.38Z"
fill="black" stroke="black" stroke-width="0.2"/>
<path d="M428.74 294.38L429.15 294.2 428.74 284.53 428.74 294.38Z"
fill="black" stroke="black" stroke-width="0.2"/>
<path d="M429.15 294.2L429.15 284.71 428.74 284.53 429.15 294.2Z"
fill="black" stroke="black" stroke-width="0.2"/>
<path d="M429.15 294.2L429.54 293.98 429.15 284.71 429.15 294.2Z"
fill="black" stroke="black" stroke-width="0.2"/>
<path d="M429.54 293.98L429.54 284.93 429.15 284.71 429.54 293.98Z"
fill="black" stroke="black" stroke-width="0.2"/>
<path d="M429.54 293.98L429.91 293.72 429.54 284.93 429.54 293.98Z"
fill="black" stroke="black" stroke-width="0.2"/>
<path d="M429.91 293.72L429.91 285.19 429.54 284.93 429.91 293.72Z"
fill="black" stroke="black" stroke-width="0.2"/>
<path d="M429.91 293.72L430.27 293.44 429.91 285.19 429.91 293.72Z"
fill="black" stroke="black" stroke-width="0.2"/>
<path d="M430.27 293.44L430.27 285.47 429.91 285.19 430.27 293.44Z"
fill="black" stroke="black" stroke-width="0.2"/>
<path d="M430.27 293.44L430.59 293.13 430.27 285.47 430.27 293.44Z"
fill="black" stroke="black" stroke-width="0.2"/>
<path d="M430.59 293.13L430.59 285.78 430.27 285.47 430.59 293.13Z"
fill="black" stroke="black" stroke-width="0.2"/>
<path d="M430.59 293.13L430.89 292.79 430.59 285.78 430.59 293.13Z"
fill="black" stroke="black" stroke-width="0.2"/>
<path d="M430.89 292.79L430.89 286.12 430.59 285.78 430.89 292.79Z"
fill="black" stroke="black" stroke-width="0.2"/>
<path d="M430.89 292.79L431.16 292.43 430.89 286.12 430.89 292.79Z"
fill="black" stroke="black" stroke-width="0.2"/>
<path d="M431.16 292.43L431.16 286.48 430.89 286.12 431.16 292.43Z"
fill="black" stroke="black" stroke-width="0.2"/>
<path d="M431.16 292.43L431.39 292.05 431.16 286.48 431.16 292.43Z"
fill="black" stroke="black" stroke-width="0.2"/>
<path d="M431.39 292.05L431.39 286.87 431.16 286.48 431.39 292.05Z"
fill="black" stroke="black" stroke-width="0.2"/>
<path d="M431.39 292.05L431.6 291.64 431.39 286.87 431.39 292.05Z"
fill="black" stroke="black" stroke-width="0.2"/>
<path d="M431.6 291.64L431.6 287.27 431.39 286.87 431.6 291.64Z"
fill="black" stroke="black" stroke-width="0.2"/>
<path d="M431.6 291.64L431.76 291.22 431.6 287.27 431.6 291.64Z"
fill="black" stroke="black" stroke-width="0.2"/>
<path d="M431.76 291.22L431.76 287.69 431.6 287.27 431.76 291.22Z"
fill="black" stroke="black" stroke-width="0.2"/>
<path d="M431.76 291.22L431.9 290.79 431.76 287.69 431.76 291.22Z"
fill="black" stroke="black" stroke-width="0.2"/>
<path d="M431.9 290.79L431.9 288.12 431.76 287.69 431.9 290.79Z"
fill="black" stroke="black" stroke-width="0.2"/>
<path d="M431.9 290.79L431.99 290.35 431.9 288.12 431.9 290.79Z"
fill="black" stroke="black" stroke-width="0.2"/>
<path d="M431.99 290.35L431.99 288.56 431.9 288.12 431.99 290.35Z"
fill="black" stroke="black" stroke-width="0.2"/>
<path d="M431.99 290.35L432.05 289.91 431.99 288.56 431.99 290.35Z"
fill="black" stroke="black" stroke-width="0.2"/>
<path d="M432.05 289.91L432.05 289 431.99 288.56 432.05 289.91Z"
fill="black" stroke="black" stroke-width="0.2"/>
<path d="M432.05 289.91L432.07 289.46 432.05 289 432.05 289.91Z"
fill="black" stroke="black" stroke-width="0.2"/>
<path d="M432.07 289.46L431.87 290.89"
fill="none" stroke="black" stroke-width="3.5"/>
<path d="M431.87 290.89L431.29 292.21"
fill="none" stroke="black" stroke-width="3.5"/>
<path d="M431.29 292.21L430.38 293.34"
fill="none" stroke="black" stroke-width="3.5"/>
<path d="M430.38 293.34L429.2 294.17"
fill="none" stroke="black" stroke-width="3.5"/>
<path d="M429.2 294.17L427.84 294.65"
fill="none" stroke="black" stroke-width="3.5"/>
<path d="M427.84 294.65L426.39 294.75"
fill="none" stroke="black" stroke-width="3.5"/>
<path d="M426.39 294.75L424.98 294.46"
fill="none" stroke="black" stroke-width="3.5"/>
<path d="M424.98 294.46L423.69 293.79"
fill="none" stroke="black" stroke-width="3.5"/>
<path d="M423.69 293.79L422.64 292.81"
fill="none" stroke="black" stroke-width="3.5"/>
<path d="M422.64 292.81L421.89 291.57"
fill="none" stroke="black" stroke-width="3.5"/>
<path d="M421.89 291.57L421.5 290.18"
fill="none" stroke="black" stroke-width="3.5"/>
<path d="M421.5 290.18L421.5 288.73Z"
fill="none" stroke="black" stroke-width="3.5"/>
<path d="M421.5 288.73L421.89 287.34"
fill="none" stroke="black" stroke-width="3.5"/>
<path d="M421.89 287.34L422.64 286.1"
fill="none" stroke="black" stroke-width="3.5"/>
<path d="M422.64 286.1L423.69 285.12"
fill="none" stroke="black" stroke-width="3.5"/>
<path d="M423.69 285.12L424.98 284.45"
fill="none" stroke="black" stroke-width="3.5"/>
<path d="M424.98 284.45L426.39 284.16"
fill="none" stroke="black" stroke-width="3.5"/>
<path d="M426.39 284.16L427.84 284.26"
fill="none" stroke="black" stroke-width="3.5"/>
<path d="M427.84 284.26L429.2 284.74"
fill="none" stroke="black" stroke-width="3.5"/>
<path d="M429.2 284.74L430.38 285.57"
fill="none" stroke="black" stroke-width="3.5"/>
<path d="M430.38 285.57L431.29 286.7"
fill="none" stroke="black" stroke-width="3.5"/>
<path d="M431.29 286.7L431.87 288.02"
fill="none" stroke="black" stroke-width="3.5"/>
<path d="M431.87 288.02L432.07 289.46"
fill="none" stroke="black" stroke-width="3.5"/>
</svg>
