<?xml version="1.0" encoding="UTF-8"?>
<svg xmlns="http://www.w3.org/2000/svg" width="800.000" height="600.000" viewBox="0.0 0.0 800.000 600.000" version="1.1">
  <desc>Produce by Acme CAD Converter</desc>
<path d="M442.67 390.01L435.73 389.79 437.36 364.35 442.67 364.52 442.67 390.01Z"
fill-rule="nonzero" fill="cyan"/>
<path d="M435.73 389.79L428.82 389.12 432.08 363.84 437.36 364.35 435.73 389.79Z"
fill-rule="nonzero" fill="cyan"/>
<path d="M428.82 389.12L421.96 388.01 426.83 362.99 432.08 363.84 428.82 389.12Z"
fill-rule="nonzero" fill="cyan"/>
<path d="M421.96 388.01L415.19 386.47 421.66 361.81 426.83 362.99 421.96 388.01Z"
fill-rule="nonzero" fill="cyan"/>
<path d="M415.19 386.47L408.53 384.49 416.56 360.3 421.66 361.81 415.19 386.47Z"
fill-rule="nonzero" fill="cyan"/>
<path d="M408.53 384.49L402.01 382.09 411.58 358.46 416.56 360.3 408.53 384.49Z"
fill-rule="nonzero" fill="cyan"/>
<path d="M402.01 382.09L395.66 379.28 406.72 356.31 411.58 358.46 402.01 382.09Z"
fill-rule="nonzero" fill="cyan"/>
<path d="M395.66 379.28L389.5 376.07 402.01 353.86 406.72 356.31 395.66 379.28Z"
fill-rule="nonzero" fill="cyan"/>
<path d="M389.5 376.07L383.56 372.47 397.47 351.1 402.01 353.86 389.5 376.07Z"
fill-rule="nonzero" fill="cyan"/>
<path d="M383.56 372.47L377.87 368.49 393.12 348.06 397.47 351.1 383.56 372.47Z"
fill-rule="nonzero" fill="cyan"/>
<path d="M377.87 368.49L372.44 364.16 388.96 344.75 393.12 348.06 377.87 368.49Z"
fill-rule="nonzero" fill="cyan"/>
<path d="M372.44 364.16L367.3 359.49 385.03 341.18 388.96 344.75 372.44 364.16Z"
fill-rule="nonzero" fill="cyan"/>
<path d="M367.3 359.49L362.46 354.51 381.34 337.37 385.03 341.18 367.3 359.49Z"
fill-rule="nonzero" fill="cyan"/>
<path d="M362.46 354.51L357.96 349.22 377.89 333.32 381.34 337.37 362.46 354.51Z"
fill-rule="nonzero" fill="cyan"/>
<path d="M357.96 349.22L353.81 343.65 374.72 329.06 377.89 333.32 357.96 349.22Z"
fill-rule="nonzero" fill="cyan"/>
<path d="M353.81 343.65L350.02 337.83 371.82 324.61 374.72 329.06 353.81 343.65Z"
fill-rule="nonzero" fill="cyan"/>
<path d="M350.02 337.83L346.61 331.78 369.21 319.99 371.82 324.61 350.02 337.83Z"
fill-rule="nonzero" fill="cyan"/>
<path d="M346.61 331.78L343.6 325.52 366.91 315.2 369.21 319.99 346.61 331.78Z"
fill-rule="nonzero" fill="cyan"/>
<path d="M343.6 325.52L340.99 319.08 364.91 310.28 366.91 315.2 343.6 325.52Z"
fill-rule="nonzero" fill="cyan"/>
<path d="M340.99 319.08L338.8 312.49 363.24 305.24 364.91 310.28 340.99 319.08Z"
fill-rule="nonzero" fill="cyan"/>
<path d="M338.8 312.49L337.04 305.77 361.89 300.1 363.24 305.24 338.8 312.49Z"
fill-rule="nonzero" fill="cyan"/>
<path d="M337.04 305.77L335.71 298.95 360.88 294.88 361.89 300.1 337.04 305.77Z"
fill-rule="nonzero" fill="cyan"/>
<path d="M335.71 298.95L334.82 292.07 360.2 289.62 360.88 294.88 335.71 298.95Z"
fill-rule="nonzero" fill="cyan"/>
<path d="M334.82 292.07L334.38 285.13 359.86 284.32 360.2 289.62 334.82 292.07Z"
fill-rule="nonzero" fill="cyan"/>
<path d="M334.38 285.13L334.38 278.19 359.86 279.01 359.86 284.32 334.38 285.13Z"
fill-rule="nonzero" fill="cyan"/>
<path d="M334.38 278.19L334.82 271.26 360.2 273.7 359.86 279.01 334.38 278.19Z"
fill-rule="nonzero" fill="cyan"/>
<path d="M334.82 271.26L335.71 264.37 360.88 268.44 360.2 273.7 334.82 271.26Z"
fill-rule="nonzero" fill="cyan"/>
<path d="M335.71 264.37L337.04 257.55 361.89 263.22 360.88 268.44 335.71 264.37Z"
fill-rule="nonzero" fill="cyan"/>
<path d="M337.04 257.55L338.8 250.83 363.24 258.09 361.89 263.22 337.04 257.55Z"
fill-rule="nonzero" fill="cyan"/>
<path d="M338.8 250.83L340.99 244.24 364.91 253.05 363.24 258.09 338.8 250.83Z"
fill-rule="nonzero" fill="cyan"/>
<path d="M340.99 244.24L343.6 237.8 366.91 248.12 364.91 253.05 340.99 244.24Z"
fill-rule="nonzero" fill="cyan"/>
<path d="M343.6 237.8L346.61 231.54 369.21 243.34 366.91 248.12 343.6 237.8Z"
fill-rule="nonzero" fill="cyan"/>
<path d="M346.61 231.54L350.02 225.49 371.82 238.71 369.21 243.34 346.61 231.54Z"
fill-rule="nonzero" fill="cyan"/>
<path d="M350.02 225.49L353.81 219.67 374.72 234.26 371.82 238.71 350.02 225.49Z"
fill-rule="nonzero" fill="cyan"/>
<path d="M353.81 219.67L357.96 214.11 377.89 230 374.72 234.26 353.81 219.67Z"
fill-rule="nonzero" fill="cyan"/>
<path d="M357.96 214.11L362.46 208.82 381.34 225.96 377.89 230 357.96 214.11Z"
fill-rule="nonzero" fill="cyan"/>
<path d="M362.46 208.82L367.3 203.83 385.03 222.14 381.34 225.96 362.46 208.82Z"
fill-rule="nonzero" fill="cyan"/>
<path d="M367.3 203.83L372.44 199.16 388.96 218.57 385.03 222.14 367.3 203.83Z"
fill-rule="nonzero" fill="cyan"/>
<path d="M372.44 199.16L377.87 194.83 393.12 215.26 388.96 218.57 372.44 199.16Z"
fill-rule="nonzero" fill="cyan"/>
<path d="M377.87 194.83L383.56 190.85 397.47 212.22 393.12 215.26 377.87 194.83Z"
fill-rule="nonzero" fill="cyan"/>
<path d="M383.56 190.85L389.5 187.25 402.01 209.47 397.47 212.22 383.56 190.85Z"
fill-rule="nonzero" fill="cyan"/>
<path d="M389.5 187.25L395.66 184.04 406.72 207.01 402.01 209.47 389.5 187.25Z"
fill-rule="nonzero" fill="cyan"/>
<path d="M395.66 184.04L402.01 181.23 411.58 204.86 406.72 207.01 395.66 184.04Z"
fill-rule="nonzero" fill="cyan"/>
<path d="M402.01 181.23L408.53 178.83 416.56 203.03 411.58 204.86 402.01 181.23Z"
fill-rule="nonzero" fill="cyan"/>
<path d="M408.53 178.83L415.19 176.85 421.66 201.51 416.56 203.03 408.53 178.83Z"
fill-rule="nonzero" fill="cyan"/>
<path d="M415.19 176.85L421.96 175.31 426.83 200.33 421.66 201.51 415.19 176.85Z"
fill-rule="nonzero" fill="cyan"/>
<path d="M421.96 175.31L428.82 174.2 432.08 199.48 426.83 200.33 421.96 175.31Z"
fill-rule="nonzero" fill="cyan"/>
<path d="M428.82 174.2L435.73 173.53 437.36 198.97 432.08 199.48 428.82 174.2Z"
fill-rule="nonzero" fill="cyan"/>
<path d="M435.73 173.53L442.67 173.31 442.67 198.8 437.36 198.97 435.73 173.53Z"
fill-rule="nonzero" fill="cyan"/>
<path d="M442.67 281.66L474.54 265.73"
fill="none" stroke="cyan" stroke-width="0.5"/>
<path d="M442.67 281.66L474.54 297.59"
fill="none" stroke="cyan" stroke-width="0.5"/>
<path d="M538.28 281.66L442.67 281.66"
fill="none" stroke="cyan" stroke-width="0.5"/>
</svg>
