<?xml version="1.0" encoding="UTF-8"?>
<svg xmlns="http://www.w3.org/2000/svg" width="800.000" height="600.000" viewBox="0.0 0.0 800.000 600.000" version="1.1">
  <desc>Produce by Acme CAD Converter</desc>
<path d="M452.91 278.4L452.71 283.58"
fill="none" stroke="black" stroke-width="3.5"/>
<path d="M452.71 283.58L452.12 288.73"
fill="none" stroke="black" stroke-width="3.5"/>
<path d="M452.12 288.73L451.13 293.82"
fill="none" stroke="black" stroke-width="3.5"/>
<path d="M451.13 293.82L449.76 298.82"
fill="none" stroke="black" stroke-width="3.5"/>
<path d="M449.76 298.82L448 303.7"
fill="none" stroke="black" stroke-width="3.5"/>
<path d="M448 303.7L445.88 308.44"
fill="none" stroke="black" stroke-width="3.5"/>
<path d="M445.88 308.44L443.4 312.99"
fill="none" stroke="black" stroke-width="3.5"/>
<path d="M443.4 312.99L440.59 317.35"
fill="none" stroke="black" stroke-width="3.5"/>
<path d="M440.59 317.35L437.44 321.47"
fill="none" stroke="black" stroke-width="3.5"/>
<path d="M437.44 321.47L433.99 325.34"
fill="none" stroke="black" stroke-width="3.5"/>
<path d="M433.99 325.34L430.25 328.94"
fill="none" stroke="black" stroke-width="3.5"/>
<path d="M430.25 328.94L426.25 332.24"
fill="none" stroke="black" stroke-width="3.5"/>
<path d="M426.25 332.24L422.01 335.22"
fill="none" stroke="black" stroke-width="3.5"/>
<path d="M422.01 335.22L417.55 337.87"
fill="none" stroke="black" stroke-width="3.5"/>
<path d="M417.55 337.87L412.9 340.18"
fill="none" stroke="black" stroke-width="3.5"/>
<path d="M412.9 340.18L408.09 342.11"
fill="none" stroke="black" stroke-width="3.5"/>
<path d="M408.09 342.11L403.15 343.68"
fill="none" stroke="black" stroke-width="3.5"/>
<path d="M403.15 343.68L398.1 344.86"
fill="none" stroke="black" stroke-width="3.5"/>
<path d="M398.1 344.86L392.97 345.65"
fill="none" stroke="black" stroke-width="3.5"/>
<path d="M392.97 345.65L387.8 346.05"
fill="none" stroke="black" stroke-width="3.5"/>
<path d="M387.8 346.05L382.62 346.05"
fill="none" stroke="black" stroke-width="3.5"/>
<path d="M382.62 346.05L377.44 345.65"
fill="none" stroke="black" stroke-width="3.5"/>
<path d="M377.44 345.65L372.32 344.86"
fill="none" stroke="black" stroke-width="3.5"/>
<path d="M372.32 344.86L367.27 343.68"
fill="none" stroke="black" stroke-width="3.5"/>
<path d="M367.27 343.68L362.32 342.11"
fill="none" stroke="black" stroke-width="3.5"/>
<path d="M362.32 342.11L357.51 340.18"
fill="none" stroke="black" stroke-width="3.5"/>
<path d="M357.51 340.18L352.86 337.87"
fill="none" stroke="black" stroke-width="3.5"/>
<path d="M352.86 337.87L348.41 335.22"
fill="none" stroke="black" stroke-width="3.5"/>
<path d="M348.41 335.22L344.16 332.24"
fill="none" stroke="black" stroke-width="3.5"/>
<path d="M344.16 332.24L340.16 328.94"
fill="none" stroke="black" stroke-width="3.5"/>
<path d="M340.16 328.94L336.43 325.34"
fill="none" stroke="black" stroke-width="3.5"/>
<path d="M336.43 325.34L332.98 321.47"
fill="none" stroke="black" stroke-width="3.5"/>
<path d="M332.98 321.47L329.83 317.35"
fill="none" stroke="black" stroke-width="3.5"/>
<path d="M329.83 317.35L327.01 312.99"
fill="none" stroke="black" stroke-width="3.5"/>
<path d="M327.01 312.99L324.53 308.44"
fill="none" stroke="black" stroke-width="3.5"/>
<path d="M324.53 308.44L322.41 303.7"
fill="none" stroke="black" stroke-width="3.5"/>
<path d="M322.41 303.7L320.66 298.82"
fill="none" stroke="black" stroke-width="3.5"/>
<path d="M320.66 298.82L319.28 293.82"
fill="none" stroke="black" stroke-width="3.5"/>
<path d="M319.28 293.82L318.3 288.73"
fill="none" stroke="black" stroke-width="3.5"/>
<path d="M318.3 288.73L317.7 283.58"
fill="none" stroke="black" stroke-width="3.5"/>
<path d="M317.7 283.58L317.5 278.4"
fill="none" stroke="black" stroke-width="3.5"/>
<path d="M317.5 278.4L317.7 273.21"
fill="none" stroke="black" stroke-width="3.5"/>
<path d="M317.7 273.21L318.3 268.06"
fill="none" stroke="black" stroke-width="3.5"/>
<path d="M318.3 268.06L319.28 262.97"
fill="none" stroke="black" stroke-width="3.5"/>
<path d="M319.28 262.97L320.66 257.97"
fill="none" stroke="black" stroke-width="3.5"/>
<path d="M320.66 257.97L322.41 253.09"
fill="none" stroke="black" stroke-width="3.5"/>
<path d="M322.41 253.09L324.53 248.35"
fill="none" stroke="black" stroke-width="3.5"/>
<path d="M324.53 248.35L327.01 243.8"
fill="none" stroke="black" stroke-width="3.5"/>
<path d="M327.01 243.8L329.83 239.44"
fill="none" stroke="black" stroke-width="3.5"/>
<path d="M329.83 239.44L332.98 235.32"
fill="none" stroke="black" stroke-width="3.5"/>
<path d="M332.98 235.32L336.43 231.45"
fill="none" stroke="black" stroke-width="3.5"/>
<path d="M336.43 231.45L340.16 227.85"
fill="none" stroke="black" stroke-width="3.5"/>
<path d="M340.16 227.85L344.16 224.55"
fill="none" stroke="black" stroke-width="3.5"/>
<path d="M344.16 224.55L348.41 221.57"
fill="none" stroke="black" stroke-width="3.5"/>
<path d="M348.41 221.57L352.86 218.92"
fill="none" stroke="black" stroke-width="3.5"/>
<path d="M352.86 218.92L357.51 216.62"
fill="none" stroke="black" stroke-width="3.5"/>
<path d="M357.51 216.62L362.32 214.68"
fill="none" stroke="black" stroke-width="3.5"/>
<path d="M362.32 214.68L367.27 213.11"
fill="none" stroke="black" stroke-width="3.5"/>
<path d="M367.27 213.11L372.32 211.93"
fill="none" stroke="black" stroke-width="3.5"/>
<path d="M372.32 211.93L377.44 211.14"
fill="none" stroke="black" stroke-width="3.5"/>
<path d="M377.44 211.14L382.62 210.74"
fill="none" stroke="black" stroke-width="3.5"/>
<path d="M382.62 210.74L387.8 210.74"
fill="none" stroke="black" stroke-width="3.5"/>
<path d="M387.8 210.74L392.97 211.14"
fill="none" stroke="black" stroke-width="3.5"/>
<path d="M392.97 211.14L398.1 211.93"
fill="none" stroke="black" stroke-width="3.5"/>
<path d="M398.1 211.93L403.15 213.11"
fill="none" stroke="black" stroke-width="3.5"/>
<path d="M403.15 213.11L408.09 214.68"
fill="none" stroke="black" stroke-width="3.5"/>
<path d="M408.09 214.68L412.9 216.62"
fill="none" stroke="black" stroke-width="3.5"/>
<path d="M412.9 216.62L417.55 218.92"
fill="none" stroke="black" stroke-width="3.5"/>
<path d="M417.55 218.92L422.01 221.57"
fill="none" stroke="black" stroke-width="3.5"/>
<path d="M422.01 221.57L426.25 224.55"
fill="none" stroke="black" stroke-width="3.5"/>
<path d="M426.25 224.55L430.25 227.85"
fill="none" stroke="black" stroke-width="3.5"/>
<path d="M430.25 227.85L433.99 231.45"
fill="none" stroke="black" stroke-width="3.5"/>
<path d="M433.99 231.45L437.44 235.32"
fill="none" stroke="black" stroke-width="3.5"/>
<path d="M437.44 235.32L440.59 239.44"
fill="none" stroke="black" stroke-width="3.5"/>
<path d="M440.59 239.44L443.4 243.8"
fill="none" stroke="black" stroke-width="3.5"/>
<path d="M443.4 243.8L445.88 248.35"
fill="none" stroke="black" stroke-width="3.5"/>
<path d="M445.88 248.35L448 253.09"
fill="none" stroke="black" stroke-width="3.5"/>
<path d="M448 253.09L449.76 257.97"
fill="none" stroke="black" stroke-width="3.5"/>
<path d="M449.76 257.97L451.13 262.97"
fill="none" stroke="black" stroke-width="3.5"/>
<path d="M451.13 262.97L452.12 268.06"
fill="none" stroke="black" stroke-width="3.5"/>
<path d="M452.12 268.06L452.71 273.21"
fill="none" stroke="black" stroke-width="3.5"/>
<path d="M452.71 273.21L452.91 278.4"
fill="none" stroke="black" stroke-width="3.5"/>
<path d="M344.59 233.26L425.83 233.26"
fill="none" stroke="black" stroke-width="3.5"/>
<path d="M344.59 323.53L425.83 323.53"
fill="none" stroke="black" stroke-width="3.5"/>
<path d="M371.69 279.13L371.69 277.66 371.67 278.4 371.69 279.13Z"
fill="black" stroke="black" stroke-width="0.2"/>
<path d="M371.69 279.13L371.75 279.86 371.69 277.66 371.69 279.13Z"
fill="black" stroke="black" stroke-width="0.2"/>
<path d="M371.75 279.86L371.75 276.93 371.69 277.66 371.75 279.86Z"
fill="black" stroke="black" stroke-width="0.2"/>
<path d="M371.75 279.86L371.85 280.59 371.75 276.93 371.75 279.86Z"
fill="black" stroke="black" stroke-width="0.2"/>
<path d="M371.85 280.59L371.85 276.2 371.75 276.93 371.85 280.59Z"
fill="black" stroke="black" stroke-width="0.2"/>
<path d="M371.85 280.59L371.98 281.31 371.85 276.2 371.85 280.59Z"
fill="black" stroke="black" stroke-width="0.2"/>
<path d="M371.98 281.31L371.98 275.48 371.85 276.2 371.98 281.31Z"
fill="black" stroke="black" stroke-width="0.2"/>
<path d="M371.98 281.31L372.16 282.02 371.98 275.48 371.98 281.31Z"
fill="black" stroke="black" stroke-width="0.2"/>
<path d="M372.16 282.02L372.16 274.77 371.98 275.48 372.16 282.02Z"
fill="black" stroke="black" stroke-width="0.2"/>
<path d="M372.16 282.02L372.38 282.72 372.16 274.77 372.16 282.02Z"
fill="black" stroke="black" stroke-width="0.2"/>
<path d="M372.38 282.72L372.38 274.07 372.16 274.77 372.38 282.72Z"
fill="black" stroke="black" stroke-width="0.2"/>
<path d="M372.38 282.72L372.63 283.41 372.38 274.07 372.38 282.72Z"
fill="black" stroke="black" stroke-width="0.2"/>
<path d="M372.63 283.41L372.63 273.38 372.38 274.07 372.63 283.41Z"
fill="black" stroke="black" stroke-width="0.2"/>
<path d="M372.63 283.41L372.92 284.08 372.63 273.38 372.63 283.41Z"
fill="black" stroke="black" stroke-width="0.2"/>
<path d="M372.92 284.08L372.92 272.71 372.63 273.38 372.92 284.08Z"
fill="black" stroke="black" stroke-width="0.2"/>
<path d="M372.92 284.08L373.24 284.74 372.92 272.71 372.92 284.08Z"
fill="black" stroke="black" stroke-width="0.2"/>
<path d="M373.24 284.74L373.24 272.05 372.92 272.71 373.24 284.74Z"
fill="black" stroke="black" stroke-width="0.2"/>
<path d="M373.24 284.74L373.61 285.38 373.24 272.05 373.24 284.74Z"
fill="black" stroke="black" stroke-width="0.2"/>
<path d="M373.61 285.38L373.61 271.41 373.24 272.05 373.61 285.38Z"
fill="black" stroke="black" stroke-width="0.2"/>
<path d="M373.61 285.38L374 285.99 373.61 271.41 373.61 285.38Z"
fill="black" stroke="black" stroke-width="0.2"/>
<path d="M374 285.99L374 270.8 373.61 271.41 374 285.99Z"
fill="black" stroke="black" stroke-width="0.2"/>
<path d="M374 285.99L374.43 286.59 374 270.8 374 285.99Z"
fill="black" stroke="black" stroke-width="0.2"/>
<path d="M374.43 286.59L374.43 270.2 374 270.8 374.43 286.59Z"
fill="black" stroke="black" stroke-width="0.2"/>
<path d="M374.43 286.59L374.89 287.16 374.43 270.2 374.43 286.59Z"
fill="black" stroke="black" stroke-width="0.2"/>
<path d="M374.89 287.16L374.89 269.63 374.43 270.2 374.89 287.16Z"
fill="black" stroke="black" stroke-width="0.2"/>
<path d="M374.89 287.16L375.38 287.71 374.89 269.63 374.89 287.16Z"
fill="black" stroke="black" stroke-width="0.2"/>
<path d="M375.38 287.71L375.38 269.08 374.89 269.63 375.38 287.71Z"
fill="black" stroke="black" stroke-width="0.2"/>
<path d="M375.38 287.71L375.9 288.23 375.38 269.08 375.38 287.71Z"
fill="black" stroke="black" stroke-width="0.2"/>
<path d="M375.9 288.23L375.9 268.57 375.38 269.08 375.9 288.23Z"
fill="black" stroke="black" stroke-width="0.2"/>
<path d="M375.9 288.23L376.44 288.72 375.9 268.57 375.9 288.23Z"
fill="black" stroke="black" stroke-width="0.2"/>
<path d="M376.44 288.72L376.44 268.08 375.9 268.57 376.44 288.72Z"
fill="black" stroke="black" stroke-width="0.2"/>
<path d="M376.44 288.72L377.01 289.18 376.44 268.08 376.44 288.72Z"
fill="black" stroke="black" stroke-width="0.2"/>
<path d="M377.01 289.18L377.01 267.62 376.44 268.08 377.01 289.18Z"
fill="black" stroke="black" stroke-width="0.2"/>
<path d="M377.01 289.18L377.61 289.6 377.01 267.62 377.01 289.18Z"
fill="black" stroke="black" stroke-width="0.2"/>
<path d="M377.61 289.6L377.61 267.19 377.01 267.62 377.61 289.6Z"
fill="black" stroke="black" stroke-width="0.2"/>
<path d="M377.61 289.6L378.23 290 377.61 267.19 377.61 289.6Z"
fill="black" stroke="black" stroke-width="0.2"/>
<path d="M378.23 290L378.23 266.79 377.61 267.19 378.23 290Z"
fill="black" stroke="black" stroke-width="0.2"/>
<path d="M378.23 290L378.87 290.36 378.23 266.79 378.23 290Z"
fill="black" stroke="black" stroke-width="0.2"/>
<path d="M378.87 290.36L378.87 266.43 378.23 266.79 378.87 290.36Z"
fill="black" stroke="black" stroke-width="0.2"/>
<path d="M378.87 290.36L379.52 290.69 378.87 266.43 378.87 290.36Z"
fill="black" stroke="black" stroke-width="0.2"/>
<path d="M379.52 290.69L379.52 266.11 378.87 266.43 379.52 290.69Z"
fill="black" stroke="black" stroke-width="0.2"/>
<path d="M379.52 290.69L380.2 290.97 379.52 266.11 379.52 290.69Z"
fill="black" stroke="black" stroke-width="0.2"/>
<path d="M380.2 290.97L380.2 265.82 379.52 266.11 380.2 290.97Z"
fill="black" stroke="black" stroke-width="0.2"/>
<path d="M380.2 290.97L380.88 291.23 380.2 265.82 380.2 290.97Z"
fill="black" stroke="black" stroke-width="0.2"/>
<path d="M380.88 291.23L380.88 265.56 380.2 265.82 380.88 291.23Z"
fill="black" stroke="black" stroke-width="0.2"/>
<path d="M380.88 291.23L381.59 291.44 380.88 265.56 380.88 291.23Z"
fill="black" stroke="black" stroke-width="0.2"/>
<path d="M381.59 291.44L381.59 265.35 380.88 265.56 381.59 291.44Z"
fill="black" stroke="black" stroke-width="0.2"/>
<path d="M381.59 291.44L382.3 291.62 381.59 265.35 381.59 291.44Z"
fill="black" stroke="black" stroke-width="0.2"/>
<path d="M382.3 291.62L382.3 265.17 381.59 265.35 382.3 291.62Z"
fill="black" stroke="black" stroke-width="0.2"/>
<path d="M382.3 291.62L383.02 291.76 382.3 265.17 382.3 291.62Z"
fill="black" stroke="black" stroke-width="0.2"/>
<path d="M383.02 291.76L383.02 265.03 382.3 265.17 383.02 291.76Z"
fill="black" stroke="black" stroke-width="0.2"/>
<path d="M383.02 291.76L383.74 291.86 383.02 265.03 383.02 291.76Z"
fill="black" stroke="black" stroke-width="0.2"/>
<path d="M383.74 291.86L383.74 264.93 383.02 265.03 383.74 291.86Z"
fill="black" stroke="black" stroke-width="0.2"/>
<path d="M383.74 291.86L384.48 291.92 383.74 264.93 383.74 291.86Z"
fill="black" stroke="black" stroke-width="0.2"/>
<path d="M384.48 291.92L384.48 264.87 383.74 264.93 384.48 291.92Z"
fill="black" stroke="black" stroke-width="0.2"/>
<path d="M384.48 291.92L385.21 291.94 384.48 264.87 384.48 291.92Z"
fill="black" stroke="black" stroke-width="0.2"/>
<path d="M385.21 291.94L385.21 264.85 384.48 264.87 385.21 291.94Z"
fill="black" stroke="black" stroke-width="0.2"/>
<path d="M385.21 291.94L385.94 291.92 385.21 264.85 385.21 291.94Z"
fill="black" stroke="black" stroke-width="0.2"/>
<path d="M385.94 291.92L385.94 264.87 385.21 264.85 385.94 291.92Z"
fill="black" stroke="black" stroke-width="0.2"/>
<path d="M385.94 291.92L386.67 291.86 385.94 264.87 385.94 291.92Z"
fill="black" stroke="black" stroke-width="0.2"/>
<path d="M386.67 291.86L386.67 264.93 385.94 264.87 386.67 291.86Z"
fill="black" stroke="black" stroke-width="0.2"/>
<path d="M386.67 291.86L387.4 291.76 386.67 264.93 386.67 291.86Z"
fill="black" stroke="black" stroke-width="0.2"/>
<path d="M387.4 291.76L387.4 265.03 386.67 264.93 387.4 291.76Z"
fill="black" stroke="black" stroke-width="0.2"/>
<path d="M387.4 291.76L388.12 291.62 387.4 265.03 387.4 291.76Z"
fill="black" stroke="black" stroke-width="0.2"/>
<path d="M388.12 291.62L388.12 265.17 387.4 265.03 388.12 291.62Z"
fill="black" stroke="black" stroke-width="0.2"/>
<path d="M388.12 291.62L388.83 291.44 388.12 265.17 388.12 291.62Z"
fill="black" stroke="black" stroke-width="0.2"/>
<path d="M388.83 291.44L388.83 265.35 388.12 265.17 388.83 291.44Z"
fill="black" stroke="black" stroke-width="0.2"/>
<path d="M388.83 291.44L389.53 291.23 388.83 265.35 388.83 291.44Z"
fill="black" stroke="black" stroke-width="0.2"/>
<path d="M389.53 291.23L389.53 265.56 388.83 265.35 389.53 291.23Z"
fill="black" stroke="black" stroke-width="0.2"/>
<path d="M389.53 291.23L390.22 290.97 389.53 265.56 389.53 291.23Z"
fill="black" stroke="black" stroke-width="0.2"/>
<path d="M390.22 290.97L390.22 265.82 389.53 265.56 390.22 290.97Z"
fill="black" stroke="black" stroke-width="0.2"/>
<path d="M390.22 290.97L390.89 290.69 390.22 265.82 390.22 290.97Z"
fill="black" stroke="black" stroke-width="0.2"/>
<path d="M390.89 290.69L390.89 266.11 390.22 265.82 390.89 290.69Z"
fill="black" stroke="black" stroke-width="0.2"/>
<path d="M390.89 290.69L391.55 290.36 390.89 266.11 390.89 290.69Z"
fill="black" stroke="black" stroke-width="0.2"/>
<path d="M391.55 290.36L391.55 266.43 390.89 266.11 391.55 290.36Z"
fill="black" stroke="black" stroke-width="0.2"/>
<path d="M391.55 290.36L392.19 290 391.55 266.43 391.55 290.36Z"
fill="black" stroke="black" stroke-width="0.2"/>
<path d="M392.19 290L392.19 266.79 391.55 266.43 392.19 290Z"
fill="black" stroke="black" stroke-width="0.2"/>
<path d="M392.19 290L392.81 289.6 392.19 266.79 392.19 290Z"
fill="black" stroke="black" stroke-width="0.2"/>
<path d="M392.81 289.6L392.81 267.19 392.19 266.79 392.81 289.6Z"
fill="black" stroke="black" stroke-width="0.2"/>
<path d="M392.81 289.6L393.4 289.18 392.81 267.19 392.81 289.6Z"
fill="black" stroke="black" stroke-width="0.2"/>
<path d="M393.4 289.18L393.4 267.62 392.81 267.19 393.4 289.18Z"
fill="black" stroke="black" stroke-width="0.2"/>
<path d="M393.4 289.18L393.97 288.72 393.4 267.62 393.4 289.18Z"
fill="black" stroke="black" stroke-width="0.2"/>
<path d="M393.97 288.72L393.97 268.08 393.4 267.62 393.97 288.72Z"
fill="black" stroke="black" stroke-width="0.2"/>
<path d="M393.97 288.72L394.52 288.23 393.97 268.08 393.97 288.72Z"
fill="black" stroke="black" stroke-width="0.2"/>
<path d="M394.52 288.23L394.52 268.57 393.97 268.08 394.52 288.23Z"
fill="black" stroke="black" stroke-width="0.2"/>
<path d="M394.52 288.23L395.04 287.71 394.52 268.57 394.52 288.23Z"
fill="black" stroke="black" stroke-width="0.2"/>
<path d="M395.04 287.71L395.04 269.08 394.52 268.57 395.04 287.71Z"
fill="black" stroke="black" stroke-width="0.2"/>
<path d="M395.04 287.71L395.53 287.16 395.04 269.08 395.04 287.71Z"
fill="black" stroke="black" stroke-width="0.2"/>
<path d="M395.53 287.16L395.53 269.63 395.04 269.08 395.53 287.16Z"
fill="black" stroke="black" stroke-width="0.2"/>
<path d="M395.53 287.16L395.99 286.59 395.53 269.63 395.53 287.16Z"
fill="black" stroke="black" stroke-width="0.2"/>
<path d="M395.99 286.59L395.99 270.2 395.53 269.63 395.99 286.59Z"
fill="black" stroke="black" stroke-width="0.2"/>
<path d="M395.99 286.59L396.42 285.99 395.99 270.2 395.99 286.59Z"
fill="black" stroke="black" stroke-width="0.2"/>
<path d="M396.42 285.99L396.42 270.8 395.99 270.2 396.42 285.99Z"
fill="black" stroke="black" stroke-width="0.2"/>
<path d="M396.42 285.99L396.81 285.38 396.42 270.8 396.42 285.99Z"
fill="black" stroke="black" stroke-width="0.2"/>
<path d="M396.81 285.38L396.81 271.41 396.42 270.8 396.81 285.38Z"
fill="black" stroke="black" stroke-width="0.2"/>
<path d="M396.81 285.38L397.17 284.74 396.81 271.41 396.81 285.38Z"
fill="black" stroke="black" stroke-width="0.2"/>
<path d="M397.17 284.74L397.17 272.05 396.81 271.41 397.17 284.74Z"
fill="black" stroke="black" stroke-width="0.2"/>
<path d="M397.17 284.74L397.5 284.08 397.17 272.05 397.17 284.74Z"
fill="black" stroke="black" stroke-width="0.2"/>
<path d="M397.5 284.08L397.5 272.71 397.17 272.05 397.5 284.08Z"
fill="black" stroke="black" stroke-width="0.2"/>
<path d="M397.5 284.08L397.79 283.41 397.5 272.71 397.5 284.08Z"
fill="black" stroke="black" stroke-width="0.2"/>
<path d="M397.79 283.41L397.79 273.38 397.5 272.71 397.79 283.41Z"
fill="black" stroke="black" stroke-width="0.2"/>
<path d="M397.79 283.41L398.04 282.72 397.79 273.38 397.79 283.41Z"
fill="black" stroke="black" stroke-width="0.2"/>
<path d="M398.04 282.72L398.04 274.07 397.79 273.38 398.04 282.72Z"
fill="black" stroke="black" stroke-width="0.2"/>
<path d="M398.04 282.72L398.26 282.02 398.04 274.07 398.04 282.72Z"
fill="black" stroke="black" stroke-width="0.2"/>
<path d="M398.26 282.02L398.26 274.77 398.04 274.07 398.26 282.02Z"
fill="black" stroke="black" stroke-width="0.2"/>
<path d="M398.26 282.02L398.43 281.31 398.26 274.77 398.26 282.02Z"
fill="black" stroke="black" stroke-width="0.2"/>
<path d="M398.43 281.31L398.43 275.48 398.26 274.77 398.43 281.31Z"
fill="black" stroke="black" stroke-width="0.2"/>
<path d="M398.43 281.31L398.57 280.59 398.43 275.48 398.43 281.31Z"
fill="black" stroke="black" stroke-width="0.2"/>
<path d="M398.57 280.59L398.57 276.2 398.43 275.48 398.57 280.59Z"
fill="black" stroke="black" stroke-width="0.2"/>
<path d="M398.57 280.59L398.67 279.86 398.57 276.2 398.57 280.59Z"
fill="black" stroke="black" stroke-width="0.2"/>
<path d="M398.67 279.86L398.67 276.93 398.57 276.2 398.67 279.86Z"
fill="black" stroke="black" stroke-width="0.2"/>
<path d="M398.67 279.86L398.73 279.13 398.67 276.93 398.67 279.86Z"
fill="black" stroke="black" stroke-width="0.2"/>
<path d="M398.73 279.13L398.73 277.66 398.67 276.93 398.73 279.13Z"
fill="black" stroke="black" stroke-width="0.2"/>
<path d="M398.73 279.13L398.75 278.4 398.73 277.66 398.73 279.13Z"
fill="black" stroke="black" stroke-width="0.2"/>
<path d="M398.75 278.4L398.55 280.68"
fill="none" stroke="black" stroke-width="3.5"/>
<path d="M398.55 280.68L397.98 282.91"
fill="none" stroke="black" stroke-width="3.5"/>
<path d="M397.98 282.91L397.03 285"
fill="none" stroke="black" stroke-width="3.5"/>
<path d="M397.03 285L395.74 286.9"
fill="none" stroke="black" stroke-width="3.5"/>
<path d="M395.74 286.9L394.15 288.56"
fill="none" stroke="black" stroke-width="3.5"/>
<path d="M394.15 288.56L392.31 289.93"
fill="none" stroke="black" stroke-width="3.5"/>
<path d="M392.31 289.93L390.26 290.96"
fill="none" stroke="black" stroke-width="3.5"/>
<path d="M390.26 290.96L388.06 291.63"
fill="none" stroke="black" stroke-width="3.5"/>
<path d="M388.06 291.63L385.78 291.92"
fill="none" stroke="black" stroke-width="3.5"/>
<path d="M385.78 291.92L383.49 291.83"
fill="none" stroke="black" stroke-width="3.5"/>
<path d="M383.49 291.83L381.24 291.34"
fill="none" stroke="black" stroke-width="3.5"/>
<path d="M381.24 291.34L379.11 290.49"
fill="none" stroke="black" stroke-width="3.5"/>
<path d="M379.11 290.49L377.16 289.28"
fill="none" stroke="black" stroke-width="3.5"/>
<path d="M377.16 289.28L375.43 287.77"
fill="none" stroke="black" stroke-width="3.5"/>
<path d="M375.43 287.77L373.99 285.98"
fill="none" stroke="black" stroke-width="3.5"/>
<path d="M373.99 285.98L372.87 283.97"
fill="none" stroke="black" stroke-width="3.5"/>
<path d="M372.87 283.97L372.1 281.81"
fill="none" stroke="black" stroke-width="3.5"/>
<path d="M372.1 281.81L371.72 279.54"
fill="none" stroke="black" stroke-width="3.5"/>
<path d="M371.72 279.54L371.72 277.25Z"
fill="none" stroke="black" stroke-width="3.5"/>
<path d="M371.72 277.25L372.1 274.98"
fill="none" stroke="black" stroke-width="3.5"/>
<path d="M372.1 274.98L372.87 272.82"
fill="none" stroke="black" stroke-width="3.5"/>
<path d="M372.87 272.82L373.99 270.81"
fill="none" stroke="black" stroke-width="3.5"/>
<path d="M373.99 270.81L375.43 269.03"
fill="none" stroke="black" stroke-width="3.5"/>
<path d="M375.43 269.03L377.16 267.51"
fill="none" stroke="black" stroke-width="3.5"/>
<path d="M377.16 267.51L379.11 266.3"
fill="none" stroke="black" stroke-width="3.5"/>
<path d="M379.11 266.3L381.24 265.45"
fill="none" stroke="black" stroke-width="3.5"/>
<path d="M381.24 265.45L383.49 264.96"
fill="none" stroke="black" stroke-width="3.5"/>
<path d="M383.49 264.96L385.78 264.87"
fill="none" stroke="black" stroke-width="3.5"/>
<path d="M385.78 264.87L388.06 265.16"
fill="none" stroke="black" stroke-width="3.5"/>
<path d="M388.06 265.16L390.26 265.83"
fill="none" stroke="black" stroke-width="3.5"/>
<path d="M390.26 265.83L392.31 266.87"
fill="none" stroke="black" stroke-width="3.5"/>
<path d="M392.31 266.87L394.15 268.23"
fill="none" stroke="black" stroke-width="3.5"/>
<path d="M394.15 268.23L395.74 269.89"
fill="none" stroke="black" stroke-width="3.5"/>
<path d="M395.74 269.89L397.03 271.79"
fill="none" stroke="black" stroke-width="3.5"/>
<path d="M397.03 271.79L397.98 273.88"
fill="none" stroke="black" stroke-width="3.5"/>
<path d="M397.98 273.88L398.55 276.11"
fill="none" stroke="black" stroke-width="3.5"/>
<path d="M398.55 276.11L398.75 278.4"
fill="none" stroke="black" stroke-width="3.5"/>
</svg>
