<?xml version="1.0" encoding="UTF-8"?>
<svg xmlns="http://www.w3.org/2000/svg" width="800.000" height="600.000" viewBox="0.0 0.0 800.000 600.000" version="1.1">
  <desc>Produce by Acme CAD Converter</desc>
<path d="M423.99 281.36L423.79 286.52"
fill="none" stroke="black" stroke-width="3.5"/>
<path d="M423.79 286.52L423.21 291.64"
fill="none" stroke="black" stroke-width="3.5"/>
<path d="M423.21 291.64L422.23 296.71"
fill="none" stroke="black" stroke-width="3.5"/>
<path d="M422.23 296.71L420.88 301.69"
fill="none" stroke="black" stroke-width="3.5"/>
<path d="M420.88 301.69L419.16 306.55"
fill="none" stroke="black" stroke-width="3.5"/>
<path d="M419.16 306.55L417.07 311.27"
fill="none" stroke="black" stroke-width="3.5"/>
<path d="M417.07 311.27L414.64 315.82"
fill="none" stroke="black" stroke-width="3.5"/>
<path d="M414.64 315.82L411.86 320.17"
fill="none" stroke="black" stroke-width="3.5"/>
<path d="M411.86 320.17L408.77 324.3"
fill="none" stroke="black" stroke-width="3.5"/>
<path d="M408.77 324.3L405.37 328.18"
fill="none" stroke="black" stroke-width="3.5"/>
<path d="M405.37 328.18L401.68 331.79"
fill="none" stroke="black" stroke-width="3.5"/>
<path d="M401.68 331.79L397.74 335.12"
fill="none" stroke="black" stroke-width="3.5"/>
<path d="M397.74 335.12L393.55 338.14"
fill="none" stroke="black" stroke-width="3.5"/>
<path d="M393.55 338.14L389.15 340.83"
fill="none" stroke="black" stroke-width="3.5"/>
<path d="M389.15 340.83L384.56 343.18"
fill="none" stroke="black" stroke-width="3.5"/>
<path d="M384.56 343.18L379.8 345.18"
fill="none" stroke="black" stroke-width="3.5"/>
<path d="M379.8 345.18L374.91 346.81"
fill="none" stroke="black" stroke-width="3.5"/>
<path d="M374.91 346.81L369.9 348.06"
fill="none" stroke="black" stroke-width="3.5"/>
<path d="M369.9 348.06L364.82 348.94"
fill="none" stroke="black" stroke-width="3.5"/>
<path d="M364.82 348.94L359.68 349.43"
fill="none" stroke="black" stroke-width="3.5"/>
<path d="M359.68 349.43L354.52 349.52"
fill="none" stroke="black" stroke-width="3.5"/>
<path d="M354.52 349.52L349.37 349.23"
fill="none" stroke="black" stroke-width="3.5"/>
<path d="M349.37 349.23L344.26 348.55"
fill="none" stroke="black" stroke-width="3.5"/>
<path d="M344.26 348.55L339.21 347.48"
fill="none" stroke="black" stroke-width="3.5"/>
<path d="M339.21 347.48L334.25 346.04"
fill="none" stroke="black" stroke-width="3.5"/>
<path d="M334.25 346.04L329.42 344.22"
fill="none" stroke="black" stroke-width="3.5"/>
<path d="M329.42 344.22L324.75 342.05"
fill="none" stroke="black" stroke-width="3.5"/>
<path d="M324.75 342.05L320.25 339.52"
fill="none" stroke="black" stroke-width="3.5"/>
<path d="M320.25 339.52L315.95 336.67"
fill="none" stroke="black" stroke-width="3.5"/>
<path d="M315.95 336.67L311.88 333.49"
fill="none" stroke="black" stroke-width="3.5"/>
<path d="M311.88 333.49L308.06 330.02"
fill="none" stroke="black" stroke-width="3.5"/>
<path d="M308.06 330.02L304.52 326.27"
fill="none" stroke="black" stroke-width="3.5"/>
<path d="M304.52 326.27L301.27 322.26"
fill="none" stroke="black" stroke-width="3.5"/>
<path d="M301.27 322.26L298.33 318.02"
fill="none" stroke="black" stroke-width="3.5"/>
<path d="M298.33 318.02L295.73 313.57"
fill="none" stroke="black" stroke-width="3.5"/>
<path d="M295.73 313.57L293.46 308.93"
fill="none" stroke="black" stroke-width="3.5"/>
<path d="M293.46 308.93L291.56 304.14"
fill="none" stroke="black" stroke-width="3.5"/>
<path d="M291.56 304.14L290.02 299.21"
fill="none" stroke="black" stroke-width="3.5"/>
<path d="M290.02 299.21L288.85 294.19"
fill="none" stroke="black" stroke-width="3.5"/>
<path d="M288.85 294.19L288.08 289.09"
fill="none" stroke="black" stroke-width="3.5"/>
<path d="M288.08 289.09L287.69 283.94"
fill="none" stroke="black" stroke-width="3.5"/>
<path d="M287.69 283.94L287.69 278.78Z"
fill="none" stroke="black" stroke-width="3.5"/>
<path d="M287.69 278.78L288.08 273.64"
fill="none" stroke="black" stroke-width="3.5"/>
<path d="M288.08 273.64L288.85 268.54"
fill="none" stroke="black" stroke-width="3.5"/>
<path d="M288.85 268.54L290.02 263.51"
fill="none" stroke="black" stroke-width="3.5"/>
<path d="M290.02 263.51L291.56 258.58"
fill="none" stroke="black" stroke-width="3.5"/>
<path d="M291.56 258.58L293.46 253.79"
fill="none" stroke="black" stroke-width="3.5"/>
<path d="M293.46 253.79L295.73 249.15"
fill="none" stroke="black" stroke-width="3.5"/>
<path d="M295.73 249.15L298.33 244.7"
fill="none" stroke="black" stroke-width="3.5"/>
<path d="M298.33 244.7L301.27 240.46"
fill="none" stroke="black" stroke-width="3.5"/>
<path d="M301.27 240.46L304.52 236.45"
fill="none" stroke="black" stroke-width="3.5"/>
<path d="M304.52 236.45L308.06 232.7"
fill="none" stroke="black" stroke-width="3.5"/>
<path d="M308.06 232.7L311.88 229.23"
fill="none" stroke="black" stroke-width="3.5"/>
<path d="M311.88 229.23L315.95 226.06"
fill="none" stroke="black" stroke-width="3.5"/>
<path d="M315.95 226.06L320.25 223.2"
fill="none" stroke="black" stroke-width="3.5"/>
<path d="M320.25 223.2L324.75 220.68"
fill="none" stroke="black" stroke-width="3.5"/>
<path d="M324.75 220.68L329.42 218.5"
fill="none" stroke="black" stroke-width="3.5"/>
<path d="M329.42 218.5L334.25 216.69"
fill="none" stroke="black" stroke-width="3.5"/>
<path d="M334.25 216.69L339.21 215.24"
fill="none" stroke="black" stroke-width="3.5"/>
<path d="M339.21 215.24L344.26 214.17"
fill="none" stroke="black" stroke-width="3.5"/>
<path d="M344.26 214.17L349.37 213.49"
fill="none" stroke="black" stroke-width="3.5"/>
<path d="M349.37 213.49L354.52 213.2"
fill="none" stroke="black" stroke-width="3.5"/>
<path d="M354.52 213.2L359.68 213.3"
fill="none" stroke="black" stroke-width="3.5"/>
<path d="M359.68 213.3L364.82 213.79"
fill="none" stroke="black" stroke-width="3.5"/>
<path d="M364.82 213.79L369.9 214.66"
fill="none" stroke="black" stroke-width="3.5"/>
<path d="M369.9 214.66L374.91 215.92"
fill="none" stroke="black" stroke-width="3.5"/>
<path d="M374.91 215.92L379.8 217.55"
fill="none" stroke="black" stroke-width="3.5"/>
<path d="M379.8 217.55L384.56 219.55"
fill="none" stroke="black" stroke-width="3.5"/>
<path d="M384.56 219.55L389.15 221.9"
fill="none" stroke="black" stroke-width="3.5"/>
<path d="M389.15 221.9L393.55 224.59"
fill="none" stroke="black" stroke-width="3.5"/>
<path d="M393.55 224.59L397.74 227.6"
fill="none" stroke="black" stroke-width="3.5"/>
<path d="M397.74 227.6L401.68 230.93"
fill="none" stroke="black" stroke-width="3.5"/>
<path d="M401.68 230.93L405.37 234.54"
fill="none" stroke="black" stroke-width="3.5"/>
<path d="M405.37 234.54L408.77 238.43"
fill="none" stroke="black" stroke-width="3.5"/>
<path d="M408.77 238.43L411.86 242.55"
fill="none" stroke="black" stroke-width="3.5"/>
<path d="M411.86 242.55L414.64 246.9"
fill="none" stroke="black" stroke-width="3.5"/>
<path d="M414.64 246.9L417.07 251.45"
fill="none" stroke="black" stroke-width="3.5"/>
<path d="M417.07 251.45L419.16 256.17"
fill="none" stroke="black" stroke-width="3.5"/>
<path d="M419.16 256.17L420.88 261.03"
fill="none" stroke="black" stroke-width="3.5"/>
<path d="M420.88 261.03L422.23 266.01"
fill="none" stroke="black" stroke-width="3.5"/>
<path d="M422.23 266.01L423.21 271.08"
fill="none" stroke="black" stroke-width="3.5"/>
<path d="M423.21 271.08L423.79 276.21"
fill="none" stroke="black" stroke-width="3.5"/>
<path d="M423.79 276.21L423.99 281.36"
fill="none" stroke="black" stroke-width="3.5"/>
<path d="M355.81 349.54L355.81 213.19Z"
fill="none" stroke="black" stroke-width="3.5"/>
<path d="M514.88 213.19L423.99 281.36"
fill="none" stroke="black" stroke-width="3.5"/>
<path d="M423.99 281.36L514.88 349.54"
fill="none" stroke="black" stroke-width="3.5"/>
</svg>
