<?xml version="1.0" encoding="UTF-8"?>
<svg xmlns="http://www.w3.org/2000/svg" width="800.000" height="600.000" viewBox="0.0 0.0 800.000 600.000" version="1.1">
  <desc>Produce by Acme CAD Converter</desc>
<path d="M360.28 283.4L360.65 288.4 393.85 283.4 393.85 283.4 360.28 283.4Z"
fill-rule="nonzero" fill="black"/>
<path d="M360.65 288.4L361.77 293.29 393.85 283.4 393.85 283.4 360.65 288.4Z"
fill-rule="nonzero" fill="black"/>
<path d="M361.77 293.29L363.6 297.97 393.85 283.4 393.85 283.4 361.77 293.29Z"
fill-rule="nonzero" fill="black"/>
<path d="M363.6 297.97L366.11 302.31 393.85 283.4 393.85 283.4 363.6 297.97Z"
fill-rule="nonzero" fill="black"/>
<path d="M366.11 302.31L369.24 306.23 393.85 283.4 393.85 283.4 366.11 302.31Z"
fill-rule="nonzero" fill="black"/>
<path d="M369.24 306.23L372.92 309.65 393.85 283.4 393.85 283.4 369.24 306.23Z"
fill-rule="nonzero" fill="black"/>
<path d="M372.92 309.65L377.06 312.47 393.85 283.4 393.85 283.4 372.92 309.65Z"
fill-rule="nonzero" fill="black"/>
<path d="M377.06 312.47L381.58 314.65 393.85 283.4 393.85 283.4 377.06 312.47Z"
fill-rule="nonzero" fill="black"/>
<path d="M381.58 314.65L386.38 316.13 393.85 283.4 393.85 283.4 381.58 314.65Z"
fill-rule="nonzero" fill="black"/>
<path d="M386.38 316.13L391.34 316.88 393.85 283.4 393.85 283.4 386.38 316.13Z"
fill-rule="nonzero" fill="black"/>
<path d="M391.34 316.88L396.36 316.88 393.85 283.4 393.85 283.4 391.34 316.88Z"
fill-rule="nonzero" fill="black"/>
<path d="M396.36 316.88L401.32 316.13 393.85 283.4 393.85 283.4 396.36 316.88Z"
fill-rule="nonzero" fill="black"/>
<path d="M401.32 316.13L406.11 314.65 393.85 283.4 393.85 283.4 401.32 316.13Z"
fill-rule="nonzero" fill="black"/>
<path d="M406.11 314.65L410.64 312.47 393.85 283.4 393.85 283.4 406.11 314.65Z"
fill-rule="nonzero" fill="black"/>
<path d="M410.64 312.47L414.78 309.65 393.85 283.4 393.85 283.4 410.64 312.47Z"
fill-rule="nonzero" fill="black"/>
<path d="M414.78 309.65L418.46 306.23 393.85 283.4 393.85 283.4 414.78 309.65Z"
fill-rule="nonzero" fill="black"/>
<path d="M418.46 306.23L421.59 302.31 393.85 283.4 393.85 283.4 418.46 306.23Z"
fill-rule="nonzero" fill="black"/>
<path d="M421.59 302.31L424.1 297.97 393.85 283.4 393.85 283.4 421.59 302.31Z"
fill-rule="nonzero" fill="black"/>
<path d="M424.1 297.97L425.93 293.29 393.85 283.4 393.85 283.4 424.1 297.97Z"
fill-rule="nonzero" fill="black"/>
<path d="M425.93 293.29L427.05 288.4 393.85 283.4 393.85 283.4 425.93 293.29Z"
fill-rule="nonzero" fill="black"/>
<path d="M427.05 288.4L427.42 283.4 393.85 283.4 393.85 283.4 427.05 288.4Z"
fill-rule="nonzero" fill="black"/>
<path d="M427.42 283.4L427.05 278.4 393.85 283.4 393.85 283.4 427.42 283.4Z"
fill-rule="nonzero" fill="black"/>
<path d="M427.05 278.4L425.93 273.5 393.85 283.4 393.85 283.4 427.05 278.4Z"
fill-rule="nonzero" fill="black"/>
<path d="M425.93 273.5L424.1 268.83 393.85 283.4 393.85 283.4 425.93 273.5Z"
fill-rule="nonzero" fill="black"/>
<path d="M424.1 268.83L421.59 264.49 393.85 283.4 393.85 283.4 424.1 268.83Z"
fill-rule="nonzero" fill="black"/>
<path d="M421.59 264.49L418.46 260.56 393.85 283.4 393.85 283.4 421.59 264.49Z"
fill-rule="nonzero" fill="black"/>
<path d="M418.46 260.56L414.78 257.15 393.85 283.4 393.85 283.4 418.46 260.56Z"
fill-rule="nonzero" fill="black"/>
<path d="M414.78 257.15L410.64 254.33 393.85 283.4 393.85 283.4 414.78 257.15Z"
fill-rule="nonzero" fill="black"/>
<path d="M410.64 254.33L406.11 252.15 393.85 283.4 393.85 283.4 410.64 254.33Z"
fill-rule="nonzero" fill="black"/>
<path d="M406.11 252.15L401.32 250.67 393.85 283.4 393.85 283.4 406.11 252.15Z"
fill-rule="nonzero" fill="black"/>
<path d="M401.32 250.67L396.36 249.92 393.85 283.4 393.85 283.4 401.32 250.67Z"
fill-rule="nonzero" fill="black"/>
<path d="M396.36 249.92L391.34 249.92 393.85 283.4 393.85 283.4 396.36 249.92Z"
fill-rule="nonzero" fill="black"/>
<path d="M391.34 249.92L386.38 250.67 393.85 283.4 393.85 283.4 391.34 249.92Z"
fill-rule="nonzero" fill="black"/>
<path d="M386.38 250.67L381.58 252.15 393.85 283.4 393.85 283.4 386.38 250.67Z"
fill-rule="nonzero" fill="black"/>
<path d="M381.58 252.15L377.06 254.33 393.85 283.4 393.85 283.4 381.58 252.15Z"
fill-rule="nonzero" fill="black"/>
<path d="M377.06 254.33L372.92 257.15 393.85 283.4 393.85 283.4 377.06 254.33Z"
fill-rule="nonzero" fill="black"/>
<path d="M372.92 257.15L369.24 260.56 393.85 283.4 393.85 283.4 372.92 257.15Z"
fill-rule="nonzero" fill="black"/>
<path d="M369.24 260.56L366.11 264.49 393.85 283.4 393.85 283.4 369.24 260.56Z"
fill-rule="nonzero" fill="black"/>
<path d="M366.11 264.49L363.6 268.83 393.85 283.4 393.85 283.4 366.11 264.49Z"
fill-rule="nonzero" fill="black"/>
<path d="M363.6 268.83L361.77 273.5 393.85 283.4 393.85 283.4 363.6 268.83Z"
fill-rule="nonzero" fill="black"/>
<path d="M361.77 273.5L360.65 278.4 393.85 283.4 393.85 283.4 361.77 273.5Z"
fill-rule="nonzero" fill="black"/>
<path d="M360.65 278.4L360.28 283.4 393.85 283.4 393.85 283.4 360.65 278.4Z"
fill-rule="nonzero" fill="black"/>
<path d="M460.99 283.4L460.8 288.54"
fill="none" stroke="black" stroke-width="0.5"/>
<path d="M460.8 288.54L460.21 293.65"
fill="none" stroke="black" stroke-width="0.5"/>
<path d="M460.21 293.65L459.23 298.7"
fill="none" stroke="black" stroke-width="0.5"/>
<path d="M459.23 298.7L457.86 303.66"
fill="none" stroke="black" stroke-width="0.5"/>
<path d="M457.86 303.66L456.13 308.5"
fill="none" stroke="black" stroke-width="0.5"/>
<path d="M456.13 308.5L454.02 313.19"
fill="none" stroke="black" stroke-width="0.5"/>
<path d="M454.02 313.19L451.56 317.71"
fill="none" stroke="black" stroke-width="0.5"/>
<path d="M451.56 317.71L448.77 322.03"
fill="none" stroke="black" stroke-width="0.5"/>
<path d="M448.77 322.03L445.65 326.12"
fill="none" stroke="black" stroke-width="0.5"/>
<path d="M445.65 326.12L442.23 329.96"
fill="none" stroke="black" stroke-width="0.5"/>
<path d="M442.23 329.96L438.52 333.52"
fill="none" stroke="black" stroke-width="0.5"/>
<path d="M438.52 333.52L434.55 336.8"
fill="none" stroke="black" stroke-width="0.5"/>
<path d="M434.55 336.8L430.35 339.76"
fill="none" stroke="black" stroke-width="0.5"/>
<path d="M430.35 339.76L425.93 342.38"
fill="none" stroke="black" stroke-width="0.5"/>
<path d="M425.93 342.38L421.32 344.67"
fill="none" stroke="black" stroke-width="0.5"/>
<path d="M421.32 344.67L416.55 346.59"
fill="none" stroke="black" stroke-width="0.5"/>
<path d="M416.55 346.59L411.64 348.14"
fill="none" stroke="black" stroke-width="0.5"/>
<path d="M411.64 348.14L406.63 349.31"
fill="none" stroke="black" stroke-width="0.5"/>
<path d="M406.63 349.31L401.55 350.1"
fill="none" stroke="black" stroke-width="0.5"/>
<path d="M401.55 350.1L396.42 350.49"
fill="none" stroke="black" stroke-width="0.5"/>
<path d="M396.42 350.49L391.28 350.49"
fill="none" stroke="black" stroke-width="0.5"/>
<path d="M391.28 350.49L386.15 350.1"
fill="none" stroke="black" stroke-width="0.5"/>
<path d="M386.15 350.1L381.07 349.31"
fill="none" stroke="black" stroke-width="0.5"/>
<path d="M381.07 349.31L376.06 348.14"
fill="none" stroke="black" stroke-width="0.5"/>
<path d="M376.06 348.14L371.15 346.59"
fill="none" stroke="black" stroke-width="0.5"/>
<path d="M371.15 346.59L366.38 344.67"
fill="none" stroke="black" stroke-width="0.5"/>
<path d="M366.38 344.67L361.77 342.38"
fill="none" stroke="black" stroke-width="0.5"/>
<path d="M361.77 342.38L357.35 339.76"
fill="none" stroke="black" stroke-width="0.5"/>
<path d="M357.35 339.76L353.15 336.8"
fill="none" stroke="black" stroke-width="0.5"/>
<path d="M353.15 336.8L349.18 333.52"
fill="none" stroke="black" stroke-width="0.5"/>
<path d="M349.18 333.52L345.47 329.96"
fill="none" stroke="black" stroke-width="0.5"/>
<path d="M345.47 329.96L342.05 326.12"
fill="none" stroke="black" stroke-width="0.5"/>
<path d="M342.05 326.12L338.93 322.03"
fill="none" stroke="black" stroke-width="0.5"/>
<path d="M338.93 322.03L336.14 317.71"
fill="none" stroke="black" stroke-width="0.5"/>
<path d="M336.14 317.71L333.68 313.19"
fill="none" stroke="black" stroke-width="0.5"/>
<path d="M333.68 313.19L331.57 308.5"
fill="none" stroke="black" stroke-width="0.5"/>
<path d="M331.57 308.5L329.84 303.66"
fill="none" stroke="black" stroke-width="0.5"/>
<path d="M329.84 303.66L328.47 298.7"
fill="none" stroke="black" stroke-width="0.5"/>
<path d="M328.47 298.7L327.49 293.65"
fill="none" stroke="black" stroke-width="0.5"/>
<path d="M327.49 293.65L326.9 288.54"
fill="none" stroke="black" stroke-width="0.5"/>
<path d="M326.9 288.54L326.71 283.4"
fill="none" stroke="black" stroke-width="0.5"/>
<path d="M326.71 283.4L326.9 278.26"
fill="none" stroke="black" stroke-width="0.5"/>
<path d="M326.9 278.26L327.49 273.15"
fill="none" stroke="black" stroke-width="0.5"/>
<path d="M327.49 273.15L328.47 268.1"
fill="none" stroke="black" stroke-width="0.5"/>
<path d="M328.47 268.1L329.84 263.14"
fill="none" stroke="black" stroke-width="0.5"/>
<path d="M329.84 263.14L331.57 258.3"
fill="none" stroke="black" stroke-width="0.5"/>
<path d="M331.57 258.3L333.68 253.61"
fill="none" stroke="black" stroke-width="0.5"/>
<path d="M333.68 253.61L336.14 249.09"
fill="none" stroke="black" stroke-width="0.5"/>
<path d="M336.14 249.09L338.93 244.77"
fill="none" stroke="black" stroke-width="0.5"/>
<path d="M338.93 244.77L342.05 240.68"
fill="none" stroke="black" stroke-width="0.5"/>
<path d="M342.05 240.68L345.47 236.84"
fill="none" stroke="black" stroke-width="0.5"/>
<path d="M345.47 236.84L349.18 233.27"
fill="none" stroke="black" stroke-width="0.5"/>
<path d="M349.18 233.27L353.15 230"
fill="none" stroke="black" stroke-width="0.5"/>
<path d="M353.15 230L357.35 227.04"
fill="none" stroke="black" stroke-width="0.5"/>
<path d="M357.35 227.04L361.77 224.41"
fill="none" stroke="black" stroke-width="0.5"/>
<path d="M361.77 224.41L366.38 222.13"
fill="none" stroke="black" stroke-width="0.5"/>
<path d="M366.38 222.13L371.15 220.21"
fill="none" stroke="black" stroke-width="0.5"/>
<path d="M371.15 220.21L376.06 218.66"
fill="none" stroke="black" stroke-width="0.5"/>
<path d="M376.06 218.66L381.07 217.48"
fill="none" stroke="black" stroke-width="0.5"/>
<path d="M381.07 217.48L386.15 216.7"
fill="none" stroke="black" stroke-width="0.5"/>
<path d="M386.15 216.7L391.28 216.3"
fill="none" stroke="black" stroke-width="0.5"/>
<path d="M391.28 216.3L396.42 216.3"
fill="none" stroke="black" stroke-width="0.5"/>
<path d="M396.42 216.3L401.55 216.7"
fill="none" stroke="black" stroke-width="0.5"/>
<path d="M401.55 216.7L406.63 217.48"
fill="none" stroke="black" stroke-width="0.5"/>
<path d="M406.63 217.48L411.64 218.66"
fill="none" stroke="black" stroke-width="0.5"/>
<path d="M411.64 218.66L416.55 220.21"
fill="none" stroke="black" stroke-width="0.5"/>
<path d="M416.55 220.21L421.32 222.13"
fill="none" stroke="black" stroke-width="0.5"/>
<path d="M421.32 222.13L425.93 224.41"
fill="none" stroke="black" stroke-width="0.5"/>
<path d="M425.93 224.41L430.35 227.04"
fill="none" stroke="black" stroke-width="0.5"/>
<path d="M430.35 227.04L434.55 230"
fill="none" stroke="black" stroke-width="0.5"/>
<path d="M434.55 230L438.52 233.27"
fill="none" stroke="black" stroke-width="0.5"/>
<path d="M438.52 233.27L442.23 236.84"
fill="none" stroke="black" stroke-width="0.5"/>
<path d="M442.23 236.84L445.65 240.68"
fill="none" stroke="black" stroke-width="0.5"/>
<path d="M445.65 240.68L448.77 244.77"
fill="none" stroke="black" stroke-width="0.5"/>
<path d="M448.77 244.77L451.56 249.09"
fill="none" stroke="black" stroke-width="0.5"/>
<path d="M451.56 249.09L454.02 253.61"
fill="none" stroke="black" stroke-width="0.5"/>
<path d="M454.02 253.61L456.13 258.3"
fill="none" stroke="black" stroke-width="0.5"/>
<path d="M456.13 258.3L457.86 263.14"
fill="none" stroke="black" stroke-width="0.5"/>
<path d="M457.86 263.14L459.23 268.1"
fill="none" stroke="black" stroke-width="0.5"/>
<path d="M459.23 268.1L460.21 273.15"
fill="none" stroke="black" stroke-width="0.5"/>
<path d="M460.21 273.15L460.8 278.26"
fill="none" stroke="black" stroke-width="0.5"/>
<path d="M460.8 278.26L460.99 283.4"
fill="none" stroke="black" stroke-width="0.5"/>
</svg>
