<?xml version="1.0" encoding="UTF-8"?>
<svg xmlns="http://www.w3.org/2000/svg" width="800.000" height="600.000" viewBox="0.0 0.0 800.000 600.000" version="1.1">
  <desc>Produce by Acme CAD Converter</desc>
<path d="M350.29 338.58L350.68 343.36 379.32 338.58 379.32 338.58 350.29 338.58Z"
fill-rule="nonzero" fill="cyan"/>
<path d="M350.68 343.36L351.86 348 379.32 338.58 379.32 338.58 350.68 343.36Z"
fill-rule="nonzero" fill="cyan"/>
<path d="M351.86 348L353.79 352.39 379.32 338.58 379.32 338.58 351.86 348Z"
fill-rule="nonzero" fill="cyan"/>
<path d="M353.79 352.39L356.41 356.41 379.32 338.58 379.32 338.58 353.79 352.39Z"
fill-rule="nonzero" fill="cyan"/>
<path d="M356.41 356.41L359.66 359.94 379.32 338.58 379.32 338.58 356.41 356.41Z"
fill-rule="nonzero" fill="cyan"/>
<path d="M359.66 359.94L363.44 362.88 379.32 338.58 379.32 338.58 359.66 359.94Z"
fill-rule="nonzero" fill="cyan"/>
<path d="M363.44 362.88L367.66 365.16 379.32 338.58 379.32 338.58 363.44 362.88Z"
fill-rule="nonzero" fill="cyan"/>
<path d="M367.66 365.16L372.19 366.72 379.32 338.58 379.32 338.58 367.66 365.16Z"
fill-rule="nonzero" fill="cyan"/>
<path d="M372.19 366.72L376.92 367.51 379.32 338.58 379.32 338.58 372.19 366.72Z"
fill-rule="nonzero" fill="cyan"/>
<path d="M376.92 367.51L381.71 367.51 379.32 338.58 379.32 338.58 376.92 367.51Z"
fill-rule="nonzero" fill="cyan"/>
<path d="M381.71 367.51L386.44 366.72 379.32 338.58 379.32 338.58 381.71 367.51Z"
fill-rule="nonzero" fill="cyan"/>
<path d="M386.44 366.72L390.98 365.16 379.32 338.58 379.32 338.58 386.44 366.72Z"
fill-rule="nonzero" fill="cyan"/>
<path d="M390.98 365.16L395.19 362.88 379.32 338.58 379.32 338.58 390.98 365.16Z"
fill-rule="nonzero" fill="cyan"/>
<path d="M395.19 362.88L398.98 359.94 379.32 338.58 379.32 338.58 395.19 362.88Z"
fill-rule="nonzero" fill="cyan"/>
<path d="M398.98 359.94L402.22 356.41 379.32 338.58 379.32 338.58 398.98 359.94Z"
fill-rule="nonzero" fill="cyan"/>
<path d="M402.22 356.41L404.85 352.39 379.32 338.58 379.32 338.58 402.22 356.41Z"
fill-rule="nonzero" fill="cyan"/>
<path d="M404.85 352.39L406.77 348 379.32 338.58 379.32 338.58 404.85 352.39Z"
fill-rule="nonzero" fill="cyan"/>
<path d="M406.77 348L407.95 343.36 379.32 338.58 379.32 338.58 406.77 348Z"
fill-rule="nonzero" fill="cyan"/>
<path d="M407.95 343.36L408.35 338.58 379.32 338.58 379.32 338.58 407.95 343.36Z"
fill-rule="nonzero" fill="cyan"/>
<path d="M408.35 338.58L407.95 333.8 379.32 338.58 379.32 338.58 408.35 338.58Z"
fill-rule="nonzero" fill="cyan"/>
<path d="M407.95 333.8L406.77 329.15 379.32 338.58 379.32 338.58 407.95 333.8Z"
fill-rule="nonzero" fill="cyan"/>
<path d="M406.77 329.15L404.85 324.76 379.32 338.58 379.32 338.58 406.77 329.15Z"
fill-rule="nonzero" fill="cyan"/>
<path d="M404.85 324.76L402.22 320.75 379.32 338.58 379.32 338.58 404.85 324.76Z"
fill-rule="nonzero" fill="cyan"/>
<path d="M402.22 320.75L398.98 317.22 379.32 338.58 379.32 338.58 402.22 320.75Z"
fill-rule="nonzero" fill="cyan"/>
<path d="M398.98 317.22L395.19 314.28 379.32 338.58 379.32 338.58 398.98 317.22Z"
fill-rule="nonzero" fill="cyan"/>
<path d="M395.19 314.28L390.98 311.99 379.32 338.58 379.32 338.58 395.19 314.28Z"
fill-rule="nonzero" fill="cyan"/>
<path d="M390.98 311.99L386.44 310.44 379.32 338.58 379.32 338.58 390.98 311.99Z"
fill-rule="nonzero" fill="cyan"/>
<path d="M386.44 310.44L381.71 309.65 379.32 338.58 379.32 338.58 386.44 310.44Z"
fill-rule="nonzero" fill="cyan"/>
<path d="M381.71 309.65L376.92 309.65 379.32 338.58 379.32 338.58 381.71 309.65Z"
fill-rule="nonzero" fill="cyan"/>
<path d="M376.92 309.65L372.19 310.44 379.32 338.58 379.32 338.58 376.92 309.65Z"
fill-rule="nonzero" fill="cyan"/>
<path d="M372.19 310.44L367.66 311.99 379.32 338.58 379.32 338.58 372.19 310.44Z"
fill-rule="nonzero" fill="cyan"/>
<path d="M367.66 311.99L363.44 314.28 379.32 338.58 379.32 338.58 367.66 311.99Z"
fill-rule="nonzero" fill="cyan"/>
<path d="M363.44 314.28L359.66 317.22 379.32 338.58 379.32 338.58 363.44 314.28Z"
fill-rule="nonzero" fill="cyan"/>
<path d="M359.66 317.22L356.41 320.75 379.32 338.58 379.32 338.58 359.66 317.22Z"
fill-rule="nonzero" fill="cyan"/>
<path d="M356.41 320.75L353.79 324.76 379.32 338.58 379.32 338.58 356.41 320.75Z"
fill-rule="nonzero" fill="cyan"/>
<path d="M353.79 324.76L351.86 329.15 379.32 338.58 379.32 338.58 353.79 324.76Z"
fill-rule="nonzero" fill="cyan"/>
<path d="M351.86 329.15L350.68 333.8 379.32 338.58 379.32 338.58 351.86 329.15Z"
fill-rule="nonzero" fill="cyan"/>
<path d="M350.68 333.8L350.29 338.58 379.32 338.58 379.32 338.58 350.68 333.8Z"
fill-rule="nonzero" fill="cyan"/>
<path d="M379.32 309.55L379.32 251.49Z"
fill="none" stroke="cyan" stroke-width="0.5"/>
<path d="M359.96 251.49L359.96 251.49Z"
fill="none" stroke="cyan" stroke-width="0.5"/>
<path d="M398.67 251.49L398.67 251.49Z"
fill="none" stroke="cyan" stroke-width="0.5"/>
<path d="M 379.32 251.49 A 19.353 19.353 0 0 0 340.61 251.49"
fill="none" stroke="cyan" stroke-width="0.5"/>
<path d="M 418.02 251.49 A 19.353 19.353 0 0 0 379.32 251.49"
fill="none" stroke="cyan" stroke-width="0.5"/>
<path d="M358.03 251.49L358.4 252.63 359.96 251.49 359.96 251.49 358.03 251.49Z"
fill-rule="nonzero" fill="cyan"/>
<path d="M358.4 252.63L359.37 253.33 359.96 251.49 359.96 251.49 358.4 252.63Z"
fill-rule="nonzero" fill="cyan"/>
<path d="M359.37 253.33L360.56 253.33 359.96 251.49 359.96 251.49 359.37 253.33Z"
fill-rule="nonzero" fill="cyan"/>
<path d="M360.56 253.33L361.53 252.63 359.96 251.49 359.96 251.49 360.56 253.33Z"
fill-rule="nonzero" fill="cyan"/>
<path d="M361.53 252.63L361.9 251.49 359.96 251.49 359.96 251.49 361.53 252.63Z"
fill-rule="nonzero" fill="cyan"/>
<path d="M361.9 251.49L361.53 250.35 359.96 251.49 359.96 251.49 361.9 251.49Z"
fill-rule="nonzero" fill="cyan"/>
<path d="M361.53 250.35L360.56 249.65 359.96 251.49 359.96 251.49 361.53 250.35Z"
fill-rule="nonzero" fill="cyan"/>
<path d="M360.56 249.65L359.37 249.65 359.96 251.49 359.96 251.49 360.56 249.65Z"
fill-rule="nonzero" fill="cyan"/>
<path d="M359.37 249.65L358.4 250.35 359.96 251.49 359.96 251.49 359.37 249.65Z"
fill-rule="nonzero" fill="cyan"/>
<path d="M358.4 250.35L358.03 251.49 359.96 251.49 359.96 251.49 358.4 250.35Z"
fill-rule="nonzero" fill="cyan"/>
<path d="M396.73 251.49L397.1 252.63 398.67 251.49 398.67 251.49 396.73 251.49Z"
fill-rule="nonzero" fill="cyan"/>
<path d="M397.1 252.63L398.07 253.33 398.67 251.49 398.67 251.49 397.1 252.63Z"
fill-rule="nonzero" fill="cyan"/>
<path d="M398.07 253.33L399.27 253.33 398.67 251.49 398.67 251.49 398.07 253.33Z"
fill-rule="nonzero" fill="cyan"/>
<path d="M399.27 253.33L400.23 252.63 398.67 251.49 398.67 251.49 399.27 253.33Z"
fill-rule="nonzero" fill="cyan"/>
<path d="M400.23 252.63L400.6 251.49 398.67 251.49 398.67 251.49 400.23 252.63Z"
fill-rule="nonzero" fill="cyan"/>
<path d="M400.6 251.49L400.23 250.35 398.67 251.49 398.67 251.49 400.6 251.49Z"
fill-rule="nonzero" fill="cyan"/>
<path d="M400.23 250.35L399.27 249.65 398.67 251.49 398.67 251.49 400.23 250.35Z"
fill-rule="nonzero" fill="cyan"/>
<path d="M399.27 249.65L398.07 249.65 398.67 251.49 398.67 251.49 399.27 249.65Z"
fill-rule="nonzero" fill="cyan"/>
<path d="M398.07 249.65L397.1 250.35 398.67 251.49 398.67 251.49 398.07 249.65Z"
fill-rule="nonzero" fill="cyan"/>
<path d="M397.1 250.35L396.73 251.49 398.67 251.49 398.67 251.49 397.1 250.35Z"
fill-rule="nonzero" fill="cyan"/>
</svg>
