<?xml version="1.0" encoding="UTF-8"?>
<svg xmlns="http://www.w3.org/2000/svg" width="800.000" height="600.000" viewBox="0.0 0.0 800.000 600.000" version="1.1">
  <desc>Produce by Acme CAD Converter</desc>
<path d="M443.33 251.84L443.33 269.9Z"
fill="none" stroke="cyan" stroke-width="3.5"/>
<path d="M407.21 251.84L443.33 251.84"
fill="none" stroke="cyan" stroke-width="3.5"/>
<path d="M407.21 319.57L407.21 251.84Z"
fill="none" stroke="cyan" stroke-width="3.5"/>
<path d="M373.35 353.43L373.73 358.48 407.21 353.43 407.21 353.43 373.35 353.43Z"
fill-rule="nonzero" fill="cyan"/>
<path d="M373.73 358.48L374.86 363.41 407.21 353.43 407.21 353.43 373.73 358.48Z"
fill-rule="nonzero" fill="cyan"/>
<path d="M374.86 363.41L376.7 368.12 407.21 353.43 407.21 353.43 374.86 363.41Z"
fill-rule="nonzero" fill="cyan"/>
<path d="M376.7 368.12L379.23 372.5 407.21 353.43 407.21 353.43 376.7 368.12Z"
fill-rule="nonzero" fill="cyan"/>
<path d="M379.23 372.5L382.39 376.46 407.21 353.43 407.21 353.43 379.23 372.5Z"
fill-rule="nonzero" fill="cyan"/>
<path d="M382.39 376.46L386.1 379.9 407.21 353.43 407.21 353.43 382.39 376.46Z"
fill-rule="nonzero" fill="cyan"/>
<path d="M386.1 379.9L390.28 382.75 407.21 353.43 407.21 353.43 386.1 379.9Z"
fill-rule="nonzero" fill="cyan"/>
<path d="M390.28 382.75L394.84 384.95 407.21 353.43 407.21 353.43 390.28 382.75Z"
fill-rule="nonzero" fill="cyan"/>
<path d="M394.84 384.95L399.68 386.44 407.21 353.43 407.21 353.43 394.84 384.95Z"
fill-rule="nonzero" fill="cyan"/>
<path d="M399.68 386.44L404.68 387.2 407.21 353.43 407.21 353.43 399.68 386.44Z"
fill-rule="nonzero" fill="cyan"/>
<path d="M404.68 387.2L409.74 387.2 407.21 353.43 407.21 353.43 404.68 387.2Z"
fill-rule="nonzero" fill="cyan"/>
<path d="M409.74 387.2L414.75 386.44 407.21 353.43 407.21 353.43 409.74 387.2Z"
fill-rule="nonzero" fill="cyan"/>
<path d="M414.75 386.44L419.59 384.95 407.21 353.43 407.21 353.43 414.75 386.44Z"
fill-rule="nonzero" fill="cyan"/>
<path d="M419.59 384.95L424.15 382.75 407.21 353.43 407.21 353.43 419.59 384.95Z"
fill-rule="nonzero" fill="cyan"/>
<path d="M424.15 382.75L428.33 379.9 407.21 353.43 407.21 353.43 424.15 382.75Z"
fill-rule="nonzero" fill="cyan"/>
<path d="M428.33 379.9L432.04 376.46 407.21 353.43 407.21 353.43 428.33 379.9Z"
fill-rule="nonzero" fill="cyan"/>
<path d="M432.04 376.46L435.19 372.5 407.21 353.43 407.21 353.43 432.04 376.46Z"
fill-rule="nonzero" fill="cyan"/>
<path d="M435.19 372.5L437.72 368.12 407.21 353.43 407.21 353.43 435.19 372.5Z"
fill-rule="nonzero" fill="cyan"/>
<path d="M437.72 368.12L439.57 363.41 407.21 353.43 407.21 353.43 437.72 368.12Z"
fill-rule="nonzero" fill="cyan"/>
<path d="M439.57 363.41L440.7 358.48 407.21 353.43 407.21 353.43 439.57 363.41Z"
fill-rule="nonzero" fill="cyan"/>
<path d="M440.7 358.48L441.08 353.43 407.21 353.43 407.21 353.43 440.7 358.48Z"
fill-rule="nonzero" fill="cyan"/>
<path d="M441.08 353.43L440.7 348.38 407.21 353.43 407.21 353.43 441.08 353.43Z"
fill-rule="nonzero" fill="cyan"/>
<path d="M440.7 348.38L439.57 343.45 407.21 353.43 407.21 353.43 440.7 348.38Z"
fill-rule="nonzero" fill="cyan"/>
<path d="M439.57 343.45L437.72 338.74 407.21 353.43 407.21 353.43 439.57 343.45Z"
fill-rule="nonzero" fill="cyan"/>
<path d="M437.72 338.74L435.19 334.35 407.21 353.43 407.21 353.43 437.72 338.74Z"
fill-rule="nonzero" fill="cyan"/>
<path d="M435.19 334.35L432.04 330.4 407.21 353.43 407.21 353.43 435.19 334.35Z"
fill-rule="nonzero" fill="cyan"/>
<path d="M432.04 330.4L428.33 326.95 407.21 353.43 407.21 353.43 432.04 330.4Z"
fill-rule="nonzero" fill="cyan"/>
<path d="M428.33 326.95L424.15 324.1 407.21 353.43 407.21 353.43 428.33 326.95Z"
fill-rule="nonzero" fill="cyan"/>
<path d="M424.15 324.1L419.59 321.91 407.21 353.43 407.21 353.43 424.15 324.1Z"
fill-rule="nonzero" fill="cyan"/>
<path d="M419.59 321.91L414.75 320.41 407.21 353.43 407.21 353.43 419.59 321.91Z"
fill-rule="nonzero" fill="cyan"/>
<path d="M414.75 320.41L409.74 319.66 407.21 353.43 407.21 353.43 414.75 320.41Z"
fill-rule="nonzero" fill="cyan"/>
<path d="M409.74 319.66L404.68 319.66 407.21 353.43 407.21 353.43 409.74 319.66Z"
fill-rule="nonzero" fill="cyan"/>
<path d="M404.68 319.66L399.68 320.41 407.21 353.43 407.21 353.43 404.68 319.66Z"
fill-rule="nonzero" fill="cyan"/>
<path d="M399.68 320.41L394.84 321.91 407.21 353.43 407.21 353.43 399.68 320.41Z"
fill-rule="nonzero" fill="cyan"/>
<path d="M394.84 321.91L390.28 324.1 407.21 353.43 407.21 353.43 394.84 321.91Z"
fill-rule="nonzero" fill="cyan"/>
<path d="M390.28 324.1L386.1 326.95 407.21 353.43 407.21 353.43 390.28 324.1Z"
fill-rule="nonzero" fill="cyan"/>
<path d="M386.1 326.95L382.39 330.4 407.21 353.43 407.21 353.43 386.1 326.95Z"
fill-rule="nonzero" fill="cyan"/>
<path d="M382.39 330.4L379.23 334.35 407.21 353.43 407.21 353.43 382.39 330.4Z"
fill-rule="nonzero" fill="cyan"/>
<path d="M379.23 334.35L376.7 338.74 407.21 353.43 407.21 353.43 379.23 334.35Z"
fill-rule="nonzero" fill="cyan"/>
<path d="M376.7 338.74L374.86 343.45 407.21 353.43 407.21 353.43 376.7 338.74Z"
fill-rule="nonzero" fill="cyan"/>
<path d="M374.86 343.45L373.73 348.38 407.21 353.43 407.21 353.43 374.86 343.45Z"
fill-rule="nonzero" fill="cyan"/>
<path d="M373.73 348.38L373.35 353.43 407.21 353.43 407.21 353.43 373.73 348.38Z"
fill-rule="nonzero" fill="cyan"/>
</svg>
