<?xml version="1.0" encoding="UTF-8"?>
<svg xmlns="http://www.w3.org/2000/svg" width="800.000" height="600.000" viewBox="0.0 0.0 800.000 600.000" version="1.1">
  <desc>Produce by Acme CAD Converter</desc>
<path d="M213.28 281.06L281.48 281.06 213.28 226.51 213.28 281.06Z"
fill="black" stroke="black" stroke-width="0.2"/>
<path d="M281.48 281.06L281.48 226.51 213.28 226.51 281.48 281.06Z"
fill="black" stroke="black" stroke-width="0.2"/>
<path d="M281.48 281.06L281.5 281.06 281.48 253.79 281.48 281.06Z"
fill="black" stroke="black" stroke-width="0.2"/>
<path d="M281.5 281.06L281.5 255.44 281.48 253.79 281.5 281.06Z"
fill="black" stroke="black" stroke-width="0.2"/>
<path d="M281.48 253.79L281.5 252.14 281.48 226.51 281.48 253.79Z"
fill="black" stroke="black" stroke-width="0.2"/>
<path d="M281.5 252.14L281.5 226.51 281.48 226.51 281.5 252.14Z"
fill="black" stroke="black" stroke-width="0.2"/>
<path d="M281.5 281.06L281.56 281.06 281.5 255.44 281.5 281.06Z"
fill="black" stroke="black" stroke-width="0.2"/>
<path d="M281.56 281.06L281.56 257.09 281.5 255.44 281.56 281.06Z"
fill="black" stroke="black" stroke-width="0.2"/>
<path d="M281.5 252.14L281.56 250.49 281.5 226.51 281.5 252.14Z"
fill="black" stroke="black" stroke-width="0.2"/>
<path d="M281.56 250.49L281.56 226.51 281.5 226.51 281.56 250.49Z"
fill="black" stroke="black" stroke-width="0.2"/>
<path d="M281.56 281.06L281.66 281.06 281.56 257.09 281.56 281.06Z"
fill="black" stroke="black" stroke-width="0.2"/>
<path d="M281.66 281.06L281.66 258.73 281.56 257.09 281.66 281.06Z"
fill="black" stroke="black" stroke-width="0.2"/>
<path d="M281.56 250.49L281.66 248.84 281.56 226.51 281.56 250.49Z"
fill="black" stroke="black" stroke-width="0.2"/>
<path d="M281.66 248.84L281.66 226.51 281.56 226.51 281.66 248.84Z"
fill="black" stroke="black" stroke-width="0.2"/>
<path d="M281.66 281.06L281.8 281.06 281.66 258.73 281.66 281.06Z"
fill="black" stroke="black" stroke-width="0.2"/>
<path d="M281.8 281.06L281.8 260.38 281.66 258.73 281.8 281.06Z"
fill="black" stroke="black" stroke-width="0.2"/>
<path d="M281.66 248.84L281.8 247.19 281.66 226.51 281.66 248.84Z"
fill="black" stroke="black" stroke-width="0.2"/>
<path d="M281.8 247.19L281.8 226.51 281.66 226.51 281.8 247.19Z"
fill="black" stroke="black" stroke-width="0.2"/>
<path d="M281.8 281.06L281.98 281.06 281.8 260.38 281.8 281.06Z"
fill="black" stroke="black" stroke-width="0.2"/>
<path d="M281.98 281.06L281.98 262.02 281.8 260.38 281.98 281.06Z"
fill="black" stroke="black" stroke-width="0.2"/>
<path d="M281.8 247.19L281.98 245.55 281.8 226.51 281.8 247.19Z"
fill="black" stroke="black" stroke-width="0.2"/>
<path d="M281.98 245.55L281.98 226.51 281.8 226.51 281.98 245.55Z"
fill="black" stroke="black" stroke-width="0.2"/>
<path d="M281.98 281.06L282.2 281.06 281.98 262.02 281.98 281.06Z"
fill="black" stroke="black" stroke-width="0.2"/>
<path d="M282.2 281.06L282.2 263.66 281.98 262.02 282.2 281.06Z"
fill="black" stroke="black" stroke-width="0.2"/>
<path d="M281.98 245.55L282.2 243.92 281.98 226.51 281.98 245.55Z"
fill="black" stroke="black" stroke-width="0.2"/>
<path d="M282.2 243.92L282.2 226.51 281.98 226.51 282.2 243.92Z"
fill="black" stroke="black" stroke-width="0.2"/>
<path d="M282.2 281.06L282.46 281.06 282.2 263.66 282.2 281.06Z"
fill="black" stroke="black" stroke-width="0.2"/>
<path d="M282.46 281.06L282.46 265.29 282.2 263.66 282.46 281.06Z"
fill="black" stroke="black" stroke-width="0.2"/>
<path d="M282.2 243.92L282.46 242.29 282.2 226.51 282.2 243.92Z"
fill="black" stroke="black" stroke-width="0.2"/>
<path d="M282.46 242.29L282.46 226.51 282.2 226.51 282.46 242.29Z"
fill="black" stroke="black" stroke-width="0.2"/>
<path d="M282.46 281.06L282.75 281.06 282.46 265.29 282.46 281.06Z"
fill="black" stroke="black" stroke-width="0.2"/>
<path d="M282.75 281.06L282.75 266.91 282.46 265.29 282.75 281.06Z"
fill="black" stroke="black" stroke-width="0.2"/>
<path d="M282.46 242.29L282.75 240.66 282.46 226.51 282.46 242.29Z"
fill="black" stroke="black" stroke-width="0.2"/>
<path d="M282.75 240.66L282.75 226.51 282.46 226.51 282.75 240.66Z"
fill="black" stroke="black" stroke-width="0.2"/>
<path d="M282.75 281.06L283.09 281.06 282.75 266.91 282.75 281.06Z"
fill="black" stroke="black" stroke-width="0.2"/>
<path d="M283.09 281.06L283.09 268.53 282.75 266.91 283.09 281.06Z"
fill="black" stroke="black" stroke-width="0.2"/>
<path d="M282.75 240.66L283.09 239.05 282.75 226.51 282.75 240.66Z"
fill="black" stroke="black" stroke-width="0.2"/>
<path d="M283.09 239.05L283.09 226.51 282.75 226.51 283.09 239.05Z"
fill="black" stroke="black" stroke-width="0.2"/>
<path d="M283.09 281.06L283.47 281.06 283.09 268.53 283.09 281.06Z"
fill="black" stroke="black" stroke-width="0.2"/>
<path d="M283.47 281.06L283.47 270.13 283.09 268.53 283.47 281.06Z"
fill="black" stroke="black" stroke-width="0.2"/>
<path d="M283.09 239.05L283.47 237.44 283.09 226.51 283.09 239.05Z"
fill="black" stroke="black" stroke-width="0.2"/>
<path d="M283.47 237.44L283.47 226.51 283.09 226.51 283.47 237.44Z"
fill="black" stroke="black" stroke-width="0.2"/>
<path d="M283.47 281.06L283.88 281.06 283.47 270.13 283.47 281.06Z"
fill="black" stroke="black" stroke-width="0.2"/>
<path d="M283.88 281.06L283.88 271.73 283.47 270.13 283.88 281.06Z"
fill="black" stroke="black" stroke-width="0.2"/>
<path d="M283.47 237.44L283.88 235.84 283.47 226.51 283.47 237.44Z"
fill="black" stroke="black" stroke-width="0.2"/>
<path d="M283.88 235.84L283.88 226.51 283.47 226.51 283.88 235.84Z"
fill="black" stroke="black" stroke-width="0.2"/>
<path d="M283.88 281.06L284.34 281.06 283.88 271.73 283.88 281.06Z"
fill="black" stroke="black" stroke-width="0.2"/>
<path d="M284.34 281.06L284.34 273.32 283.88 271.73 284.34 281.06Z"
fill="black" stroke="black" stroke-width="0.2"/>
<path d="M283.88 235.84L284.34 234.25 283.88 226.51 283.88 235.84Z"
fill="black" stroke="black" stroke-width="0.2"/>
<path d="M284.34 234.25L284.34 226.51 283.88 226.51 284.34 234.25Z"
fill="black" stroke="black" stroke-width="0.2"/>
<path d="M284.34 281.06L284.83 281.06 284.34 273.32 284.34 281.06Z"
fill="black" stroke="black" stroke-width="0.2"/>
<path d="M284.83 281.06L284.83 274.89 284.34 273.32 284.83 281.06Z"
fill="black" stroke="black" stroke-width="0.2"/>
<path d="M284.34 234.25L284.83 232.68 284.34 226.51 284.34 234.25Z"
fill="black" stroke="black" stroke-width="0.2"/>
<path d="M284.83 232.68L284.83 226.51 284.34 226.51 284.83 232.68Z"
fill="black" stroke="black" stroke-width="0.2"/>
<path d="M284.83 281.06L285.36 281.06 284.83 274.89 284.83 281.06Z"
fill="black" stroke="black" stroke-width="0.2"/>
<path d="M285.36 281.06L285.36 276.46 284.83 274.89 285.36 281.06Z"
fill="black" stroke="black" stroke-width="0.2"/>
<path d="M284.83 232.68L285.36 231.12 284.83 226.51 284.83 232.68Z"
fill="black" stroke="black" stroke-width="0.2"/>
<path d="M285.36 231.12L285.36 226.51 284.83 226.51 285.36 231.12Z"
fill="black" stroke="black" stroke-width="0.2"/>
<path d="M285.36 281.06L285.93 281.06 285.36 276.46 285.36 281.06Z"
fill="black" stroke="black" stroke-width="0.2"/>
<path d="M285.93 281.06L285.93 278.01 285.36 276.46 285.93 281.06Z"
fill="black" stroke="black" stroke-width="0.2"/>
<path d="M285.36 231.12L285.93 229.56 285.36 226.51 285.36 231.12Z"
fill="black" stroke="black" stroke-width="0.2"/>
<path d="M285.93 229.56L285.93 226.51 285.36 226.51 285.93 229.56Z"
fill="black" stroke="black" stroke-width="0.2"/>
<path d="M285.93 281.06L286.53 281.06 285.93 278.01 285.93 281.06Z"
fill="black" stroke="black" stroke-width="0.2"/>
<path d="M286.53 281.06L286.53 279.54 285.93 278.01 286.53 281.06Z"
fill="black" stroke="black" stroke-width="0.2"/>
<path d="M285.93 229.56L286.53 228.03 285.93 226.51 285.93 229.56Z"
fill="black" stroke="black" stroke-width="0.2"/>
<path d="M286.53 228.03L286.53 226.51 285.93 226.51 286.53 228.03Z"
fill="black" stroke="black" stroke-width="0.2"/>
<path d="M286.53 281.06L287.17 281.06 286.53 279.54 286.53 281.06Z"
fill="black" stroke="black" stroke-width="0.2"/>
<path d="M286.53 228.03L287.17 226.51 286.53 226.51 286.53 228.03Z"
fill="black" stroke="black" stroke-width="0.2"/>
<path d="M412.82 281.06L412.82 279.54 412.18 281.06 412.82 281.06Z"
fill="black" stroke="black" stroke-width="0.2"/>
<path d="M412.82 228.03L412.82 226.51 412.18 226.51 412.82 228.03Z"
fill="black" stroke="black" stroke-width="0.2"/>
<path d="M412.82 281.06L413.42 281.06 412.82 279.54 412.82 281.06Z"
fill="black" stroke="black" stroke-width="0.2"/>
<path d="M413.42 281.06L413.42 278.01 412.82 279.54 413.42 281.06Z"
fill="black" stroke="black" stroke-width="0.2"/>
<path d="M412.82 228.03L413.42 229.56 412.82 226.51 412.82 228.03Z"
fill="black" stroke="black" stroke-width="0.2"/>
<path d="M413.42 229.56L413.42 226.51 412.82 226.51 413.42 229.56Z"
fill="black" stroke="black" stroke-width="0.2"/>
<path d="M413.42 281.06L413.99 281.06 413.42 278.01 413.42 281.06Z"
fill="black" stroke="black" stroke-width="0.2"/>
<path d="M413.99 281.06L413.99 276.46 413.42 278.01 413.99 281.06Z"
fill="black" stroke="black" stroke-width="0.2"/>
<path d="M413.42 229.56L413.99 231.12 413.42 226.51 413.42 229.56Z"
fill="black" stroke="black" stroke-width="0.2"/>
<path d="M413.99 231.12L413.99 226.51 413.42 226.51 413.99 231.12Z"
fill="black" stroke="black" stroke-width="0.2"/>
<path d="M413.99 281.06L414.52 281.06 413.99 276.46 413.99 281.06Z"
fill="black" stroke="black" stroke-width="0.2"/>
<path d="M414.52 281.06L414.52 274.89 413.99 276.46 414.52 281.06Z"
fill="black" stroke="black" stroke-width="0.2"/>
<path d="M413.99 231.12L414.52 232.68 413.99 226.51 413.99 231.12Z"
fill="black" stroke="black" stroke-width="0.2"/>
<path d="M414.52 232.68L414.52 226.51 413.99 226.51 414.52 232.68Z"
fill="black" stroke="black" stroke-width="0.2"/>
<path d="M414.52 281.06L415.01 281.06 414.52 274.89 414.52 281.06Z"
fill="black" stroke="black" stroke-width="0.2"/>
<path d="M415.01 281.06L415.01 273.32 414.52 274.89 415.01 281.06Z"
fill="black" stroke="black" stroke-width="0.2"/>
<path d="M414.52 232.68L415.01 234.25 414.52 226.51 414.52 232.68Z"
fill="black" stroke="black" stroke-width="0.2"/>
<path d="M415.01 234.25L415.01 226.51 414.52 226.51 415.01 234.25Z"
fill="black" stroke="black" stroke-width="0.2"/>
<path d="M415.01 281.06L415.47 281.06 415.01 273.32 415.01 281.06Z"
fill="black" stroke="black" stroke-width="0.2"/>
<path d="M415.47 281.06L415.47 271.73 415.01 273.32 415.47 281.06Z"
fill="black" stroke="black" stroke-width="0.2"/>
<path d="M415.01 234.25L415.47 235.84 415.01 226.51 415.01 234.25Z"
fill="black" stroke="black" stroke-width="0.2"/>
<path d="M415.47 235.84L415.47 226.51 415.01 226.51 415.47 235.84Z"
fill="black" stroke="black" stroke-width="0.2"/>
<path d="M415.47 281.06L415.88 281.06 415.47 271.73 415.47 281.06Z"
fill="black" stroke="black" stroke-width="0.2"/>
<path d="M415.88 281.06L415.88 270.13 415.47 271.73 415.88 281.06Z"
fill="black" stroke="black" stroke-width="0.2"/>
<path d="M415.47 235.84L415.88 237.44 415.47 226.51 415.47 235.84Z"
fill="black" stroke="black" stroke-width="0.2"/>
<path d="M415.88 237.44L415.88 226.51 415.47 226.51 415.88 237.44Z"
fill="black" stroke="black" stroke-width="0.2"/>
<path d="M415.88 281.06L416.26 281.06 415.88 270.13 415.88 281.06Z"
fill="black" stroke="black" stroke-width="0.2"/>
<path d="M416.26 281.06L416.26 268.53 415.88 270.13 416.26 281.06Z"
fill="black" stroke="black" stroke-width="0.2"/>
<path d="M415.88 237.44L416.26 239.05 415.88 226.51 415.88 237.44Z"
fill="black" stroke="black" stroke-width="0.2"/>
<path d="M416.26 239.05L416.26 226.51 415.88 226.51 416.26 239.05Z"
fill="black" stroke="black" stroke-width="0.2"/>
<path d="M416.26 281.06L416.59 281.06 416.26 268.53 416.26 281.06Z"
fill="black" stroke="black" stroke-width="0.2"/>
<path d="M416.59 281.06L416.59 266.91 416.26 268.53 416.59 281.06Z"
fill="black" stroke="black" stroke-width="0.2"/>
<path d="M416.26 239.05L416.59 240.66 416.26 226.51 416.26 239.05Z"
fill="black" stroke="black" stroke-width="0.2"/>
<path d="M416.59 240.66L416.59 226.51 416.26 226.51 416.59 240.66Z"
fill="black" stroke="black" stroke-width="0.2"/>
<path d="M416.59 281.06L416.89 281.06 416.59 266.91 416.59 281.06Z"
fill="black" stroke="black" stroke-width="0.2"/>
<path d="M416.89 281.06L416.89 265.29 416.59 266.91 416.89 281.06Z"
fill="black" stroke="black" stroke-width="0.2"/>
<path d="M416.59 240.66L416.89 242.29 416.59 226.51 416.59 240.66Z"
fill="black" stroke="black" stroke-width="0.2"/>
<path d="M416.89 242.29L416.89 226.51 416.59 226.51 416.89 242.29Z"
fill="black" stroke="black" stroke-width="0.2"/>
<path d="M416.89 281.06L417.15 281.06 416.89 265.29 416.89 281.06Z"
fill="black" stroke="black" stroke-width="0.2"/>
<path d="M417.15 281.06L417.15 263.66 416.89 265.29 417.15 281.06Z"
fill="black" stroke="black" stroke-width="0.2"/>
<path d="M416.89 242.29L417.15 243.92 416.89 226.51 416.89 242.29Z"
fill="black" stroke="black" stroke-width="0.2"/>
<path d="M417.15 243.92L417.15 226.51 416.89 226.51 417.15 243.92Z"
fill="black" stroke="black" stroke-width="0.2"/>
<path d="M417.15 281.06L417.37 281.06 417.15 263.66 417.15 281.06Z"
fill="black" stroke="black" stroke-width="0.2"/>
<path d="M417.37 281.06L417.37 262.02 417.15 263.66 417.37 281.06Z"
fill="black" stroke="black" stroke-width="0.2"/>
<path d="M417.15 243.92L417.37 245.55 417.15 226.51 417.15 243.92Z"
fill="black" stroke="black" stroke-width="0.2"/>
<path d="M417.37 245.55L417.37 226.51 417.15 226.51 417.37 245.55Z"
fill="black" stroke="black" stroke-width="0.2"/>
<path d="M417.37 281.06L417.55 281.06 417.37 262.02 417.37 281.06Z"
fill="black" stroke="black" stroke-width="0.2"/>
<path d="M417.55 281.06L417.55 260.38 417.37 262.02 417.55 281.06Z"
fill="black" stroke="black" stroke-width="0.2"/>
<path d="M417.37 245.55L417.55 247.19 417.37 226.51 417.37 245.55Z"
fill="black" stroke="black" stroke-width="0.2"/>
<path d="M417.55 247.19L417.55 226.51 417.37 226.51 417.55 247.19Z"
fill="black" stroke="black" stroke-width="0.2"/>
<path d="M417.55 281.06L417.69 281.06 417.55 260.38 417.55 281.06Z"
fill="black" stroke="black" stroke-width="0.2"/>
<path d="M417.69 281.06L417.69 258.73 417.55 260.38 417.69 281.06Z"
fill="black" stroke="black" stroke-width="0.2"/>
<path d="M417.55 247.19L417.69 248.84 417.55 226.51 417.55 247.19Z"
fill="black" stroke="black" stroke-width="0.2"/>
<path d="M417.69 248.84L417.69 226.51 417.55 226.51 417.69 248.84Z"
fill="black" stroke="black" stroke-width="0.2"/>
<path d="M417.69 281.06L417.79 281.06 417.69 258.73 417.69 281.06Z"
fill="black" stroke="black" stroke-width="0.2"/>
<path d="M417.79 281.06L417.79 257.09 417.69 258.73 417.79 281.06Z"
fill="black" stroke="black" stroke-width="0.2"/>
<path d="M417.69 248.84L417.79 250.49 417.69 226.51 417.69 248.84Z"
fill="black" stroke="black" stroke-width="0.2"/>
<path d="M417.79 250.49L417.79 226.51 417.69 226.51 417.79 250.49Z"
fill="black" stroke="black" stroke-width="0.2"/>
<path d="M417.79 281.06L417.85 281.06 417.79 257.09 417.79 281.06Z"
fill="black" stroke="black" stroke-width="0.2"/>
<path d="M417.85 281.06L417.85 255.44 417.79 257.09 417.85 281.06Z"
fill="black" stroke="black" stroke-width="0.2"/>
<path d="M417.79 250.49L417.85 252.14 417.79 226.51 417.79 250.49Z"
fill="black" stroke="black" stroke-width="0.2"/>
<path d="M417.85 252.14L417.85 226.51 417.79 226.51 417.85 252.14Z"
fill="black" stroke="black" stroke-width="0.2"/>
<path d="M417.85 281.06L417.87 281.06 417.85 255.44 417.85 281.06Z"
fill="black" stroke="black" stroke-width="0.2"/>
<path d="M417.87 281.06L417.87 253.79 417.85 255.44 417.87 281.06Z"
fill="black" stroke="black" stroke-width="0.2"/>
<path d="M417.85 252.14L417.87 253.79 417.85 226.51 417.85 252.14Z"
fill="black" stroke="black" stroke-width="0.2"/>
<path d="M417.87 253.79L417.87 226.51 417.85 226.51 417.87 253.79Z"
fill="black" stroke="black" stroke-width="0.2"/>
<path d="M417.87 281.06L486.06 281.06 417.87 226.51 417.87 281.06Z"
fill="black" stroke="black" stroke-width="0.2"/>
<path d="M486.06 281.06L486.06 226.51 417.87 226.51 486.06 281.06Z"
fill="black" stroke="black" stroke-width="0.2"/>
<path d="M417.87 253.79L417.67 258.94"
fill="none" stroke="black" stroke-width="0.5"/>
<path d="M417.67 258.94L417.09 264.07"
fill="none" stroke="black" stroke-width="0.5"/>
<path d="M417.09 264.07L416.12 269.14"
fill="none" stroke="black" stroke-width="0.5"/>
<path d="M416.12 269.14L414.77 274.12"
fill="none" stroke="black" stroke-width="0.5"/>
<path d="M414.77 274.12L413.04 278.99"
fill="none" stroke="black" stroke-width="0.5"/>
<path d="M413.04 278.99L410.95 283.71"
fill="none" stroke="black" stroke-width="0.5"/>
<path d="M410.95 283.71L408.52 288.26"
fill="none" stroke="black" stroke-width="0.5"/>
<path d="M408.52 288.26L405.74 292.61"
fill="none" stroke="black" stroke-width="0.5"/>
<path d="M405.74 292.61L402.64 296.74"
fill="none" stroke="black" stroke-width="0.5"/>
<path d="M402.64 296.74L399.24 300.62"
fill="none" stroke="black" stroke-width="0.5"/>
<path d="M399.24 300.62L395.56 304.23"
fill="none" stroke="black" stroke-width="0.5"/>
<path d="M395.56 304.23L391.61 307.56"
fill="none" stroke="black" stroke-width="0.5"/>
<path d="M391.61 307.56L387.43 310.58"
fill="none" stroke="black" stroke-width="0.5"/>
<path d="M387.43 310.58L383.02 313.27"
fill="none" stroke="black" stroke-width="0.5"/>
<path d="M383.02 313.27L378.43 315.62"
fill="none" stroke="black" stroke-width="0.5"/>
<path d="M378.43 315.62L373.67 317.62"
fill="none" stroke="black" stroke-width="0.5"/>
<path d="M373.67 317.62L368.77 319.25"
fill="none" stroke="black" stroke-width="0.5"/>
<path d="M368.77 319.25L363.77 320.51"
fill="none" stroke="black" stroke-width="0.5"/>
<path d="M363.77 320.51L358.68 321.38"
fill="none" stroke="black" stroke-width="0.5"/>
<path d="M358.68 321.38L353.54 321.87"
fill="none" stroke="black" stroke-width="0.5"/>
<path d="M353.54 321.87L348.38 321.97"
fill="none" stroke="black" stroke-width="0.5"/>
<path d="M348.38 321.97L343.23 321.68"
fill="none" stroke="black" stroke-width="0.5"/>
<path d="M343.23 321.68L338.11 320.99"
fill="none" stroke="black" stroke-width="0.5"/>
<path d="M338.11 320.99L333.06 319.93"
fill="none" stroke="black" stroke-width="0.5"/>
<path d="M333.06 319.93L328.11 318.48"
fill="none" stroke="black" stroke-width="0.5"/>
<path d="M328.11 318.48L323.28 316.67"
fill="none" stroke="black" stroke-width="0.5"/>
<path d="M323.28 316.67L318.6 314.49"
fill="none" stroke="black" stroke-width="0.5"/>
<path d="M318.6 314.49L314.1 311.97"
fill="none" stroke="black" stroke-width="0.5"/>
<path d="M314.1 311.97L309.8 309.11"
fill="none" stroke="black" stroke-width="0.5"/>
<path d="M309.8 309.11L305.73 305.93"
fill="none" stroke="black" stroke-width="0.5"/>
<path d="M305.73 305.93L301.91 302.46"
fill="none" stroke="black" stroke-width="0.5"/>
<path d="M301.91 302.46L298.37 298.71"
fill="none" stroke="black" stroke-width="0.5"/>
<path d="M298.37 298.71L295.12 294.7"
fill="none" stroke="black" stroke-width="0.5"/>
<path d="M295.12 294.7L292.18 290.46"
fill="none" stroke="black" stroke-width="0.5"/>
<path d="M292.18 290.46L289.57 286"
fill="none" stroke="black" stroke-width="0.5"/>
<path d="M289.57 286L287.31 281.37"
fill="none" stroke="black" stroke-width="0.5"/>
<path d="M287.31 281.37L285.4 276.57"
fill="none" stroke="black" stroke-width="0.5"/>
<path d="M285.4 276.57L283.86 271.64"
fill="none" stroke="black" stroke-width="0.5"/>
<path d="M283.86 271.64L282.7 266.62"
fill="none" stroke="black" stroke-width="0.5"/>
<path d="M282.7 266.62L281.92 261.51"
fill="none" stroke="black" stroke-width="0.5"/>
<path d="M281.92 261.51L281.53 256.37"
fill="none" stroke="black" stroke-width="0.5"/>
<path d="M281.53 256.37L281.53 251.21Z"
fill="none" stroke="black" stroke-width="0.5"/>
<path d="M281.53 251.21L281.92 246.06"
fill="none" stroke="black" stroke-width="0.5"/>
<path d="M281.92 246.06L282.7 240.96"
fill="none" stroke="black" stroke-width="0.5"/>
<path d="M282.7 240.96L283.86 235.93"
fill="none" stroke="black" stroke-width="0.5"/>
<path d="M283.86 235.93L285.4 231"
fill="none" stroke="black" stroke-width="0.5"/>
<path d="M285.4 231L287.31 226.21"
fill="none" stroke="black" stroke-width="0.5"/>
<path d="M287.31 226.21L289.57 221.57"
fill="none" stroke="black" stroke-width="0.5"/>
<path d="M289.57 221.57L292.18 217.11"
fill="none" stroke="black" stroke-width="0.5"/>
<path d="M292.18 217.11L295.12 212.87"
fill="none" stroke="black" stroke-width="0.5"/>
<path d="M295.12 212.87L298.37 208.86"
fill="none" stroke="black" stroke-width="0.5"/>
<path d="M298.37 208.86L301.91 205.11"
fill="none" stroke="black" stroke-width="0.5"/>
<path d="M301.91 205.11L305.73 201.64"
fill="none" stroke="black" stroke-width="0.5"/>
<path d="M305.73 201.64L309.8 198.46"
fill="none" stroke="black" stroke-width="0.5"/>
<path d="M309.8 198.46L314.1 195.61"
fill="none" stroke="black" stroke-width="0.5"/>
<path d="M314.1 195.61L318.6 193.08"
fill="none" stroke="black" stroke-width="0.5"/>
<path d="M318.6 193.08L323.28 190.91"
fill="none" stroke="black" stroke-width="0.5"/>
<path d="M323.28 190.91L328.11 189.09"
fill="none" stroke="black" stroke-width="0.5"/>
<path d="M328.11 189.09L333.06 187.64"
fill="none" stroke="black" stroke-width="0.5"/>
<path d="M333.06 187.64L338.11 186.58"
fill="none" stroke="black" stroke-width="0.5"/>
<path d="M338.11 186.58L343.23 185.9"
fill="none" stroke="black" stroke-width="0.5"/>
<path d="M343.23 185.9L348.38 185.6"
fill="none" stroke="black" stroke-width="0.5"/>
<path d="M348.38 185.6L353.54 185.7"
fill="none" stroke="black" stroke-width="0.5"/>
<path d="M353.54 185.7L358.68 186.19"
fill="none" stroke="black" stroke-width="0.5"/>
<path d="M358.68 186.19L363.77 187.06"
fill="none" stroke="black" stroke-width="0.5"/>
<path d="M363.77 187.06L368.77 188.32"
fill="none" stroke="black" stroke-width="0.5"/>
<path d="M368.77 188.32L373.67 189.95"
fill="none" stroke="black" stroke-width="0.5"/>
<path d="M373.67 189.95L378.43 191.95"
fill="none" stroke="black" stroke-width="0.5"/>
<path d="M378.43 191.95L383.02 194.3"
fill="none" stroke="black" stroke-width="0.5"/>
<path d="M383.02 194.3L387.43 196.99"
fill="none" stroke="black" stroke-width="0.5"/>
<path d="M387.43 196.99L391.61 200.01"
fill="none" stroke="black" stroke-width="0.5"/>
<path d="M391.61 200.01L395.56 203.34"
fill="none" stroke="black" stroke-width="0.5"/>
<path d="M395.56 203.34L399.24 206.95"
fill="none" stroke="black" stroke-width="0.5"/>
<path d="M399.24 206.95L402.64 210.84"
fill="none" stroke="black" stroke-width="0.5"/>
<path d="M402.64 210.84L405.74 214.97"
fill="none" stroke="black" stroke-width="0.5"/>
<path d="M405.74 214.97L408.52 219.32"
fill="none" stroke="black" stroke-width="0.5"/>
<path d="M408.52 219.32L410.95 223.87"
fill="none" stroke="black" stroke-width="0.5"/>
<path d="M410.95 223.87L413.04 228.59"
fill="none" stroke="black" stroke-width="0.5"/>
<path d="M413.04 228.59L414.77 233.45"
fill="none" stroke="black" stroke-width="0.5"/>
<path d="M414.77 233.45L416.12 238.43"
fill="none" stroke="black" stroke-width="0.5"/>
<path d="M416.12 238.43L417.09 243.5"
fill="none" stroke="black" stroke-width="0.5"/>
<path d="M417.09 243.5L417.67 248.63"
fill="none" stroke="black" stroke-width="0.5"/>
<path d="M417.67 248.63L417.87 253.79"
fill="none" stroke="black" stroke-width="0.5"/>
<path d="M287.17 226.51L213.28 226.51"
fill="none" stroke="black" stroke-width="0.5"/>
<path d="M213.28 226.51L213.28 281.06Z"
fill="none" stroke="black" stroke-width="0.5"/>
<path d="M213.28 281.06L287.17 281.06"
fill="none" stroke="black" stroke-width="0.5"/>
<path d="M412.18 281.06L486.06 281.06"
fill="none" stroke="black" stroke-width="0.5"/>
<path d="M486.06 281.06L486.06 226.51Z"
fill="none" stroke="black" stroke-width="0.5"/>
<path d="M486.06 226.51L412.18 226.51"
fill="none" stroke="black" stroke-width="0.5"/>
</svg>
