<?xml version="1.0" encoding="UTF-8"?>
<svg xmlns="http://www.w3.org/2000/svg" width="800.000" height="600.000" viewBox="0.0 0.0 800.000 600.000" version="1.1">
  <desc>Produce by Acme CAD Converter</desc>
<path d="M353.48 304.61L353.48 259.46Z"
fill="none" stroke="black" stroke-width="0.5"/>
<path d="M353.48 304.61L376.05 304.61"
fill="none" stroke="black" stroke-width="0.5"/>
<path d="M398.63 214.31L398.43 218.53"
fill="none" stroke="black" stroke-width="0.5"/>
<path d="M398.43 218.53L397.84 222.73"
fill="none" stroke="black" stroke-width="0.5"/>
<path d="M397.84 222.73L396.85 226.84"
fill="none" stroke="black" stroke-width="0.5"/>
<path d="M396.85 226.84L395.49 230.85"
fill="none" stroke="black" stroke-width="0.5"/>
<path d="M395.49 230.85L393.76 234.71"
fill="none" stroke="black" stroke-width="0.5"/>
<path d="M393.76 234.71L391.67 238.39"
fill="none" stroke="black" stroke-width="0.5"/>
<path d="M391.67 238.39L389.24 241.86"
fill="none" stroke="black" stroke-width="0.5"/>
<path d="M389.24 241.86L386.51 245.09"
fill="none" stroke="black" stroke-width="0.5"/>
<path d="M386.51 245.09L383.48 248.05"
fill="none" stroke="black" stroke-width="0.5"/>
<path d="M383.48 248.05L380.19 250.71"
fill="none" stroke="black" stroke-width="0.5"/>
<path d="M380.19 250.71L376.66 253.05"
fill="none" stroke="black" stroke-width="0.5"/>
<path d="M376.66 253.05L372.93 255.05"
fill="none" stroke="black" stroke-width="0.5"/>
<path d="M372.93 255.05L369.03 256.7"
fill="none" stroke="black" stroke-width="0.5"/>
<path d="M369.03 256.7L364.99 257.97"
fill="none" stroke="black" stroke-width="0.5"/>
<path d="M364.99 257.97L360.85 258.85"
fill="none" stroke="black" stroke-width="0.5"/>
<path d="M360.85 258.85L356.65 259.35"
fill="none" stroke="black" stroke-width="0.5"/>
<path d="M356.65 259.35L352.42 259.45"
fill="none" stroke="black" stroke-width="0.5"/>
<path d="M352.42 259.45L348.19 259.15"
fill="none" stroke="black" stroke-width="0.5"/>
<path d="M348.19 259.15L344.02 258.46"
fill="none" stroke="black" stroke-width="0.5"/>
<path d="M344.02 258.46L339.93 257.38"
fill="none" stroke="black" stroke-width="0.5"/>
<path d="M339.93 257.38L335.95 255.92"
fill="none" stroke="black" stroke-width="0.5"/>
<path d="M335.95 255.92L332.13 254.1"
fill="none" stroke="black" stroke-width="0.5"/>
<path d="M332.13 254.1L328.5 251.92"
fill="none" stroke="black" stroke-width="0.5"/>
<path d="M328.5 251.92L325.09 249.42"
fill="none" stroke="black" stroke-width="0.5"/>
<path d="M325.09 249.42L321.92 246.61"
fill="none" stroke="black" stroke-width="0.5"/>
<path d="M321.92 246.61L319.04 243.51"
fill="none" stroke="black" stroke-width="0.5"/>
<path d="M319.04 243.51L316.45 240.16"
fill="none" stroke="black" stroke-width="0.5"/>
<path d="M316.45 240.16L314.2 236.58"
fill="none" stroke="black" stroke-width="0.5"/>
<path d="M314.2 236.58L312.28 232.8"
fill="none" stroke="black" stroke-width="0.5"/>
<path d="M312.28 232.8L310.73 228.86"
fill="none" stroke="black" stroke-width="0.5"/>
<path d="M310.73 228.86L309.56 224.8"
fill="none" stroke="black" stroke-width="0.5"/>
<path d="M309.56 224.8L308.77 220.64"
fill="none" stroke="black" stroke-width="0.5"/>
<path d="M308.77 220.64L308.37 216.42"
fill="none" stroke="black" stroke-width="0.5"/>
<path d="M308.37 216.42L308.37 212.19Z"
fill="none" stroke="black" stroke-width="0.5"/>
<path d="M308.37 212.19L308.77 207.98"
fill="none" stroke="black" stroke-width="0.5"/>
<path d="M308.77 207.98L309.56 203.82"
fill="none" stroke="black" stroke-width="0.5"/>
<path d="M309.56 203.82L310.73 199.75"
fill="none" stroke="black" stroke-width="0.5"/>
<path d="M310.73 199.75L312.28 195.81"
fill="none" stroke="black" stroke-width="0.5"/>
<path d="M312.28 195.81L314.2 192.04"
fill="none" stroke="black" stroke-width="0.5"/>
<path d="M314.2 192.04L316.45 188.46"
fill="none" stroke="black" stroke-width="0.5"/>
<path d="M316.45 188.46L319.04 185.1"
fill="none" stroke="black" stroke-width="0.5"/>
<path d="M319.04 185.1L321.92 182.01"
fill="none" stroke="black" stroke-width="0.5"/>
<path d="M321.92 182.01L325.09 179.19"
fill="none" stroke="black" stroke-width="0.5"/>
<path d="M325.09 179.19L328.5 176.69"
fill="none" stroke="black" stroke-width="0.5"/>
<path d="M328.5 176.69L332.13 174.52"
fill="none" stroke="black" stroke-width="0.5"/>
<path d="M332.13 174.52L335.95 172.69"
fill="none" stroke="black" stroke-width="0.5"/>
<path d="M335.95 172.69L339.93 171.23"
fill="none" stroke="black" stroke-width="0.5"/>
<path d="M339.93 171.23L344.02 170.15"
fill="none" stroke="black" stroke-width="0.5"/>
<path d="M344.02 170.15L348.19 169.46"
fill="none" stroke="black" stroke-width="0.5"/>
<path d="M348.19 169.46L352.42 169.17"
fill="none" stroke="black" stroke-width="0.5"/>
<path d="M352.42 169.17L356.65 169.26"
fill="none" stroke="black" stroke-width="0.5"/>
<path d="M356.65 169.26L360.85 169.76"
fill="none" stroke="black" stroke-width="0.5"/>
<path d="M360.85 169.76L364.99 170.65"
fill="none" stroke="black" stroke-width="0.5"/>
<path d="M364.99 170.65L369.03 171.92"
fill="none" stroke="black" stroke-width="0.5"/>
<path d="M369.03 171.92L372.93 173.56"
fill="none" stroke="black" stroke-width="0.5"/>
<path d="M372.93 173.56L376.66 175.56"
fill="none" stroke="black" stroke-width="0.5"/>
<path d="M376.66 175.56L380.19 177.9"
fill="none" stroke="black" stroke-width="0.5"/>
<path d="M380.19 177.9L383.48 180.56"
fill="none" stroke="black" stroke-width="0.5"/>
<path d="M383.48 180.56L386.51 183.52"
fill="none" stroke="black" stroke-width="0.5"/>
<path d="M386.51 183.52L389.24 186.75"
fill="none" stroke="black" stroke-width="0.5"/>
<path d="M389.24 186.75L391.67 190.22"
fill="none" stroke="black" stroke-width="0.5"/>
<path d="M391.67 190.22L393.76 193.9"
fill="none" stroke="black" stroke-width="0.5"/>
<path d="M393.76 193.9L395.49 197.76"
fill="none" stroke="black" stroke-width="0.5"/>
<path d="M395.49 197.76L396.85 201.77"
fill="none" stroke="black" stroke-width="0.5"/>
<path d="M396.85 201.77L397.84 205.89"
fill="none" stroke="black" stroke-width="0.5"/>
<path d="M397.84 205.89L398.43 210.08"
fill="none" stroke="black" stroke-width="0.5"/>
<path d="M398.43 210.08L398.63 214.31"
fill="none" stroke="black" stroke-width="0.5"/>
</svg>
