<?xml version="1.0" encoding="UTF-8"?>
<svg xmlns="http://www.w3.org/2000/svg" width="800.000" height="600.000" viewBox="0.0 0.0 800.000 600.000" version="1.1">
  <desc>Produce by Acme CAD Converter</desc>
<path d="M474 283.86L473.8 288.24"
fill="none" stroke="black" stroke-width="3.5"/>
<path d="M473.8 288.24L473.2 292.59"
fill="none" stroke="black" stroke-width="3.5"/>
<path d="M473.2 292.59L472.21 296.86"
fill="none" stroke="black" stroke-width="3.5"/>
<path d="M472.21 296.86L470.84 301.03"
fill="none" stroke="black" stroke-width="3.5"/>
<path d="M470.84 301.03L469.09 305.05"
fill="none" stroke="black" stroke-width="3.5"/>
<path d="M469.09 305.05L466.98 308.9"
fill="none" stroke="black" stroke-width="3.5"/>
<path d="M466.98 308.9L464.54 312.54"
fill="none" stroke="black" stroke-width="3.5"/>
<path d="M464.54 312.54L461.77 315.94"
fill="none" stroke="black" stroke-width="3.5"/>
<path d="M461.77 315.94L458.7 319.08"
fill="none" stroke="black" stroke-width="3.5"/>
<path d="M458.7 319.08L455.36 321.93"
fill="none" stroke="black" stroke-width="3.5"/>
<path d="M455.36 321.93L451.78 324.46"
fill="none" stroke="black" stroke-width="3.5"/>
<path d="M451.78 324.46L447.98 326.65"
fill="none" stroke="black" stroke-width="3.5"/>
<path d="M447.98 326.65L443.99 328.49"
fill="none" stroke="black" stroke-width="3.5"/>
<path d="M443.99 328.49L439.86 329.96"
fill="none" stroke="black" stroke-width="3.5"/>
<path d="M439.86 329.96L435.61 331.05"
fill="none" stroke="black" stroke-width="3.5"/>
<path d="M435.61 331.05L431.28 331.74"
fill="none" stroke="black" stroke-width="3.5"/>
<path d="M431.28 331.74L426.9 332.04"
fill="none" stroke="black" stroke-width="3.5"/>
<path d="M426.9 332.04L422.51 331.94"
fill="none" stroke="black" stroke-width="3.5"/>
<path d="M422.51 331.94L418.16 331.44"
fill="none" stroke="black" stroke-width="3.5"/>
<path d="M418.16 331.44L413.86 330.55"
fill="none" stroke="black" stroke-width="3.5"/>
<path d="M413.86 330.55L409.66 329.27"
fill="none" stroke="black" stroke-width="3.5"/>
<path d="M409.66 329.27L405.6 327.62"
fill="none" stroke="black" stroke-width="3.5"/>
<path d="M405.6 327.62L401.7 325.6"
fill="none" stroke="black" stroke-width="3.5"/>
<path d="M401.7 325.6L398.01 323.23"
fill="none" stroke="black" stroke-width="3.5"/>
<path d="M398.01 323.23L394.54 320.54"
fill="none" stroke="black" stroke-width="3.5"/>
<path d="M394.54 320.54L391.34 317.55"
fill="none" stroke="black" stroke-width="3.5"/>
<path d="M391.34 317.55L388.42 314.27"
fill="none" stroke="black" stroke-width="3.5"/>
<path d="M388.42 314.27L385.81 310.75"
fill="none" stroke="black" stroke-width="3.5"/>
<path d="M385.81 310.75L383.53 307"
fill="none" stroke="black" stroke-width="3.5"/>
<path d="M383.53 307L381.6 303.06"
fill="none" stroke="black" stroke-width="3.5"/>
<path d="M381.6 303.06L380.03 298.96"
fill="none" stroke="black" stroke-width="3.5"/>
<path d="M380.03 298.96L378.85 294.73"
fill="none" stroke="black" stroke-width="3.5"/>
<path d="M378.85 294.73L378.05 290.42"
fill="none" stroke="black" stroke-width="3.5"/>
<path d="M378.05 290.42L377.66 286.05"
fill="none" stroke="black" stroke-width="3.5"/>
<path d="M377.66 286.05L377.66 281.66Z"
fill="none" stroke="black" stroke-width="3.5"/>
<path d="M377.66 281.66L378.05 277.29"
fill="none" stroke="black" stroke-width="3.5"/>
<path d="M378.05 277.29L378.85 272.98"
fill="none" stroke="black" stroke-width="3.5"/>
<path d="M378.85 272.98L380.03 268.75"
fill="none" stroke="black" stroke-width="3.5"/>
<path d="M380.03 268.75L381.6 264.66"
fill="none" stroke="black" stroke-width="3.5"/>
<path d="M381.6 264.66L383.53 260.71"
fill="none" stroke="black" stroke-width="3.5"/>
<path d="M383.53 260.71L385.81 256.97"
fill="none" stroke="black" stroke-width="3.5"/>
<path d="M385.81 256.97L388.42 253.44"
fill="none" stroke="black" stroke-width="3.5"/>
<path d="M388.42 253.44L391.34 250.17"
fill="none" stroke="black" stroke-width="3.5"/>
<path d="M391.34 250.17L394.54 247.17"
fill="none" stroke="black" stroke-width="3.5"/>
<path d="M394.54 247.17L398.01 244.48"
fill="none" stroke="black" stroke-width="3.5"/>
<path d="M398.01 244.48L401.7 242.12"
fill="none" stroke="black" stroke-width="3.5"/>
<path d="M401.7 242.12L405.6 240.1"
fill="none" stroke="black" stroke-width="3.5"/>
<path d="M405.6 240.1L409.66 238.44"
fill="none" stroke="black" stroke-width="3.5"/>
<path d="M409.66 238.44L413.86 237.16"
fill="none" stroke="black" stroke-width="3.5"/>
<path d="M413.86 237.16L418.16 236.27"
fill="none" stroke="black" stroke-width="3.5"/>
<path d="M418.16 236.27L422.51 235.77"
fill="none" stroke="black" stroke-width="3.5"/>
<path d="M422.51 235.77L426.9 235.67"
fill="none" stroke="black" stroke-width="3.5"/>
<path d="M426.9 235.67L431.28 235.97"
fill="none" stroke="black" stroke-width="3.5"/>
<path d="M431.28 235.97L435.61 236.67"
fill="none" stroke="black" stroke-width="3.5"/>
<path d="M435.61 236.67L439.86 237.75"
fill="none" stroke="black" stroke-width="3.5"/>
<path d="M439.86 237.75L443.99 239.22"
fill="none" stroke="black" stroke-width="3.5"/>
<path d="M443.99 239.22L447.98 241.06"
fill="none" stroke="black" stroke-width="3.5"/>
<path d="M447.98 241.06L451.78 243.26"
fill="none" stroke="black" stroke-width="3.5"/>
<path d="M451.78 243.26L455.36 245.79"
fill="none" stroke="black" stroke-width="3.5"/>
<path d="M455.36 245.79L458.7 248.63"
fill="none" stroke="black" stroke-width="3.5"/>
<path d="M458.7 248.63L461.77 251.77"
fill="none" stroke="black" stroke-width="3.5"/>
<path d="M461.77 251.77L464.54 255.17"
fill="none" stroke="black" stroke-width="3.5"/>
<path d="M464.54 255.17L466.98 258.81"
fill="none" stroke="black" stroke-width="3.5"/>
<path d="M466.98 258.81L469.09 262.66"
fill="none" stroke="black" stroke-width="3.5"/>
<path d="M469.09 262.66L470.84 266.69"
fill="none" stroke="black" stroke-width="3.5"/>
<path d="M470.84 266.69L472.21 270.85"
fill="none" stroke="black" stroke-width="3.5"/>
<path d="M472.21 270.85L473.2 275.13"
fill="none" stroke="black" stroke-width="3.5"/>
<path d="M473.2 275.13L473.8 279.47"
fill="none" stroke="black" stroke-width="3.5"/>
<path d="M473.8 279.47L474 283.86"
fill="none" stroke="black" stroke-width="3.5"/>
<path d="M391.72 249.78L357.64 215.7"
fill="none" stroke="black" stroke-width="3.5"/>
<path d="M459.88 317.94L493.96 352.02"
fill="none" stroke="black" stroke-width="3.5"/>
<path d="M459.88 249.78L493.96 215.7"
fill="none" stroke="black" stroke-width="3.5"/>
<path d="M391.72 317.94L357.64 352.02"
fill="none" stroke="black" stroke-width="3.5"/>
</svg>
